<svg width="792" height="494" viewBox="0 0 792 494" fill="none" xmlns="http://www.w3.org/2000/svg">
<path d="M256 10C299.667 38 413.4 94.2 519 95" stroke="#FFFEFA" stroke-width="0.5"/>
<path d="M519 95C543.573 133.871 607.575 211.889 667 213" stroke="#FFFEFA" stroke-width="0.5"/>
<path d="M604 97C624.422 135.871 677.613 213.889 727 215" stroke="#FFFEFA" stroke-width="0.5"/>
<path d="M689 97C704.939 135.871 746.454 213.889 785 215" stroke="#FFFEFA" stroke-width="0.5"/>
<path d="M357 10C398.01 38 504.824 94.2 604 95" stroke="#FFFEFA" stroke-width="0.5"/>
<path d="M460 8C498.188 36 597.65 92.2 690 93" stroke="#FFFEFA" stroke-width="0.5"/>
<path d="M611.127 107.104H596.775V492.652H611.127V107.104Z" fill="#D7E8F8"/>
<path d="M696.876 117.601H509.047V127.079H696.876V117.601Z" fill="#D7E8F8"/>
<path d="M519.226 96.6113H516.131V117.6H519.226V96.6113Z" fill="#D7E8F8"/>
<path d="M509.305 100.895C509.305 99.8328 513.105 98.9717 517.792 98.9717C522.478 98.9717 526.278 99.8328 526.278 100.895C526.278 101.957 522.478 102.818 517.792 102.818C513.105 102.818 509.305 101.957 509.305 100.895Z" fill="#D7E8F8"/>
<path d="M509.305 97.0491C509.305 95.9871 513.105 95.126 517.792 95.126C522.478 95.126 526.278 95.9871 526.278 97.0491C526.278 98.1112 522.478 98.9723 517.792 98.9723C513.105 98.9723 509.305 98.1112 509.305 97.0491Z" fill="#D7E8F8"/>
<path d="M517.792 95.1256C522.479 95.1256 526.278 94.2646 526.278 93.2025C526.278 92.1403 522.479 91.2793 517.792 91.2793C513.105 91.2793 509.305 92.1403 509.305 93.2025C509.305 94.2646 513.105 95.1256 517.792 95.1256Z" fill="#D7E8F8"/>
<path d="M509.305 89.3528C509.305 88.2908 513.105 87.4297 517.792 87.4297C522.478 87.4297 526.278 88.2908 526.278 89.3528C526.278 90.4149 522.478 91.276 517.792 91.276C513.105 91.276 509.305 90.4149 509.305 89.3528Z" fill="#D7E8F8"/>
<path d="M522.826 88.4883H512.528V101.577H522.826V88.4883Z" fill="#D7E8F8"/>
<path d="M604.397 96.6113H601.302V117.6H604.397V96.6113Z" fill="#D7E8F8"/>
<path d="M594.473 100.895C594.473 99.8328 598.273 98.9717 602.96 98.9717C607.646 98.9717 611.446 99.8328 611.446 100.895C611.446 101.957 607.646 102.818 602.96 102.818C598.273 102.818 594.473 101.957 594.473 100.895Z" fill="#D7E8F8"/>
<path d="M594.473 97.0491C594.473 95.9871 598.273 95.126 602.96 95.126C607.646 95.126 611.446 95.9871 611.446 97.0491C611.446 98.1112 607.646 98.9723 602.96 98.9723C598.273 98.9723 594.473 98.1112 594.473 97.0491Z" fill="#D7E8F8"/>
<path d="M602.963 95.1256C607.65 95.1256 611.449 94.2646 611.449 93.2025C611.449 92.1403 607.65 91.2793 602.963 91.2793C598.276 91.2793 594.476 92.1403 594.476 93.2025C594.476 94.2646 598.276 95.1256 602.963 95.1256Z" fill="#D7E8F8"/>
<path d="M594.473 89.3528C594.473 88.2908 598.273 87.4297 602.96 87.4297C607.646 87.4297 611.446 88.2908 611.446 89.3528C611.446 90.4149 607.646 91.276 602.96 91.276C598.273 91.276 594.473 90.4149 594.473 89.3528Z" fill="#D7E8F8"/>
<path d="M607.997 88.4883H597.699V101.577H607.997V88.4883Z" fill="#D7E8F8"/>
<path d="M689.824 96.6113H686.728V117.6H689.824V96.6113Z" fill="#D7E8F8"/>
<path d="M679.902 100.895C679.902 99.8328 683.703 98.9717 688.389 98.9717C693.075 98.9717 696.875 99.8328 696.875 100.895C696.875 101.957 693.075 102.818 688.389 102.818C683.703 102.818 679.902 101.957 679.902 100.895Z" fill="#D7E8F8"/>
<path d="M679.902 97.0491C679.902 95.9871 683.703 95.126 688.389 95.126C693.075 95.126 696.875 95.9871 696.875 97.0491C696.875 98.1112 693.075 98.9723 688.389 98.9723C683.703 98.9723 679.902 98.1112 679.902 97.0491Z" fill="#D7E8F8"/>
<path d="M679.902 93.2025C679.902 92.1404 683.703 91.2793 688.389 91.2793C693.075 91.2793 696.875 92.1404 696.875 93.2025C696.875 94.2645 693.075 95.1256 688.389 95.1256C683.703 95.1256 679.902 94.2645 679.902 93.2025Z" fill="#D7E8F8"/>
<path d="M679.902 89.3528C679.902 88.2908 683.703 87.4297 688.389 87.4297C693.075 87.4297 696.875 88.2908 696.875 89.3528C696.875 90.4149 693.075 91.276 688.389 91.276C683.703 91.276 679.902 90.4149 679.902 89.3528Z" fill="#D7E8F8"/>
<path d="M693.423 88.4883H683.126V101.577H693.423V88.4883Z" fill="#D7E8F8"/>
<path d="M603.961 169.388L550.746 124.942L552.71 122.608L603.945 165.402L656.005 121.179L657.985 123.497L603.961 169.388Z" fill="#D7E8F8"/>
<path d="M96.7127 409.289H79.3508C79.2583 409.289 79.185 409.216 79.185 409.123V319.577C79.185 319.484 79.2583 319.411 79.3508 319.411H96.7127C96.8052 319.411 96.8785 319.488 96.8785 319.577V409.123C96.8785 409.216 96.8052 409.289 96.7127 409.289ZM79.5165 408.954H96.547V319.74H79.5165V408.954Z" fill="#FFFEFA"/>
<path d="M104.514 468.987H71.4413C71.3935 468.987 71.3489 468.968 71.317 468.929C71.2851 468.894 71.2692 468.846 71.2756 468.798L79.185 409.101C79.1946 409.018 79.2679 408.954 79.3508 408.954H96.7128C96.7957 408.954 96.869 409.018 96.8785 409.101L104.676 468.798C104.683 468.846 104.667 468.894 104.635 468.929C104.603 468.964 104.558 468.987 104.511 468.987H104.514ZM71.6326 468.652H104.323L96.5661 409.289H79.4975L71.6326 468.652Z" fill="#FFFEFA"/>
<path d="M74.6293 492.687H68.2916C68.2437 492.687 68.1991 492.665 68.1672 492.63C68.1353 492.595 68.1194 492.547 68.1258 492.496L71.2723 468.799C71.2819 468.716 71.3552 468.652 71.4381 468.652H84.5505C84.6078 468.652 84.6588 468.681 84.6907 468.726C84.7226 468.774 84.7258 468.831 84.7067 468.882L74.7855 492.579C74.76 492.639 74.6995 492.681 74.6325 492.681L74.6293 492.687ZM68.4828 492.352H74.5178L84.2986 468.987H71.5848L68.4796 492.352H68.4828Z" fill="#FFFEFA"/>
<path d="M107.606 492.687H101.268C101.202 492.687 101.141 492.645 101.115 492.584L91.1943 468.888C91.172 468.837 91.1784 468.776 91.2102 468.732C91.2421 468.684 91.2931 468.658 91.3505 468.658H104.463C104.546 468.658 104.616 468.722 104.629 468.805L107.778 492.502C107.785 492.549 107.769 492.597 107.737 492.635C107.705 492.671 107.66 492.693 107.613 492.693L107.606 492.687ZM101.38 492.352H107.415L104.31 468.987H91.596L101.377 492.352H101.38Z" fill="#FFFEFA"/>
<path d="M137.998 409.289H40.4346C40.3549 409.289 40.2848 409.232 40.2688 409.152C40.2529 409.072 40.2975 408.996 40.374 408.967L79.2902 394.041C79.3093 394.035 79.3285 394.028 79.3508 394.028H96.7128C96.7319 394.028 96.751 394.031 96.7701 394.038L138.055 408.964C138.132 408.993 138.176 409.069 138.163 409.149C138.151 409.229 138.081 409.286 137.998 409.286V409.289ZM41.3368 408.954H137.044L96.6841 394.363H79.3827L41.34 408.954H41.3368Z" fill="#FFFEFA"/>
<path d="M132.211 364.515H46.2209C46.1412 364.515 46.0742 364.461 46.0583 364.384C46.0423 364.307 46.0806 364.228 46.1539 364.196L79.2806 349.27C79.303 349.26 79.3253 349.254 79.3508 349.254H96.7127C96.7351 349.254 96.7574 349.257 96.7765 349.267L132.275 364.193C132.348 364.225 132.39 364.301 132.374 364.381C132.358 364.457 132.291 364.515 132.211 364.515ZM47.0019 364.18H131.382L96.6809 349.589H79.3858L46.9987 364.18H47.0019Z" fill="#FFFEFA"/>
<path d="M123.116 319.743H55.3163C55.2366 319.743 55.1665 319.685 55.1537 319.609C55.1378 319.529 55.1824 319.452 55.2558 319.42L82.2997 308.558C82.3189 308.548 82.3412 308.545 82.3635 308.545H94.4302C94.4493 308.545 94.4716 308.548 94.4907 308.554L123.18 319.417C123.256 319.446 123.301 319.526 123.285 319.602C123.269 319.682 123.202 319.739 123.119 319.739L123.116 319.743ZM56.1803 319.408H122.201L94.3951 308.88H82.3922L56.1803 319.408Z" fill="#FFFEFA"/>
<path d="M94.4269 308.88H82.3603C82.3092 308.88 82.2582 308.855 82.2264 308.813C82.1945 308.772 82.1849 308.718 82.1977 308.666L87.8692 287.888C87.8883 287.818 87.952 287.767 88.0286 287.764C88.1083 287.764 88.1688 287.812 88.1911 287.882L94.5863 308.66C94.6023 308.711 94.5927 308.765 94.5608 308.81C94.5289 308.851 94.4779 308.877 94.4269 308.877V308.88ZM82.5802 308.545H94.2006L88.0413 288.536L82.5802 308.545Z" fill="#FFFEFA"/>
<path d="M96.7128 334.666H79.3508C79.2806 334.666 79.2201 334.621 79.1946 334.557C79.1691 334.49 79.1882 334.417 79.2424 334.372L87.7767 327.037L79.2424 319.702C79.1882 319.657 79.1691 319.584 79.1946 319.517C79.2201 319.45 79.2806 319.408 79.3508 319.408H96.7128C96.7829 319.408 96.8435 319.453 96.869 319.517C96.8945 319.584 96.8753 319.657 96.8211 319.702L88.2868 327.037L96.8211 334.372C96.8753 334.417 96.8945 334.49 96.869 334.557C96.8435 334.624 96.7829 334.666 96.7128 334.666ZM79.8003 334.331H96.2601L88.0286 327.257L79.7971 334.331H79.8003ZM79.8003 319.74L88.0318 326.814L96.2632 319.74H79.8035H79.8003Z" fill="#FFFEFA"/>
<path d="M96.7128 349.592H79.3508C79.2806 349.592 79.2201 349.547 79.1946 349.483C79.1691 349.416 79.1882 349.343 79.2424 349.298L87.7767 341.963L79.2424 334.627C79.1882 334.583 79.1691 334.509 79.1946 334.442C79.2201 334.375 79.2806 334.334 79.3508 334.334H96.7128C96.7829 334.334 96.8435 334.379 96.869 334.442C96.8945 334.509 96.8753 334.583 96.8211 334.627L88.2868 341.963L96.8211 349.298C96.8753 349.343 96.8945 349.416 96.869 349.483C96.8435 349.55 96.7829 349.592 96.7128 349.592ZM79.8003 349.257H96.2601L88.0286 342.183L79.7971 349.257H79.8003ZM79.8003 334.666L88.0318 341.74L96.2632 334.666H79.8035H79.8003Z" fill="#FFFEFA"/>
<path d="M96.7128 364.515H79.3508C79.2806 364.515 79.2201 364.47 79.1946 364.406C79.1691 364.339 79.1882 364.266 79.2424 364.221L87.7767 356.886L79.2424 349.55C79.1882 349.506 79.1691 349.432 79.1946 349.365C79.2201 349.298 79.2806 349.257 79.3508 349.257H96.7128C96.7829 349.257 96.8435 349.301 96.869 349.365C96.8945 349.432 96.8753 349.506 96.8211 349.55L88.2868 356.886L96.8211 364.221C96.8753 364.266 96.8945 364.339 96.869 364.406C96.8435 364.473 96.7829 364.515 96.7128 364.515ZM79.8003 364.18H96.2601L88.0286 357.106L79.7971 364.18H79.8003ZM79.8003 349.588L88.0318 356.662L96.2632 349.588H79.8035H79.8003Z" fill="#FFFEFA"/>
<path d="M96.7128 379.44H79.3508C79.2806 379.44 79.2201 379.396 79.1946 379.332C79.1691 379.265 79.1882 379.192 79.2424 379.147L87.7767 371.811L79.2424 364.476C79.1882 364.431 79.1691 364.358 79.1946 364.291C79.2201 364.224 79.2806 364.183 79.3508 364.183H96.7128C96.7829 364.183 96.8435 364.227 96.869 364.291C96.8945 364.358 96.8753 364.431 96.8211 364.476L88.2868 371.811L96.8211 379.147C96.8753 379.192 96.8945 379.265 96.869 379.332C96.8435 379.399 96.7829 379.44 96.7128 379.44ZM79.8003 379.105H96.2601L88.0286 372.032L79.7971 379.105H79.8003ZM79.8003 364.514L88.0318 371.588L96.2632 364.514H79.8035H79.8003Z" fill="#FFFEFA"/>
<path d="M96.7128 394.367H79.3508C79.2806 394.367 79.2201 394.322 79.1946 394.259C79.1691 394.192 79.1882 394.118 79.2424 394.074L87.7767 386.738L79.2424 379.403C79.1882 379.358 79.1691 379.285 79.1946 379.218C79.2201 379.151 79.2806 379.109 79.3508 379.109H96.7128C96.7829 379.109 96.8435 379.154 96.869 379.218C96.8945 379.285 96.8753 379.358 96.8211 379.403L88.2868 386.738L96.8211 394.074C96.8753 394.118 96.8945 394.192 96.869 394.259C96.8435 394.326 96.7829 394.367 96.7128 394.367ZM79.8003 394.032H96.2601L88.0286 386.958L79.7971 394.032H79.8003ZM79.8003 379.441L88.0318 386.515L96.2632 379.441H79.8035H79.8003Z" fill="#FFFEFA"/>
<path d="M98.7085 424.216H77.3296C77.2595 424.216 77.1957 424.171 77.1702 424.104C77.1479 424.037 77.1702 423.961 77.2276 423.919L87.7544 415.815L79.252 409.258C79.1946 409.213 79.1723 409.14 79.1946 409.073C79.2169 409.006 79.2807 408.958 79.354 408.958H96.716C96.7861 408.958 96.8499 409.003 96.8754 409.073C96.8977 409.14 96.8754 409.216 96.818 409.258L88.3028 415.815L98.8137 423.919C98.8711 423.964 98.8934 424.037 98.8711 424.104C98.8487 424.171 98.785 424.216 98.7117 424.216H98.7085ZM77.8206 423.881H98.2175L88.0254 416.022L77.8206 423.881ZM79.8418 409.29L88.0254 415.601L96.2218 409.29H79.8418Z" fill="#FFFEFA"/>
<path d="M100.653 439.138H75.3052C75.2318 439.138 75.1649 439.09 75.1458 439.017C75.1266 438.946 75.1553 438.87 75.2159 438.828L87.6906 430.874L77.2403 424.186C77.1765 424.145 77.1478 424.068 77.1702 423.998C77.1925 423.928 77.2562 423.877 77.3296 423.877H98.7084C98.7817 423.877 98.8487 423.925 98.8678 423.998C98.8901 424.068 98.8615 424.145 98.7977 424.186L88.3123 430.874L100.746 438.828C100.809 438.87 100.838 438.946 100.816 439.017C100.793 439.087 100.73 439.138 100.656 439.138H100.653ZM75.879 438.803H100.082L87.9999 431.072L75.879 438.803ZM77.9002 424.212L87.9999 430.673L98.1346 424.212H77.9002Z" fill="#FFFEFA"/>
<path d="M102.693 454.064H73.284C73.2075 454.064 73.1405 454.013 73.1214 453.94C73.1023 453.866 73.1373 453.787 73.2043 453.752L87.6365 445.883L75.2287 439.122C75.1617 439.087 75.1267 439.007 75.1458 438.934C75.1649 438.861 75.2319 438.81 75.3084 438.81H100.656C100.733 438.81 100.8 438.861 100.819 438.934C100.838 439.007 100.803 439.087 100.736 439.122L88.3346 445.883L102.776 453.752C102.843 453.787 102.878 453.866 102.859 453.94C102.84 454.013 102.773 454.064 102.697 454.064H102.693ZM73.9375 453.729H102.037L87.984 446.072L73.9407 453.729H73.9375ZM75.9587 439.138L87.9808 445.689L99.9932 439.138H75.9587Z" fill="#FFFEFA"/>
<path d="M104.597 468.987H71.4413C71.3648 468.987 71.2947 468.933 71.2787 468.856C71.2628 468.779 71.2979 468.703 71.3712 468.668L87.6174 460.908L73.2139 454.042C73.1437 454.01 73.1055 453.93 73.1214 453.853C73.1374 453.777 73.2075 453.723 73.284 453.723H102.694C102.77 453.723 102.84 453.777 102.856 453.853C102.872 453.93 102.837 454.007 102.764 454.042L88.3889 460.905L104.664 468.665C104.734 468.697 104.772 468.776 104.756 468.853C104.74 468.929 104.67 468.984 104.594 468.984L104.597 468.987ZM72.1778 468.652H103.857L88.0031 461.096L72.1778 468.652ZM74.0236 454.061L88.0031 460.723L101.957 454.061H74.0236Z" fill="#FFFEFA"/>
<path d="M68.0716 364.514C68.0302 364.514 67.9887 364.499 67.96 364.47L60.7232 357.887L60.9496 357.638L68.0525 364.097L79.2201 349.317L79.4879 349.518L68.2087 364.444C68.18 364.483 68.1385 364.505 68.0907 364.511C68.0843 364.511 68.0812 364.511 68.0748 364.511L68.0716 364.514Z" fill="#FFFEFA"/>
<path d="M110.479 364.515C110.434 364.515 110.389 364.496 110.354 364.461L96.5884 349.538L96.8339 349.312L110.491 364.12L117.744 358.184L117.955 358.443L110.577 364.48C110.546 364.505 110.511 364.518 110.472 364.518L110.479 364.515Z" fill="#FFFEFA"/>
<path d="M96.6088 394.073L79.2397 408.992L79.4578 409.246L96.8269 394.327L96.6088 394.073Z" fill="#FFFEFA"/>
<path d="M125.147 409.391L112.503 400.11L96.7956 409.267C96.7351 409.302 96.6554 409.295 96.6012 409.248L79.2392 394.322L79.456 394.066L96.7287 408.913L112.426 399.759C112.484 399.727 112.557 399.731 112.608 399.769L125.341 409.114L125.144 409.385L125.147 409.391Z" fill="#FFFEFA"/>
<path d="M57.7902 409.362L57.532 409.149L65.6806 399.284C65.7124 399.246 65.7571 399.224 65.8081 399.224C65.8591 399.224 65.9037 399.243 65.9356 399.281L74.3998 409.012L74.1479 409.232L65.8145 399.648L57.7934 409.359L57.7902 409.362Z" fill="#FFFEFA"/>
<path d="M79.3508 319.743C79.3253 319.743 79.2966 319.736 79.2743 319.724L68.7634 314.292L68.9164 313.996L79.2456 319.334L82.2009 308.669C82.2168 308.615 82.2551 308.574 82.3093 308.555C82.3603 308.535 82.4208 308.545 82.4623 308.58L96.7383 319.386L109.232 314.19L109.36 314.5L96.7765 319.733C96.7223 319.755 96.6586 319.749 96.6107 319.711L82.4527 308.995L79.507 319.622C79.4942 319.669 79.4592 319.711 79.4145 319.73C79.3922 319.74 79.3699 319.743 79.3476 319.743H79.3508Z" fill="#FFFEFA"/>
<path d="M79.4464 319.711L79.252 319.44L94.3281 308.577C94.3727 308.545 94.4333 308.536 94.4875 308.558C94.5417 308.577 94.58 308.625 94.5895 308.679L96.8753 319.542L96.547 319.612L94.3122 308.998L79.4432 319.711H79.4464Z" fill="#FFFEFA"/>
<path d="M94.3026 308.823L88.2773 302.039L82.4878 308.819L82.2328 308.603L88.0509 301.787L85.0701 298.432C85.0255 298.384 85.0159 298.311 85.0414 298.253C85.0669 298.193 85.1275 298.154 85.1945 298.154H91.2262C91.29 298.154 91.3505 298.193 91.3792 298.25C91.4079 298.311 91.3983 298.378 91.3537 298.429L88.4909 301.781L94.5481 308.596L94.2994 308.819L94.3026 308.823ZM85.5706 298.489L88.2741 301.532L90.8691 298.489H85.5706Z" fill="#FFFEFA"/>
<path d="M129.402 342.598H98.2389C98.0732 342.598 97.9393 342.464 97.9393 342.298V181.585C97.9393 181.419 98.0732 181.285 98.2389 181.285H129.402C129.568 181.285 129.702 181.419 129.702 181.585V342.298C129.702 342.464 129.568 342.598 129.402 342.598ZM98.5386 341.998H129.102V181.885H98.5386V341.998Z" fill="#FFFEFA"/>
<path d="M143.397 449.74H84.0396C83.9535 449.74 83.8706 449.701 83.8132 449.638C83.7558 449.574 83.7303 449.488 83.7399 449.402L97.9361 342.26C97.9553 342.11 98.0828 341.998 98.2326 341.998H129.396C129.545 341.998 129.673 342.11 129.692 342.26L143.691 449.402C143.703 449.488 143.675 449.574 143.617 449.638C143.56 449.701 143.477 449.74 143.391 449.74H143.397ZM84.3839 449.14H143.056L129.137 342.598H98.5004L84.3839 449.14Z" fill="#FFFEFA"/>
<path d="M89.7684 492.272H78.3936C78.3075 492.272 78.2246 492.234 78.1672 492.17C78.1098 492.106 78.0843 492.017 78.0939 491.934L83.7431 449.401C83.7622 449.251 83.8897 449.14 84.0395 449.14H107.57C107.669 449.14 107.765 449.191 107.819 449.274C107.873 449.357 107.886 449.462 107.844 449.554L90.0394 492.087C89.9916 492.199 89.8832 492.272 89.7621 492.272H89.7684ZM78.7347 491.672H89.5676L107.121 449.742H84.3042L78.7347 491.672Z" fill="#FFFEFA"/>
<path d="M148.954 492.272H137.579C137.458 492.272 137.35 492.199 137.302 492.087L119.497 449.554C119.458 449.462 119.468 449.357 119.522 449.274C119.576 449.191 119.672 449.14 119.771 449.14H143.302C143.451 449.14 143.579 449.251 143.598 449.401L149.247 491.934C149.26 492.02 149.231 492.106 149.174 492.17C149.117 492.234 149.034 492.272 148.948 492.272H148.954ZM137.777 491.672H148.61L143.04 449.742H120.224L137.777 491.672Z" fill="#FFFEFA"/>
<path d="M203.498 342.598H28.3958C28.2524 342.598 28.128 342.496 28.1025 342.352C28.077 342.209 28.1535 342.068 28.2906 342.017L98.1338 315.23C98.1688 315.217 98.2039 315.211 98.2422 315.211H129.405C129.44 315.211 129.475 315.217 129.507 315.23L203.603 342.017C203.74 342.068 203.823 342.209 203.798 342.352C203.772 342.496 203.648 342.601 203.501 342.601L203.498 342.598ZM30.0185 341.998H201.786L129.351 315.814H98.2964L30.0185 341.998Z" fill="#FFFEFA"/>
<path d="M193.111 262.239H38.7856C38.6453 262.239 38.521 262.14 38.4923 262.003C38.4636 261.866 38.5337 261.726 38.6612 261.665L98.1178 234.878C98.1561 234.862 98.1975 234.853 98.2422 234.853H129.405C129.443 234.853 129.485 234.859 129.52 234.875L193.229 261.662C193.36 261.716 193.436 261.856 193.408 261.997C193.379 262.137 193.258 262.236 193.114 262.236L193.111 262.239ZM40.1819 261.64H191.626L129.344 235.455H98.3059L40.1819 261.64Z" fill="#FFFEFA"/>
<path d="M176.785 181.881H55.1051C54.9616 181.881 54.8373 181.779 54.8118 181.639C54.7863 181.498 54.8596 181.358 54.9935 181.304L103.528 161.807C103.563 161.795 103.601 161.785 103.64 161.785H125.296C125.331 161.785 125.369 161.792 125.401 161.804L176.891 181.301C177.028 181.352 177.104 181.492 177.079 181.635C177.053 181.779 176.929 181.881 176.782 181.881H176.785ZM56.6577 181.281H175.147L125.242 162.385H103.7L56.6577 181.281Z" fill="#FFFEFA"/>
<path d="M125.296 162.385H103.639C103.547 162.385 103.458 162.341 103.4 162.267C103.343 162.194 103.324 162.095 103.349 162.006L113.529 124.716C113.564 124.589 113.679 124.496 113.812 124.496C113.956 124.496 114.064 124.579 114.103 124.707L125.579 161.996C125.608 162.089 125.592 162.187 125.535 162.264C125.477 162.341 125.388 162.385 125.292 162.385H125.296ZM104.035 161.786H124.891L113.838 125.871L104.035 161.786Z" fill="#FFFEFA"/>
<path d="M129.402 208.669H98.239C98.1147 208.669 98.0031 208.592 97.9585 208.474C97.9138 208.356 97.9489 208.225 98.0445 208.142L113.36 194.977L98.0445 181.811C97.9489 181.728 97.9138 181.598 97.9585 181.48C98.0031 181.362 98.1147 181.285 98.239 181.285H129.402C129.526 181.285 129.638 181.362 129.682 181.48C129.727 181.598 129.692 181.728 129.596 181.811L114.281 194.977L129.596 208.142C129.692 208.225 129.727 208.356 129.682 208.474C129.638 208.592 129.526 208.669 129.402 208.669ZM99.0488 208.069H128.592L113.822 195.372L99.0488 208.069ZM99.0488 181.885L113.822 194.581L128.592 181.885H99.0488Z" fill="#FFFEFA"/>
<path d="M129.402 235.456H98.239C98.1147 235.456 98.0031 235.376 97.9585 235.261C97.9138 235.143 97.9489 235.012 98.0445 234.93L113.36 221.764L98.0445 208.599C97.9489 208.516 97.9138 208.385 97.9585 208.267C98.0031 208.149 98.1147 208.072 98.239 208.072H129.402C129.526 208.072 129.638 208.149 129.682 208.267C129.727 208.385 129.692 208.516 129.596 208.599L114.281 221.764L129.596 234.93C129.692 235.012 129.727 235.143 129.682 235.261C129.638 235.379 129.526 235.456 129.402 235.456ZM99.0488 234.856H128.592L113.822 222.159L99.0488 234.856ZM99.0488 208.672L113.822 221.369L128.592 208.672H99.0488Z" fill="#FFFEFA"/>
<path d="M129.402 262.24H98.239C98.1147 262.24 98.0031 262.16 97.9585 262.045C97.9138 261.927 97.9489 261.793 98.0445 261.714L113.36 248.548L98.0445 235.383C97.9489 235.3 97.9138 235.169 97.9585 235.051C98.0031 234.933 98.1147 234.856 98.239 234.856H129.402C129.526 234.856 129.638 234.936 129.682 235.051C129.727 235.169 129.692 235.3 129.596 235.383L114.281 248.548L129.596 261.714C129.692 261.797 129.727 261.927 129.682 262.045C129.638 262.163 129.526 262.24 129.402 262.24ZM99.0488 261.64H128.592L113.822 248.944L99.0488 261.64ZM99.0488 235.456L113.822 248.153L128.592 235.456H99.0488Z" fill="#FFFEFA"/>
<path d="M129.402 289.027H98.239C98.1147 289.027 98.0031 288.947 97.9585 288.832C97.9138 288.714 97.9489 288.584 98.0445 288.501L113.36 275.335L98.0445 262.17C97.9489 262.087 97.9138 261.956 97.9585 261.838C98.0031 261.72 98.1147 261.644 98.239 261.644H129.402C129.526 261.644 129.638 261.723 129.682 261.838C129.727 261.956 129.692 262.087 129.596 262.17L114.281 275.335L129.596 288.501C129.692 288.584 129.727 288.714 129.682 288.832C129.638 288.95 129.526 289.027 129.402 289.027ZM99.0488 288.427H128.592L113.822 275.731L99.0488 288.427ZM99.0488 262.243L113.822 274.94L128.592 262.243H99.0488Z" fill="#FFFEFA"/>
<path d="M129.402 315.81H98.239C98.1147 315.81 98.0031 315.731 97.9585 315.616C97.9138 315.498 97.9489 315.364 98.0445 315.284L113.36 302.118L98.0445 288.953C97.9489 288.87 97.9138 288.739 97.9585 288.621C98.0031 288.503 98.1147 288.427 98.239 288.427H129.402C129.526 288.427 129.638 288.506 129.682 288.621C129.727 288.739 129.692 288.873 129.596 288.953L114.281 302.118L129.596 315.284C129.692 315.367 129.727 315.498 129.682 315.616C129.638 315.734 129.526 315.81 129.402 315.81ZM99.0488 315.211H128.592L113.822 302.514L99.0488 315.211ZM99.0488 289.026L113.822 301.723L128.592 289.026H99.0488Z" fill="#FFFEFA"/>
<path d="M132.979 369.382H94.611C94.4835 369.382 94.3687 369.299 94.3272 369.178C94.2858 369.056 94.3273 368.923 94.4293 368.843L113.318 354.299L98.0572 342.534C97.9552 342.454 97.9138 342.32 97.9552 342.199C97.9967 342.078 98.1114 341.995 98.2389 341.995H129.402C129.529 341.995 129.644 342.078 129.686 342.199C129.727 342.32 129.686 342.454 129.584 342.534L114.3 354.299L133.164 368.843C133.266 368.923 133.307 369.056 133.266 369.178C133.224 369.299 133.11 369.382 132.982 369.382H132.979ZM95.4909 368.782H132.099L113.809 354.679L95.4909 368.782ZM99.1188 342.598L113.809 353.923L128.519 342.598H99.1188Z" fill="#FFFEFA"/>
<path d="M136.473 396.168H90.9831C90.8492 396.168 90.7312 396.079 90.6962 395.951C90.6579 395.824 90.7089 395.687 90.8237 395.613L113.21 381.335L94.4517 369.333C94.3401 369.263 94.2891 369.123 94.3241 368.995C94.3624 368.868 94.4803 368.778 94.6111 368.778H132.979C133.113 368.778 133.231 368.868 133.266 368.995C133.304 369.123 133.253 369.26 133.138 369.333L114.319 381.338L136.632 395.613C136.744 395.683 136.795 395.824 136.76 395.951C136.722 396.079 136.607 396.168 136.473 396.168ZM92.0096 395.569H135.446L113.761 381.695L92.0064 395.569H92.0096ZM95.6344 369.384L113.761 380.984L131.949 369.384H95.6344Z" fill="#FFFEFA"/>
<path d="M140.136 422.952H87.3519C87.2148 422.952 87.0936 422.86 87.0618 422.726C87.0267 422.592 87.0873 422.455 87.2084 422.388L113.108 408.265L90.8364 396.13C90.7152 396.063 90.6547 395.926 90.6897 395.792C90.7248 395.658 90.8428 395.565 90.9798 395.565H136.47C136.607 395.565 136.728 395.658 136.76 395.792C136.795 395.926 136.734 396.063 136.613 396.13L114.358 408.265L140.276 422.388C140.397 422.455 140.458 422.592 140.423 422.726C140.388 422.86 140.27 422.952 140.133 422.952H140.136ZM88.5283 422.353H138.956L113.733 408.607L88.5283 422.353ZM92.1594 396.168L113.736 407.927L135.297 396.168H92.1594Z" fill="#FFFEFA"/>
<path d="M143.547 449.739H84.0427C83.9024 449.739 83.7813 449.644 83.7494 449.506C83.7175 449.369 83.7877 449.229 83.912 449.168L113.07 435.244L87.2212 422.923C87.0936 422.863 87.0267 422.722 87.0586 422.585C87.0905 422.448 87.2116 422.353 87.3519 422.353H140.136C140.276 422.353 140.397 422.448 140.429 422.585C140.461 422.722 140.391 422.863 140.267 422.923L114.466 435.244L143.678 449.168C143.805 449.229 143.872 449.369 143.84 449.506C143.809 449.644 143.687 449.739 143.547 449.739ZM85.3658 449.14H142.218L113.765 435.579L85.3626 449.14H85.3658ZM88.6781 422.955L113.768 434.915L138.813 422.955H88.6813H88.6781Z" fill="#FFFEFA"/>
<path d="M77.995 262.239C77.9217 262.239 77.8484 262.21 77.7942 262.159L64.803 250.346L65.2079 249.903L77.9567 261.496L98.003 234.974L98.4812 235.334L78.2373 262.121C78.1863 262.188 78.1098 262.23 78.0269 262.239C78.0173 262.239 78.0078 262.239 77.9982 262.239H77.995Z" fill="#FFFEFA"/>
<path d="M154.106 262.239C154.026 262.239 153.943 262.207 153.886 262.144L129.182 235.356L129.622 234.948L154.135 261.525L167.154 250.869L167.534 251.335L154.297 262.169C154.243 262.214 154.176 262.236 154.106 262.236V262.239Z" fill="#FFFEFA"/>
<path d="M129.212 315.321L98.0231 342.074L98.4132 342.529L129.602 315.777L129.212 315.321Z" fill="#FFFEFA"/>
<path d="M180.433 342.776L157.74 326.122L129.552 342.556C129.44 342.62 129.303 342.607 129.204 342.524L98.0413 315.737L98.4335 315.281L129.434 341.928L157.606 325.5C157.708 325.439 157.839 325.446 157.935 325.516L180.786 342.288L180.433 342.773V342.776Z" fill="#FFFEFA"/>
<path d="M59.5428 342.725L59.0805 342.343L73.704 324.639C73.7613 324.572 73.8442 324.53 73.9303 324.53C74.0228 324.53 74.1025 324.565 74.1599 324.632L89.3476 342.097L88.8949 342.492L73.9399 325.296L59.5428 342.725Z" fill="#FFFEFA"/>
<path d="M98.239 181.881C98.1911 181.881 98.1433 181.872 98.1019 181.846L79.2352 172.097L79.5093 171.564L98.0477 181.145L103.353 162.002C103.378 161.907 103.451 161.83 103.547 161.798C103.639 161.766 103.745 161.782 103.824 161.843L129.446 181.237L151.868 171.912L152.097 172.467L129.517 181.859C129.418 181.901 129.306 181.885 129.22 181.821L103.812 162.589L98.5259 181.661C98.5004 181.747 98.4398 181.821 98.3569 181.856C98.3187 181.872 98.2772 181.881 98.2358 181.881H98.239Z" fill="#FFFEFA"/>
<path d="M98.4143 181.827L98.0636 181.339L125.12 161.843C125.203 161.782 125.308 161.77 125.404 161.808C125.5 161.846 125.57 161.926 125.589 162.025L129.695 181.521L129.109 181.645L125.098 162.599L98.4143 181.827Z" fill="#FFFEFA"/>
<path d="M125.073 162.286L114.259 150.112L103.872 162.28L103.416 161.891L113.857 149.66L108.508 143.641C108.428 143.552 108.409 143.428 108.457 143.319C108.504 143.211 108.613 143.141 108.731 143.141H119.557C119.675 143.141 119.78 143.208 119.828 143.316C119.876 143.421 119.86 143.549 119.784 143.635L114.648 149.65L125.519 161.884L125.069 162.283L125.073 162.286ZM109.4 143.74L114.249 149.197L118.91 143.74H109.4Z" fill="#FFFEFA"/>
<path d="M353.639 122.891C353.065 120.633 352.739 120.417 352.739 120.417C352.739 120.417 330.27 121.673 328.157 121.699C326.043 121.724 297.211 113.933 297.211 113.933L282.386 129.774C282.386 129.774 322.951 133.802 328.303 133.633C337.147 133.352 353.597 126.173 353.597 126.173C353.597 126.173 354.088 124.668 353.639 122.895V122.891Z" fill="#00A9E5"/>
<path d="M347.001 254.815C347.001 254.815 346.59 263.888 348.41 264.673C350.23 265.458 371.377 263.99 371.377 263.99C371.377 263.99 371.23 261.343 367.554 260.954C363.878 260.568 358.79 258.1 356.01 254.017C352.134 248.318 347.001 254.815 347.001 254.815Z" fill="#2C3A64"/>
<path d="M312.067 175.493C312.067 175.493 341.617 200.941 345.42 209.153C349.223 217.366 360.955 254.378 360.955 254.378C360.955 254.378 357.719 256.326 351.123 256.69C348.206 256.853 346.105 255.653 346.105 255.653C346.105 255.653 328.992 222.07 327.494 218.833C325.995 215.596 287.953 202.969 277.502 183.836L312.064 175.496L312.067 175.493Z" fill="#1D3F77"/>
<path d="M367.879 24.459H350.46V492.118H367.879V24.459Z" fill="#C1DDF8"/>
<path d="M471.94 37.1875H243.996V48.685H471.94V37.1875Z" fill="#C1DDF8"/>
<path d="M256.35 11.7305H252.591V37.1876H256.35V11.7305Z" fill="#C1DDF8"/>
<path d="M254.606 19.2575C260.295 19.2575 264.906 18.2137 264.906 16.9261C264.906 15.6385 260.295 14.5947 254.606 14.5947C248.917 14.5947 244.305 15.6385 244.305 16.9261C244.305 18.2137 248.917 19.2575 254.606 19.2575Z" fill="#C1DDF8"/>
<path d="M244.305 12.2601C244.305 10.9716 248.918 9.92871 254.606 9.92871C260.293 9.92871 264.906 10.9716 264.906 12.2601C264.906 13.5486 260.293 14.5947 254.606 14.5947C248.918 14.5947 244.305 13.5486 244.305 12.2601Z" fill="#C1DDF8"/>
<path d="M244.305 7.59435C244.305 6.30586 248.918 5.25977 254.606 5.25977C260.293 5.25977 264.906 6.30586 264.906 7.59435C264.906 8.88283 260.293 9.92574 254.606 9.92574C248.918 9.92574 244.305 8.88283 244.305 7.59435Z" fill="#C1DDF8"/>
<path d="M254.606 5.25653C260.295 5.25653 264.906 4.21273 264.906 2.92514C264.906 1.63755 260.295 0.59375 254.606 0.59375C248.917 0.59375 244.305 1.63755 244.305 2.92514C244.305 4.21273 248.917 5.25653 254.606 5.25653Z" fill="#C1DDF8"/>
<path d="M260.717 1.87598H248.22V17.7524H260.717V1.87598Z" fill="#C1DDF8"/>
<path d="M359.712 11.7305H355.953V37.1876H359.712V11.7305Z" fill="#C1DDF8"/>
<path d="M357.968 19.2575C363.657 19.2575 368.268 18.2137 368.268 16.9261C368.268 15.6385 363.657 14.5947 357.968 14.5947C352.279 14.5947 347.667 15.6385 347.667 16.9261C347.667 18.2137 352.279 19.2575 357.968 19.2575Z" fill="#C1DDF8"/>
<path d="M347.667 12.2601C347.667 10.9716 352.28 9.92871 357.968 9.92871C363.655 9.92871 368.268 10.9716 368.268 12.2601C368.268 13.5486 363.655 14.5947 357.968 14.5947C352.28 14.5947 347.667 13.5486 347.667 12.2601Z" fill="#C1DDF8"/>
<path d="M347.667 7.59435C347.667 6.30586 352.28 5.25977 357.968 5.25977C363.655 5.25977 368.268 6.30586 368.268 7.59435C368.268 8.88283 363.655 9.92574 357.968 9.92574C352.28 9.92574 347.667 8.88283 347.667 7.59435Z" fill="#C1DDF8"/>
<path d="M357.968 5.25653C363.657 5.25653 368.268 4.21273 368.268 2.92514C368.268 1.63755 363.657 0.59375 357.968 0.59375C352.279 0.59375 347.667 1.63755 347.667 2.92514C347.667 4.21273 352.279 5.25653 357.968 5.25653Z" fill="#C1DDF8"/>
<path d="M364.079 1.87598H351.582V17.7524H364.079V1.87598Z" fill="#C1DDF8"/>
<path d="M463.383 11.7305H459.624V37.1876H463.383V11.7305Z" fill="#C1DDF8"/>
<path d="M451.342 16.9261C451.342 15.6376 455.955 14.5947 461.642 14.5947C467.33 14.5947 471.943 15.6376 471.943 16.9261C471.943 18.2146 467.333 19.2607 461.642 19.2607C455.952 19.2607 451.342 18.2178 451.342 16.9261Z" fill="#C1DDF8"/>
<path d="M451.342 12.2601C451.342 10.9716 455.955 9.92871 461.642 9.92871C467.33 9.92871 471.943 10.9716 471.943 12.2601C471.943 13.5486 467.333 14.5947 461.642 14.5947C455.952 14.5947 451.342 13.5486 451.342 12.2601Z" fill="#C1DDF8"/>
<path d="M451.342 7.59435C451.342 6.30586 455.955 5.25977 461.642 5.25977C467.33 5.25977 471.943 6.30586 471.943 7.59435C471.943 8.88283 467.333 9.92574 461.642 9.92574C455.952 9.92574 451.342 8.88283 451.342 7.59435Z" fill="#C1DDF8"/>
<path d="M451.342 2.92514C451.342 1.63666 455.955 0.59375 461.642 0.59375C467.33 0.59375 471.943 1.63666 471.943 2.92514C471.943 4.21363 467.333 5.25653 461.642 5.25653C455.952 5.25653 451.342 4.21363 451.342 2.92514Z" fill="#C1DDF8"/>
<path d="M467.751 1.87598H455.254V17.7524H467.751V1.87598Z" fill="#C1DDF8"/>
<path d="M359.179 100.008L294.603 46.0922L296.984 43.2601L359.16 95.1726L422.34 41.5283L424.744 44.3413L359.179 100.008Z" fill="#C1DDF8"/>
<path d="M382.595 73.1377H336.006V130.233H382.595V73.1377Z" fill="#0B5A96"/>
<path d="M314.624 169.991C314.461 169.921 314.286 169.873 314.101 169.851L312.896 169.72C312.271 169.653 311.659 169.898 311.251 170.377L309.443 172.517L311.958 176.025L314.859 174.182C315.309 173.891 315.599 173.429 315.656 172.906C315.669 172.839 315.672 172.772 315.672 172.705V171.595C315.672 170.881 315.245 170.259 314.62 169.988L314.624 169.991ZM314.432 173.515L312.172 174.954L310.454 172.558L311.863 170.884C312.099 170.61 312.452 170.466 312.81 170.508L314.018 170.638C314.509 170.689 314.879 171.101 314.879 171.595V172.705C314.879 172.845 314.85 172.979 314.792 173.097C314.722 173.266 314.598 173.41 314.435 173.515H314.432Z" fill="#1D3F77"/>
<path d="M367.879 152.846V157.075C367.879 157.075 323.505 170.961 315.66 172.91C315.287 173.002 314.997 173.069 314.796 173.104H314.793C314.853 172.98 314.879 172.846 314.879 172.709V171.599C314.879 171.108 314.509 170.693 314.018 170.642L312.81 170.511C312.81 170.511 313.463 170.326 314.624 169.991C323.018 167.571 358.079 157.375 367.876 152.846H367.879Z" fill="#FDBD00"/>
<path d="M333.717 261.965C333.717 261.965 331.807 270.844 333.471 271.919C335.138 272.994 356.234 275.032 356.234 275.032C356.234 275.032 356.527 272.394 352.966 271.409C349.405 270.423 344.795 267.151 342.732 262.667C339.853 256.409 333.713 261.968 333.713 261.968L333.717 261.965Z" fill="#2C3A64"/>
<path d="M283.47 107.742C283.47 107.742 293.509 119.036 301.071 117.61C301.071 117.61 299.002 115.199 296.701 113.043C296.012 112.399 296.219 110.88 296.468 109.972C296.608 109.461 296.736 108.98 296.85 108.524C297.596 105.561 297.816 103.851 297.816 103.851L292.722 98.6495L289.263 95.1221C289.116 96.8284 288.938 98.4166 288.373 99.7498C286.225 104.827 283.473 107.739 283.473 107.739L283.47 107.742Z" fill="#FFB27D"/>
<path d="M288.37 99.7527C288.37 99.7527 290.273 106.278 296.85 108.526C297.596 105.564 297.816 103.854 297.816 103.854L292.722 98.6523C289.894 98.9968 288.373 99.7527 288.373 99.7527H288.37Z" fill="#FDBD00"/>
<path d="M300.064 103.947C300.064 103.947 287.784 104.505 287.551 96.8792C287.318 89.2536 285.577 84.1889 293.407 83.5096C301.237 82.8303 302.85 85.6943 303.548 88.2202C304.246 90.7462 303.249 103.605 300.061 103.947H300.064Z" fill="#FFB27D"/>
<path d="M309.236 146.977C309.191 146.221 309.153 145.456 309.124 144.677C308.99 140.719 308.509 136.739 307.737 133.02C307.141 130.131 306.367 127.404 305.442 124.974C304.081 121.395 302.48 118.905 300.456 116.627C300.44 116.608 297.153 113.256 297.134 113.247C289.225 114.066 283.47 107.745 283.47 107.745C283.47 107.745 264.562 124.087 269.494 159.24C269.494 159.24 269.969 161.782 270.804 165.44C270.986 166.234 271.187 167.079 271.4 167.966C272.854 173.987 309.838 157.052 309.236 146.98V146.977Z" fill="#AFCDFB"/>
<path d="M280.709 85.544C280.572 85.4323 280.292 85.3717 279.699 85.4419C279.699 85.4419 280.113 85.0624 280.735 84.938C280.709 84.0928 280.885 82.5588 282.22 81.9592C282.22 81.9592 281.541 82.4982 281.599 83.3912C282.919 81.4202 286.174 79.5768 295.926 78.6423C308.78 77.4112 306.067 86.3636 304.6 87.633C303.134 88.9023 298.527 86.9505 295.511 87.7382C292.499 88.526 292.715 93.0995 291.788 93.8968C290.86 94.6941 291.074 93.5364 289.556 93.1441C288.039 92.7518 288.326 95.1279 289.001 96.5854C289.68 98.0429 288.112 100.403 288.112 100.403L285.785 98.6234C283.457 96.8437 280.018 88.1752 280.563 86.1021C280.611 85.9203 280.658 85.7321 280.706 85.5472L280.709 85.544Z" fill="#0B5A96"/>
<path d="M276.539 138.407C276.539 138.407 281.844 156.264 287.857 159.16C293.87 162.056 293.519 146.763 293.519 146.763L276.539 138.407Z" fill="#00A9E5"/>
<path d="M316.218 181.578C306.685 177.349 309.835 157.052 309.233 146.977C309.188 146.221 309.15 145.455 309.121 144.677C308.987 140.719 308.506 136.739 307.734 133.02C307.138 130.131 306.363 127.404 305.439 124.974L292.26 127.117C289.728 127.528 287.905 129.751 287.997 132.303C288.236 138.86 287.64 151.027 280.706 157.234C275.714 161.705 272.628 164.135 270.801 165.44C270.983 166.234 271.184 167.079 271.397 167.966C272.851 173.987 274.474 181.645 277.933 186.03C280.601 189.411 317.235 182.031 316.218 181.581V181.578Z" fill="#0B5A96"/>
<path d="M282.176 109.027C282.176 109.027 285.813 110.389 290.567 116.669C294.603 121.998 296.095 127.111 296.095 127.111L293.908 127.596C293.908 127.596 290.666 116.449 280.853 110.526C280.853 110.526 280.878 110.313 282.173 109.027H282.176Z" fill="#0B5A96"/>
<path d="M339.458 118.209C339.458 118.209 341.728 113.04 342.334 112.332C342.94 111.624 346.14 109.187 346.376 109.308C346.612 109.429 346.705 110.367 346.128 110.915C345.72 111.301 345.241 111.655 345.493 111.694C345.742 111.732 346.877 109.943 347.773 110.533C348.668 111.123 350.788 113.738 349.427 115.789C348.066 117.843 342.882 120.024 342.605 120.337C340.262 122.977 339.455 118.209 339.455 118.209H339.458Z" fill="#FFB27D"/>
<path d="M339.458 118.209C339.458 118.209 315.746 139.176 313.504 139.424C309.924 139.82 289.932 121.628 289.932 121.628C289.932 121.628 287.283 117.09 281.42 119.316C276.326 121.252 274.104 127.369 274.104 127.369C274.104 127.369 272.379 133.4 275.373 137C282.004 144.987 307.323 153.017 314.875 152.054C324.615 150.813 342.656 124.291 342.656 124.291C342.656 124.291 343.749 121.915 342.605 120.336C341.594 118.946 339.455 118.209 339.455 118.209H339.458Z" fill="#AFCDFB"/>
<path d="M345.206 262.966C345.206 262.966 341.693 264.353 335.126 263.629C332.225 263.307 330.35 261.776 330.35 261.776C330.35 261.776 329.327 258.523 327.87 253.883C327.647 253.165 327.411 252.419 327.165 251.641C326.846 250.626 326.518 249.561 326.174 248.47C325.944 247.734 325.708 246.984 325.472 246.225C322.284 236.045 318.618 224.289 318.102 222.394C317.161 218.953 281.736 200.232 274.608 179.642L309.947 172.539C309.947 172.539 335.001 207.079 337.389 215.802C338.661 220.459 340.804 233.583 342.522 244.799C342.637 245.543 342.748 246.27 342.857 246.994C343.022 248.091 343.182 249.162 343.341 250.196C343.453 250.948 343.561 251.679 343.666 252.384C344.581 258.555 345.203 262.959 345.203 262.959L345.206 262.966Z" fill="#0B5A96"/>
<path d="M309.95 172.542C309.95 172.542 296.35 183.252 276.543 185.102C276.543 185.102 278.245 189.576 281.816 191.7C281.816 191.7 303.073 188.492 312.07 175.492L309.95 172.539V172.542Z" fill="#FDBD00"/>
<path d="M356.234 276.023C356.189 276.023 356.148 276.023 356.103 276.014L327.567 272.279C327.022 272.209 326.639 271.708 326.709 271.166C326.779 270.624 327.28 270.241 327.825 270.311L356.141 274.017L367.573 270.349C368.096 270.18 368.657 270.467 368.826 270.99C368.995 271.51 368.708 272.071 368.186 272.237L356.543 275.972C356.444 276.004 356.342 276.02 356.237 276.02L356.234 276.023Z" fill="#19243F"/>
<path d="M342.86 246.997C338.275 248.305 333.631 248.604 330.194 248.604C328.523 248.604 327.133 248.534 326.18 248.474C325.951 247.737 325.715 246.987 325.479 246.228C325.562 246.235 325.657 246.241 325.769 246.247C328.224 246.407 335.531 246.873 342.525 244.803C342.64 245.546 342.751 246.273 342.86 246.997Z" fill="#FFFEFA"/>
<path d="M343.67 252.387C339.123 253.673 334.523 253.966 331.115 253.966C329.849 253.966 328.753 253.928 327.873 253.883C327.65 253.166 327.414 252.419 327.168 251.641C329.987 251.81 336.79 252.113 343.344 250.196C343.456 250.949 343.564 251.679 343.67 252.384V252.387Z" fill="#FFFEFA"/>
<path d="M382.595 73.1377H346.705V130.233H382.595V73.1377Z" fill="#233862"/>
<path d="M731.256 223.933H721.237V494.001H731.256V223.933Z" fill="#D8E6FB"/>
<path d="M791.121 231.28H659.988V237.92H791.121V231.28Z" fill="#D8E6FB"/>
<path d="M667.094 216.581H664.933V231.284H667.094V216.581Z" fill="#D8E6FB"/>
<path d="M666.093 220.925C669.367 220.925 672.02 220.323 672.02 219.579C672.02 218.836 669.367 218.233 666.093 218.233C662.82 218.233 660.167 218.836 660.167 219.579C660.167 220.323 662.82 220.925 666.093 220.925Z" fill="#D8E6FB"/>
<path d="M660.167 216.887C660.167 216.144 662.819 215.541 666.093 215.541C669.367 215.541 672.02 216.144 672.02 216.887C672.02 217.63 669.367 218.233 666.093 218.233C662.819 218.233 660.167 217.63 660.167 216.887Z" fill="#D8E6FB"/>
<path d="M660.167 214.193C660.167 213.449 662.819 212.847 666.093 212.847C669.367 212.847 672.02 213.449 672.02 214.193C672.02 214.936 669.367 215.538 666.093 215.538C662.819 215.538 660.167 214.936 660.167 214.193Z" fill="#D8E6FB"/>
<path d="M660.167 211.497C660.167 210.754 662.819 210.151 666.093 210.151C669.367 210.151 672.02 210.754 672.02 211.497C672.02 212.24 669.367 212.843 666.093 212.843C662.819 212.843 660.167 212.24 660.167 211.497Z" fill="#D8E6FB"/>
<path d="M669.61 210.892H662.421V220.061H669.61V210.892Z" fill="#D8E6FB"/>
<path d="M726.557 216.581H724.396V231.284H726.557V216.581Z" fill="#D8E6FB"/>
<path d="M719.63 219.579C719.63 218.836 722.282 218.233 725.556 218.233C728.83 218.233 731.483 218.836 731.483 219.579C731.483 220.322 728.83 220.925 725.556 220.925C722.282 220.925 719.63 220.322 719.63 219.579Z" fill="#D8E6FB"/>
<path d="M719.63 216.887C719.63 216.144 722.282 215.541 725.556 215.541C728.83 215.541 731.483 216.144 731.483 216.887C731.483 217.63 728.83 218.233 725.556 218.233C722.282 218.233 719.63 217.63 719.63 216.887Z" fill="#D8E6FB"/>
<path d="M719.63 214.193C719.63 213.449 722.282 212.847 725.556 212.847C728.83 212.847 731.483 213.449 731.483 214.193C731.483 214.936 728.83 215.538 725.556 215.538C722.282 215.538 719.63 214.936 719.63 214.193Z" fill="#D8E6FB"/>
<path d="M719.63 211.497C719.63 210.754 722.282 210.151 725.556 210.151C728.83 210.151 731.483 210.754 731.483 211.497C731.483 212.24 728.83 212.843 725.556 212.843C722.282 212.843 719.63 212.24 719.63 211.497Z" fill="#D8E6FB"/>
<path d="M729.073 210.892H721.884V220.061H729.073V210.892Z" fill="#D8E6FB"/>
<path d="M786.199 216.581H784.037V231.284H786.199V216.581Z" fill="#D8E6FB"/>
<path d="M779.271 219.579C779.271 218.836 781.924 218.233 785.198 218.233C788.472 218.233 791.124 218.836 791.124 219.579C791.124 220.322 788.472 220.925 785.198 220.925C781.924 220.925 779.271 220.322 779.271 219.579Z" fill="#D8E6FB"/>
<path d="M779.271 216.887C779.271 216.144 781.924 215.541 785.198 215.541C788.472 215.541 791.124 216.144 791.124 216.887C791.124 217.63 788.472 218.233 785.198 218.233C781.924 218.233 779.271 217.63 779.271 216.887Z" fill="#D8E6FB"/>
<path d="M779.271 214.193C779.271 213.449 781.924 212.847 785.198 212.847C788.472 212.847 791.124 213.449 791.124 214.193C791.124 214.936 788.472 215.538 785.198 215.538C781.924 215.538 779.271 214.936 779.271 214.193Z" fill="#D8E6FB"/>
<path d="M779.271 211.497C779.271 210.754 781.924 210.151 785.198 210.151C788.472 210.151 791.124 210.754 791.124 211.497C791.124 212.24 788.472 212.843 785.198 212.843C781.924 212.843 779.271 212.24 779.271 211.497Z" fill="#D8E6FB"/>
<path d="M788.714 210.892H781.525V220.061H788.714V210.892Z" fill="#D8E6FB"/>
<path d="M726.255 267.563L689.101 236.425L690.472 234.789L726.242 264.769L762.588 233.791L763.972 235.414L726.255 267.563Z" fill="#D8E6FB"/>
<path d="M385.49 302.294H307.198V491.602H385.49V302.294Z" fill="#C1DDF8"/>
<path d="M385.49 302.294H355.714V491.602H385.49V302.294Z" fill="#8EC6F0"/>
<path d="M348.352 308.832H332.501V336.978H348.352V308.832Z" fill="#0B70BC"/>
<path d="M344.339 308.832H328.488V336.978H344.339V308.832Z" fill="#0798CC"/>
<path d="M312.478 372.755L312.379 372.369C312.43 372.356 317.368 370.995 318.139 362.884C318.78 356.152 319.874 352.634 321.793 351.119C322.657 350.439 323.712 350.184 324.93 350.357C326.46 350.577 327.821 351.967 329.396 353.575C332.224 356.464 335.74 360.058 341.96 358.374C351.502 355.791 355.484 345.563 355.522 345.461L355.895 345.601C355.857 345.706 351.802 356.123 342.066 358.757C335.623 360.502 332.014 356.815 329.113 353.852C327.589 352.292 326.272 350.947 324.873 350.749C323.75 350.586 322.823 350.809 322.038 351.428C320.234 352.847 319.153 356.391 318.535 362.916C318.117 367.295 316.504 369.732 315.222 371.004C313.823 372.395 312.529 372.736 312.474 372.749L312.478 372.755Z" fill="#EBF3FA"/>
<path d="M355.714 378.735H332.301V336.978H332.699V378.337H355.714V378.735Z" fill="#EBF3FA"/>
<path d="M355.714 374.2H336.216V336.978H336.611V373.801H355.714V374.2Z" fill="#EBF3FA"/>
<path d="M355.714 368.976H341.619V336.978H342.018V368.577H355.714V368.976Z" fill="#EBF3FA"/>
<path d="M355.713 444.853H320.926V402.036H355.713V402.435H321.324V444.454H355.713V444.853Z" fill="#EBF3FA"/>
<path d="M355.713 440.072H326.416V405.621H355.713V406.02H326.814V439.677H355.713V440.072Z" fill="#EBF3FA"/>
<path d="M355.714 433.771H332.301V410.999H355.714V411.398H332.699V433.372H355.714V433.771Z" fill="#EBF3FA"/>
<path d="M355.713 457.534H317.747V481.065H355.713V457.534Z" fill="#0798CC"/>
<path d="M323.514 457.534H323.116V450.032H355.713V450.431H323.514V457.534Z" fill="#0798CC"/>
<path d="M332.068 457.534H331.669V453.685H355.714V454.08H332.068V457.534Z" fill="#0798CC"/>
<path d="M338.288 311.346C338.288 311.69 338.01 311.967 337.666 311.967C337.322 311.967 337.044 311.69 337.044 311.346C337.044 311.001 337.322 310.724 337.666 310.724C338.01 310.724 338.288 311.001 338.288 311.346Z" fill="#C1DDF8"/>
<path d="M340.599 311.346C340.599 311.69 340.322 311.967 339.977 311.967C339.633 311.967 339.356 311.69 339.356 311.346C339.356 311.001 339.633 310.724 339.977 310.724C340.322 310.724 340.599 311.001 340.599 311.346Z" fill="#FDBD00"/>
<path d="M342.687 311.346C342.687 311.69 342.41 311.967 342.066 311.967C341.721 311.967 341.444 311.69 341.444 311.346C341.444 311.001 341.721 310.724 342.066 310.724C342.41 310.724 342.687 311.001 342.687 311.346Z" fill="#FFFEFA"/>
<path d="M343.309 312.815H331.073V319.519H343.309V312.815Z" fill="#0B70BC"/>
<path d="M323.881 320.141C323.881 320.141 326.011 315.711 327.742 314.336C329.47 312.962 334.086 313.297 334.261 313.648C334.81 314.735 330.557 316.432 330.069 317.433C329.578 318.432 331.615 318.333 330.05 320.068C328.727 321.535 325.564 322.935 325.564 322.935L323.881 320.138V320.141Z" fill="#FFB27D"/>
<path d="M325.724 319.635C324.605 317.89 324.27 317.801 324.27 317.801C324.27 317.801 305.744 325.197 303.975 325.816C302.206 326.434 275.774 327.987 275.774 327.987L267.797 345.535C267.797 345.535 303.022 337.495 307.469 335.843C314.821 333.113 326.616 322.416 326.616 322.416C326.616 322.416 326.604 321.006 325.724 319.638V319.635Z" fill="#FFA600"/>
<path d="M279.698 483.715C279.698 483.715 280.103 490.225 281.308 491.756H299.891C299.773 491.105 299.247 489.504 296.923 489.099C293.987 488.589 289.071 486.522 287.295 482.637C285.424 478.552 279.695 483.715 279.695 483.715H279.698Z" fill="#163560"/>
<path d="M246.667 481.04C246.667 481.04 245.497 490.911 247.088 491.057C247.298 491.076 254.743 491.064 256.767 491.367C260.073 491.861 265.585 491.43 265.585 491.43C266.277 491.459 266.726 490.71 266.376 490.116C265.99 489.463 265.253 488.764 263.851 488.496C260.924 487.932 256.046 485.782 254.338 481.866C252.54 477.748 246.667 481.043 246.667 481.043V481.04Z" fill="#163560"/>
<path d="M288.437 397.093C288.437 397.093 283.766 413.454 270.373 441.871C265.987 451.177 263.054 458.71 261.093 464.639C260.838 465.405 260.599 466.142 260.382 466.85C260.025 467.991 259.706 469.063 259.423 470.068C259.209 470.836 259.011 471.563 258.833 472.252C257.076 479.093 257.114 482.2 257.114 482.2C257.114 482.2 254.073 483.345 250.442 482.984C248.593 482.796 244.531 481.061 244.531 481.061C244.531 481.061 244.968 476.478 245.851 470.001C245.95 469.289 246.055 468.556 246.16 467.8C246.304 466.789 246.46 465.743 246.623 464.671C246.734 463.95 246.849 463.217 246.97 462.48C248.526 452.829 250.834 441.628 253.914 434.641C260.242 420.301 261.53 381.054 261.53 381.054L288.437 397.09V397.093Z" fill="#233862"/>
<path d="M295.909 388.744C295.763 397.938 295.061 417.227 291.931 439.463C290.42 450.208 289.604 458.819 289.186 465.488C289.138 466.273 289.093 467.029 289.058 467.759C288.995 468.933 288.947 470.039 288.909 471.076C288.88 471.86 288.858 472.604 288.842 473.312C288.666 480.491 289.036 483.785 289.036 483.785C289.036 483.785 288.768 483.948 288.217 484.155H288.214C287.27 484.509 285.501 484.988 282.832 484.988C281.634 484.988 280.604 484.828 279.775 484.624C278.334 484.273 277.511 483.792 277.511 483.792C277.511 483.792 276.807 479.646 276.007 473.637C275.908 472.916 275.812 472.173 275.713 471.401C275.583 470.381 275.455 469.322 275.324 468.228C275.242 467.494 275.152 466.754 275.069 465.998C274.011 456.446 273.192 445.102 274.075 437.438C274.215 436.217 274.282 434.858 274.285 433.385C274.291 426.483 272.886 417.189 271.193 408.527C271.193 408.527 271.19 408.501 271.177 408.457C269.433 399.543 267.396 391.311 266.293 387.047C265.795 385.117 265.489 384.001 265.489 384.001L266.417 383.969H266.42L273.743 383.733L293.716 383.086L294.947 383.048L295.941 383.016C295.941 383.016 295.973 385.079 295.913 388.747L295.909 388.744Z" fill="#0B5A96"/>
<path d="M275.238 323.71L280.186 327.378L287.337 325.872C287.238 325.219 286.766 322.514 286.336 320.065C286.31 319.921 286.285 319.774 286.259 319.634C285.889 317.548 285.574 315.759 285.574 315.759L278.895 312.426L276.405 311.186C276.411 311.23 276.6 313.498 276.625 313.829C277.094 319.714 275.238 323.713 275.238 323.713V323.71Z" fill="#FFB27D"/>
<path d="M286.836 321.861C286.68 321.794 277.11 318.968 276.067 319.312C275.028 319.657 274.413 321.669 274.413 321.669L289.189 325.882C289.189 325.882 288.835 322.706 286.836 321.861Z" fill="#FFA600"/>
<path d="M261.064 386.138C262.684 393.544 296.509 370.303 296.059 365.781C296.008 365.283 295.96 364.786 295.909 364.288C295.285 357.992 294.685 351.837 294.644 347.815C294.612 344.329 294.13 340.764 293.49 337.527C292.903 334.535 292.179 331.824 291.551 329.71C291.108 328.22 290.283 326.909 289.189 325.879C288.411 325.146 287.499 324.559 286.492 324.16C286.218 324.045 285.937 323.95 285.654 323.867C281.579 322.684 275.943 321.22 274.416 321.666C270.275 322.888 267.201 330.178 265.024 339.475C260.95 356.879 260.009 381.313 261.064 386.138Z" fill="#FDBD00"/>
<path d="M277.122 313.932C278.589 316.742 284.056 319.169 286.333 320.065C286.307 319.922 286.282 319.775 286.256 319.635C285.886 317.549 285.571 315.76 285.571 315.76L278.892 312.427C277.416 312.404 276.517 312.778 277.122 313.932Z" fill="#FCA56B"/>
<path d="M288.819 315.367C288.819 315.367 276.769 319.13 274.543 311.581C272.318 304.035 269.264 299.436 276.864 296.716C284.464 293.995 286.814 296.432 288.169 298.77C289.524 301.107 291.896 314.193 288.819 315.367Z" fill="#FFB27D"/>
<path d="M287.697 298.042C287.697 298.042 286.929 306.826 285.115 306.443C283.301 306.06 281.656 305.78 281.92 308.427C282.185 311.074 282.271 314.257 276.679 314.726C271.087 315.195 265.48 300.632 267.016 297.899C271.448 290.012 294.105 288.42 287.7 298.042H287.697Z" fill="#163560"/>
<path d="M295.036 383.013C291.685 384.225 295.093 379.68 295.036 378.733C294.774 374.567 296.407 369.302 295.906 364.291L275.449 352.051C275.449 352.051 270.593 382.818 295.036 383.013Z" fill="#FFA600"/>
<path d="M261.064 386.138C269.8 402.339 271.189 408.527 271.189 408.527C278.79 407.659 291.816 392.701 295.948 388.708C295.948 388.708 296.509 370.303 296.059 365.783L289.747 365.602C289.747 365.602 278.334 368.497 275.375 364.568C272.417 360.639 273.698 341.353 273.698 341.353L265.024 339.475C260.95 356.879 258.721 381.79 261.064 386.138Z" fill="#0B5A96"/>
<path d="M312.886 355.093C312.886 355.093 317.043 352.277 317.83 352.031C318.618 351.786 321.203 351.521 321.324 351.725C321.445 351.929 321.799 352.554 321.347 352.765C320.894 352.975 320.333 352.902 320.502 353.049C320.671 353.195 322.37 352.385 322.762 353.253C323.154 354.12 323.498 357.093 321.506 357.992C319.513 358.895 314.591 358.078 314.234 358.184C311.225 359.061 312.886 355.09 312.886 355.09V355.093Z" fill="#FFB27D"/>
<path d="M312.924 354.331C312.924 354.331 292.632 357.785 290.834 356.908C287.965 355.511 291.947 334.905 291.947 334.905C291.947 334.905 292.119 330.236 286.667 329.132C281.93 328.176 277.362 331.725 277.362 331.725C277.362 331.725 273.204 335.447 273.737 339.574C274.913 348.724 276.743 367.334 282.858 370.189C290.745 373.869 313.565 359.986 313.565 359.986C313.565 359.986 314.323 359.055 314.215 357.326C314.119 355.801 312.918 354.331 312.918 354.331H312.924Z" fill="#FDBD00"/>
<path d="M272.012 340.99L273.692 341.354C273.692 341.354 277.247 325.955 289.186 325.882C288.408 325.149 287.496 324.562 286.489 324.163C282.112 325.337 274.515 329.081 272.009 340.99H272.012Z" fill="#0B5A96"/>
<path d="M330.468 319.519L332.498 316.898C332.498 316.898 331.991 316.25 330.955 317.022C330.353 317.472 328.733 318.515 328.733 318.515L330.464 319.519H330.468Z" fill="#FFB27D"/>
<g opacity="0.5">
<path d="M261.093 464.639C260.838 465.405 260.599 466.142 260.382 466.85C255.897 466.853 251.641 466.014 248.491 465.194C247.815 465.019 247.187 464.84 246.626 464.674C246.737 463.954 246.852 463.22 246.973 462.483C250.161 463.443 255.514 464.77 261.096 464.643L261.093 464.639Z" fill="#FFFEFA"/>
</g>
<g opacity="0.5">
<path d="M259.422 470.068C259.209 470.837 259.011 471.564 258.833 472.253C254.755 472.138 250.92 471.369 248.028 470.617C247.225 470.406 246.495 470.196 245.851 470.004C245.95 469.293 246.055 468.56 246.16 467.804C249.081 468.697 254.079 470.001 259.419 470.068H259.422Z" fill="#FFFEFA"/>
</g>
<path d="M289.183 465.488C289.135 466.273 289.09 467.029 289.055 467.759C284.917 468.534 280.881 468.563 277.817 468.407C276.887 468.359 276.048 468.295 275.318 468.228C275.235 467.494 275.146 466.754 275.063 465.999C278.104 466.298 283.616 466.627 289.183 465.488Z" fill="#FFFEFA"/>
<path d="M288.905 471.073C288.877 471.858 288.854 472.601 288.838 473.309C285.013 473.934 281.321 473.953 278.471 473.807C277.553 473.759 276.724 473.698 276.003 473.634C275.905 472.913 275.809 472.17 275.71 471.399C278.579 471.676 283.658 471.992 288.905 471.073Z" fill="#FFFEFA"/>
<path d="M585.127 488.876L598.74 488.707L630.537 356.159L616.924 356.328L585.127 488.876Z" fill="#0B70BC"/>
<path d="M562.632 491.827H623.686C623.686 488.251 620.791 485.355 617.218 485.355H569.098C565.524 485.355 562.629 488.251 562.629 491.827H562.632Z" fill="#0B70BC"/>
<path d="M703.674 430.457L697.808 401.042L697.795 400.982L678.281 303.102L488.594 303.127L513.986 430.483L550.017 430.477H550.355L590.677 430.473H590.802L630.948 430.467H631.223L671.28 430.461H671.644L703.674 430.457Z" fill="#1D3F77"/>
<path d="M706.922 427.938L517.235 427.963L491.846 303.127L681.53 303.102L706.922 427.938Z" fill="#0B5A96"/>
<path d="M553.629 427.959H553.266L527.943 303.458H528.304L553.629 427.959Z" fill="#D7E8F8"/>
<path d="M594.05 427.954H593.687L568.365 303.452H568.728L594.05 427.954Z" fill="#D7E8F8"/>
<path d="M634.471 427.947H634.108L608.785 303.445H609.149L634.471 427.947Z" fill="#D7E8F8"/>
<path d="M674.892 427.944H674.529L649.206 303.442H649.57L674.892 427.944Z" fill="#D7E8F8"/>
<path d="M687.555 332.727L497.871 332.756L497.801 332.414L687.485 332.386L687.555 332.727Z" fill="#D7E8F8"/>
<path d="M694.307 365.917L504.62 365.943L504.553 365.602L694.237 365.576L694.307 365.917Z" fill="#D7E8F8"/>
<path d="M701.056 399.106L511.372 399.135L511.302 398.793L700.986 398.765L701.056 399.106Z" fill="#D7E8F8"/>
<path d="M534.795 336.248L530.143 332.58L533.299 328.909L537.951 332.577L534.795 336.248Z" fill="#D7E8F8"/>
<path d="M541.579 369.608L536.927 365.94L540.087 362.27L544.738 365.937L541.579 369.608Z" fill="#D7E8F8"/>
<path d="M575.397 336.242L570.746 332.574L573.902 328.903L578.553 332.574L575.397 336.242Z" fill="#D7E8F8"/>
<path d="M582.181 369.602L577.53 365.935L580.689 362.264L585.341 365.935L582.181 369.602Z" fill="#D7E8F8"/>
<path d="M615.818 336.238L611.167 332.567L614.323 328.896L618.974 332.567L615.818 336.238Z" fill="#D7E8F8"/>
<path d="M655.876 336.232L651.224 332.561L654.384 328.894L659.035 332.561L655.876 336.232Z" fill="#D7E8F8"/>
<path d="M548.296 402.628L543.645 398.96L546.801 395.289L551.452 398.957L548.296 402.628Z" fill="#D7E8F8"/>
<path d="M588.899 402.621L584.247 398.953L587.407 395.282L592.055 398.953L588.899 402.621Z" fill="#D7E8F8"/>
<path d="M629.319 402.618L624.668 398.947L627.827 395.276L632.479 398.947L629.319 402.618Z" fill="#D7E8F8"/>
<path d="M669.377 402.611L664.726 398.94L667.885 395.272L672.536 398.94L669.377 402.611Z" fill="#D7E8F8"/>
<path d="M662.66 369.593L658.008 365.922L661.168 362.254L665.819 365.922L662.66 369.593Z" fill="#D7E8F8"/>
<path d="M622.602 369.599L617.951 365.928L621.11 362.257L625.762 365.928L622.602 369.599Z" fill="#D7E8F8"/>
<path d="M643.591 339.546L641.349 340.109L644.332 351.997L646.574 351.434L643.591 339.546Z" fill="#C1DDF8"/>
<path d="M643.267 335.645C643.267 335.645 643.267 335.645 643.267 335.655C643.379 336.573 643.114 337.559 642.247 337.884C641.09 338.318 640.305 337.565 640.012 336.398C640.012 336.392 639.939 336.101 639.935 336.095C639.837 335.687 638.893 336.022 638.756 336.417C638.51 337.128 638.504 337.935 638.804 338.713C639.352 340.136 640.838 341.013 642.349 340.806C644.354 340.531 645.62 338.595 645.142 336.688C645.008 336.156 644.753 335.684 644.415 335.301C644.086 334.928 643.2 335.151 643.267 335.645Z" fill="#C1DDF8"/>
<path d="M644.405 356.054V356.044C644.294 355.126 644.558 354.14 645.422 353.815C646.579 353.381 647.364 354.134 647.657 355.301C647.657 355.307 647.73 355.598 647.733 355.604C647.832 356.012 648.776 355.677 648.913 355.282C649.158 354.571 649.165 353.764 648.865 352.986C648.317 351.563 646.831 350.686 645.32 350.893C643.315 351.168 642.049 353.104 642.527 355.011C642.661 355.543 642.916 356.016 643.254 356.398C643.583 356.771 644.469 356.548 644.402 356.054H644.405Z" fill="#C1DDF8"/>
<path d="M639.068 309.668C639.068 309.668 636.798 304.951 634.956 303.487C633.113 302.023 628.194 302.38 628.006 302.753C627.422 303.914 631.953 305.72 632.475 306.785C632.998 307.85 630.827 307.742 632.495 309.591C633.904 311.154 637.273 312.644 637.273 312.644L639.068 309.665V309.668Z" fill="#FFB27D"/>
<path d="M637.108 309.129C638.303 307.27 638.657 307.174 638.657 307.174C638.657 307.174 658.4 315.051 660.285 315.708C662.169 316.365 690.338 318.024 690.338 318.024L698.837 336.716C698.837 336.716 661.298 328.153 656.558 326.393C648.722 323.484 636.154 312.089 636.154 312.089C636.154 312.089 636.167 310.586 637.104 309.129H637.108Z" fill="#00A9E5"/>
<path d="M634.152 308.296C634.13 308.274 634.879 307.282 633.916 306.144C633.209 305.305 633.053 306.903 631.844 306.501C630.84 306.169 628.146 305.767 629.89 307.174C631.494 308.469 633.078 310.207 633.671 310.612C634.264 311.017 634.152 308.3 634.152 308.3V308.296Z" fill="#FFB27D"/>
<path d="M686.155 483.907C686.155 483.907 685.725 490.84 684.437 492.47H664.633C664.757 491.778 665.318 490.072 667.796 489.638C670.926 489.093 676.164 486.895 678.058 482.755C680.054 478.402 686.155 483.904 686.155 483.904V483.907Z" fill="#163560"/>
<path d="M721.3 482.94C721.3 482.94 722.607 491.571 720.911 491.727C720.685 491.746 712.753 491.733 710.598 492.055C707.075 492.582 701.2 492.122 701.2 492.122C700.463 492.154 699.982 491.357 700.358 490.722C700.769 490.027 701.554 489.284 703.049 488.997C706.167 488.397 711.366 486.104 713.187 481.936C715.103 477.55 721.303 482.94 721.303 482.94H721.3Z" fill="#163560"/>
<path d="M721.297 482.941C721.297 482.941 719.464 483.642 716.556 483.888C714.602 484.054 713.062 483.808 712.208 483.611C711.73 483.499 711.468 483.403 711.468 483.403C711.468 483.403 711.133 479.19 708.42 470.308C708.216 469.638 707.996 468.936 707.764 468.209C707.458 467.259 707.129 466.261 706.769 465.218C706.533 464.535 706.291 463.837 706.033 463.116C703.779 456.769 700.588 448.872 696.092 439.34C694.607 436.182 693.217 433.168 691.929 430.298C680.838 405.622 676.843 391.634 676.843 391.634L677.328 391.344L697.001 379.623L700.307 377.655H700.31L705.516 374.552C705.516 374.552 705.589 376.778 705.787 380.388C705.787 380.439 705.79 380.487 705.794 380.541C706.45 392.658 708.468 419.926 713.63 431.631C716.773 438.746 718.651 450.378 719.76 460.762C719.837 461.493 719.913 462.223 719.983 462.937C720.092 464.022 720.191 465.087 720.28 466.127C720.347 466.863 720.407 467.591 720.462 468.299C721.134 476.69 721.297 482.938 721.297 482.938V482.941Z" fill="#FFA600"/>
<path d="M701.305 377.69C701.305 377.69 700.976 378.88 700.447 380.937C699.268 385.491 697.087 394.297 695.225 403.82C693.424 413.05 691.919 422.953 691.932 430.301C691.935 431.864 692.005 433.312 692.155 434.613C693.061 442.449 692.047 453.985 690.727 463.974C690.628 464.714 690.526 465.444 690.427 466.168C690.274 467.265 690.118 468.34 689.962 469.38C689.85 470.123 689.742 470.85 689.63 471.555C688.463 479.018 687.389 484.353 687.389 484.353C687.389 484.353 686.924 484.459 686.104 484.589C684.934 484.787 683.044 485.039 680.768 485.141C679.445 485.199 677.994 484.73 677.092 484.373C676.553 484.156 676.212 483.983 676.212 483.983C676.212 483.983 676.671 479.927 676.368 471.038C676.355 470.69 676.343 470.336 676.327 469.976L676.282 468.866C676.241 467.887 676.19 466.86 676.123 465.782C676.084 465.077 676.037 464.353 675.992 463.604C675.53 456.632 674.672 447.75 673.126 436.775C669.788 413.088 669.039 392.543 668.886 382.748C668.825 378.835 668.854 376.641 668.854 376.641L669.912 376.676L671.229 376.717L692.512 377.406L700.313 377.661H700.317L701.311 377.693L701.305 377.69Z" fill="#FDBD00"/>
<path d="M690.912 313.473L685.639 317.38L678.016 315.776C678.122 315.081 678.625 312.201 679.084 309.589C679.113 309.436 679.139 309.283 679.164 309.129C679.556 306.91 679.894 304.999 679.894 304.999L687.013 301.45L689.669 300.126C689.662 300.174 689.461 302.591 689.436 302.942C688.939 309.209 690.912 313.47 690.912 313.47V313.473Z" fill="#FFB27D"/>
<path d="M678.549 311.502C678.715 311.431 688.916 308.421 690.026 308.784C691.135 309.151 691.789 311.294 691.789 311.294L676.04 315.782C676.04 315.782 676.416 312.398 678.549 311.498V311.502Z" fill="#00A9E5"/>
<path d="M706.017 379.971C704.292 387.861 668.242 363.102 668.723 358.286C668.777 357.757 668.828 357.224 668.883 356.695C669.549 349.991 670.187 343.43 670.231 339.147C670.266 335.435 670.776 331.636 671.459 328.186C672.083 324.999 672.855 322.11 673.524 319.858C673.996 318.273 674.876 316.876 676.043 315.779C676.872 314.998 677.844 314.373 678.919 313.945C679.209 313.821 679.508 313.719 679.811 313.633C684.153 312.373 690.16 310.813 691.789 311.289C696.201 312.587 699.478 320.356 701.799 330.259C706.141 348.795 707.145 374.823 706.017 379.964V379.971Z" fill="#C1DDF8"/>
<path d="M688.9 303.057C687.338 306.048 681.514 308.638 679.084 309.589C679.113 309.435 679.139 309.282 679.164 309.129C679.556 306.909 679.894 304.999 679.894 304.999L687.013 301.449C688.585 301.424 689.544 301.823 688.9 303.054V303.057Z" fill="#FCA56B"/>
<path d="M676.435 304.585C676.435 304.585 689.276 308.594 691.648 300.553C694.02 292.513 697.275 287.617 689.174 284.718C681.074 281.819 678.571 284.415 677.127 286.906C675.683 289.397 673.155 303.334 676.435 304.585Z" fill="#FFB27D"/>
<path d="M677.634 286.131C677.634 286.131 678.453 295.485 680.385 295.08C682.32 294.675 684.074 294.372 683.79 297.192C683.506 300.011 680.825 303.267 686.783 303.768C692.742 304.265 701.311 288.89 699.673 285.981C694.948 277.58 670.802 275.887 677.631 286.134L677.634 286.131Z" fill="#CE6719"/>
<path d="M669.81 376.638C673.381 377.929 669.75 373.088 669.81 372.08C670.088 367.644 668.347 362.037 668.883 356.698L690.686 343.66C690.686 343.66 695.86 376.434 669.81 376.641V376.638Z" fill="#00A9E5"/>
<path d="M706.017 379.97C696.708 397.228 695.228 403.817 695.228 403.817C687.128 402.892 673.247 386.961 668.844 382.707C668.844 382.707 668.245 363.102 668.726 358.286L675.456 358.091C675.456 358.091 687.619 361.176 690.772 356.991C693.925 352.807 692.56 332.264 692.56 332.264L701.802 330.265C706.144 348.801 708.519 375.339 706.02 379.97H706.017Z" fill="#FDBD00"/>
<path d="M650.787 346.9C650.787 346.9 646.356 343.902 645.518 343.641C644.676 343.379 641.922 343.095 641.794 343.312C641.667 343.529 641.29 344.196 641.769 344.419C642.25 344.645 642.849 344.566 642.671 344.722C642.492 344.878 640.678 344.017 640.261 344.942C639.843 345.867 639.476 349.031 641.6 349.991C643.726 350.951 648.97 350.083 649.35 350.192C652.557 351.123 650.787 346.897 650.787 346.897V346.9Z" fill="#FFB27D"/>
<path d="M650.746 346.09C650.746 346.09 672.37 349.768 674.286 348.836C677.344 347.347 673.1 325.398 673.1 325.398C673.1 325.398 672.919 320.423 678.727 319.249C683.774 318.228 688.645 322.011 688.645 322.011C688.645 322.011 693.073 325.975 692.509 330.373C691.256 340.12 689.305 359.945 682.789 362.984C674.385 366.904 650.064 352.115 650.064 352.115C650.064 352.115 649.254 351.123 649.369 349.28C649.471 347.656 650.752 346.09 650.752 346.09H650.746Z" fill="#C1DDF8"/>
<path d="M694.345 331.875L692.554 332.261C692.554 332.261 688.766 315.862 676.04 315.782C676.869 315.001 677.841 314.376 678.915 313.948C683.579 315.198 691.677 319.185 694.345 331.872V331.875Z" fill="#FDBD00"/>
<path d="M690.724 463.974C690.625 464.714 690.523 465.444 690.424 466.168C686.06 466.784 681.804 466.528 678.635 466.146C677.688 466.031 676.84 465.9 676.116 465.779C676.078 465.074 676.03 464.35 675.986 463.601C679.021 464.133 684.858 464.921 690.721 463.974H690.724Z" fill="#FFFEFA"/>
<path d="M676.276 468.863L676.32 469.973L676.362 471.035C677.089 471.153 677.937 471.281 678.89 471.402C681.801 471.756 685.636 472.002 689.624 471.555C689.736 470.85 689.844 470.123 689.956 469.38C684.469 470.085 679.145 469.361 676.273 468.863H676.276Z" fill="#FFFEFA"/>
<g opacity="0.5">
<path d="M719.987 462.94C715.919 464.318 711.809 464.873 708.698 465.106C708 465.16 707.356 465.192 706.769 465.218C706.533 464.535 706.291 463.837 706.033 463.116C709.131 463.023 714.551 462.628 719.76 460.769C719.837 461.499 719.913 462.229 719.983 462.944L719.987 462.94Z" fill="#FFFEFA"/>
</g>
<g opacity="0.5">
<path d="M720.462 468.302C716.658 469.495 712.874 469.995 709.97 470.212C709.418 470.254 708.899 470.286 708.417 470.308C708.213 469.638 707.993 468.936 707.761 468.209C710.757 468.095 715.555 467.689 720.28 466.13C720.347 466.867 720.407 467.594 720.462 468.302Z" fill="#FFFEFA"/>
</g>
<path d="M50.5756 387.55C50.5756 387.55 52.2653 384.977 53.4544 384.265C54.6436 383.554 57.4841 384.144 57.5638 384.377C57.8156 385.098 55.0325 385.8 54.6435 386.383C54.2546 386.964 55.5298 387.069 54.414 388.019C53.4704 388.82 51.3886 389.429 51.3886 389.429L50.5724 387.554L50.5756 387.55Z" fill="#FFB27D"/>
<path d="M51.7616 387.388C51.2101 386.211 51.0092 386.128 51.0092 386.128C51.0092 386.128 38.8788 389.19 37.7311 389.426C36.5802 389.662 20.0216 388.44 20.0216 388.44L13.6105 398.684C13.6105 398.684 36.1722 396.608 39.0764 395.948C43.8744 394.86 52.09 389.19 52.09 389.19C52.09 389.19 52.1983 388.313 51.7648 387.388H51.7616Z" fill="#00A9E5"/>
<path d="M53.5501 387.133C53.5501 387.133 54.2259 386.511 54.8763 385.921C55.3545 385.487 55.6956 384.888 55.8996 384.722C56.3842 384.333 56.6106 385.388 55.8136 386.575C55.1377 387.583 54.0283 388.329 53.6521 388.52C53.2759 388.712 53.5501 387.133 53.5501 387.133Z" fill="#FFB27D"/>
<path d="M85.1369 490.355L93.1484 490.256L111.862 412.252L103.847 412.351L85.1369 490.355Z" fill="#0B70BC"/>
<path d="M71.9003 492.09H107.829C107.829 489.989 106.124 488.282 104.023 488.282H75.7068C73.6059 488.282 71.9003 489.985 71.9003 492.09Z" fill="#0B70BC"/>
<path d="M154.9 455.974L151.448 438.666L151.441 438.631L139.955 381.028L28.3296 381.044L43.2718 455.99L64.4754 455.987H64.673L88.4046 455.984H88.4748L112.101 455.98H112.264L135.836 455.977H136.05L154.9 455.974Z" fill="#1D3F77"/>
<path d="M156.81 454.494L45.1847 454.51L30.2424 381.044L141.868 381.028L156.81 454.494Z" fill="#0B5A96"/>
<path d="M66.6019 454.507H66.3882L51.4843 381.239H51.6979L66.6019 454.507Z" fill="#D7E8F8"/>
<path d="M90.3877 454.505H90.1741L75.2733 381.236H75.4837L90.3877 454.505Z" fill="#D7E8F8"/>
<path d="M114.177 454.501H113.963L99.0591 381.232H99.2727L114.177 454.501Z" fill="#D7E8F8"/>
<path d="M137.962 454.498H137.749L122.845 381.229H123.059L137.962 454.498Z" fill="#D7E8F8"/>
<path d="M145.413 398.465L33.7875 398.481L33.7461 398.28L145.375 398.264L145.413 398.465Z" fill="#D7E8F8"/>
<path d="M149.388 417.996L37.7598 418.012L37.7184 417.811L149.347 417.795L149.388 417.996Z" fill="#D7E8F8"/>
<path d="M153.361 437.527L41.7321 437.543L41.6907 437.342L153.319 437.326L153.361 437.527Z" fill="#D7E8F8"/>
<path d="M55.5171 400.534L52.7786 398.375L54.6372 396.216L57.3757 398.375L55.5171 400.534Z" fill="#D7E8F8"/>
<path d="M59.5085 420.167L56.7731 418.008L58.6317 415.849L61.3671 418.008L59.5085 420.167Z" fill="#D7E8F8"/>
<path d="M79.4113 400.531L76.6728 398.372L78.5314 396.213L81.2699 398.372L79.4113 400.531Z" fill="#D7E8F8"/>
<path d="M83.4027 420.164L80.6674 418.005L82.526 415.846L85.2613 418.005L83.4027 420.164Z" fill="#D7E8F8"/>
<path d="M103.197 400.527L100.462 398.368L102.32 396.209L105.056 398.368L103.197 400.527Z" fill="#D7E8F8"/>
<path d="M126.773 400.524L124.034 398.365L125.893 396.206L128.631 398.365L126.773 400.524Z" fill="#D7E8F8"/>
<path d="M63.4616 439.6L60.7231 437.437L62.5817 435.278L65.3202 437.437L63.4616 439.6Z" fill="#D7E8F8"/>
<path d="M87.3558 439.594L84.6173 437.435L86.4759 435.275L89.2144 437.435L87.3558 439.594Z" fill="#D7E8F8"/>
<path d="M111.142 439.591L108.406 437.432L110.265 435.272L113 437.432L111.142 439.591Z" fill="#D7E8F8"/>
<path d="M134.717 439.587L131.979 437.428L133.837 435.269L136.576 437.428L134.717 439.587Z" fill="#D7E8F8"/>
<path d="M130.764 420.158L128.029 417.999L129.887 415.84L132.623 417.999L130.764 420.158Z" fill="#D7E8F8"/>
<path d="M107.192 420.161L104.453 418.002L106.312 415.843L109.05 418.002L107.192 420.161Z" fill="#D7E8F8"/>
<path d="M45.0049 409.441L46.3252 409.772L48.082 402.776L46.7617 402.444L45.0049 409.441Z" fill="#C1DDF8"/>
<path d="M46.9253 400.18C46.9253 400.18 46.9253 400.18 46.9253 400.186C46.8584 400.725 47.0146 401.306 47.5247 401.497C48.2069 401.752 48.6692 401.309 48.8414 400.623C48.8414 400.623 48.886 400.448 48.886 400.444C48.9434 400.205 49.5013 400.4 49.581 400.633C49.7244 401.05 49.7308 401.526 49.5523 401.985C49.2303 402.824 48.3568 403.337 47.4673 403.216C46.2877 403.053 45.5418 401.915 45.8223 400.792C45.902 400.479 46.0518 400.202 46.2495 399.976C46.444 399.756 46.9636 399.886 46.9253 400.176V400.18Z" fill="#C1DDF8"/>
<path d="M46.2559 412.191C46.2559 412.191 46.2559 412.191 46.2559 412.184C46.3228 411.645 46.1666 411.065 45.6565 410.873C44.9743 410.618 44.512 411.062 44.3399 411.747C44.3399 411.747 44.2952 411.923 44.2952 411.926C44.2379 412.165 43.68 411.971 43.6003 411.738C43.4568 411.32 43.4504 410.845 43.629 410.385C43.9509 409.547 44.8245 409.033 45.7139 409.154C46.8935 409.317 47.6395 410.456 47.3589 411.578C47.2792 411.891 47.1294 412.168 46.9317 412.395C46.7373 412.615 46.2176 412.484 46.2559 412.194V412.191Z" fill="#C1DDF8"/>
<path d="M21.6858 487.43C21.6858 487.43 21.9376 491.509 22.6964 492.469H34.3518C34.2785 492.061 33.9469 491.059 32.49 490.804C30.6473 490.485 27.5645 489.19 26.4519 486.754C25.2787 484.193 21.6858 487.43 21.6858 487.43Z" fill="#163560"/>
<path d="M1.00508 486.862C1.00508 486.862 0.236765 491.942 1.23462 492.032C1.36851 492.045 6.03578 492.035 7.30461 492.226C9.37682 492.536 12.8358 492.265 12.8358 492.265C13.2694 492.284 13.5531 491.815 13.3332 491.442C13.0909 491.033 12.6286 490.593 11.7487 490.424C9.91241 490.07 6.8551 488.721 5.78393 486.269C4.65537 483.689 1.00827 486.862 1.00827 486.862H1.00508Z" fill="#163560"/>
<path d="M27.1692 433.129C27.1692 433.129 24.2362 443.389 15.8389 461.201C13.1195 466.971 11.2099 471.723 9.87733 475.508C9.71793 475.952 9.57129 476.376 9.43101 476.79C9.20785 477.447 9.00381 478.073 8.81891 478.666C8.67864 479.103 8.55111 479.527 8.42997 479.932C6.97623 484.812 6.79133 487.133 6.79133 487.133C6.79133 487.133 5.28977 487.691 3.74677 487.551C2.28665 487.417 1.00507 486.862 1.00507 486.862C1.00507 486.862 1.08796 483.555 1.43864 478.991C1.47052 478.576 1.5024 478.155 1.53747 477.722C1.58529 477.132 1.63949 476.526 1.69687 475.907C1.73513 475.489 1.77975 475.062 1.8212 474.638C2.46518 468.323 3.58418 461.051 5.5193 456.672C9.4852 447.681 10.295 423.079 10.295 423.079L27.1723 433.132L27.1692 433.129Z" fill="#FFA600"/>
<path d="M29.3562 459.692C28.3456 466.887 27.8323 472.551 27.59 476.838C27.5613 477.284 27.5422 477.715 27.5231 478.133C27.4912 478.802 27.4689 479.431 27.4434 480.021C27.4306 480.467 27.4179 480.891 27.4115 481.293C27.3254 485.525 27.5422 487.471 27.5422 487.471C27.5422 487.471 26.1331 488.003 24.4211 488.003C22.3234 488.003 20.9589 487.688 20.9589 487.688C20.9589 487.688 20.4489 485.155 19.8495 481.462C19.7826 481.044 19.7156 480.617 19.6455 480.18C19.553 479.59 19.4638 478.981 19.3713 478.356C19.3075 477.938 19.247 477.511 19.1832 477.077C18.3193 470.909 17.5796 463.398 18.1567 458.416C19.282 448.654 12.7721 424.919 12.7721 424.919L31.8683 424.297C31.8683 424.297 32.0979 440.183 29.353 459.686L29.3562 459.692Z" fill="#FDBD00"/>
<path d="M18.8867 387.133L21.9886 389.432L26.4742 388.488C26.4136 388.08 26.1171 386.383 25.8461 384.846C25.8302 384.757 25.8142 384.664 25.7983 384.575C25.5688 383.267 25.3679 382.145 25.3679 382.145L21.1789 380.056L19.6167 379.277C19.6199 379.306 19.7379 380.728 19.7538 380.936C20.0471 384.626 18.8835 387.129 18.8835 387.129L18.8867 387.133Z" fill="#FFB27D"/>
<path d="M26.1618 385.972C26.0629 385.93 20.0599 384.157 19.4095 384.374C18.756 384.588 18.3702 385.851 18.3702 385.851L27.6378 388.491C27.6378 388.491 27.4147 386.498 26.1618 385.972Z" fill="#00A9E5"/>
<path d="M9.99849 426.265C11.0155 430.909 32.2286 416.34 31.9448 413.505C31.9129 413.192 31.8811 412.88 31.8524 412.57C31.4602 408.625 31.0841 404.763 31.0586 402.243C31.0394 400.059 30.7366 397.823 30.3349 395.795C29.9682 393.919 29.5124 392.219 29.1202 390.896C28.8429 389.961 28.3232 389.142 27.6378 388.494C27.15 388.035 26.5794 387.668 25.945 387.416C25.7728 387.343 25.5975 387.285 25.4189 387.231C22.8621 386.491 19.3298 385.573 18.3702 385.853C15.7752 386.619 13.8464 391.189 12.4788 397.016C9.92516 407.927 9.33219 423.242 9.9953 426.265H9.99849Z" fill="#C1DDF8"/>
<path d="M20.0726 381.002C20.994 382.763 24.4211 384.287 25.8493 384.846C25.8334 384.756 25.8175 384.664 25.8015 384.574C25.572 383.267 25.3711 382.144 25.3711 382.144L21.1821 380.055C20.2575 380.042 19.6933 380.275 20.0726 380.999V381.002Z" fill="#FCA56B"/>
<path d="M27.4051 381.902C27.4051 381.902 19.8463 384.259 18.4531 379.529C17.0567 374.799 15.1407 371.916 19.9068 370.21C24.6729 368.503 26.1458 370.031 26.997 371.498C27.8482 372.965 29.3338 381.165 27.4051 381.902Z" fill="#FFB27D"/>
<path d="M26.7005 371.042C26.7005 371.042 26.2191 376.547 25.081 376.308C23.9429 376.068 23.1491 375.883 23.0789 377.551C23.0056 379.28 23.3882 381.27 19.8781 381.564C16.3713 381.857 12.7657 372.665 13.7284 370.953C16.5084 366.009 30.7174 365.011 26.7005 371.042Z" fill="#163560"/>
<path d="M31.304 424.303C29.2031 425.063 31.3391 422.215 31.304 421.621C31.1414 419.009 32.1648 415.711 31.8492 412.57L19.0174 404.896C19.0174 404.896 15.9728 424.182 31.3008 424.303H31.304Z" fill="#00A9E5"/>
<path d="M9.99852 426.265C15.4755 436.42 16.3491 440.298 16.3491 440.298C21.1151 439.756 29.286 430.379 31.8779 427.876C31.8779 427.876 32.2286 416.337 31.948 413.505L27.9885 413.39C27.9885 413.39 20.8314 415.205 18.976 412.742C17.1206 410.28 17.9239 398.19 17.9239 398.19L12.4852 397.013C9.93157 407.923 8.53202 423.538 10.0017 426.262L9.99852 426.265Z" fill="#FDBD00"/>
<path d="M42.5004 406.804C42.5004 406.804 45.1082 405.04 45.6023 404.887C46.0965 404.734 47.7192 404.568 47.7925 404.696C47.869 404.823 48.089 405.216 47.8053 405.346C47.5215 405.477 47.1708 405.433 47.276 405.525C47.3812 405.618 48.4492 405.11 48.6947 405.653C48.9402 406.195 49.157 408.057 47.9073 408.625C46.6576 409.19 43.5684 408.679 43.3484 408.743C41.4611 409.292 42.5036 406.804 42.5036 406.804H42.5004Z" fill="#FFB27D"/>
<path d="M42.5227 406.326C42.5227 406.326 29.7961 408.492 28.6707 407.94C26.8695 407.063 29.3689 394.146 29.3689 394.146C29.3689 394.146 29.4773 391.218 26.0597 390.529C23.0885 389.93 20.2225 392.156 20.2225 392.156C20.2225 392.156 17.6147 394.49 17.9494 397.077C18.689 402.811 19.8367 414.478 23.6719 416.267C28.6197 418.573 42.9307 409.872 42.9307 409.872C42.9307 409.872 43.4058 409.289 43.3388 408.204C43.2782 407.248 42.5259 406.329 42.5259 406.329L42.5227 406.326Z" fill="#C1DDF8"/>
<path d="M16.8655 397.963L17.9207 398.193C17.9207 398.193 20.1491 388.542 27.6378 388.494C27.15 388.035 26.5794 387.668 25.945 387.416C23.2001 388.153 18.434 390.497 16.8655 397.966V397.963Z" fill="#FDBD00"/>
<path d="M27.59 476.838C27.5613 477.284 27.5422 477.715 27.523 478.133C24.9535 478.605 22.4222 478.586 20.5285 478.458C20.1109 478.429 19.7251 478.394 19.3744 478.359C19.3107 477.941 19.2501 477.514 19.1863 477.08C21.0768 477.284 24.3382 477.495 27.59 476.838Z" fill="#FFFEFA"/>
<path d="M27.4434 480.018C27.4306 480.464 27.4178 480.888 27.4115 481.29C25.0013 481.689 22.6454 481.663 20.8569 481.542C20.4935 481.517 20.1619 481.491 19.8495 481.462C19.7825 481.045 19.7156 480.617 19.6454 480.18C21.4562 480.368 24.4243 480.547 27.4402 480.018H27.4434Z" fill="#FFFEFA"/>
<g opacity="0.5">
<path d="M9.87736 475.508C9.71796 475.952 9.57131 476.376 9.43104 476.79C6.96351 476.87 4.62032 476.529 2.85415 476.165C2.43333 476.079 2.04758 475.99 1.6969 475.907C1.73516 475.489 1.77978 475.062 1.82123 474.638C3.64478 475.084 6.6989 475.684 9.88054 475.508H9.87736Z" fill="#FFFEFA"/>
</g>
<g opacity="0.5">
<path d="M8.81893 478.666C8.67865 479.103 8.55113 479.527 8.42999 479.932C6.30358 479.913 4.31106 479.613 2.76806 479.294C2.27392 479.192 1.8276 479.087 1.43866 478.991C1.47054 478.576 1.50242 478.155 1.53749 477.722C3.157 478.124 5.88595 478.694 8.81893 478.666Z" fill="#FFFEFA"/>
</g>
</svg>
