<svg width="345" height="526" viewBox="0 0 345 526" fill="none" xmlns="http://www.w3.org/2000/svg">
<g clip-path="url(#clip0_1373_2417)">
<g clip-path="url(#clip1_1373_2417)">
<path d="M-221 41C-177.333 69 -63.6 125.2 42 126" stroke="#C1DDF8" stroke-width="0.5"/>
<path d="M42 126C66.5729 164.871 130.575 242.889 190 244" stroke="#C1DDF8" stroke-width="0.5"/>
<path d="M127 128C147.422 166.871 200.613 244.889 250 246" stroke="#C1DDF8" stroke-width="0.5"/>
<path d="M212 128C227.939 166.871 269.454 244.889 308 246" stroke="#C1DDF8" stroke-width="0.5"/>
<path d="M-120 41C-78.9899 69 27.8243 125.2 127 126" stroke="#C1DDF8" stroke-width="0.5"/>
<path d="M-17 39C21.1876 67 120.65 123.2 213 124" stroke="#C1DDF8" stroke-width="0.5"/>
<path d="M134.128 138.104H119.775V523.651H134.128V138.104Z" fill="#D7E8F8"/>
<path d="M219.876 148.6H32.0474V158.079H219.876V148.6Z" fill="#D7E8F8"/>
<path d="M42.2269 127.611H39.1313V148.6H42.2269V127.611Z" fill="#D7E8F8"/>
<path d="M32.3057 131.894C32.3057 130.832 36.1058 129.971 40.7922 129.971C45.4786 129.971 49.2787 130.832 49.2787 131.894C49.2787 132.956 45.4786 133.818 40.7922 133.818C36.1058 133.818 32.3057 132.956 32.3057 131.894Z" fill="#D7E8F8"/>
<path d="M32.3057 128.048C32.3057 126.986 36.1058 126.125 40.7922 126.125C45.4786 126.125 49.2787 126.986 49.2787 128.048C49.2787 129.11 45.4786 129.971 40.7922 129.971C36.1058 129.971 32.3057 129.11 32.3057 128.048Z" fill="#D7E8F8"/>
<path d="M40.7922 126.125C45.4791 126.125 49.2787 125.264 49.2787 124.202C49.2787 123.14 45.4791 122.279 40.7922 122.279C36.1052 122.279 32.3057 123.14 32.3057 124.202C32.3057 125.264 36.1052 126.125 40.7922 126.125Z" fill="#D7E8F8"/>
<path d="M32.3057 120.352C32.3057 119.29 36.1058 118.429 40.7922 118.429C45.4786 118.429 49.2787 119.29 49.2787 120.352C49.2787 121.414 45.4786 122.275 40.7922 122.275C36.1058 122.275 32.3057 121.414 32.3057 120.352Z" fill="#D7E8F8"/>
<path d="M45.8261 119.488H35.5288V132.577H45.8261V119.488Z" fill="#D7E8F8"/>
<path d="M127.398 127.611H124.302V148.6H127.398V127.611Z" fill="#D7E8F8"/>
<path d="M117.474 131.894C117.474 130.832 121.274 129.971 125.96 129.971C130.647 129.971 134.447 130.832 134.447 131.894C134.447 132.956 130.647 133.818 125.96 133.818C121.274 133.818 117.474 132.956 117.474 131.894Z" fill="#D7E8F8"/>
<path d="M117.474 128.048C117.474 126.986 121.274 126.125 125.96 126.125C130.647 126.125 134.447 126.986 134.447 128.048C134.447 129.11 130.647 129.971 125.96 129.971C121.274 129.971 117.474 129.11 117.474 128.048Z" fill="#D7E8F8"/>
<path d="M125.963 126.125C130.65 126.125 134.45 125.264 134.45 124.202C134.45 123.14 130.65 122.279 125.963 122.279C121.276 122.279 117.477 123.14 117.477 124.202C117.477 125.264 121.276 126.125 125.963 126.125Z" fill="#D7E8F8"/>
<path d="M117.474 120.352C117.474 119.29 121.274 118.429 125.96 118.429C130.647 118.429 134.447 119.29 134.447 120.352C134.447 121.414 130.647 122.275 125.96 122.275C121.274 122.275 117.474 121.414 117.474 120.352Z" fill="#D7E8F8"/>
<path d="M130.997 119.488H120.7V132.577H130.997V119.488Z" fill="#D7E8F8"/>
<path d="M212.824 127.611H209.729V148.6H212.824V127.611Z" fill="#D7E8F8"/>
<path d="M202.903 131.894C202.903 130.832 206.703 129.971 211.389 129.971C216.076 129.971 219.876 130.832 219.876 131.894C219.876 132.956 216.076 133.818 211.389 133.818C206.703 133.818 202.903 132.956 202.903 131.894Z" fill="#D7E8F8"/>
<path d="M202.903 128.048C202.903 126.986 206.703 126.125 211.389 126.125C216.076 126.125 219.876 126.986 219.876 128.048C219.876 129.11 216.076 129.971 211.389 129.971C206.703 129.971 202.903 129.11 202.903 128.048Z" fill="#D7E8F8"/>
<path d="M202.903 124.202C202.903 123.14 206.703 122.279 211.389 122.279C216.076 122.279 219.876 123.14 219.876 124.202C219.876 125.264 216.076 126.125 211.389 126.125C206.703 126.125 202.903 125.264 202.903 124.202Z" fill="#D7E8F8"/>
<path d="M202.903 120.352C202.903 119.29 206.703 118.429 211.389 118.429C216.076 118.429 219.876 119.29 219.876 120.352C219.876 121.414 216.076 122.275 211.389 122.275C206.703 122.275 202.903 121.414 202.903 120.352Z" fill="#D7E8F8"/>
<path d="M216.423 119.488H206.126V132.577H216.423V119.488Z" fill="#D7E8F8"/>
<path d="M126.961 200.388L73.7466 155.942L75.7104 153.607L126.945 196.401L179.005 152.178L180.985 154.497L126.961 200.388Z" fill="#D7E8F8"/>
<path d="M254.255 254.932H244.235V525H254.255V254.932Z" fill="#D8E6FB"/>
<path d="M314.12 262.28H182.987V268.92H314.12V262.28Z" fill="#D8E6FB"/>
<path d="M190.094 247.58H187.932V262.283H190.094V247.58Z" fill="#D8E6FB"/>
<path d="M189.093 251.924C192.366 251.924 195.019 251.322 195.019 250.578C195.019 249.835 192.366 249.232 189.093 249.232C185.819 249.232 183.166 249.835 183.166 250.578C183.166 251.322 185.819 251.924 189.093 251.924Z" fill="#D8E6FB"/>
<path d="M183.166 247.886C183.166 247.143 185.818 246.541 189.093 246.541C192.367 246.541 195.019 247.143 195.019 247.886C195.019 248.63 192.367 249.232 189.093 249.232C185.818 249.232 183.166 248.63 183.166 247.886Z" fill="#D8E6FB"/>
<path d="M183.166 245.192C183.166 244.448 185.818 243.846 189.093 243.846C192.367 243.846 195.019 244.448 195.019 245.192C195.019 245.935 192.367 246.537 189.093 246.537C185.818 246.537 183.166 245.935 183.166 245.192Z" fill="#D8E6FB"/>
<path d="M183.166 242.497C183.166 241.753 185.818 241.151 189.093 241.151C192.367 241.151 195.019 241.753 195.019 242.497C195.019 243.24 192.367 243.842 189.093 243.842C185.818 243.842 183.166 243.24 183.166 242.497Z" fill="#D8E6FB"/>
<path d="M192.609 241.891H185.42V251.06H192.609V241.891Z" fill="#D8E6FB"/>
<path d="M249.557 247.58H247.395V262.283H249.557V247.58Z" fill="#D8E6FB"/>
<path d="M242.629 250.578C242.629 249.835 245.281 249.232 248.555 249.232C251.83 249.232 254.482 249.835 254.482 250.578C254.482 251.321 251.83 251.924 248.555 251.924C245.281 251.924 242.629 251.321 242.629 250.578Z" fill="#D8E6FB"/>
<path d="M242.629 247.886C242.629 247.143 245.281 246.541 248.555 246.541C251.83 246.541 254.482 247.143 254.482 247.886C254.482 248.63 251.83 249.232 248.555 249.232C245.281 249.232 242.629 248.63 242.629 247.886Z" fill="#D8E6FB"/>
<path d="M242.629 245.192C242.629 244.448 245.281 243.846 248.555 243.846C251.83 243.846 254.482 244.448 254.482 245.192C254.482 245.935 251.83 246.537 248.555 246.537C245.281 246.537 242.629 245.935 242.629 245.192Z" fill="#D8E6FB"/>
<path d="M242.629 242.497C242.629 241.753 245.281 241.151 248.555 241.151C251.83 241.151 254.482 241.753 254.482 242.497C254.482 243.24 251.83 243.842 248.555 243.842C245.281 243.842 242.629 243.24 242.629 242.497Z" fill="#D8E6FB"/>
<path d="M252.072 241.891H244.883V251.06H252.072V241.891Z" fill="#D8E6FB"/>
<path d="M309.198 247.58H307.037V262.283H309.198V247.58Z" fill="#D8E6FB"/>
<path d="M302.271 250.578C302.271 249.835 304.923 249.232 308.197 249.232C311.471 249.232 314.124 249.835 314.124 250.578C314.124 251.321 311.471 251.924 308.197 251.924C304.923 251.924 302.271 251.321 302.271 250.578Z" fill="#D8E6FB"/>
<path d="M302.271 247.886C302.271 247.143 304.923 246.541 308.197 246.541C311.471 246.541 314.124 247.143 314.124 247.886C314.124 248.63 311.471 249.232 308.197 249.232C304.923 249.232 302.271 248.63 302.271 247.886Z" fill="#D8E6FB"/>
<path d="M302.271 245.192C302.271 244.448 304.923 243.846 308.197 243.846C311.471 243.846 314.124 244.448 314.124 245.192C314.124 245.935 311.471 246.537 308.197 246.537C304.923 246.537 302.271 245.935 302.271 245.192Z" fill="#D8E6FB"/>
<path d="M302.271 242.497C302.271 241.753 304.923 241.151 308.197 241.151C311.471 241.151 314.124 241.753 314.124 242.497C314.124 243.24 311.471 243.842 308.197 243.842C304.923 243.842 302.271 243.24 302.271 242.497Z" fill="#D8E6FB"/>
<path d="M311.713 241.891H304.524V251.06H311.713V241.891Z" fill="#D8E6FB"/>
<path d="M249.253 298.561L212.1 267.424L213.471 265.788L249.241 295.768L285.587 264.79L286.971 266.413L249.253 298.561Z" fill="#D8E6FB"/>
<path d="M108.127 519.875L121.74 519.706L153.537 387.158L139.924 387.327L108.127 519.875Z" fill="#8EC6F0"/>
<path d="M85.6323 522.825H146.686C146.686 519.25 143.791 516.354 140.218 516.354H92.0976C88.5238 516.354 85.6292 519.25 85.6292 522.825H85.6323Z" fill="#8EC6F0"/>
<path d="M226.674 461.456L220.808 432.041L220.795 431.98L201.281 334.1L11.5938 334.126L36.9863 461.482L73.0174 461.475H73.3553L113.677 461.472H113.802L153.948 461.466H154.223L194.28 461.459H194.644L226.674 461.456Z" fill="#1D3F77"/>
<path d="M229.922 458.937L40.2349 458.962L14.8455 334.126L204.53 334.1L229.922 458.937Z" fill="#0B5A96"/>
<path d="M76.6295 458.959H76.2661L50.9436 334.458H51.3039L76.6295 458.959Z" fill="#D7E8F8"/>
<path d="M117.05 458.953H116.687L91.3645 334.451H91.7279L117.05 458.953Z" fill="#D7E8F8"/>
<path d="M157.471 458.946H157.108L131.785 334.445H132.149L157.471 458.946Z" fill="#D7E8F8"/>
<path d="M197.892 458.943H197.529L172.206 334.442H172.569L197.892 458.943Z" fill="#D7E8F8"/>
<path d="M210.555 363.726L20.8709 363.755L20.8008 363.413L210.485 363.385L210.555 363.726Z" fill="#D7E8F8"/>
<path d="M217.307 396.917L27.6199 396.943L27.553 396.601L217.237 396.576L217.307 396.917Z" fill="#D7E8F8"/>
<path d="M224.056 430.105L34.3721 430.134L34.302 429.793L223.986 429.764L224.056 430.105Z" fill="#D7E8F8"/>
<path d="M57.7944 367.247L53.1431 363.579L56.2992 359.908L60.9505 363.576L57.7944 367.247Z" fill="#D7E8F8"/>
<path d="M64.5786 400.607L59.9272 396.939L63.0865 393.269L67.7379 396.936L64.5786 400.607Z" fill="#D7E8F8"/>
<path d="M98.3969 367.24L93.7456 363.573L96.9018 359.902L101.553 363.573L98.3969 367.24Z" fill="#D7E8F8"/>
<path d="M105.181 400.601L100.53 396.933L103.689 393.262L108.34 396.933L105.181 400.601Z" fill="#D7E8F8"/>
<path d="M138.818 367.237L134.167 363.566L137.323 359.896L141.974 363.566L138.818 367.237Z" fill="#D7E8F8"/>
<path d="M178.875 367.231L174.224 363.56L177.383 359.892L182.035 363.56L178.875 367.231Z" fill="#D7E8F8"/>
<path d="M71.2956 433.626L66.6443 429.959L69.8004 426.288L74.4517 429.955L71.2956 433.626Z" fill="#D7E8F8"/>
<path d="M111.898 433.62L107.247 429.952L110.406 426.281L115.055 429.952L111.898 433.62Z" fill="#D7E8F8"/>
<path d="M152.319 433.616L147.668 429.946L150.827 426.275L155.479 429.946L152.319 433.616Z" fill="#D7E8F8"/>
<path d="M192.377 433.61L187.726 429.939L190.885 426.272L195.536 429.939L192.377 433.61Z" fill="#D7E8F8"/>
<path d="M185.66 400.591L181.008 396.92L184.168 393.253L188.819 396.92L185.66 400.591Z" fill="#D7E8F8"/>
<path d="M145.602 400.598L140.951 396.927L144.11 393.256L148.761 396.927L145.602 400.598Z" fill="#D7E8F8"/>
<path d="M166.591 370.545L164.35 371.108L167.332 382.996L169.574 382.433L166.591 370.545Z" fill="#C1DDF8"/>
<path d="M166.267 366.644C166.267 366.644 166.267 366.644 166.267 366.654C166.379 367.572 166.114 368.558 165.247 368.883C164.09 369.317 163.305 368.564 163.012 367.397C163.012 367.39 162.939 367.1 162.936 367.094C162.837 366.686 161.893 367.02 161.756 367.416C161.511 368.127 161.504 368.934 161.804 369.712C162.352 371.135 163.838 372.012 165.349 371.804C167.354 371.53 168.62 369.594 168.142 367.687C168.008 367.154 167.753 366.682 167.415 366.3C167.086 365.926 166.2 366.15 166.267 366.644Z" fill="#C1DDF8"/>
<path d="M167.405 387.053V387.043C167.294 386.125 167.558 385.139 168.422 384.814C169.579 384.38 170.364 385.133 170.657 386.3C170.657 386.306 170.73 386.597 170.733 386.603C170.832 387.011 171.776 386.676 171.913 386.281C172.158 385.57 172.165 384.763 171.865 383.984C171.317 382.562 169.831 381.685 168.32 381.892C166.315 382.167 165.049 384.102 165.527 386.01C165.661 386.542 165.916 387.014 166.254 387.397C166.583 387.77 167.469 387.547 167.402 387.053H167.405Z" fill="#C1DDF8"/>
<path d="M162.068 340.667C162.068 340.667 159.798 335.95 157.956 334.486C156.113 333.022 151.194 333.38 151.006 333.753C150.422 334.914 154.953 336.719 155.475 337.784C155.998 338.849 153.827 338.741 155.495 340.591C156.904 342.153 160.273 343.643 160.273 343.643L162.068 340.664V340.667Z" fill="#FFB27D"/>
<path d="M160.108 340.128C161.303 338.269 161.657 338.173 161.657 338.173C161.657 338.173 181.4 346.051 183.284 346.708C185.169 347.365 213.338 349.023 213.338 349.023L221.837 367.716C221.837 367.716 184.298 359.152 179.558 357.392C171.721 354.483 159.154 343.088 159.154 343.088C159.154 343.088 159.167 341.586 160.104 340.128H160.108Z" fill="#00A9E5"/>
<path d="M157.153 339.296C157.13 339.273 157.879 338.282 156.917 337.143C156.209 336.304 156.053 337.902 154.844 337.5C153.84 337.168 151.146 336.767 152.89 338.173C154.494 339.468 156.078 341.206 156.671 341.611C157.264 342.016 157.153 339.299 157.153 339.299V339.296Z" fill="#FFB27D"/>
<path d="M209.155 514.906C209.155 514.906 208.725 521.84 207.437 523.469H187.633C187.757 522.777 188.318 521.071 190.795 520.637C193.926 520.092 199.164 517.894 201.058 513.755C203.053 509.401 209.155 514.903 209.155 514.903V514.906Z" fill="#163560"/>
<path d="M244.3 513.939C244.3 513.939 245.607 522.57 243.911 522.726C243.685 522.745 235.753 522.732 233.598 523.055C230.075 523.581 224.2 523.122 224.2 523.122C223.463 523.153 222.982 522.356 223.358 521.721C223.769 521.026 224.554 520.283 226.049 519.996C229.167 519.396 234.366 517.103 236.187 512.935C238.103 508.55 244.303 513.939 244.303 513.939H244.3Z" fill="#163560"/>
<path d="M244.297 513.939C244.297 513.939 242.464 514.641 239.556 514.887C237.602 515.053 236.062 514.807 235.208 514.609C234.73 514.498 234.468 514.402 234.468 514.402C234.468 514.402 234.134 510.189 231.421 501.307C231.217 500.637 230.997 499.935 230.764 499.208C230.458 498.258 230.129 497.259 229.769 496.216C229.533 495.534 229.291 494.836 229.033 494.115C226.779 487.768 223.588 479.871 219.093 470.338C217.607 467.181 216.217 464.167 214.929 461.297C203.838 436.621 199.843 422.633 199.843 422.633L200.328 422.342L220.001 410.622L223.307 408.654H223.31L228.516 405.551C228.516 405.551 228.59 407.777 228.787 411.387C228.787 411.438 228.79 411.486 228.794 411.54C229.45 423.656 231.468 450.925 236.63 462.63C239.773 469.745 241.651 481.377 242.76 491.761C242.837 492.491 242.913 493.222 242.984 493.936C243.092 495.02 243.191 496.086 243.28 497.125C243.347 497.862 243.408 498.589 243.462 499.297C244.134 507.688 244.297 513.936 244.297 513.936V513.939Z" fill="#FFA600"/>
<path d="M224.305 408.689C224.305 408.689 223.976 409.879 223.447 411.936C222.268 416.49 220.087 425.296 218.225 434.819C216.424 444.049 214.919 453.952 214.932 461.3C214.935 462.863 215.005 464.311 215.155 465.612C216.061 473.448 215.047 484.984 213.727 494.973C213.628 495.713 213.526 496.443 213.427 497.167C213.274 498.264 213.118 499.339 212.962 500.379C212.85 501.122 212.742 501.849 212.63 502.554C211.463 510.017 210.389 515.352 210.389 515.352C210.389 515.352 209.924 515.458 209.104 515.588C207.934 515.786 206.044 516.038 203.768 516.14C202.445 516.198 200.994 515.729 200.092 515.372C199.553 515.155 199.212 514.983 199.212 514.983C199.212 514.983 199.671 510.926 199.368 502.037C199.355 501.689 199.343 501.335 199.327 500.975L199.282 499.865C199.241 498.886 199.19 497.859 199.123 496.781C199.084 496.076 199.037 495.352 198.992 494.603C198.53 487.631 197.672 478.749 196.126 467.774C192.788 444.087 192.039 423.542 191.886 413.747C191.825 409.834 191.854 407.64 191.854 407.64L192.912 407.675L194.229 407.716L215.512 408.405L223.313 408.66H223.317L224.311 408.692L224.305 408.689Z" fill="#FDBD00"/>
<path d="M213.912 344.472L208.639 348.379L201.016 346.775C201.121 346.079 201.625 343.2 202.084 340.587C202.113 340.434 202.138 340.281 202.164 340.128C202.556 337.908 202.894 335.998 202.894 335.998L210.013 332.448L212.668 331.125C212.662 331.173 212.461 333.59 212.436 333.941C211.938 340.208 213.912 344.469 213.912 344.469V344.472Z" fill="#FFB27D"/>
<path d="M201.549 342.501C201.714 342.431 211.916 339.42 213.025 339.784C214.135 340.15 214.788 342.294 214.788 342.294L199.04 346.781C199.04 346.781 199.416 343.397 201.549 342.498V342.501Z" fill="#00A9E5"/>
<path d="M229.017 410.969C227.292 418.86 191.242 394.101 191.723 389.285C191.777 388.756 191.828 388.223 191.882 387.694C192.549 380.99 193.186 374.429 193.231 370.146C193.266 366.434 193.776 362.635 194.458 359.184C195.083 355.998 195.855 353.109 196.524 350.857C196.996 349.272 197.876 347.875 199.043 346.778C199.872 345.997 200.844 345.371 201.918 344.944C202.208 344.82 202.508 344.718 202.811 344.631C207.153 343.372 213.159 341.812 214.788 342.287C219.201 343.585 222.478 351.355 224.799 361.257C229.141 379.794 230.145 405.822 229.017 410.963V410.969Z" fill="#C1DDF8"/>
<path d="M211.9 334.056C210.338 337.047 204.514 339.637 202.084 340.587C202.113 340.434 202.139 340.281 202.164 340.128C202.556 337.908 202.894 335.998 202.894 335.998L210.013 332.448C211.585 332.423 212.544 332.821 211.9 334.052V334.056Z" fill="#FCA56B"/>
<path d="M199.435 335.583C199.435 335.583 212.277 339.592 214.648 331.552C217.02 323.512 220.275 318.616 212.175 315.717C204.074 312.818 201.571 315.414 200.127 317.905C198.683 320.396 196.155 334.333 199.435 335.583Z" fill="#FFB27D"/>
<path d="M200.634 317.13C200.634 317.13 201.453 326.484 203.385 326.079C205.32 325.674 207.074 325.371 206.79 328.191C206.506 331.01 203.825 334.266 209.783 334.767C215.742 335.264 224.311 319.889 222.673 316.98C217.948 308.579 193.802 306.886 200.631 317.133L200.634 317.13Z" fill="#CE6719"/>
<path d="M192.811 407.636C196.381 408.928 192.75 404.087 192.811 403.079C193.088 398.643 191.347 393.036 191.883 387.697L213.686 374.659C213.686 374.659 218.86 407.432 192.811 407.64V407.636Z" fill="#00A9E5"/>
<path d="M229.016 410.969C219.707 428.227 218.228 434.816 218.228 434.816C210.127 433.891 196.247 417.96 191.844 413.706C191.844 413.706 191.245 394.101 191.726 389.285L198.456 389.09C198.456 389.09 210.618 392.175 213.771 387.99C216.924 383.806 215.56 363.263 215.56 363.263L224.802 361.264C229.144 379.8 231.519 406.338 229.02 410.969H229.016Z" fill="#FDBD00"/>
<path d="M173.787 377.899C173.787 377.899 169.356 374.901 168.518 374.64C167.676 374.378 164.922 374.094 164.794 374.311C164.667 374.528 164.29 375.195 164.769 375.418C165.25 375.644 165.849 375.565 165.671 375.721C165.492 375.877 163.678 375.016 163.261 375.941C162.843 376.866 162.476 380.03 164.6 380.99C166.726 381.95 171.97 381.082 172.35 381.191C175.557 382.122 173.787 377.896 173.787 377.896V377.899Z" fill="#FFB27D"/>
<path d="M173.746 377.089C173.746 377.089 195.37 380.766 197.286 379.835C200.343 378.346 196.1 356.397 196.1 356.397C196.1 356.397 195.918 351.421 201.727 350.248C206.774 349.227 211.645 353.01 211.645 353.01C211.645 353.01 216.073 356.974 215.509 361.372C214.256 371.119 212.305 390.943 205.789 393.983C197.385 397.903 173.064 383.114 173.064 383.114C173.064 383.114 172.254 382.122 172.369 380.278C172.471 378.655 173.752 377.089 173.752 377.089H173.746Z" fill="#C1DDF8"/>
<path d="M217.345 362.874L215.553 363.26C215.553 363.26 211.766 346.861 199.04 346.781C199.868 346 200.841 345.375 201.915 344.947C206.579 346.197 214.677 350.184 217.345 362.871V362.874Z" fill="#FDBD00"/>
<path d="M213.724 494.973C213.625 495.713 213.523 496.443 213.424 497.167C209.06 497.783 204.804 497.527 201.635 497.145C200.688 497.03 199.84 496.899 199.116 496.778C199.078 496.073 199.03 495.349 198.985 494.6C202.02 495.132 207.858 495.92 213.72 494.973H213.724Z" fill="#FFFEFA"/>
<path d="M199.276 499.862L199.32 500.972L199.362 502.034C200.089 502.152 200.937 502.28 201.89 502.401C204.8 502.755 208.636 503 212.624 502.554C212.735 501.849 212.844 501.122 212.955 500.379C207.469 501.084 202.145 500.36 199.272 499.862H199.276Z" fill="#FFFEFA"/>
<g opacity="0.5">
<path d="M242.987 493.939C238.919 495.317 234.809 495.872 231.698 496.105C231 496.159 230.356 496.191 229.769 496.217C229.533 495.534 229.291 494.836 229.033 494.115C232.131 494.022 237.551 493.627 242.76 491.768C242.837 492.498 242.913 493.228 242.983 493.943L242.987 493.939Z" fill="#FFFEFA"/>
</g>
<g opacity="0.5">
<path d="M243.462 499.301C239.658 500.493 235.874 500.994 232.97 501.211C232.419 501.252 231.899 501.284 231.417 501.307C231.213 500.637 230.993 499.935 230.761 499.208C233.757 499.093 238.555 498.688 243.28 497.129C243.347 497.865 243.408 498.593 243.462 499.301Z" fill="#FFFEFA"/>
</g>
</g>
</g>
<defs>
<clipPath id="clip0_1373_2417">
<rect width="345" height="526" fill="white"/>
</clipPath>
<clipPath id="clip1_1373_2417">
<rect width="838" height="525" fill="white" transform="translate(-431)"/>
</clipPath>
</defs>
</svg>
