<svg width="345" height="720" viewBox="0 0 345 720" fill="none" xmlns="http://www.w3.org/2000/svg">
<g clip-path="url(#clip0_1172_14686)">
<rect width="345" height="720" rx="24" fill="#FFFEFA"/>
<g clip-path="url(#clip1_1172_14686)">
<path d="M-221 235C-177.333 263 -63.6 319.2 42 320" stroke="#C1DDF8" stroke-width="0.5"/>
<path d="M42 320C66.5729 358.871 130.575 436.889 190 438" stroke="#C1DDF8" stroke-width="0.5"/>
<path d="M127 322C147.422 360.871 200.613 438.889 250 440" stroke="#C1DDF8" stroke-width="0.5"/>
<path d="M212 322C227.939 360.871 269.454 438.889 308 440" stroke="#C1DDF8" stroke-width="0.5"/>
<path d="M-120 235C-78.9899 263 27.8243 319.2 127 320" stroke="#C1DDF8" stroke-width="0.5"/>
<path d="M-17 233C21.1876 261 120.65 317.2 213 318" stroke="#C1DDF8" stroke-width="0.5"/>
<path d="M134.128 332.104H119.775V717.651H134.128V332.104Z" fill="#D7E8F8"/>
<path d="M219.876 342.6H32.0472V352.079H219.876V342.6Z" fill="#D7E8F8"/>
<path d="M42.2267 321.611H39.1311V342.6H42.2267V321.611Z" fill="#D7E8F8"/>
<path d="M32.3055 325.894C32.3055 324.832 36.1057 323.971 40.7921 323.971C45.4784 323.971 49.2786 324.832 49.2786 325.894C49.2786 326.956 45.4784 327.818 40.7921 327.818C36.1057 327.818 32.3055 326.956 32.3055 325.894Z" fill="#D7E8F8"/>
<path d="M32.3055 322.048C32.3055 320.986 36.1057 320.125 40.7921 320.125C45.4784 320.125 49.2786 320.986 49.2786 322.048C49.2786 323.11 45.4784 323.971 40.7921 323.971C36.1057 323.971 32.3055 323.11 32.3055 322.048Z" fill="#D7E8F8"/>
<path d="M40.7921 320.125C45.479 320.125 49.2786 319.264 49.2786 318.202C49.2786 317.14 45.479 316.279 40.7921 316.279C36.1051 316.279 32.3055 317.14 32.3055 318.202C32.3055 319.264 36.1051 320.125 40.7921 320.125Z" fill="#D7E8F8"/>
<path d="M32.3055 314.352C32.3055 313.29 36.1057 312.429 40.7921 312.429C45.4784 312.429 49.2786 313.29 49.2786 314.352C49.2786 315.414 45.4784 316.275 40.7921 316.275C36.1057 316.275 32.3055 315.414 32.3055 314.352Z" fill="#D7E8F8"/>
<path d="M45.826 313.488H35.5287V326.577H45.826V313.488Z" fill="#D7E8F8"/>
<path d="M127.398 321.611H124.302V342.6H127.398V321.611Z" fill="#D7E8F8"/>
<path d="M117.474 325.894C117.474 324.832 121.274 323.971 125.96 323.971C130.646 323.971 134.447 324.832 134.447 325.894C134.447 326.956 130.646 327.818 125.96 327.818C121.274 327.818 117.474 326.956 117.474 325.894Z" fill="#D7E8F8"/>
<path d="M117.474 322.048C117.474 320.986 121.274 320.125 125.96 320.125C130.646 320.125 134.447 320.986 134.447 322.048C134.447 323.11 130.646 323.971 125.96 323.971C121.274 323.971 117.474 323.11 117.474 322.048Z" fill="#D7E8F8"/>
<path d="M125.963 320.125C130.65 320.125 134.45 319.264 134.45 318.202C134.45 317.14 130.65 316.279 125.963 316.279C121.276 316.279 117.477 317.14 117.477 318.202C117.477 319.264 121.276 320.125 125.963 320.125Z" fill="#D7E8F8"/>
<path d="M117.474 314.352C117.474 313.29 121.274 312.429 125.96 312.429C130.646 312.429 134.447 313.29 134.447 314.352C134.447 315.414 130.646 316.275 125.96 316.275C121.274 316.275 117.474 315.414 117.474 314.352Z" fill="#D7E8F8"/>
<path d="M130.997 313.488H120.7V326.577H130.997V313.488Z" fill="#D7E8F8"/>
<path d="M212.824 321.611H209.728V342.6H212.824V321.611Z" fill="#D7E8F8"/>
<path d="M202.903 325.894C202.903 324.832 206.703 323.971 211.389 323.971C216.076 323.971 219.876 324.832 219.876 325.894C219.876 326.956 216.076 327.818 211.389 327.818C206.703 327.818 202.903 326.956 202.903 325.894Z" fill="#D7E8F8"/>
<path d="M202.903 322.048C202.903 320.986 206.703 320.125 211.389 320.125C216.076 320.125 219.876 320.986 219.876 322.048C219.876 323.11 216.076 323.971 211.389 323.971C206.703 323.971 202.903 323.11 202.903 322.048Z" fill="#D7E8F8"/>
<path d="M202.903 318.202C202.903 317.14 206.703 316.279 211.389 316.279C216.076 316.279 219.876 317.14 219.876 318.202C219.876 319.264 216.076 320.125 211.389 320.125C206.703 320.125 202.903 319.264 202.903 318.202Z" fill="#D7E8F8"/>
<path d="M202.903 314.352C202.903 313.29 206.703 312.429 211.389 312.429C216.076 312.429 219.876 313.29 219.876 314.352C219.876 315.414 216.076 316.275 211.389 316.275C206.703 316.275 202.903 315.414 202.903 314.352Z" fill="#D7E8F8"/>
<path d="M216.423 313.488H206.126V326.577H216.423V313.488Z" fill="#D7E8F8"/>
<path d="M126.961 394.388L73.7466 349.942L75.7104 347.607L126.945 390.401L179.005 346.178L180.985 348.497L126.961 394.388Z" fill="#D7E8F8"/>
<path d="M254.256 448.932H244.236V719H254.256V448.932Z" fill="#D8E6FB"/>
<path d="M314.12 456.28H182.987V462.92H314.12V456.28Z" fill="#D8E6FB"/>
<path d="M190.093 441.58H187.932V456.283H190.093V441.58Z" fill="#D8E6FB"/>
<path d="M189.092 445.924C192.366 445.924 195.019 445.322 195.019 444.578C195.019 443.835 192.366 443.232 189.092 443.232C185.819 443.232 183.166 443.835 183.166 444.578C183.166 445.322 185.819 445.924 189.092 445.924Z" fill="#D8E6FB"/>
<path d="M183.166 441.886C183.166 441.143 185.818 440.541 189.092 440.541C192.367 440.541 195.019 441.143 195.019 441.886C195.019 442.63 192.367 443.232 189.092 443.232C185.818 443.232 183.166 442.63 183.166 441.886Z" fill="#D8E6FB"/>
<path d="M183.166 439.192C183.166 438.448 185.818 437.846 189.092 437.846C192.367 437.846 195.019 438.448 195.019 439.192C195.019 439.935 192.367 440.537 189.092 440.537C185.818 440.537 183.166 439.935 183.166 439.192Z" fill="#D8E6FB"/>
<path d="M183.166 436.497C183.166 435.753 185.818 435.151 189.092 435.151C192.367 435.151 195.019 435.753 195.019 436.497C195.019 437.24 192.367 437.842 189.092 437.842C185.818 437.842 183.166 437.24 183.166 436.497Z" fill="#D8E6FB"/>
<path d="M192.609 435.891H185.42V445.06H192.609V435.891Z" fill="#D8E6FB"/>
<path d="M249.556 441.58H247.395V456.283H249.556V441.58Z" fill="#D8E6FB"/>
<path d="M242.629 444.578C242.629 443.835 245.281 443.232 248.555 443.232C251.829 443.232 254.482 443.835 254.482 444.578C254.482 445.321 251.829 445.924 248.555 445.924C245.281 445.924 242.629 445.321 242.629 444.578Z" fill="#D8E6FB"/>
<path d="M242.629 441.886C242.629 441.143 245.281 440.541 248.555 440.541C251.829 440.541 254.482 441.143 254.482 441.886C254.482 442.63 251.829 443.232 248.555 443.232C245.281 443.232 242.629 442.63 242.629 441.886Z" fill="#D8E6FB"/>
<path d="M242.629 439.192C242.629 438.448 245.281 437.846 248.555 437.846C251.829 437.846 254.482 438.448 254.482 439.192C254.482 439.935 251.829 440.537 248.555 440.537C245.281 440.537 242.629 439.935 242.629 439.192Z" fill="#D8E6FB"/>
<path d="M242.629 436.497C242.629 435.753 245.281 435.151 248.555 435.151C251.829 435.151 254.482 435.753 254.482 436.497C254.482 437.24 251.829 437.842 248.555 437.842C245.281 437.842 242.629 437.24 242.629 436.497Z" fill="#D8E6FB"/>
<path d="M252.072 435.891H244.883V445.06H252.072V435.891Z" fill="#D8E6FB"/>
<path d="M309.198 441.58H307.036V456.283H309.198V441.58Z" fill="#D8E6FB"/>
<path d="M302.27 444.578C302.27 443.835 304.923 443.232 308.197 443.232C311.471 443.232 314.123 443.835 314.123 444.578C314.123 445.321 311.471 445.924 308.197 445.924C304.923 445.924 302.27 445.321 302.27 444.578Z" fill="#D8E6FB"/>
<path d="M302.27 441.886C302.27 441.143 304.923 440.541 308.197 440.541C311.471 440.541 314.123 441.143 314.123 441.886C314.123 442.63 311.471 443.232 308.197 443.232C304.923 443.232 302.27 442.63 302.27 441.886Z" fill="#D8E6FB"/>
<path d="M302.27 439.192C302.27 438.448 304.923 437.846 308.197 437.846C311.471 437.846 314.123 438.448 314.123 439.192C314.123 439.935 311.471 440.537 308.197 440.537C304.923 440.537 302.27 439.935 302.27 439.192Z" fill="#D8E6FB"/>
<path d="M302.27 436.497C302.27 435.753 304.923 435.151 308.197 435.151C311.471 435.151 314.123 435.753 314.123 436.497C314.123 437.24 311.471 437.842 308.197 437.842C304.923 437.842 302.27 437.24 302.27 436.497Z" fill="#D8E6FB"/>
<path d="M311.713 435.891H304.524V445.06H311.713V435.891Z" fill="#D8E6FB"/>
<path d="M249.254 492.561L212.1 461.424L213.471 459.788L249.241 489.768L285.587 458.79L286.971 460.413L249.254 492.561Z" fill="#D8E6FB"/>
<path d="M108.127 713.875L121.74 713.706L153.537 581.158L139.924 581.327L108.127 713.875Z" fill="#8EC6F0"/>
<path d="M85.6323 716.825H146.686C146.686 713.25 143.791 710.354 140.218 710.354H92.0976C88.5238 710.354 85.6292 713.25 85.6292 716.825H85.6323Z" fill="#8EC6F0"/>
<path d="M226.674 655.456L220.808 626.041L220.795 625.98L201.281 528.1L11.5938 528.126L36.9863 655.482L73.0174 655.475H73.3553L113.677 655.472H113.802L153.948 655.466H154.223L194.28 655.459H194.644L226.674 655.456Z" fill="#1D3F77"/>
<path d="M229.922 652.937L40.235 652.962L14.8456 528.126L204.53 528.1L229.922 652.937Z" fill="#0B5A96"/>
<path d="M76.6293 652.959H76.2659L50.9435 528.458H51.3037L76.6293 652.959Z" fill="#D7E8F8"/>
<path d="M117.05 652.953H116.687L91.3645 528.451H91.7279L117.05 652.953Z" fill="#D7E8F8"/>
<path d="M157.471 652.946H157.108L131.785 528.445H132.149L157.471 652.946Z" fill="#D7E8F8"/>
<path d="M197.892 652.943H197.529L172.206 528.442H172.57L197.892 652.943Z" fill="#D7E8F8"/>
<path d="M210.555 557.726L20.8709 557.755L20.8008 557.413L210.485 557.385L210.555 557.726Z" fill="#D7E8F8"/>
<path d="M217.307 590.917L27.6199 590.943L27.553 590.601L217.237 590.576L217.307 590.917Z" fill="#D7E8F8"/>
<path d="M224.056 624.105L34.3723 624.134L34.3021 623.793L223.986 623.764L224.056 624.105Z" fill="#D7E8F8"/>
<path d="M57.7946 561.247L53.1433 557.579L56.2995 553.908L60.9508 557.576L57.7946 561.247Z" fill="#D7E8F8"/>
<path d="M64.5788 594.607L59.9275 590.939L63.0868 587.269L67.7381 590.936L64.5788 594.607Z" fill="#D7E8F8"/>
<path d="M98.3973 561.24L93.746 557.573L96.9021 553.902L101.553 557.573L98.3973 561.24Z" fill="#D7E8F8"/>
<path d="M105.181 594.601L100.53 590.933L103.689 587.262L108.341 590.933L105.181 594.601Z" fill="#D7E8F8"/>
<path d="M138.818 561.237L134.167 557.566L137.323 553.896L141.974 557.566L138.818 561.237Z" fill="#D7E8F8"/>
<path d="M178.876 561.231L174.224 557.56L177.384 553.892L182.035 557.56L178.876 561.231Z" fill="#D7E8F8"/>
<path d="M71.2958 627.626L66.6445 623.959L69.8007 620.288L74.452 623.955L71.2958 627.626Z" fill="#D7E8F8"/>
<path d="M111.899 627.62L107.247 623.952L110.407 620.281L115.055 623.952L111.899 627.62Z" fill="#D7E8F8"/>
<path d="M152.319 627.616L147.668 623.946L150.827 620.275L155.479 623.946L152.319 627.616Z" fill="#D7E8F8"/>
<path d="M192.377 627.61L187.726 623.939L190.885 620.272L195.536 623.939L192.377 627.61Z" fill="#D7E8F8"/>
<path d="M185.66 594.591L181.008 590.92L184.168 587.253L188.819 590.92L185.66 594.591Z" fill="#D7E8F8"/>
<path d="M145.602 594.598L140.951 590.927L144.11 587.256L148.762 590.927L145.602 594.598Z" fill="#D7E8F8"/>
<path d="M166.591 564.545L164.349 565.108L167.332 576.996L169.574 576.433L166.591 564.545Z" fill="#C1DDF8"/>
<path d="M166.267 560.644C166.267 560.644 166.267 560.644 166.267 560.654C166.379 561.572 166.114 562.558 165.247 562.883C164.09 563.317 163.305 562.564 163.012 561.397C163.012 561.39 162.939 561.1 162.935 561.094C162.837 560.686 161.893 561.02 161.756 561.416C161.51 562.127 161.504 562.934 161.804 563.712C162.352 565.135 163.838 566.012 165.349 565.804C167.354 565.53 168.62 563.594 168.142 561.687C168.008 561.154 167.753 560.682 167.415 560.3C167.086 559.926 166.2 560.15 166.267 560.644Z" fill="#C1DDF8"/>
<path d="M167.405 581.053V581.043C167.294 580.125 167.558 579.139 168.422 578.814C169.579 578.38 170.364 579.133 170.657 580.3C170.657 580.306 170.73 580.597 170.733 580.603C170.832 581.011 171.776 580.676 171.913 580.281C172.158 579.57 172.165 578.763 171.865 577.984C171.317 576.562 169.831 575.685 168.32 575.892C166.315 576.167 165.049 578.102 165.527 580.01C165.661 580.542 165.916 581.014 166.254 581.397C166.583 581.77 167.469 581.547 167.402 581.053H167.405Z" fill="#C1DDF8"/>
<path d="M162.068 534.667C162.068 534.667 159.798 529.95 157.956 528.486C156.113 527.022 151.194 527.38 151.006 527.753C150.422 528.914 154.953 530.719 155.475 531.784C155.998 532.849 153.827 532.741 155.495 534.591C156.904 536.153 160.273 537.643 160.273 537.643L162.068 534.664V534.667Z" fill="#FFB27D"/>
<path d="M160.108 534.128C161.303 532.269 161.657 532.173 161.657 532.173C161.657 532.173 181.4 540.051 183.285 540.708C185.169 541.365 213.338 543.023 213.338 543.023L221.837 561.716C221.837 561.716 184.298 553.152 179.558 551.392C171.722 548.483 159.154 537.088 159.154 537.088C159.154 537.088 159.167 535.586 160.104 534.128H160.108Z" fill="#00A9E5"/>
<path d="M157.152 533.296C157.13 533.273 157.879 532.282 156.916 531.143C156.209 530.304 156.053 531.902 154.844 531.5C153.84 531.168 151.146 530.767 152.89 532.173C154.494 533.468 156.078 535.206 156.671 535.611C157.264 536.016 157.152 533.299 157.152 533.299V533.296Z" fill="#FFB27D"/>
<path d="M209.155 708.906C209.155 708.906 208.725 715.84 207.437 717.469H187.633C187.757 716.777 188.318 715.071 190.796 714.637C193.926 714.092 199.164 711.894 201.058 707.755C203.054 703.401 209.155 708.903 209.155 708.903V708.906Z" fill="#163560"/>
<path d="M244.3 707.939C244.3 707.939 245.607 716.57 243.911 716.726C243.685 716.745 235.753 716.732 233.598 717.055C230.075 717.581 224.2 717.122 224.2 717.122C223.463 717.153 222.982 716.356 223.358 715.721C223.769 715.026 224.554 714.283 226.049 713.996C229.167 713.396 234.366 711.103 236.187 706.935C238.103 702.55 244.303 707.939 244.303 707.939H244.3Z" fill="#163560"/>
<path d="M244.297 707.939C244.297 707.939 242.464 708.641 239.556 708.887C237.602 709.053 236.062 708.807 235.208 708.609C234.73 708.498 234.468 708.402 234.468 708.402C234.468 708.402 234.133 704.189 231.42 695.307C231.216 694.637 230.996 693.935 230.764 693.208C230.458 692.258 230.129 691.259 229.769 690.216C229.533 689.534 229.291 688.836 229.033 688.115C226.779 681.768 223.588 673.871 219.092 664.338C217.607 661.181 216.217 658.167 214.929 655.297C203.838 630.621 199.843 616.633 199.843 616.633L200.328 616.342L220.001 604.622L223.307 602.654H223.31L228.516 599.551C228.516 599.551 228.589 601.777 228.787 605.387C228.787 605.438 228.79 605.486 228.794 605.54C229.45 617.656 231.468 644.925 236.63 656.63C239.773 663.745 241.651 675.377 242.76 685.761C242.837 686.491 242.913 687.222 242.983 687.936C243.092 689.02 243.191 690.086 243.28 691.125C243.347 691.862 243.407 692.589 243.462 693.297C244.134 701.688 244.297 707.936 244.297 707.936V707.939Z" fill="#FFA600"/>
<path d="M224.305 602.689C224.305 602.689 223.976 603.879 223.447 605.936C222.268 610.49 220.087 619.296 218.225 628.819C216.424 638.049 214.919 647.952 214.932 655.3C214.935 656.863 215.005 658.311 215.155 659.612C216.061 667.448 215.047 678.984 213.727 688.973C213.628 689.713 213.526 690.443 213.427 691.167C213.274 692.264 213.118 693.339 212.962 694.379C212.85 695.122 212.742 695.849 212.63 696.554C211.463 704.017 210.389 709.352 210.389 709.352C210.389 709.352 209.924 709.458 209.104 709.588C207.934 709.786 206.044 710.038 203.768 710.14C202.445 710.198 200.994 709.729 200.092 709.372C199.553 709.155 199.212 708.983 199.212 708.983C199.212 708.983 199.671 704.926 199.368 696.037C199.355 695.689 199.343 695.335 199.327 694.975L199.282 693.865C199.241 692.886 199.19 691.859 199.123 690.781C199.084 690.076 199.037 689.352 198.992 688.603C198.53 681.631 197.672 672.749 196.126 661.774C192.788 638.087 192.039 617.542 191.886 607.747C191.825 603.834 191.854 601.64 191.854 601.64L192.912 601.675L194.229 601.716L215.512 602.405L223.313 602.66H223.317L224.311 602.692L224.305 602.689Z" fill="#FDBD00"/>
<path d="M213.912 538.472L208.639 542.379L201.016 540.775C201.122 540.079 201.625 537.2 202.084 534.587C202.113 534.434 202.139 534.281 202.164 534.128C202.556 531.908 202.894 529.998 202.894 529.998L210.013 526.448L212.669 525.125C212.662 525.173 212.461 527.59 212.436 527.941C211.939 534.208 213.912 538.469 213.912 538.469V538.472Z" fill="#FFB27D"/>
<path d="M201.549 536.501C201.715 536.431 211.916 533.42 213.026 533.784C214.135 534.15 214.789 536.294 214.789 536.294L199.04 540.781C199.04 540.781 199.416 537.397 201.549 536.498V536.501Z" fill="#00A9E5"/>
<path d="M229.017 604.969C227.292 612.86 191.242 588.101 191.723 583.285C191.777 582.756 191.828 582.223 191.883 581.694C192.549 574.99 193.187 568.429 193.231 564.146C193.266 560.434 193.776 556.635 194.459 553.184C195.083 549.998 195.855 547.109 196.524 544.857C196.996 543.272 197.876 541.875 199.043 540.778C199.872 539.997 200.844 539.371 201.919 538.944C202.209 538.82 202.508 538.718 202.811 538.631C207.153 537.372 213.16 535.812 214.789 536.287C219.201 537.585 222.478 545.355 224.799 555.257C229.141 573.794 230.145 599.822 229.017 604.963V604.969Z" fill="#C1DDF8"/>
<path d="M211.9 528.056C210.338 531.047 204.514 533.637 202.084 534.587C202.113 534.434 202.139 534.281 202.164 534.128C202.556 531.908 202.894 529.998 202.894 529.998L210.013 526.448C211.585 526.423 212.544 526.821 211.9 528.052V528.056Z" fill="#FCA56B"/>
<path d="M199.435 529.583C199.435 529.583 212.276 533.592 214.648 525.552C217.02 517.512 220.275 512.616 212.174 509.717C204.074 506.818 201.571 509.414 200.127 511.905C198.683 514.396 196.155 528.333 199.435 529.583Z" fill="#FFB27D"/>
<path d="M200.634 511.13C200.634 511.13 201.453 520.484 203.385 520.079C205.32 519.674 207.074 519.371 206.79 522.191C206.506 525.01 203.825 528.266 209.783 528.767C215.742 529.264 224.311 513.889 222.673 510.98C217.948 502.579 193.802 500.886 200.631 511.133L200.634 511.13Z" fill="#CE6719"/>
<path d="M192.81 601.636C196.381 602.928 192.75 598.087 192.81 597.079C193.088 592.643 191.347 587.036 191.883 581.697L213.686 568.659C213.686 568.659 218.86 601.432 192.81 601.64V601.636Z" fill="#00A9E5"/>
<path d="M229.017 604.969C219.708 622.227 218.228 628.816 218.228 628.816C210.128 627.891 196.247 611.96 191.844 607.706C191.844 607.706 191.245 588.101 191.726 583.285L198.456 583.09C198.456 583.09 210.619 586.175 213.772 581.99C216.925 577.806 215.56 557.263 215.56 557.263L224.802 555.264C229.144 573.8 231.519 600.338 229.02 604.969H229.017Z" fill="#FDBD00"/>
<path d="M173.787 571.899C173.787 571.899 169.356 568.901 168.518 568.64C167.676 568.378 164.922 568.094 164.794 568.311C164.667 568.528 164.29 569.195 164.769 569.418C165.25 569.644 165.849 569.565 165.671 569.721C165.492 569.877 163.678 569.016 163.261 569.941C162.843 570.866 162.476 574.03 164.6 574.99C166.726 575.95 171.97 575.082 172.35 575.191C175.557 576.122 173.787 571.896 173.787 571.896V571.899Z" fill="#FFB27D"/>
<path d="M173.746 571.089C173.746 571.089 195.37 574.766 197.286 573.835C200.344 572.346 196.1 550.397 196.1 550.397C196.1 550.397 195.919 545.421 201.727 544.248C206.774 543.227 211.645 547.01 211.645 547.01C211.645 547.01 216.073 550.974 215.509 555.372C214.256 565.119 212.305 584.943 205.789 587.983C197.385 591.903 173.064 577.114 173.064 577.114C173.064 577.114 172.254 576.122 172.369 574.278C172.471 572.655 173.752 571.089 173.752 571.089H173.746Z" fill="#C1DDF8"/>
<path d="M217.345 556.874L215.554 557.26C215.554 557.26 211.766 540.861 199.04 540.781C199.869 540 200.841 539.375 201.915 538.947C206.579 540.197 214.677 544.184 217.345 556.871V556.874Z" fill="#FDBD00"/>
<path d="M213.724 688.973C213.625 689.713 213.523 690.443 213.424 691.167C209.06 691.783 204.804 691.527 201.635 691.145C200.688 691.03 199.84 690.899 199.116 690.778C199.078 690.073 199.03 689.349 198.986 688.6C202.021 689.132 207.858 689.92 213.721 688.973H213.724Z" fill="#FFFEFA"/>
<path d="M199.276 693.862L199.32 694.972L199.362 696.034C200.089 696.152 200.937 696.28 201.89 696.401C204.801 696.755 208.636 697 212.624 696.554C212.736 695.849 212.844 695.122 212.956 694.379C207.469 695.084 202.145 694.36 199.273 693.862H199.276Z" fill="#FFFEFA"/>
<g opacity="0.5">
<path d="M242.987 687.939C238.919 689.317 234.809 689.872 231.698 690.105C231 690.159 230.356 690.191 229.769 690.217C229.533 689.534 229.291 688.836 229.033 688.115C232.131 688.022 237.551 687.627 242.76 685.768C242.837 686.498 242.913 687.228 242.983 687.943L242.987 687.939Z" fill="#FFFEFA"/>
</g>
<g opacity="0.5">
<path d="M243.462 693.301C239.658 694.493 235.874 694.994 232.97 695.211C232.418 695.252 231.899 695.284 231.417 695.307C231.213 694.637 230.993 693.935 230.761 693.208C233.757 693.093 238.555 692.688 243.28 691.129C243.347 691.865 243.407 692.593 243.462 693.301Z" fill="#FFFEFA"/>
</g>
</g>
</g>
<defs>
<clipPath id="clip0_1172_14686">
<rect width="345" height="720" fill="white"/>
</clipPath>
<clipPath id="clip1_1172_14686">
<rect width="838" height="525" fill="white" transform="translate(-431 194)"/>
</clipPath>
</defs>
</svg>
