<svg width="607" height="222" viewBox="0 0 607 222" fill="none" xmlns="http://www.w3.org/2000/svg">
<path fill-rule="evenodd" clip-rule="evenodd" d="M381.998 20.9008C381.998 20.9008 381.998 21.1938 381.998 22.5001C381.998 28.0001 381.998 23.5001 381.998 23.5001L41.4613 22.2071C28.491 22.2071 18.8242 27.7254 12.3686 35.9936C5.88588 44.2965 2.60545 55.4279 2.60515 66.6209C2.60485 77.814 5.88469 88.9453 12.3673 97.2482C18.8227 105.516 28.49 111.035 41.4618 111.035H561.009C576.268 111.035 587.803 116.903 595.507 125.77C603.189 134.612 607 146.36 607 158.061C607 169.763 603.189 181.51 595.507 190.352C587.803 199.22 576.268 205.088 561.009 205.088H226.5C226.5 205.088 226.5 203.806 226.5 202.5C229.5 202.5 261.142 202.475 261.142 202.475H561.009C575.542 202.475 586.352 196.913 593.543 188.636C600.758 180.332 604.395 169.22 604.395 158.061C604.395 146.903 600.758 135.79 593.543 127.487C586.352 119.209 575.542 113.647 561.009 113.647H41.4618C27.6595 113.647 17.2468 107.736 10.3161 98.8588C3.41241 90.0166 -0.000309761 78.2879 2.10879e-08 66.6209C0.000309725 54.9538 3.41365 43.2252 10.3174 34.383C17.2482 25.5061 27.6604 19.5945 41.4613 19.5945L381.998 20.9008Z" fill="#C1DDF8"/>
<path d="M433.498 12.2854H412.556C411.728 12.2854 411.062 11.6169 411.062 10.7862C411.062 9.95551 411.728 9.28705 412.556 9.28705H433.498C434.325 9.28705 434.991 9.95551 434.991 10.7862C434.991 11.6169 434.325 12.2854 433.498 12.2854Z" fill="#51626F"/>
<path d="M433.013 31.1386H412.071C411.244 31.1386 410.578 30.4702 410.578 29.6394C410.578 28.8087 411.244 28.1403 412.071 28.1403H433.013C433.84 28.1403 434.506 28.8087 434.506 29.6394C434.506 30.4702 433.84 31.1386 433.013 31.1386Z" fill="#51626F"/>
<path d="M417.15 36.0387H394.929C386.222 36.0387 379.164 28.9516 379.164 20.2096C379.164 11.4677 386.222 4.38064 394.929 4.38064H417.15V36.0322V36.0387Z" fill="#FFA600"/>
<path d="M414.971 0H413.245C410.575 0 408.41 2.17343 408.41 4.85449V35.5715C408.41 38.2525 410.575 40.4259 413.245 40.4259H414.971C417.641 40.4259 419.805 38.2525 419.805 35.5715V4.85449C419.805 2.17343 417.641 0 414.971 0Z" fill="#FFFEFA"/>
<path d="M193.395 185.961H215.616C224.323 185.961 231.381 193.048 231.381 201.79C231.381 210.532 224.323 217.619 215.616 217.619H193.395V185.968V185.961Z" fill="#FFA600"/>
<path d="M195.574 222H197.3C199.97 222 202.135 219.827 202.135 217.146V186.429C202.135 183.748 199.97 181.574 197.3 181.574H195.574C192.904 181.574 190.739 183.748 190.739 186.429V217.146C190.739 219.827 192.904 222 195.574 222Z" fill="#FFFEFA"/>
</svg>
