<svg width="607" height="222" viewBox="0 0 607 222" fill="none" xmlns="http://www.w3.org/2000/svg">
<path fill-rule="evenodd" clip-rule="evenodd" d="M333.457 19.5944C333.458 19.5944 333.459 19.5944 333.459 20.9007C333.459 22.2069 333.458 22.2069 333.457 22.2069L41.4613 22.2069C28.491 22.2069 18.8242 27.7253 12.3686 35.9935C5.88588 44.2964 2.60545 55.4278 2.60515 66.6208C2.60485 77.8138 5.88469 88.9452 12.3673 97.2481C18.8227 105.516 28.49 111.035 41.4618 111.035H561.009C576.268 111.035 587.803 116.903 595.507 125.77C603.189 134.612 607 146.36 607 158.061C607 169.763 603.189 181.51 595.507 190.352C587.803 199.22 576.268 205.088 561.009 205.088H261.142C261.14 205.088 261.14 205.088 261.14 203.781C261.14 202.475 261.14 202.475 261.142 202.475H561.009C575.542 202.475 586.352 196.913 593.543 188.636C600.757 180.332 604.395 169.22 604.395 158.061C604.395 146.902 600.757 135.79 593.543 127.487C586.352 119.209 575.542 113.647 561.009 113.647H41.4618C27.6595 113.647 17.2468 107.736 10.3161 98.8587C3.41241 90.0165 -0.000309761 78.2878 2.10879e-08 66.6208C0.000309725 54.9537 3.41365 43.225 10.3174 34.3829C17.2482 25.506 27.6604 19.5944 41.4613 19.5944L333.457 19.5944Z" fill="#C1DDF8"/>
<path d="M386.498 12.2854H365.556C364.728 12.2854 364.062 11.6169 364.062 10.7862C364.062 9.95551 364.728 9.28705 365.556 9.28705H386.498C387.325 9.28705 387.991 9.95551 387.991 10.7862C387.991 11.6169 387.325 12.2854 386.498 12.2854Z" fill="#51626F"/>
<path d="M386.013 31.1386H365.071C364.244 31.1386 363.578 30.4702 363.578 29.6394C363.578 28.8087 364.244 28.1403 365.071 28.1403H386.013C386.84 28.1403 387.506 28.8087 387.506 29.6394C387.506 30.4702 386.84 31.1386 386.013 31.1386Z" fill="#51626F"/>
<path d="M370.15 36.0387H347.929C339.222 36.0387 332.164 28.9516 332.164 20.2096C332.164 11.4677 339.222 4.38064 347.929 4.38064H370.15V36.0322V36.0387Z" fill="#FFA600"/>
<path d="M367.971 0H366.245C363.575 0 361.41 2.17343 361.41 4.85449V35.5715C361.41 38.2525 363.575 40.4259 366.245 40.4259H367.971C370.641 40.4259 372.805 38.2525 372.805 35.5715V4.85449C372.805 2.17343 370.641 0 367.971 0Z" fill="#FFFEFA"/>
<path d="M225.395 185.961H247.616C256.323 185.961 263.381 193.048 263.381 201.79C263.381 210.532 256.323 217.619 247.616 217.619H225.395V185.967V185.961Z" fill="#FFA600"/>
<path d="M227.574 222H229.3C231.97 222 234.135 219.827 234.135 217.146V186.429C234.135 183.748 231.97 181.574 229.3 181.574H227.574C224.904 181.574 222.739 183.748 222.739 186.429V217.146C222.739 219.827 224.904 222 227.574 222Z" fill="#FFFEFA"/>
</svg>
