<svg width="472" height="398" viewBox="0 0 472 398" fill="none" xmlns="http://www.w3.org/2000/svg">
<path d="M207.756 124.705C207.756 124.705 207.906 124.705 207.955 124.705C271.591 122.472 315.097 116.217 340.371 111.368C367.893 106.091 380.131 101.396 380.63 101.197C381.23 100.968 381.08 100.631 380.33 100.448C379.581 100.264 378.482 100.31 377.883 100.539C377.383 100.723 327.834 119.444 207.506 123.65C206.557 123.68 205.858 123.956 205.957 124.246C206.057 124.522 206.807 124.72 207.706 124.72L207.756 124.705Z" fill="#B8B0AB"/>
<path d="M211.9 127.398C319.857 127.398 403.571 101.55 404.393 101.274C404.979 101.091 405.096 100.754 404.588 100.525C404.119 100.295 403.259 100.265 402.672 100.448C401.812 100.708 317.198 126.878 208.655 126.327C207.912 126.327 207.286 126.556 207.286 126.862C207.286 127.153 207.873 127.398 208.655 127.398C209.75 127.398 210.845 127.398 211.939 127.398H211.9Z" fill="#B8B0AB"/>
<path d="M392.545 111.811L411.23 95.4156L409.582 93.5649L392.468 108.615L374.276 94.2838L372.736 96.2109L392.545 111.811Z" fill="#797472"/>
<path d="M392.545 112.026C392.545 112.026 392.638 112.011 392.684 111.98L411.369 95.569C411.369 95.569 411.431 95.4772 411.431 95.4313C411.431 95.3854 411.431 95.3243 411.384 95.2784L409.736 93.443C409.659 93.3665 409.536 93.3512 409.444 93.4277L392.453 108.355L374.4 94.1313C374.307 94.0548 374.184 94.0701 374.122 94.1619L372.582 96.089C372.582 96.089 372.536 96.1808 372.536 96.2419C372.536 96.3031 372.566 96.349 372.613 96.3796L392.422 111.995C392.422 111.995 392.499 112.041 392.545 112.041V112.026ZM410.938 95.4007L392.53 111.567L372.998 96.1808L374.292 94.5748L392.33 108.784C392.33 108.784 392.515 108.845 392.592 108.784L409.567 93.856L410.938 95.4007Z" fill="#545250"/>
<path d="M418.164 100.112C418.164 100.816 418.749 101.397 419.458 101.397C420.167 101.397 420.752 100.816 420.752 100.112V89.8341C420.752 89.1305 420.167 88.5493 419.458 88.5493C418.749 88.5493 418.164 89.1305 418.164 89.8341V100.097V100.112Z" fill="#797472"/>
<path d="M419.458 101.58C420.29 101.58 420.952 100.923 420.952 100.097V89.8342C420.952 89.0083 420.274 88.3506 419.458 88.3506C418.642 88.3506 417.964 89.0236 417.964 89.8342V100.097C417.964 100.908 418.642 101.58 419.458 101.58ZM419.458 88.7482C420.059 88.7482 420.552 89.2377 420.552 89.8342V100.097C420.552 100.693 420.059 101.183 419.458 101.183C418.857 101.183 418.364 100.693 418.364 100.097V89.8342C418.364 89.2377 418.857 88.7482 419.458 88.7482Z" fill="#545250"/>
<path d="M417.641 100.127C417.641 100.356 417.779 100.555 417.949 100.555H420.937C421.106 100.555 421.245 100.356 421.245 100.127C421.245 99.8976 421.106 99.6987 420.937 99.6987H417.949C417.779 99.6987 417.641 99.8823 417.641 100.127Z" fill="#797472"/>
<path d="M417.949 100.754H420.937C421.23 100.754 421.445 100.479 421.445 100.127C421.445 99.7753 421.214 99.5 420.937 99.5H417.949C417.656 99.5 417.44 99.7753 417.44 100.127C417.44 100.479 417.671 100.754 417.949 100.754ZM420.937 99.8977C420.937 99.8977 421.045 99.9894 421.045 100.127C421.045 100.28 420.968 100.357 420.937 100.357H417.949C417.949 100.357 417.841 100.28 417.841 100.127C417.841 99.9741 417.918 99.8977 417.949 99.8977H420.937Z" fill="#545250"/>
<path d="M417.641 98.6592C417.641 98.8886 417.779 99.0875 417.949 99.0875H420.937C421.106 99.0875 421.245 98.9039 421.245 98.6592C421.245 98.4298 421.106 98.231 420.937 98.231H417.949C417.779 98.231 417.641 98.4145 417.641 98.6592Z" fill="#797472"/>
<path d="M417.949 99.2864H420.937C421.23 99.2864 421.445 99.0111 421.445 98.6593C421.445 98.3075 421.214 98.0322 420.937 98.0322H417.949C417.656 98.0322 417.44 98.3075 417.44 98.6593C417.44 99.0111 417.671 99.2864 417.949 99.2864ZM420.937 98.4299C420.937 98.4299 421.045 98.5217 421.045 98.6593C421.045 98.797 420.968 98.8887 420.937 98.8887H417.949C417.949 98.8887 417.841 98.8123 417.841 98.6593C417.841 98.5064 417.918 98.4299 417.949 98.4299H420.937Z" fill="#545250"/>
<path d="M417.641 97.1758C417.641 97.4052 417.779 97.6041 417.949 97.6041H420.937C421.106 97.6041 421.245 97.4052 421.245 97.1758C421.245 96.9464 421.106 96.7476 420.937 96.7476H417.949C417.779 96.7476 417.641 96.9464 417.641 97.1758Z" fill="#797472"/>
<path d="M417.949 97.8181H420.937C421.23 97.8181 421.445 97.5428 421.445 97.191C421.445 96.8393 421.214 96.564 420.937 96.564H417.949C417.656 96.564 417.44 96.8393 417.44 97.191C417.44 97.5428 417.671 97.8181 417.949 97.8181ZM420.937 96.9616C420.937 96.9616 421.045 97.0381 421.045 97.191C421.045 97.344 420.968 97.4205 420.937 97.4205H417.949C417.949 97.4205 417.841 97.344 417.841 97.191C417.841 97.0381 417.918 96.9616 417.949 96.9616H420.937Z" fill="#545250"/>
<path d="M417.641 95.7075C417.641 95.9523 417.779 96.1358 417.949 96.1358H420.937C421.106 96.1358 421.245 95.9523 421.245 95.7075C421.245 95.4781 421.106 95.2793 420.937 95.2793H417.949C417.779 95.2793 417.641 95.4628 417.641 95.7075Z" fill="#797472"/>
<path d="M417.949 96.3347H420.937C421.23 96.3347 421.445 96.0594 421.445 95.7076C421.445 95.3559 421.214 95.0806 420.937 95.0806H417.949C417.656 95.0806 417.44 95.3559 417.44 95.7076C417.44 96.0594 417.671 96.3347 417.949 96.3347ZM420.937 95.4782C420.937 95.4782 421.045 95.57 421.045 95.7076C421.045 95.8453 420.968 95.9371 420.937 95.9371H417.949C417.949 95.9371 417.841 95.8606 417.841 95.7076C417.841 95.5547 417.918 95.4782 417.949 95.4782H420.937Z" fill="#545250"/>
<path d="M417.641 94.2388C417.641 94.4682 417.779 94.667 417.949 94.667H420.937C421.106 94.667 421.245 94.4835 421.245 94.2388C421.245 94.0094 421.106 93.8105 420.937 93.8105H417.949C417.779 93.8105 417.641 94.0094 417.641 94.2388Z" fill="#797472"/>
<path d="M417.949 94.866H420.937C421.23 94.866 421.445 94.5907 421.445 94.2389C421.445 93.8871 421.214 93.6118 420.937 93.6118H417.949C417.656 93.6118 417.44 93.8871 417.44 94.2389C417.44 94.5907 417.671 94.866 417.949 94.866ZM420.937 94.0095C420.937 94.0095 421.045 94.086 421.045 94.2389C421.045 94.3765 420.968 94.4683 420.937 94.4683H417.949C417.949 94.4683 417.841 94.3918 417.841 94.2389C417.841 94.086 417.918 94.0095 417.949 94.0095H420.937Z" fill="#545250"/>
<path d="M417.641 92.7554C417.641 92.9848 417.779 93.1836 417.949 93.1836H420.937C421.106 93.1836 421.245 92.9848 421.245 92.7554C421.245 92.526 421.106 92.3271 420.937 92.3271H417.949C417.779 92.3271 417.641 92.526 417.641 92.7554Z" fill="#797472"/>
<path d="M417.949 93.3826H420.937C421.23 93.3826 421.445 93.1073 421.445 92.7555C421.445 92.4037 421.214 92.1284 420.937 92.1284H417.949C417.656 92.1284 417.44 92.4037 417.44 92.7555C417.44 93.1073 417.671 93.3826 417.949 93.3826ZM420.937 92.5261C420.937 92.5261 421.045 92.6026 421.045 92.7555C421.045 92.9084 420.968 92.9849 420.937 92.9849H417.949C417.949 92.9849 417.841 92.9084 417.841 92.7555C417.841 92.6026 417.918 92.5261 417.949 92.5261H420.937Z" fill="#545250"/>
<path d="M417.641 91.2876C417.641 91.517 417.779 91.7159 417.949 91.7159H420.937C421.106 91.7159 421.245 91.517 421.245 91.2876C421.245 91.0582 421.106 90.8594 420.937 90.8594H417.949C417.779 90.8594 417.641 91.0429 417.641 91.2876Z" fill="#797472"/>
<path d="M417.949 91.9148H420.937C421.23 91.9148 421.445 91.6395 421.445 91.2877C421.445 90.9359 421.214 90.6606 420.937 90.6606H417.949C417.656 90.6606 417.44 90.9359 417.44 91.2877C417.44 91.6395 417.671 91.9148 417.949 91.9148ZM420.937 91.0583C420.937 91.0583 421.045 91.1501 421.045 91.2877C421.045 91.4407 420.968 91.5171 420.937 91.5171H417.949C417.949 91.5171 417.841 91.4407 417.841 91.2877C417.841 91.1348 417.918 91.0583 417.949 91.0583H420.937Z" fill="#545250"/>
<path d="M417.641 89.8194C417.641 90.0488 417.779 90.2476 417.949 90.2476H420.937C421.106 90.2476 421.245 90.0641 421.245 89.8194C421.245 89.5899 421.106 89.3911 420.937 89.3911H417.949C417.779 89.3911 417.641 89.5899 417.641 89.8194Z" fill="#797472"/>
<path d="M417.949 90.4465H420.937C421.23 90.4465 421.445 90.1712 421.445 89.8195C421.445 89.4677 421.214 89.1924 420.937 89.1924H417.949C417.656 89.1924 417.44 89.4677 417.44 89.8195C417.44 90.1712 417.671 90.4465 417.949 90.4465ZM420.937 89.59C420.937 89.59 421.045 89.6665 421.045 89.8195C421.045 89.9571 420.968 90.0489 420.937 90.0489H417.949C417.949 90.0489 417.841 89.9724 417.841 89.8195C417.841 89.6665 417.918 89.59 417.949 89.59H420.937Z" fill="#545250"/>
<path d="M403.822 100.112C403.822 100.816 404.392 101.397 405.116 101.397C405.825 101.397 406.41 100.816 406.41 100.112V89.8341C406.41 89.1305 405.825 88.5493 405.116 88.5493C404.408 88.5493 403.822 89.1305 403.822 89.8341V100.097V100.112Z" fill="#797472"/>
<path d="M405.116 101.58C405.948 101.58 406.61 100.923 406.61 100.097V89.8342C406.61 89.0083 405.933 88.3506 405.116 88.3506C404.3 88.3506 403.622 89.0236 403.622 89.8342V100.097C403.622 100.908 404.3 101.58 405.116 101.58ZM405.116 88.7482C405.717 88.7482 406.21 89.2377 406.21 89.8342V100.097C406.21 100.693 405.717 101.183 405.116 101.183C404.515 101.183 404.022 100.693 404.022 100.097V89.8342C404.022 89.2377 404.515 88.7482 405.116 88.7482Z" fill="#545250"/>
<path d="M403.313 100.127C403.313 100.356 403.452 100.555 403.622 100.555H406.61C406.779 100.555 406.918 100.356 406.918 100.127C406.918 99.8976 406.779 99.6987 406.61 99.6987H403.622C403.452 99.6987 403.313 99.8823 403.313 100.127Z" fill="#797472"/>
<path d="M403.621 100.754H406.61C406.903 100.754 407.118 100.479 407.118 100.127C407.118 99.7753 406.887 99.5 406.61 99.5H403.621C403.329 99.5 403.113 99.7753 403.113 100.127C403.113 100.479 403.344 100.754 403.621 100.754ZM406.61 99.8977C406.61 99.8977 406.718 99.9894 406.718 100.127C406.718 100.28 406.641 100.357 406.61 100.357H403.621C403.621 100.357 403.514 100.265 403.514 100.127C403.514 99.9894 403.591 99.8977 403.621 99.8977H406.61Z" fill="#545250"/>
<path d="M403.313 98.6592C403.313 98.8886 403.452 99.0875 403.622 99.0875H406.61C406.779 99.0875 406.918 98.9039 406.918 98.6592C406.918 98.4298 406.779 98.231 406.61 98.231H403.622C403.452 98.231 403.313 98.4145 403.313 98.6592Z" fill="#797472"/>
<path d="M403.621 99.2864H406.61C406.903 99.2864 407.118 99.0111 407.118 98.6593C407.118 98.3075 406.887 98.0322 406.61 98.0322H403.621C403.329 98.0322 403.113 98.3075 403.113 98.6593C403.113 99.0111 403.344 99.2864 403.621 99.2864ZM406.61 98.4299C406.61 98.4299 406.718 98.5217 406.718 98.6593C406.718 98.797 406.641 98.8887 406.61 98.8887H403.621C403.621 98.8887 403.514 98.797 403.514 98.6593C403.514 98.5217 403.591 98.4299 403.621 98.4299H406.61Z" fill="#545250"/>
<path d="M403.313 97.1758C403.313 97.4052 403.452 97.6041 403.622 97.6041H406.61C406.779 97.6041 406.918 97.4052 406.918 97.1758C406.918 96.9464 406.779 96.7476 406.61 96.7476H403.622C403.452 96.7476 403.313 96.9464 403.313 97.1758Z" fill="#797472"/>
<path d="M403.621 97.8181H406.61C406.903 97.8181 407.118 97.5428 407.118 97.191C407.118 96.8393 406.887 96.564 406.61 96.564H403.621C403.329 96.564 403.113 96.8393 403.113 97.191C403.113 97.5428 403.344 97.8181 403.621 97.8181ZM406.61 96.9616C406.61 96.9616 406.718 97.0381 406.718 97.191C406.718 97.3287 406.641 97.4205 406.61 97.4205H403.621C403.621 97.4205 403.514 97.3287 403.514 97.191C403.514 97.0534 403.591 96.9616 403.621 96.9616H406.61Z" fill="#545250"/>
<path d="M403.313 95.7075C403.313 95.9523 403.452 96.1358 403.622 96.1358H406.61C406.779 96.1358 406.918 95.9523 406.918 95.7075C406.918 95.4781 406.779 95.2793 406.61 95.2793H403.622C403.452 95.2793 403.313 95.4628 403.313 95.7075Z" fill="#797472"/>
<path d="M403.621 96.3347H406.61C406.903 96.3347 407.118 96.0594 407.118 95.7076C407.118 95.3559 406.887 95.0806 406.61 95.0806H403.621C403.329 95.0806 403.113 95.3559 403.113 95.7076C403.113 96.0594 403.344 96.3347 403.621 96.3347ZM406.61 95.4782C406.61 95.4782 406.718 95.57 406.718 95.7076C406.718 95.8453 406.641 95.9371 406.61 95.9371H403.621C403.621 95.9371 403.514 95.8606 403.514 95.7076C403.514 95.5547 403.591 95.4782 403.621 95.4782H406.61Z" fill="#545250"/>
<path d="M403.313 94.2388C403.313 94.4682 403.452 94.667 403.622 94.667H406.61C406.779 94.667 406.918 94.4835 406.918 94.2388C406.918 94.0094 406.779 93.8105 406.61 93.8105H403.622C403.452 93.8105 403.313 94.0094 403.313 94.2388Z" fill="#797472"/>
<path d="M403.621 94.866H406.61C406.903 94.866 407.118 94.5907 407.118 94.2389C407.118 93.8871 406.887 93.6118 406.61 93.6118H403.621C403.329 93.6118 403.113 93.8871 403.113 94.2389C403.113 94.5907 403.344 94.866 403.621 94.866ZM406.61 94.0095C406.61 94.0095 406.718 94.1012 406.718 94.2389C406.718 94.3765 406.641 94.4683 406.61 94.4683H403.621C403.621 94.4683 403.514 94.3918 403.514 94.2389C403.514 94.086 403.591 94.0095 403.621 94.0095H406.61Z" fill="#545250"/>
<path d="M403.313 92.7554C403.313 92.9848 403.452 93.1836 403.622 93.1836H406.61C406.779 93.1836 406.918 92.9848 406.918 92.7554C406.918 92.526 406.779 92.3271 406.61 92.3271H403.622C403.452 92.3271 403.313 92.526 403.313 92.7554Z" fill="#797472"/>
<path d="M403.621 93.3826H406.61C406.903 93.3826 407.118 93.1073 407.118 92.7555C407.118 92.4037 406.887 92.1284 406.61 92.1284H403.621C403.329 92.1284 403.113 92.4037 403.113 92.7555C403.113 93.1073 403.344 93.3826 403.621 93.3826ZM406.61 92.5261C406.61 92.5261 406.718 92.6178 406.718 92.7555C406.718 92.8932 406.641 92.9849 406.61 92.9849H403.621C403.621 92.9849 403.514 92.8932 403.514 92.7555C403.514 92.6178 403.591 92.5261 403.621 92.5261H406.61Z" fill="#545250"/>
<path d="M403.313 91.2876C403.313 91.517 403.452 91.7159 403.622 91.7159H406.61C406.779 91.7159 406.918 91.517 406.918 91.2876C406.918 91.0582 406.779 90.8594 406.61 90.8594H403.622C403.452 90.8594 403.313 91.0429 403.313 91.2876Z" fill="#797472"/>
<path d="M403.621 91.9148H406.61C406.903 91.9148 407.118 91.6395 407.118 91.2877C407.118 90.9359 406.887 90.6606 406.61 90.6606H403.621C403.329 90.6606 403.113 90.9359 403.113 91.2877C403.113 91.6395 403.344 91.9148 403.621 91.9148ZM406.61 91.0583C406.61 91.0583 406.718 91.1501 406.718 91.2877C406.718 91.4407 406.641 91.5171 406.61 91.5171H403.621C403.621 91.5171 403.514 91.4254 403.514 91.2877C403.514 91.1501 403.591 91.0583 403.621 91.0583H406.61Z" fill="#545250"/>
<path d="M403.313 89.8194C403.313 90.0488 403.452 90.2476 403.622 90.2476H406.61C406.779 90.2476 406.918 90.0641 406.918 89.8194C406.918 89.5899 406.779 89.3911 406.61 89.3911H403.622C403.452 89.3911 403.313 89.5899 403.313 89.8194Z" fill="#797472"/>
<path d="M403.621 90.4465H406.61C406.903 90.4465 407.118 90.1712 407.118 89.8195C407.118 89.4677 406.887 89.1924 406.61 89.1924H403.621C403.329 89.1924 403.113 89.4677 403.113 89.8195C403.113 90.1712 403.344 90.4465 403.621 90.4465ZM406.61 89.59C406.61 89.59 406.718 89.6665 406.718 89.8195C406.718 89.9571 406.641 90.0489 406.61 90.0489H403.621C403.621 90.0489 403.514 89.9724 403.514 89.8195C403.514 89.6665 403.591 89.59 403.621 89.59H406.61Z" fill="#545250"/>
<path d="M379.191 100.112C379.191 100.816 379.777 101.397 380.485 101.397C381.194 101.397 381.779 100.816 381.779 100.112V89.8341C381.779 89.1305 381.194 88.5493 380.485 88.5493C379.777 88.5493 379.191 89.1305 379.191 89.8341V100.097V100.112Z" fill="#797472"/>
<path d="M380.485 101.58C381.302 101.58 381.979 100.923 381.979 100.097V89.8342C381.979 89.0083 381.302 88.3506 380.485 88.3506C379.669 88.3506 378.991 89.0236 378.991 89.8342V100.097C378.991 100.908 379.669 101.58 380.485 101.58ZM380.485 88.7482C381.086 88.7482 381.579 89.2377 381.579 89.8342V100.097C381.579 100.693 381.086 101.183 380.485 101.183C379.885 101.183 379.392 100.693 379.392 100.097V89.8342C379.392 89.2377 379.885 88.7482 380.485 88.7482Z" fill="#545250"/>
<path d="M378.684 100.127C378.684 100.356 378.822 100.555 378.992 100.555H381.98C382.149 100.555 382.288 100.356 382.288 100.127C382.288 99.8976 382.149 99.6987 381.98 99.6987H378.992C378.822 99.6987 378.684 99.8823 378.684 100.127Z" fill="#797472"/>
<path d="M378.976 100.754H381.964C382.257 100.754 382.473 100.479 382.473 100.127C382.473 99.7753 382.242 99.5 381.964 99.5H378.976C378.683 99.5 378.468 99.7753 378.468 100.127C378.468 100.479 378.699 100.754 378.976 100.754ZM381.964 99.8977C381.964 99.8977 382.072 99.9894 382.072 100.127C382.072 100.28 381.995 100.357 381.964 100.357H378.976C378.976 100.357 378.868 100.265 378.868 100.127C378.868 99.9894 378.945 99.8977 378.976 99.8977H381.964Z" fill="#545250"/>
<path d="M378.684 98.6592C378.684 98.8886 378.822 99.0875 378.992 99.0875H381.98C382.149 99.0875 382.288 98.9039 382.288 98.6592C382.288 98.4298 382.149 98.231 381.98 98.231H378.992C378.822 98.231 378.684 98.4145 378.684 98.6592Z" fill="#797472"/>
<path d="M378.976 99.2864H381.964C382.257 99.2864 382.473 99.0111 382.473 98.6593C382.473 98.3075 382.242 98.0322 381.964 98.0322H378.976C378.683 98.0322 378.468 98.3075 378.468 98.6593C378.468 99.0111 378.699 99.2864 378.976 99.2864ZM381.964 98.4299C381.964 98.4299 382.072 98.5217 382.072 98.6593C382.072 98.797 381.995 98.8887 381.964 98.8887H378.976C378.976 98.8887 378.868 98.797 378.868 98.6593C378.868 98.5217 378.945 98.4299 378.976 98.4299H381.964Z" fill="#545250"/>
<path d="M378.684 97.1758C378.684 97.4052 378.822 97.6041 378.992 97.6041H381.98C382.149 97.6041 382.288 97.4052 382.288 97.1758C382.288 96.9464 382.149 96.7476 381.98 96.7476H378.992C378.822 96.7476 378.684 96.9464 378.684 97.1758Z" fill="#797472"/>
<path d="M378.976 97.8181H381.964C382.257 97.8181 382.473 97.5428 382.473 97.191C382.473 96.8393 382.242 96.564 381.964 96.564H378.976C378.683 96.564 378.468 96.8393 378.468 97.191C378.468 97.5428 378.699 97.8181 378.976 97.8181ZM381.964 96.9616C381.964 96.9616 382.072 97.0381 382.072 97.191C382.072 97.344 381.995 97.4205 381.964 97.4205H378.976C378.976 97.4205 378.868 97.3287 378.868 97.191C378.868 97.0534 378.945 96.9616 378.976 96.9616H381.964Z" fill="#545250"/>
<path d="M378.684 95.7075C378.684 95.9523 378.822 96.1358 378.992 96.1358H381.98C382.149 96.1358 382.288 95.9523 382.288 95.7075C382.288 95.4781 382.149 95.2793 381.98 95.2793H378.992C378.822 95.2793 378.684 95.4628 378.684 95.7075Z" fill="#797472"/>
<path d="M378.976 96.3347H381.964C382.257 96.3347 382.473 96.0594 382.473 95.7076C382.473 95.3559 382.242 95.0806 381.964 95.0806H378.976C378.683 95.0806 378.468 95.3559 378.468 95.7076C378.468 96.0594 378.699 96.3347 378.976 96.3347ZM381.964 95.4782C381.964 95.4782 382.072 95.57 382.072 95.7076C382.072 95.8453 381.995 95.9371 381.964 95.9371H378.976C378.976 95.9371 378.868 95.8606 378.868 95.7076C378.868 95.5547 378.945 95.4782 378.976 95.4782H381.964Z" fill="#545250"/>
<path d="M378.684 94.2388C378.684 94.4682 378.822 94.667 378.992 94.667H381.98C382.149 94.667 382.288 94.4835 382.288 94.2388C382.288 94.0094 382.149 93.8105 381.98 93.8105H378.992C378.822 93.8105 378.684 94.0094 378.684 94.2388Z" fill="#797472"/>
<path d="M378.976 94.866H381.964C382.257 94.866 382.473 94.5907 382.473 94.2389C382.473 93.8871 382.242 93.6118 381.964 93.6118H378.976C378.683 93.6118 378.468 93.8871 378.468 94.2389C378.468 94.5907 378.699 94.866 378.976 94.866ZM381.964 94.0095C381.964 94.0095 382.072 94.086 382.072 94.2389C382.072 94.3765 381.995 94.4683 381.964 94.4683H378.976C378.976 94.4683 378.868 94.3918 378.868 94.2389C378.868 94.086 378.945 94.0095 378.976 94.0095H381.964Z" fill="#545250"/>
<path d="M378.684 92.7554C378.684 92.9848 378.822 93.1836 378.992 93.1836H381.98C382.149 93.1836 382.288 92.9848 382.288 92.7554C382.288 92.526 382.149 92.3271 381.98 92.3271H378.992C378.822 92.3271 378.684 92.526 378.684 92.7554Z" fill="#797472"/>
<path d="M378.976 93.3826H381.964C382.257 93.3826 382.473 93.1073 382.473 92.7555C382.473 92.4037 382.242 92.1284 381.964 92.1284H378.976C378.683 92.1284 378.468 92.4037 378.468 92.7555C378.468 93.1073 378.699 93.3826 378.976 93.3826ZM381.964 92.5261C381.964 92.5261 382.072 92.6026 382.072 92.7555C382.072 92.9084 381.995 92.9849 381.964 92.9849H378.976C378.976 92.9849 378.868 92.8932 378.868 92.7555C378.868 92.6178 378.945 92.5261 378.976 92.5261H381.964Z" fill="#545250"/>
<path d="M378.684 91.2876C378.684 91.517 378.822 91.7159 378.992 91.7159H381.98C382.149 91.7159 382.288 91.517 382.288 91.2876C382.288 91.0582 382.149 90.8594 381.98 90.8594H378.992C378.822 90.8594 378.684 91.0429 378.684 91.2876Z" fill="#797472"/>
<path d="M378.976 91.9148H381.964C382.257 91.9148 382.473 91.6395 382.473 91.2877C382.473 90.9359 382.242 90.6606 381.964 90.6606H378.976C378.683 90.6606 378.468 90.9359 378.468 91.2877C378.468 91.6395 378.699 91.9148 378.976 91.9148ZM381.964 91.0583C381.964 91.0583 382.072 91.1501 382.072 91.2877C382.072 91.4407 381.995 91.5171 381.964 91.5171H378.976C378.976 91.5171 378.868 91.4254 378.868 91.2877C378.868 91.1501 378.945 91.0583 378.976 91.0583H381.964Z" fill="#545250"/>
<path d="M378.684 89.8194C378.684 90.0488 378.822 90.2476 378.992 90.2476H381.98C382.149 90.2476 382.288 90.0641 382.288 89.8194C382.288 89.5899 382.149 89.3911 381.98 89.3911H378.992C378.822 89.3911 378.684 89.5899 378.684 89.8194Z" fill="#797472"/>
<path d="M378.976 90.4465H381.964C382.257 90.4465 382.473 90.1712 382.473 89.8195C382.473 89.4677 382.242 89.1924 381.964 89.1924H378.976C378.683 89.1924 378.468 89.4677 378.468 89.8195C378.468 90.1712 378.699 90.4465 378.976 90.4465ZM381.964 89.59C381.964 89.59 382.072 89.6665 382.072 89.8195C382.072 89.9571 381.995 90.0489 381.964 90.0489H378.976C378.976 90.0489 378.868 89.9724 378.868 89.8195C378.868 89.6665 378.945 89.59 378.976 89.59H381.964Z" fill="#545250"/>
<path d="M364.85 100.112C364.85 100.816 365.435 101.397 366.144 101.397C366.852 101.397 367.438 100.816 367.438 100.112V89.8341C367.438 89.1305 366.852 88.5493 366.144 88.5493C365.435 88.5493 364.85 89.1305 364.85 89.8341V100.097V100.112Z" fill="#797472"/>
<path d="M366.144 101.58C366.96 101.58 367.638 100.923 367.638 100.097V89.8342C367.638 89.0083 366.96 88.3506 366.144 88.3506C365.327 88.3506 364.649 89.0236 364.649 89.8342V100.097C364.649 100.908 365.327 101.58 366.144 101.58ZM366.144 88.7482C366.744 88.7482 367.237 89.2377 367.237 89.8342V100.097C367.237 100.693 366.744 101.183 366.144 101.183C365.543 101.183 365.05 100.693 365.05 100.097V89.8342C365.05 89.2377 365.543 88.7482 366.144 88.7482Z" fill="#545250"/>
<path d="M364.341 100.127C364.341 100.356 364.479 100.555 364.649 100.555H367.637C367.807 100.555 367.945 100.356 367.945 100.127C367.945 99.8976 367.807 99.6987 367.637 99.6987H364.649C364.479 99.6987 364.341 99.8823 364.341 100.127Z" fill="#797472"/>
<path d="M364.649 100.754H367.637C367.93 100.754 368.146 100.479 368.146 100.127C368.146 99.7753 367.914 99.5 367.637 99.5H364.649C364.356 99.5 364.14 99.7753 364.14 100.127C364.14 100.479 364.372 100.754 364.649 100.754ZM367.637 99.8977C367.637 99.8977 367.745 99.9894 367.745 100.127C367.745 100.28 367.668 100.357 367.637 100.357H364.649C364.649 100.357 364.541 100.28 364.541 100.127C364.541 99.9741 364.618 99.8977 364.649 99.8977H367.637Z" fill="#545250"/>
<path d="M364.341 98.6592C364.341 98.8886 364.479 99.0875 364.649 99.0875H367.637C367.807 99.0875 367.945 98.9039 367.945 98.6592C367.945 98.4298 367.807 98.231 367.637 98.231H364.649C364.479 98.231 364.341 98.4145 364.341 98.6592Z" fill="#797472"/>
<path d="M364.649 99.2864H367.637C367.93 99.2864 368.146 99.0111 368.146 98.6593C368.146 98.3075 367.914 98.0322 367.637 98.0322H364.649C364.356 98.0322 364.14 98.3075 364.14 98.6593C364.14 99.0111 364.372 99.2864 364.649 99.2864ZM367.637 98.4299C367.637 98.4299 367.745 98.5217 367.745 98.6593C367.745 98.797 367.683 98.8887 367.637 98.8887H364.649C364.649 98.8887 364.541 98.8123 364.541 98.6593C364.541 98.5064 364.618 98.4299 364.649 98.4299H367.637Z" fill="#545250"/>
<path d="M364.341 97.1758C364.341 97.4052 364.479 97.6041 364.649 97.6041H367.637C367.807 97.6041 367.945 97.4052 367.945 97.1758C367.945 96.9464 367.807 96.7476 367.637 96.7476H364.649C364.479 96.7476 364.341 96.9464 364.341 97.1758Z" fill="#797472"/>
<path d="M364.649 97.8181H367.637C367.93 97.8181 368.146 97.5428 368.146 97.191C368.146 96.8393 367.914 96.564 367.637 96.564H364.649C364.356 96.564 364.14 96.8393 364.14 97.191C364.14 97.5428 364.372 97.8181 364.649 97.8181ZM367.637 96.9616C367.637 96.9616 367.745 97.0381 367.745 97.191C367.745 97.344 367.668 97.4205 367.637 97.4205H364.649C364.649 97.4205 364.541 97.344 364.541 97.191C364.541 97.0381 364.618 96.9616 364.649 96.9616H367.637Z" fill="#545250"/>
<path d="M364.341 95.7075C364.341 95.9523 364.479 96.1358 364.649 96.1358H367.637C367.807 96.1358 367.945 95.9523 367.945 95.7075C367.945 95.4781 367.807 95.2793 367.637 95.2793H364.649C364.479 95.2793 364.341 95.4628 364.341 95.7075Z" fill="#797472"/>
<path d="M364.649 96.3347H367.637C367.93 96.3347 368.146 96.0594 368.146 95.7076C368.146 95.3559 367.914 95.0806 367.637 95.0806H364.649C364.356 95.0806 364.14 95.3559 364.14 95.7076C364.14 96.0594 364.372 96.3347 364.649 96.3347ZM367.637 95.4782C367.637 95.4782 367.745 95.57 367.745 95.7076C367.745 95.8453 367.683 95.9371 367.637 95.9371H364.649C364.649 95.9371 364.541 95.8606 364.541 95.7076C364.541 95.5547 364.618 95.4782 364.649 95.4782H367.637Z" fill="#545250"/>
<path d="M364.341 94.2388C364.341 94.4682 364.479 94.667 364.649 94.667H367.637C367.807 94.667 367.945 94.4835 367.945 94.2388C367.945 94.0094 367.807 93.8105 367.637 93.8105H364.649C364.479 93.8105 364.341 94.0094 364.341 94.2388Z" fill="#797472"/>
<path d="M364.649 94.866H367.637C367.93 94.866 368.146 94.5907 368.146 94.2389C368.146 93.8871 367.914 93.6118 367.637 93.6118H364.649C364.356 93.6118 364.14 93.8871 364.14 94.2389C364.14 94.5907 364.372 94.866 364.649 94.866ZM367.637 94.0095C367.637 94.0095 367.745 94.086 367.745 94.2389C367.745 94.3765 367.683 94.4683 367.637 94.4683H364.649C364.649 94.4683 364.541 94.3918 364.541 94.2389C364.541 94.086 364.618 94.0095 364.649 94.0095H367.637Z" fill="#545250"/>
<path d="M364.341 92.7554C364.341 92.9848 364.479 93.1836 364.649 93.1836H367.637C367.807 93.1836 367.945 92.9848 367.945 92.7554C367.945 92.526 367.807 92.3271 367.637 92.3271H364.649C364.479 92.3271 364.341 92.526 364.341 92.7554Z" fill="#797472"/>
<path d="M364.649 93.3826H367.637C367.93 93.3826 368.146 93.1073 368.146 92.7555C368.146 92.4037 367.914 92.1284 367.637 92.1284H364.649C364.356 92.1284 364.14 92.4037 364.14 92.7555C364.14 93.1073 364.372 93.3826 364.649 93.3826ZM367.637 92.5261C367.637 92.5261 367.745 92.6026 367.745 92.7555C367.745 92.9084 367.668 92.9849 367.637 92.9849H364.649C364.649 92.9849 364.541 92.9084 364.541 92.7555C364.541 92.6026 364.618 92.5261 364.649 92.5261H367.637Z" fill="#545250"/>
<path d="M364.341 91.2876C364.341 91.517 364.479 91.7159 364.649 91.7159H367.637C367.807 91.7159 367.945 91.517 367.945 91.2876C367.945 91.0582 367.807 90.8594 367.637 90.8594H364.649C364.479 90.8594 364.341 91.0429 364.341 91.2876Z" fill="#797472"/>
<path d="M364.649 91.9148H367.637C367.93 91.9148 368.146 91.6395 368.146 91.2877C368.146 90.9359 367.914 90.6606 367.637 90.6606H364.649C364.356 90.6606 364.14 90.9359 364.14 91.2877C364.14 91.6395 364.372 91.9148 364.649 91.9148ZM367.637 91.0583C367.637 91.0583 367.745 91.1501 367.745 91.2877C367.745 91.4407 367.668 91.5171 367.637 91.5171H364.649C364.649 91.5171 364.541 91.4407 364.541 91.2877C364.541 91.1348 364.618 91.0583 364.649 91.0583H367.637Z" fill="#545250"/>
<path d="M364.341 89.8194C364.341 90.0488 364.479 90.2476 364.649 90.2476H367.637C367.807 90.2476 367.945 90.0641 367.945 89.8194C367.945 89.5899 367.807 89.3911 367.637 89.3911H364.649C364.479 89.3911 364.341 89.5899 364.341 89.8194Z" fill="#797472"/>
<path d="M364.649 90.4465H367.637C367.93 90.4465 368.146 90.1712 368.146 89.8195C368.146 89.4677 367.914 89.1924 367.637 89.1924H364.649C364.356 89.1924 364.14 89.4677 364.14 89.8195C364.14 90.1712 364.372 90.4465 364.649 90.4465ZM367.637 89.59C367.637 89.59 367.745 89.6665 367.745 89.8195C367.745 89.9571 367.683 90.0489 367.637 90.0489H364.649C364.649 90.0489 364.541 89.9724 364.541 89.8195C364.541 89.6665 364.618 89.59 364.649 89.59H367.637Z" fill="#545250"/>
<path d="M388.526 85.0459H396.243V279.655H388.526V85.0459Z" fill="#B8B0AB"/>
<path d="M388.526 279.854H396.243C396.351 279.854 396.443 279.762 396.443 279.655V85.046C396.443 84.9389 396.351 84.8472 396.243 84.8472H388.526C388.418 84.8472 388.325 84.9389 388.325 85.046V279.655C388.325 279.762 388.418 279.854 388.526 279.854ZM396.043 279.457H388.741V85.2448H396.043V279.441V279.457Z" fill="#797673"/>
<path d="M381.979 119.934H417.577V146.072H381.979V119.934Z" fill="#A9A9A9"/>
<path d="M381.979 146.286H417.577C417.685 146.286 417.777 146.194 417.777 146.087V119.949C417.777 119.842 417.685 119.75 417.577 119.75H381.979C381.871 119.75 381.778 119.842 381.778 119.949V146.087C381.778 146.194 381.871 146.286 381.979 146.286ZM417.377 145.889H382.179V120.148H417.377V145.889Z" fill="#8E8986"/>
<path d="M379.051 119.397H420.38V122.319H379.051V119.397Z" fill="#A9A9A9"/>
<path d="M379.066 122.518H420.38C420.488 122.518 420.58 122.426 420.58 122.319V119.398C420.58 119.291 420.488 119.199 420.38 119.199H379.051C378.943 119.199 378.851 119.291 378.851 119.398V122.319C378.851 122.426 378.943 122.518 379.051 122.518H379.066ZM420.18 122.12H379.267V119.596H420.18V122.12Z" fill="#8E8986"/>
<path d="M381.947 122.35H417.653V123.145H381.947V122.35Z" fill="#A9A9A9"/>
<path d="M381.932 123.344H417.653C417.761 123.344 417.854 123.253 417.854 123.146V122.35C417.854 122.243 417.761 122.151 417.653 122.151H381.947C381.839 122.151 381.747 122.243 381.747 122.35V123.146C381.747 123.253 381.839 123.344 381.947 123.344H381.932ZM417.438 122.947H382.132V122.549H417.438V122.947Z" fill="#8E8986"/>
<path d="M359.242 93.2437H425.541V98.6733H359.242V93.2437Z" fill="#797472"/>
<path d="M359.242 98.8722H425.541C425.649 98.8722 425.741 98.7804 425.741 98.6734V93.2438C425.741 93.1367 425.649 93.0449 425.541 93.0449H359.242C359.135 93.0449 359.042 93.1367 359.042 93.2438V98.6734C359.042 98.7804 359.135 98.8722 359.242 98.8722ZM425.341 98.4745H359.443V93.4579H425.341V98.4745Z" fill="#545250"/>
<g clip-path="url(#clip0_709_4092)">
<path d="M250.799 293.607L131.155 356.155L28 302.226L147.645 240.644L250.799 293.607Z" fill="#58595B"/>
<path d="M250.799 293.607V300.444L131.154 362.992V356.155L250.799 293.607Z" fill="#A7A9AC"/>
<path d="M28 309.221L131.191 362.992V356.163L28 302.234V309.221Z" fill="#7A7C7E"/>
<path d="M245.944 218.36V296.164L147.673 244.791V166.987L245.944 218.36Z" fill="#EFE19F"/>
<path d="M147.673 166.987L245.935 218.368L250.8 215.836L152.529 164.447L147.673 166.987Z" fill="white"/>
<path d="M245.943 218.368L250.799 215.828V293.624L245.943 296.164V218.368Z" fill="#A7A9AC"/>
<path d="M32.7461 152.872L152.465 90.3325V242.235L32.7461 304.816V152.872Z" fill="#EFE19F"/>
<path d="M28 145.094L32.7917 147.551L147.608 87.5845L134.447 89.3832L28 145.094Z" fill="#939598"/>
<path d="M82.916 253.377V330.939L134.714 303.908L134.705 226.038L82.916 253.377Z" fill="#9A8A85"/>
<path d="M78.0596 251.104V328.408L82.9156 330.939V253.377L78.0596 251.104Z" fill="#7A7C7E"/>
<path d="M129.876 223.556L182.897 251.278L187.753 248.747L134.732 221.024L129.876 223.556Z" fill="white"/>
<path d="M74.3076 253.027L79.0165 255.484L139.598 223.564L134.732 221.024L74.3076 253.027Z" fill="white"/>
<path d="M182.897 251.295L187.754 248.755V326.551L182.897 329.091V251.295Z" fill="#A7A9AC"/>
<path d="M134.714 303.9L182.898 329.091V251.287L134.705 226.038L134.714 303.9Z" fill="#6F6460"/>
<path d="M147.257 287.456L159.406 293.81L165.743 290.504L153.584 284.15L147.257 287.456Z" fill="#D1D3D4"/>
<path d="M159.406 293.81L147.257 287.456V288.439L159.397 294.734L159.406 293.81Z" fill="#A7A9AC"/>
<path d="M165.743 291.495V290.504L159.407 293.81L159.397 294.734L165.743 291.495Z" fill="#939598"/>
<path d="M152.922 286.656L159.075 289.871V280.994L152.922 277.771V286.656Z" fill="#A7A9AC"/>
<path d="M159.075 289.871L161.761 288.472V279.586L159.075 280.994V289.871Z" fill="#939598"/>
<path d="M161.76 279.587L155.607 276.372L152.922 277.771L159.075 280.994L161.76 279.587Z" fill="#868686"/>
<path d="M177.791 292.893V302.503L182.38 300.105V290.495L177.791 292.893Z" fill="#C8C8C8"/>
<path d="M164.005 285.69L168.603 283.292L182.381 290.495L177.791 292.894L164.005 285.69Z" fill="#E6E7E8"/>
<path d="M164.005 295.3V285.69L177.791 292.894V302.504L164.005 295.3Z" fill="#D2B478"/>
<path fill-rule="evenodd" clip-rule="evenodd" d="M173.229 297.349C173.229 297.408 173.193 297.424 173.174 297.433L172.668 297.699H172.659C172.604 297.707 172.54 297.657 172.503 297.582C172.503 297.582 172.484 297.524 172.484 297.499C172.484 297.474 172.484 297.449 172.503 297.433H172.521L173.055 297.149C173.073 297.149 173.091 297.149 173.119 297.158C173.137 297.174 173.165 297.191 173.183 297.224C173.193 297.241 173.202 297.249 173.211 297.266C173.22 297.291 173.229 297.324 173.229 297.349Z" fill="#B3B1B1"/>
<path fill-rule="evenodd" clip-rule="evenodd" d="M172.669 297.702H172.66C172.605 297.71 172.54 297.651 172.503 297.576C172.476 297.517 172.476 297.458 172.503 297.424C172.503 297.424 172.522 297.424 172.522 297.416C172.568 297.416 172.641 297.466 172.669 297.542C172.697 297.609 172.697 297.677 172.669 297.702Z" fill="#E6E6E6"/>
<path fill-rule="evenodd" clip-rule="evenodd" d="M173.183 297.225L172.503 297.583C172.484 297.558 172.484 297.525 172.484 297.5L173.119 297.167C173.119 297.167 173.165 297.2 173.183 297.225Z" fill="#D1D3D4"/>
<path fill-rule="evenodd" clip-rule="evenodd" d="M168.714 294.976C168.714 295.026 168.677 295.051 168.659 295.059L168.153 295.325H168.135C168.135 295.325 168.135 295.325 168.135 295.334C168.089 295.342 168.015 295.292 167.978 295.217C167.969 295.192 167.96 295.167 167.96 295.134C167.96 295.101 167.96 295.084 167.978 295.067H167.997L168.521 294.784C168.521 294.784 168.558 294.784 168.585 294.792C168.613 294.809 168.631 294.826 168.65 294.859C168.65 294.876 168.668 294.884 168.668 294.909C168.687 294.934 168.687 294.967 168.696 294.992L168.714 294.976Z" fill="#B3B1B1"/>
<path fill-rule="evenodd" clip-rule="evenodd" d="M168.154 295.328H168.136C168.089 295.337 168.016 295.286 167.979 295.202C167.951 295.143 167.951 295.085 167.979 295.051C167.979 295.051 167.988 295.042 167.997 295.042C167.997 295.042 168.108 295.093 168.145 295.169C168.172 295.236 168.172 295.303 168.145 295.328H168.154Z" fill="#E6E6E6"/>
<path fill-rule="evenodd" clip-rule="evenodd" d="M168.669 294.851L167.988 295.209C167.979 295.176 167.97 295.151 167.97 295.126L168.604 294.792C168.604 294.792 168.65 294.826 168.669 294.851Z" fill="#D1D3D4"/>
<path fill-rule="evenodd" clip-rule="evenodd" d="M167.877 294.893L173.018 297.582L172.917 297.824L172.871 297.857L172.853 297.84L167.749 295.176C167.749 295.176 167.693 295.142 167.693 295.092C167.693 295.067 167.703 295.042 167.712 295.009C167.749 294.926 167.822 294.876 167.868 294.884L167.877 294.893Z" fill="#BAB8B8"/>
<path fill-rule="evenodd" clip-rule="evenodd" d="M172.899 297.641L172.881 297.724L172.715 297.633L167.712 295.018C167.712 295.018 167.73 294.96 167.758 294.943L172.724 297.541H172.752L172.899 297.633V297.641Z" fill="white"/>
<path fill-rule="evenodd" clip-rule="evenodd" d="M173.019 297.582C173.065 297.591 173.084 297.666 173.047 297.751C173.01 297.835 172.936 297.885 172.89 297.877C172.844 297.868 172.835 297.793 172.862 297.708C172.899 297.633 172.964 297.574 173.019 297.582Z" fill="#E6E6E6"/>
<path d="M176.798 298.706L164.74 292.402V287.306L176.798 293.61V298.706Z" fill="#BCBEC0"/>
<path opacity="0.1" d="M164.74 292.402V287.306L176.798 293.61L164.74 292.402Z" fill="white"/>
<path d="M138.781 302.29L138.846 302.323V316.788L138.781 316.763V302.29Z" fill="#594A42"/>
<path d="M128.417 296.86L138.948 291.347L149.239 296.718L138.709 302.248L128.417 296.86Z" fill="#E6E7E8"/>
<path d="M128.389 311.316L128.425 296.868L138.781 302.289L138.708 316.713L128.389 311.316Z" fill="#D2B478"/>
<path d="M138.625 301.898L138.689 301.931V316.704L138.606 316.663L138.625 301.898Z" fill="#594A42"/>
<path fill-rule="evenodd" clip-rule="evenodd" d="M136.898 304.28C136.898 304.346 136.852 304.371 136.833 304.379L136.245 304.688H136.226V304.704C136.162 304.721 136.088 304.654 136.042 304.563C136.024 304.529 136.015 304.496 136.015 304.463C136.015 304.429 136.015 304.404 136.033 304.379L136.061 304.363L136.686 304.046C136.686 304.046 136.732 304.046 136.76 304.063C136.787 304.08 136.815 304.105 136.842 304.138C136.842 304.155 136.861 304.171 136.87 304.188C136.888 304.221 136.898 304.255 136.898 304.288V304.28Z" fill="#B3B1B1"/>
<path fill-rule="evenodd" clip-rule="evenodd" d="M136.235 304.697H136.217V304.714C136.152 304.73 136.078 304.663 136.032 304.563C135.995 304.488 136.004 304.421 136.032 304.388C136.032 304.388 136.051 304.379 136.06 304.371H136.069C136.124 304.371 136.207 304.43 136.244 304.521C136.281 304.597 136.272 304.672 136.244 304.705L136.235 304.697Z" fill="#E6E6E6"/>
<path fill-rule="evenodd" clip-rule="evenodd" d="M136.841 304.138L136.041 304.555C136.023 304.521 136.014 304.488 136.014 304.463L136.759 304.072C136.759 304.072 136.814 304.113 136.832 304.147L136.841 304.138Z" fill="#D1D3D4"/>
<path fill-rule="evenodd" clip-rule="evenodd" d="M131.571 301.482C131.571 301.548 131.534 301.565 131.507 301.582L130.909 301.89L130.891 301.898C130.891 301.898 130.891 301.898 130.881 301.898C130.826 301.915 130.743 301.848 130.698 301.756C130.679 301.723 130.679 301.69 130.67 301.665C130.67 301.632 130.67 301.607 130.688 301.59C130.688 301.59 130.688 301.59 130.698 301.59L130.716 301.573L131.341 301.257C131.36 301.257 131.387 301.257 131.415 301.274C131.442 301.29 131.47 301.315 131.498 301.348C131.507 301.365 131.516 301.382 131.525 301.407C131.544 301.44 131.553 301.473 131.553 301.507L131.571 301.482Z" fill="#B3B1B1"/>
<path fill-rule="evenodd" clip-rule="evenodd" d="M130.918 301.899L130.9 301.907C130.9 301.907 130.9 301.907 130.891 301.907C130.835 301.924 130.752 301.857 130.706 301.765C130.679 301.69 130.679 301.623 130.706 301.59C130.706 301.59 130.706 301.59 130.716 301.59C130.716 301.59 130.725 301.573 130.734 301.573C130.799 301.573 130.872 301.632 130.909 301.715C130.946 301.799 130.937 301.874 130.909 301.899H130.918Z" fill="#E6E6E6"/>
<path fill-rule="evenodd" clip-rule="evenodd" d="M131.526 301.341L130.726 301.757C130.707 301.724 130.698 301.69 130.698 301.665L131.443 301.274C131.443 301.274 131.498 301.316 131.526 301.349V301.341Z" fill="#D1D3D4"/>
<path fill-rule="evenodd" clip-rule="evenodd" d="M130.588 301.39L136.639 304.555L136.529 304.846L136.474 304.879L136.446 304.863L130.44 301.723C130.44 301.723 130.376 301.69 130.376 301.623C130.376 301.598 130.376 301.557 130.404 301.524C130.45 301.432 130.523 301.365 130.588 301.382V301.39Z" fill="#BAB8B8"/>
<path fill-rule="evenodd" clip-rule="evenodd" d="M136.501 304.63L136.473 304.738L136.28 304.63L130.385 301.549V301.532C130.385 301.532 130.422 301.482 130.44 301.457L136.289 304.513L136.317 304.53L136.501 304.63Z" fill="white"/>
<path fill-rule="evenodd" clip-rule="evenodd" d="M136.64 304.555C136.704 304.572 136.714 304.655 136.677 304.747C136.631 304.839 136.557 304.906 136.492 304.889C136.437 304.872 136.419 304.789 136.465 304.697C136.501 304.605 136.594 304.538 136.649 304.555H136.64Z" fill="#E6E6E6"/>
<path d="M159.53 302.098L138.781 291.255V305.72L159.53 316.563V302.098Z" fill="#E6E7E8"/>
<path d="M148.99 307.627V322.084L159.53 316.563V302.098L148.99 307.627Z" fill="#6D6E71"/>
<path d="M128.417 296.86L138.782 291.255L159.531 302.098L148.963 307.636L128.417 296.86Z" fill="#E6E7E8"/>
<path d="M138.699 316.704L138.782 302.298L148.991 307.627V322.084L138.699 316.704Z" fill="#D2B478"/>
<path d="M169.749 318.478V332.943L180.289 327.413V312.957L169.749 318.478Z" fill="#E6E7E8"/>
<path d="M149.001 307.619L159.541 302.106L180.289 312.957L169.722 318.486L149.001 307.619Z" fill="#E6E7E8"/>
<path d="M149 322.092V307.627L169.749 318.478V332.943L149 322.092Z" fill="#D2B478"/>
<path d="M159.447 313.106L159.511 313.14V327.605L159.429 327.563L159.447 313.106Z" fill="#594A42"/>
<path d="M148.917 307.594L148.99 307.627V322.084L148.898 322.042L148.917 307.594Z" fill="#594A42"/>
<path fill-rule="evenodd" clip-rule="evenodd" d="M167.256 319.969C167.256 320.035 167.22 320.06 167.192 320.068L166.594 320.377H166.576C166.576 320.377 166.576 320.377 166.567 320.377C166.511 320.385 166.429 320.327 166.392 320.235C166.373 320.202 166.364 320.168 166.364 320.135C166.364 320.102 166.364 320.069 166.383 320.052L166.41 320.035L167.036 319.719C167.054 319.719 167.082 319.719 167.109 319.735C167.137 319.752 167.164 319.777 167.183 319.81C167.192 319.827 167.201 319.844 167.22 319.86C167.238 319.894 167.238 319.927 167.238 319.952L167.256 319.969Z" fill="#B3B1B1"/>
<path fill-rule="evenodd" clip-rule="evenodd" d="M166.594 320.378H166.575C166.575 320.378 166.575 320.386 166.566 320.386C166.502 320.394 166.419 320.336 166.382 320.236C166.345 320.16 166.354 320.094 166.382 320.06C166.382 320.06 166.4 320.052 166.409 320.043C166.465 320.043 166.539 320.102 166.585 320.185C166.621 320.261 166.612 320.344 166.585 320.369L166.594 320.378Z" fill="#E6E6E6"/>
<path fill-rule="evenodd" clip-rule="evenodd" d="M167.21 319.819L166.41 320.235C166.392 320.202 166.392 320.169 166.392 320.144L167.137 319.752C167.137 319.752 167.192 319.794 167.21 319.827V319.819Z" fill="#D1D3D4"/>
<path fill-rule="evenodd" clip-rule="evenodd" d="M161.94 317.171C161.94 317.237 161.894 317.254 161.876 317.271L161.278 317.579H161.259C161.204 317.595 161.121 317.529 161.075 317.437C161.075 317.437 161.048 317.362 161.048 317.337C161.048 317.304 161.048 317.279 161.066 317.262C161.066 317.262 161.066 317.254 161.075 317.254H161.103L161.719 316.921C161.738 316.921 161.765 316.921 161.793 316.938C161.82 316.954 161.848 316.979 161.876 317.013C161.876 317.029 161.894 317.046 161.903 317.071C161.922 317.104 161.922 317.137 161.922 317.171H161.94Z" fill="#B3B1B1"/>
<path fill-rule="evenodd" clip-rule="evenodd" d="M161.278 317.58H161.26V317.588C161.205 317.605 161.112 317.538 161.076 317.446C161.039 317.371 161.039 317.304 161.076 317.271C161.076 317.271 161.076 317.271 161.085 317.271C161.085 317.271 161.103 317.262 161.112 317.262C161.168 317.262 161.251 317.321 161.288 317.413C161.324 317.488 161.315 317.571 161.288 317.596L161.278 317.58Z" fill="#E6E6E6"/>
<path fill-rule="evenodd" clip-rule="evenodd" d="M161.885 317.03L161.085 317.446C161.067 317.413 161.058 317.38 161.058 317.355L161.803 316.963C161.803 316.963 161.858 317.005 161.885 317.038V317.03Z" fill="#D1D3D4"/>
<path fill-rule="evenodd" clip-rule="evenodd" d="M160.956 317.079L167.007 320.243L166.897 320.535L166.842 320.568L166.814 320.552L160.809 317.412C160.809 317.412 160.744 317.379 160.744 317.312C160.744 317.279 160.744 317.246 160.763 317.212C160.809 317.112 160.891 317.054 160.946 317.071L160.956 317.079Z" fill="#BAB8B8"/>
<path fill-rule="evenodd" clip-rule="evenodd" d="M166.87 320.319L166.842 320.419L166.658 320.311L160.763 317.23C160.763 317.23 160.79 317.163 160.809 317.138L166.658 320.194H166.686L166.86 320.311L166.87 320.319Z" fill="white"/>
<path fill-rule="evenodd" clip-rule="evenodd" d="M167.008 320.235C167.063 320.252 167.082 320.335 167.035 320.427C166.989 320.519 166.916 320.586 166.851 320.569C166.796 320.552 166.777 320.469 166.814 320.377C166.86 320.285 166.943 320.218 166.999 320.235H167.008Z" fill="#E6E6E6"/>
<path fill-rule="evenodd" clip-rule="evenodd" d="M156.827 315.18C156.827 315.247 156.781 315.272 156.762 315.28L156.164 315.596H156.146C156.146 315.596 156.146 315.596 156.146 315.605C156.091 315.621 156.008 315.555 155.962 315.463C155.944 315.43 155.935 315.396 155.935 315.371C155.935 315.338 155.935 315.313 155.953 315.288C155.953 315.288 155.953 315.288 155.962 315.288L155.99 315.272L156.615 314.955C156.615 314.955 156.661 314.955 156.689 314.972C156.716 314.988 156.744 315.013 156.762 315.047C156.762 315.063 156.781 315.08 156.79 315.105C156.808 315.138 156.817 315.172 156.817 315.197L156.827 315.18Z" fill="#B3B1B1"/>
<path fill-rule="evenodd" clip-rule="evenodd" d="M156.165 315.589H156.147C156.147 315.589 156.147 315.589 156.147 315.597C156.091 315.614 155.999 315.547 155.962 315.455C155.925 315.388 155.925 315.313 155.962 315.28C155.962 315.28 155.962 315.28 155.971 315.28C155.971 315.28 155.99 315.272 155.999 315.263C156.064 315.263 156.137 315.322 156.174 315.414C156.211 315.489 156.211 315.564 156.174 315.597L156.165 315.589Z" fill="#E6E6E6"/>
<path fill-rule="evenodd" clip-rule="evenodd" d="M156.772 315.03L155.972 315.446C155.972 315.446 155.972 315.446 155.972 315.438C155.963 315.405 155.954 315.371 155.944 315.346L156.689 314.955C156.689 314.955 156.744 314.997 156.763 315.03H156.772Z" fill="#D1D3D4"/>
<path fill-rule="evenodd" clip-rule="evenodd" d="M151.511 312.382C151.511 312.449 151.465 312.474 151.446 312.482L150.849 312.798H150.83V312.807C150.775 312.823 150.692 312.757 150.646 312.665C150.628 312.632 150.628 312.599 150.628 312.574C150.628 312.54 150.628 312.515 150.646 312.49L150.674 312.474L151.29 312.157C151.29 312.157 151.345 312.157 151.364 312.166C151.391 312.182 151.419 312.216 151.446 312.241C151.456 312.257 151.465 312.274 151.474 312.29C151.492 312.324 151.502 312.357 151.502 312.382H151.511Z" fill="#B3B1B1"/>
<path fill-rule="evenodd" clip-rule="evenodd" d="M150.849 312.791H150.83V312.8C150.775 312.808 150.692 312.741 150.646 312.658C150.609 312.582 150.609 312.516 150.646 312.482C150.646 312.482 150.664 312.474 150.673 312.466C150.729 312.457 150.812 312.524 150.849 312.608C150.886 312.683 150.876 312.766 150.849 312.791Z" fill="#E6E6E6"/>
<path fill-rule="evenodd" clip-rule="evenodd" d="M151.455 312.232L150.655 312.649C150.637 312.615 150.637 312.582 150.637 312.557L151.382 312.166C151.382 312.166 151.437 312.207 151.464 312.24L151.455 312.232Z" fill="#D1D3D4"/>
<path fill-rule="evenodd" clip-rule="evenodd" d="M150.517 312.291L156.578 315.455L156.459 315.747L156.403 315.78L156.376 315.763L150.37 312.624C150.37 312.624 150.306 312.59 150.306 312.524C150.306 312.491 150.306 312.457 150.333 312.424C150.37 312.332 150.453 312.266 150.517 312.282V312.291Z" fill="#BAB8B8"/>
<path fill-rule="evenodd" clip-rule="evenodd" d="M156.44 315.522L156.413 315.622L156.22 315.514L150.324 312.433C150.324 312.433 150.352 312.366 150.37 312.35L156.22 315.406L156.247 315.422L156.422 315.522H156.44Z" fill="white"/>
<path fill-rule="evenodd" clip-rule="evenodd" d="M156.578 315.447C156.643 315.455 156.652 315.547 156.615 315.639C156.578 315.731 156.495 315.789 156.431 315.781C156.375 315.773 156.357 315.681 156.403 315.589C156.449 315.497 156.523 315.43 156.588 315.447H156.578Z" fill="#E6E6E6"/>
<path d="M128.251 296.66L138.864 291.097L180.454 312.899L169.831 318.461L128.251 296.66Z" fill="#E6E7E8"/>
<path d="M169.831 318.844L180.463 313.298L180.454 312.898L169.831 318.445V318.844Z" fill="#D1D3D4"/>
<path d="M128.251 296.66L169.831 318.462V318.845L128.251 297.085V296.66Z" fill="#BCBEC0"/>
<path d="M138.901 301.715L148.843 296.502L158.739 301.823L148.889 306.953L138.901 301.715Z" fill="#231F20"/>
<path d="M142.985 302.806C142.516 302.564 142.268 302.24 142.268 301.89C142.268 301.54 142.516 301.215 142.976 300.974C143.426 300.741 144.024 300.607 144.659 300.607C145.293 300.607 145.9 300.741 146.36 300.974C146.829 301.215 147.078 301.548 147.087 301.898C147.087 302.248 146.829 302.564 146.369 302.814C145.919 303.047 145.321 303.172 144.686 303.172C144.043 303.172 143.445 303.039 142.985 302.806ZM143.04 301.074C142.617 301.29 142.387 301.59 142.387 301.89C142.387 302.19 142.617 302.489 143.049 302.714C143.491 302.947 144.07 303.072 144.686 303.072C145.303 303.072 145.873 302.947 146.305 302.723C146.728 302.506 146.958 302.215 146.958 301.907C146.958 301.598 146.719 301.307 146.296 301.082C145.854 300.857 145.275 300.724 144.65 300.724C144.024 300.724 143.463 300.849 143.031 301.074H143.04Z" fill="#D1D3D4"/>
<path d="M147.225 304.838C146.802 304.621 146.572 304.322 146.572 304.005C146.572 303.689 146.802 303.397 147.216 303.181C147.621 302.973 148.154 302.856 148.724 302.856C149.295 302.856 149.837 302.973 150.251 303.189C150.674 303.406 150.904 303.705 150.904 304.022C150.904 304.338 150.674 304.621 150.26 304.838C149.856 305.054 149.322 305.171 148.752 305.171C148.182 305.171 147.639 305.054 147.225 304.838ZM147.28 303.281C146.903 303.481 146.701 303.739 146.701 304.005C146.701 304.28 146.913 304.538 147.29 304.738C147.676 304.946 148.2 305.054 148.752 305.054C149.304 305.054 149.81 304.938 150.196 304.738C150.573 304.538 150.775 304.288 150.775 304.013C150.775 303.739 150.564 303.472 150.187 303.281C149.791 303.081 149.276 302.964 148.724 302.964C148.173 302.964 147.667 303.072 147.28 303.272V303.281Z" fill="#D1D3D4"/>
<path d="M150.868 302.931C150.353 302.665 150.067 302.306 150.067 301.923C150.067 301.54 150.343 301.191 150.849 300.924C151.346 300.666 152.008 300.524 152.707 300.524C153.406 300.524 154.077 300.666 154.583 300.932C155.098 301.199 155.383 301.557 155.383 301.94C155.383 302.323 155.107 302.673 154.592 302.939C154.096 303.198 153.443 303.339 152.744 303.339C152.036 303.339 151.373 303.198 150.868 302.931ZM150.914 301.016C150.444 301.257 150.187 301.582 150.187 301.923C150.187 302.265 150.454 302.59 150.923 302.839C151.41 303.089 152.054 303.231 152.735 303.231C153.415 303.231 154.05 303.089 154.528 302.848C154.997 302.606 155.255 302.282 155.255 301.94C155.255 301.599 154.988 301.266 154.519 301.024C154.031 300.774 153.388 300.633 152.707 300.633C152.026 300.633 151.392 300.774 150.914 301.016Z" fill="#D1D3D4"/>
<path d="M146.664 300.882C146.112 300.591 145.809 300.208 145.809 299.791C145.809 299.375 146.103 299 146.655 298.717C147.188 298.442 147.896 298.284 148.65 298.284C149.405 298.284 150.131 298.434 150.674 298.717C151.226 299.009 151.529 299.392 151.529 299.808C151.529 300.224 151.226 300.599 150.683 300.882C150.15 301.165 149.441 301.315 148.687 301.315C147.924 301.315 147.216 301.157 146.673 300.882H146.664ZM146.71 298.809C146.204 299.067 145.928 299.417 145.928 299.791C145.928 300.166 146.213 300.516 146.728 300.782C147.253 301.057 147.952 301.207 148.687 301.207C149.423 301.207 150.113 301.057 150.628 300.791C151.134 300.524 151.41 300.183 151.41 299.808C151.41 299.433 151.125 299.084 150.619 298.817C150.094 298.542 149.395 298.392 148.66 298.392C147.924 298.392 147.234 298.542 146.719 298.809H146.71Z" fill="#D1D3D4"/>
<path d="M148.585 309.892L148.567 320.968L138.625 315.763V304.679L148.585 309.892Z" fill="#231F20"/>
<path opacity="0.5" d="M146.958 311.674L146.949 319.169L140.226 315.647V308.144L146.958 311.674Z" fill="#6D6E71"/>
<path d="M139.269 306.236V306.494L147.785 310.95V310.692L139.269 306.236Z" fill="#939598"/>
<path d="M139.554 306.086L139.269 306.236L147.785 310.692L148.079 310.542L139.554 306.086Z" fill="#BCBEC0"/>
<path d="M148.07 310.791L147.785 310.95V310.691L148.079 310.542L148.07 310.791Z" fill="#6D6E71"/>
<path d="M127.092 338.814C127.092 338.881 127.083 338.997 127.092 339.056C127.166 339.305 127.35 339.339 127.773 339.339C128.141 339.339 128.361 339.33 128.444 339.047C128.463 338.981 128.463 338.889 128.463 338.814V323.666C128.463 323.375 128.15 323.142 127.773 323.142C127.396 323.142 127.083 323.375 127.083 323.666V338.814H127.092Z" fill="#D1D3D4"/>
<path d="M136.335 335.008C136.335 335.075 136.326 335.191 136.345 335.25C136.418 335.508 136.602 335.533 137.025 335.533C137.393 335.533 137.614 335.525 137.696 335.241C137.715 335.175 137.715 335.083 137.715 335.017V319.869C137.715 319.586 137.402 319.353 137.025 319.353C136.648 319.353 136.335 319.586 136.335 319.869V335.017V335.008Z" fill="#D1D3D4"/>
<path d="M117.849 335.008C117.849 335.075 117.84 335.191 117.849 335.25C117.923 335.508 118.107 335.533 118.53 335.533C118.898 335.533 119.118 335.525 119.201 335.241C119.219 335.175 119.219 335.083 119.219 335.017V319.869C119.219 319.586 118.907 319.353 118.53 319.353C118.153 319.353 117.84 319.586 117.84 319.869V335.017L117.849 335.008Z" fill="#D1D3D4"/>
<path d="M119.468 328.587C124.021 330.969 131.424 330.952 136.004 328.562C140.585 326.172 140.603 322.3 136.05 319.919C131.498 317.537 124.103 317.554 119.523 319.944C114.943 322.334 114.925 326.206 119.468 328.587Z" fill="#BCBEC0"/>
<path d="M139.342 323.408L139.397 321.268C139.397 321.268 140.087 323.608 139.14 325.64L139.342 323.408Z" fill="#BCBEC0"/>
<path d="M116.313 323.699L116.267 321.476C116.267 321.476 115.586 324.324 116.543 325.947L116.313 323.699Z" fill="#BCBEC0"/>
<path d="M119.56 326.581C124.103 328.962 131.507 328.946 136.087 326.556C140.667 324.166 140.685 320.293 136.142 317.912C131.589 315.53 124.195 315.547 119.615 317.937C115.035 320.335 115.016 324.199 119.569 326.581H119.56Z" fill="#E6E7E8"/>
<path d="M124.323 339.713L124.746 339.48V331.444L124.323 331.219V339.713Z" fill="#BCBEC0"/>
<path d="M123.91 339.497L124.333 339.714V331.219L123.9 331.003L123.91 339.497Z" fill="#939598"/>
<path d="M117.619 336.907L118.051 336.682V327.73L117.628 327.947L117.619 336.907Z" fill="#BCBEC0"/>
<path d="M117.205 336.657L117.619 336.907L117.637 327.946L117.205 327.921V336.657Z" fill="#939598"/>
<path d="M125.023 332.96L118.769 329.687L112.515 332.96L118.805 336.257L125.023 332.96Z" fill="#BCBEC0"/>
<path d="M125.023 331.544L118.769 328.271L112.515 331.544L118.805 334.842L125.023 331.544Z" fill="#AA8250"/>
<path d="M125.023 332.96V331.544L118.806 334.842V336.258L125.023 332.96Z" fill="#BCBEC0"/>
<path d="M112.515 331.544V332.96L118.805 336.258V334.842L112.515 331.544Z" fill="#A7A9AC"/>
<path d="M118.824 342.753L119.256 342.519L119.247 333.576L118.824 333.792V342.753Z" fill="#BCBEC0"/>
<path d="M118.419 342.536L118.833 342.752V333.792L118.41 333.767L118.419 342.536Z" fill="#939598"/>
<path d="M118.824 337.148L119.247 336.873V327.979L118.824 328.196V337.148Z" fill="#BCBEC0"/>
<path d="M118.41 336.873L118.833 337.148V328.188L118.41 328.163V336.873Z" fill="#939598"/>
<path d="M112.653 339.588L113.067 339.38V330.486L112.635 330.703L112.653 339.588Z" fill="#BCBEC0"/>
<path d="M112.221 339.363L112.653 339.588L112.644 330.703L112.221 330.669V339.363Z" fill="#939598"/>
<path d="M112.635 335.308L113.067 335.025V326.131L112.635 326.356V335.308Z" fill="#BCBEC0"/>
<path d="M112.221 335.025L112.644 335.308V326.347L112.221 326.322V335.025Z" fill="#939598"/>
<path d="M112.708 321.559L112.018 321.909L112 327.896L112.699 327.538L112.708 321.559Z" fill="#BCBEC0"/>
<path d="M112.717 327.547L119.56 331.119V325.132L112.708 321.559L112.717 327.547Z" fill="#A7A9AC"/>
<path d="M119.551 325.132L118.861 325.481L112.019 321.909L112.708 321.559L119.551 325.132Z" fill="#D1D3D4"/>
<path d="M112 327.896L118.843 331.469L118.861 325.481L112.018 321.909L112 327.896Z" fill="#D2B478"/>
<path d="M119.56 325.132L118.861 325.482L118.843 331.469L119.56 331.111V325.132Z" fill="#BCBEC0"/>
<path d="M132.722 339.713L132.299 339.48V331.444L132.722 331.219V339.713Z" fill="#BCBEC0"/>
<path d="M133.136 339.497L132.713 339.714V331.219L133.136 331.003V339.497Z" fill="#939598"/>
<path d="M139.417 336.907L138.994 336.682V327.73L139.417 327.947V336.907Z" fill="#BCBEC0"/>
<path d="M139.84 336.657L139.417 336.907L139.408 327.946L139.84 327.921V336.657Z" fill="#939598"/>
<path d="M132.022 332.96L138.276 329.687L144.53 332.96L138.24 336.257L132.022 332.96Z" fill="#BCBEC0"/>
<path d="M132.022 331.544L138.276 328.271L144.53 331.544L138.24 334.842L132.022 331.544Z" fill="#AA8250"/>
<path d="M132.022 332.96V331.544L138.24 334.842V336.258L132.022 332.96Z" fill="#BCBEC0"/>
<path d="M144.53 331.544V332.96L138.239 336.258V334.842L144.53 331.544Z" fill="#A7A9AC"/>
<path d="M138.221 342.753L137.789 342.519L137.798 333.576L138.221 333.792V342.753Z" fill="#BCBEC0"/>
<path d="M138.626 342.536L138.212 342.752V333.792L138.635 333.767L138.626 342.536Z" fill="#939598"/>
<path d="M138.222 337.148L137.799 336.873V327.979L138.222 328.196V337.148Z" fill="#BCBEC0"/>
<path d="M138.635 336.873L138.212 337.148V328.188L138.635 328.163V336.873Z" fill="#939598"/>
<path d="M144.392 339.588L143.979 339.38V330.486L144.411 330.703L144.392 339.588Z" fill="#BCBEC0"/>
<path d="M144.825 339.363L144.393 339.588L144.402 330.703L144.825 330.669V339.363Z" fill="#939598"/>
<path d="M144.411 335.308L143.979 335.025V326.131L144.411 326.356V335.308Z" fill="#BCBEC0"/>
<path d="M144.824 335.025L144.401 335.308V326.347L144.824 326.322V335.025Z" fill="#939598"/>
<path d="M144.328 321.559L145.027 321.909L145.036 327.896L144.347 327.538L144.328 321.559Z" fill="#BCBEC0"/>
<path d="M144.328 327.547L137.485 331.119V325.132L144.328 321.559V327.547Z" fill="#A7A9AC"/>
<path d="M137.495 325.132L138.185 325.481L145.028 321.909L144.329 321.559L137.495 325.132Z" fill="#D1D3D4"/>
<path d="M145.036 327.896L138.203 331.469L138.185 325.481L145.027 321.909L145.036 327.896Z" fill="#D2B478"/>
<path d="M137.485 325.132L138.184 325.482L138.203 331.469L137.485 331.111V325.132Z" fill="#BCBEC0"/>
<path d="M164.709 306.836L163.762 307.369L174.89 313.19L175.865 312.682L164.709 306.836Z" fill="#A7A9AC"/>
<path d="M174.007 312.915L168.902 310.242L168.994 315.546L174.007 312.915Z" fill="#6D6E71"/>
<path d="M158.114 310.325L163.761 307.369L174.89 313.19L169.224 316.154L158.114 310.325Z" fill="#A7A9AC"/>
<path d="M158.924 310.433L164.028 307.76L174.081 313.015L168.958 315.688L158.924 310.433Z" fill="#939598"/>
<path d="M164.028 310.517L161.554 311.807L158.924 310.433L164.028 307.76V310.517Z" fill="#808285"/>
<path d="M168.958 315.688L161.563 311.807L164.028 310.517L171.45 314.389L168.958 315.688Z" fill="#2C8AA3"/>
<path d="M174.081 313.015L168.958 315.688L165.546 313.897L170.669 311.232L174.081 313.015Z" fill="#808285"/>
<path d="M169.62 315.338L169.39 315.455L165.978 313.664L166.198 313.556L169.62 315.338Z" fill="#939598"/>
<path d="M170.3 314.98L170.08 315.105L166.658 313.306L166.879 313.198L170.3 314.98Z" fill="#939598"/>
<path d="M170.944 314.639L170.723 314.755L167.302 312.965L167.522 312.856L170.944 314.639Z" fill="#939598"/>
<path d="M171.552 314.347L171.322 314.472L167.9 312.673L168.13 312.565L171.552 314.347Z" fill="#939598"/>
<path d="M172.13 314.031L171.9 314.156L168.488 312.365L168.709 312.249L172.13 314.031Z" fill="#939598"/>
<path d="M172.682 313.756L172.452 313.872L169.04 312.082L169.261 311.974L172.682 313.756Z" fill="#939598"/>
<path d="M173.243 313.464L173.013 313.581L169.592 311.79L169.822 311.682L173.243 313.464Z" fill="#939598"/>
<path d="M173.777 313.173L173.556 313.298L170.135 311.499L170.355 311.391L173.777 313.173Z" fill="#939598"/>
<path fill-rule="evenodd" clip-rule="evenodd" d="M167.431 309.409C167.688 309.542 168.112 309.542 168.378 309.409C168.636 309.276 168.636 309.051 168.378 308.918C168.121 308.785 167.698 308.785 167.431 308.918C167.173 309.051 167.164 309.276 167.431 309.409Z" fill="#808285"/>
<path fill-rule="evenodd" clip-rule="evenodd" d="M167.366 307.285V309.117C167.366 309.184 167.431 309.25 167.523 309.3C167.725 309.409 168.065 309.409 168.286 309.3C168.286 309.3 168.295 309.3 168.304 309.292C168.405 309.242 168.451 309.176 168.47 309.109V309.092V307.277H167.375L167.366 307.285Z" fill="#939598"/>
<path fill-rule="evenodd" clip-rule="evenodd" d="M167.367 307.344V309.109C167.367 309.176 167.422 309.234 167.505 309.284C167.505 309.284 167.514 309.284 167.523 309.292C167.689 309.384 167.937 309.401 168.139 309.351C168.158 309.351 168.176 309.351 168.185 309.334C168.213 309.326 168.25 309.309 168.277 309.301V307.344H167.357H167.367Z" fill="#BCBEC0"/>
<path fill-rule="evenodd" clip-rule="evenodd" d="M167.367 307.402V309.109C167.367 309.176 167.422 309.234 167.505 309.284C167.505 309.284 167.514 309.284 167.523 309.292C167.689 309.384 167.937 309.4 168.139 309.35V307.402H167.357H167.367Z" fill="#939598"/>
<path fill-rule="evenodd" clip-rule="evenodd" d="M167.366 307.277V309.101C167.366 309.167 167.421 309.234 167.504 309.284V307.277H167.366Z" fill="#808285"/>
<path fill-rule="evenodd" clip-rule="evenodd" d="M167.522 307.502C167.734 307.619 168.083 307.61 168.304 307.502C168.516 307.394 168.516 307.21 168.304 307.094C168.093 306.986 167.743 306.986 167.522 307.094C167.311 307.21 167.302 307.394 167.522 307.502Z" fill="#A7A9AC"/>
<path fill-rule="evenodd" clip-rule="evenodd" d="M167.063 308.394V308.654C167.063 308.654 167.072 308.671 167.081 308.679C167.109 308.696 167.155 308.696 167.192 308.679C167.192 308.679 167.21 308.663 167.21 308.654V308.394H167.054H167.063Z" fill="#939598"/>
<path fill-rule="evenodd" clip-rule="evenodd" d="M167.063 308.402V308.654C167.063 308.654 167.073 308.671 167.082 308.679C167.1 308.688 167.146 308.696 167.165 308.679C167.165 308.679 167.165 308.679 167.174 308.679V308.402H167.045H167.063Z" fill="#BCBEC0"/>
<path fill-rule="evenodd" clip-rule="evenodd" d="M167.063 308.41V308.654C167.063 308.654 167.072 308.671 167.081 308.679C167.1 308.688 167.146 308.696 167.164 308.679V308.402H167.054L167.063 308.41Z" fill="#939598"/>
<path fill-rule="evenodd" clip-rule="evenodd" d="M167.063 308.394V308.654C167.063 308.654 167.073 308.671 167.082 308.679V308.394H167.063Z" fill="#808285"/>
<path fill-rule="evenodd" clip-rule="evenodd" d="M167.082 308.42C167.082 308.42 167.166 308.438 167.194 308.42C167.222 308.403 167.222 308.377 167.194 308.36C167.166 308.343 167.12 308.343 167.082 308.36C167.055 308.377 167.055 308.403 167.082 308.42Z" fill="#A7A9AC"/>
<path fill-rule="evenodd" clip-rule="evenodd" d="M167.938 308.085C167.938 308.185 167.873 308.218 167.836 308.235L166.926 308.676L166.898 308.693C166.898 308.693 166.898 308.693 166.889 308.693C166.797 308.709 166.677 308.609 166.622 308.476C166.622 308.476 166.622 308.476 166.622 308.468C166.604 308.418 166.595 308.368 166.595 308.326C166.595 308.276 166.604 308.235 166.632 308.201C166.632 308.201 166.641 308.193 166.65 308.193L166.687 308.176L167.643 307.718H167.652C167.689 307.718 167.726 307.718 167.763 307.743C167.8 307.768 167.846 307.81 167.873 307.86C167.892 307.885 167.901 307.91 167.919 307.943C167.938 307.993 167.947 308.043 167.947 308.085H167.938Z" fill="#808285"/>
<path fill-rule="evenodd" clip-rule="evenodd" d="M167.872 307.869L166.649 308.46C166.631 308.41 166.612 308.36 166.622 308.319L167.771 307.761C167.771 307.761 167.854 307.827 167.891 307.877L167.872 307.869Z" fill="#BCBEC0"/>
<path fill-rule="evenodd" clip-rule="evenodd" d="M166.916 308.676L166.888 308.693C166.888 308.693 166.888 308.693 166.879 308.693C166.787 308.709 166.667 308.609 166.612 308.468C166.566 308.359 166.575 308.251 166.612 308.201C166.612 308.201 166.621 308.193 166.631 308.193C166.64 308.185 166.649 308.176 166.667 308.176C166.667 308.176 166.667 308.176 166.677 308.176C166.769 308.176 166.879 308.268 166.934 308.401C166.98 308.518 166.971 308.634 166.916 308.676Z" fill="#BCBEC0"/>
<path d="M250.799 219.359L131.155 281.907L28 227.978L147.645 165.438L250.799 219.359Z" fill="#D4E0EE"/>
<path d="M250.799 219.359V224.273L131.154 286.812V281.907L250.799 219.359Z" fill="#A7A9AC"/>
<path d="M28 233.041L131.191 286.82V281.915L28 227.978V233.041Z" fill="#7A7C7E"/>
<path d="M28 145.077L32.7825 147.534L32.7917 304.782L28 302.284V145.077Z" fill="#7A7C7E"/>
<path d="M32.7832 147.534V230.484L147.655 170.46L147.6 87.5757L32.7832 147.534Z" fill="#DDDCDA"/>
<path d="M246.017 144.078L250.882 141.463L250.799 218.742L245.943 221.282L246.017 144.078Z" fill="#58595B"/>
<path d="M246.017 139.006L245.943 221.915L147.718 170.526L147.599 87.8838L246.017 139.006Z" fill="#C49A6C"/>
<path d="M147.608 92.6472L250.882 146.61V141.53L147.571 87.5674L147.608 92.6472Z" fill="#C6C7C8"/>
<path d="M185.362 175.581L185.371 248.555L246.155 216.96V143.97L185.362 175.581Z" fill="#8DC63F"/>
<path d="M131.001 189.964V282L250.799 219.367L251.001 146L131.001 189.964Z" fill="#FFE670"/>
<path d="M177.968 178.937L182.833 181.469L250.882 146.443V141.546L177.968 178.937Z" fill="#94959F"/>
<path d="M200.868 198.615V234.598L236.764 215.72V215.703L202.11 233.924V197.965L200.868 198.615Z" fill="#27AAE1"/>
<path d="M200.896 197.599V233.582L236.793 214.704V178.795L200.896 197.599Z" fill="#8DBBD3"/>
<path d="M202.11 197.857V197.882L236.765 179.728V213.53L238.917 214.487V178.571L202.11 197.857Z" fill="#A7A9AC"/>
<path d="M200.859 231.875V234.273L238.604 214.32L236.765 213.354L200.859 231.875Z" fill="#D1D3D4"/>
<path d="M219.438 188.564V222.357L221.59 223.323V187.406L219.438 188.564Z" fill="#A7A9AC"/>
<path d="M223.034 185.766V222.557L221.59 223.323V187.406L223.034 185.766Z" fill="#BCBEC0"/>
<path d="M200.869 197.374V235.789L240.159 215.128V176.797L200.869 197.383V197.374ZM202.423 198.082L238.614 179.12V214.321L202.423 233.466V198.09V198.082Z" fill="#E3DBCA"/>
<path d="M131.076 281.981V190.019L80.9428 139.127L27.999 145.159L23.2002 226.981L131.076 281.981Z" fill="#E0CC6A"/>
<path d="M78 328.5V259.5V252.5L28 229V302.5L78 328.5Z" fill="#E0CC6A"/>
<path d="M115.601 91.4147L27.8633 145.156L78.7742 140.057L190.18 79.7979L115.601 91.4147Z" fill="#726658"/>
<path d="M190.181 79.7979L263.39 152.147L142.598 215.36L77.7899 139.671L190.181 79.7979Z" fill="#948B80"/>
<path d="M142.346 214.943L145.698 218.462L263.39 156.894V152.147L142.346 214.943Z" fill="#7E726C"/>
<path d="M118.619 108.594L104.556 110.526L104.455 76.6416L118.527 84.0115L118.619 108.594Z" fill="#D4D8D9"/>
<path d="M118.527 84.0116L104.455 76.6417L119.566 68.7056L133.628 76.0754L118.527 84.0116Z" fill="#BA1A15"/>
<path d="M133.628 76.0752L133.692 100.383L118.618 108.594L118.526 84.0113L133.628 76.0752Z" fill="#E2ECF0"/>
<path d="M118.545 88.8833L101.659 80.0395L101.632 74.8931L118.518 83.7452L118.545 88.8833Z" fill="#BBBEBF"/>
<path d="M118.518 83.7453L101.632 74.8931L120.495 65L137.372 73.8438L118.518 83.7453Z" fill="#F0F0F0"/>
<path d="M118.812 80.9888L106.884 74.7432L120.201 67.748L132.13 74.002L118.812 80.9888Z" fill="#222C2E"/>
<path d="M137.372 73.8438L137.399 78.9818L118.545 88.8833L118.518 83.7452L137.372 73.8438Z" fill="#D4D8D9"/>
<path d="M27.8242 145.152L26.875 150.589L74.5146 145.314L145.679 218.527L148.228 211.902L77.7825 139.666L27.8242 145.152Z" fill="#594A42"/>
<path d="M96 140.95L134.314 120.205L162.472 148.119L124.158 168.864L96 140.95Z" fill="white"/>
<path d="M99.5479 141.331L133.77 122.801L158.925 147.737L124.703 166.267L99.5479 141.331Z" fill="#8DBBD3"/>
<path fill-rule="evenodd" clip-rule="evenodd" d="M133.865 122.242L98.7891 141.233L104.73 147.123L104.913 147.58L105.091 147.48L110.654 152.995L110.868 153.53L111.077 153.414L116.586 158.875L116.83 159.486L117.068 159.354L124.608 166.828L159.684 147.836L151.148 139.374L151.134 139.338L151.12 139.346L145.216 133.494L145.171 133.382L145.128 133.406L139.307 127.636L139.224 127.428L139.142 127.473L133.865 122.242ZM150.275 139.817L144.943 134.532L139.608 137.507L144.925 142.8L150.275 139.817ZM144.081 143.27L138.763 137.978L132.29 141.587L137.609 146.879L144.081 143.27ZM138.268 147.534L144.74 143.926L151.887 151.04L145.039 154.748L145.259 154.49L138.268 147.534ZM136.765 147.35L131.445 142.058L124.97 145.668L130.289 150.96L136.765 147.35ZM130.948 151.616L137.423 148.005L144.496 155.042L137.91 158.608L137.94 158.572L130.948 151.616ZM129.444 151.431L124.125 146.139L117.654 149.747L122.972 155.039L129.444 151.431ZM123.631 155.695L130.103 152.086L137.1 159.047L130.558 162.589L123.631 155.695ZM122.128 155.51L116.81 150.217L111.922 152.943L117.253 158.228L122.128 155.51ZM117.914 158.882L122.787 156.166L129.704 163.051L124.798 165.707L117.914 158.882ZM145.584 143.455L150.935 140.472L158.167 147.64L152.17 150.887L152.575 150.413L145.584 143.455ZM111.261 152.288L116.151 149.562L110.84 144.275L105.936 147.009L111.261 152.288ZM116.996 149.091L123.466 145.483L118.153 140.198L111.684 143.804L116.996 149.091ZM124.311 145.013L130.787 141.402L125.474 136.116L118.998 139.727L124.311 145.013ZM131.631 140.931L138.105 137.322L132.793 132.036L126.318 135.646L131.631 140.931ZM138.949 136.851L144.283 133.877L138.958 128.599L133.638 131.565L138.949 136.851ZM138.297 127.944L133.675 123.362L128.313 126.265L132.979 130.909L138.297 127.944ZM132.134 131.38L127.46 126.727L120.915 130.271L125.659 134.99L132.134 131.38ZM124.815 135.461L120.082 130.752L120.129 130.696L113.519 134.276L118.339 139.071L124.815 135.461ZM117.495 139.542L112.763 134.835L113.001 134.556L106.13 138.276L111.026 143.149L117.495 139.542ZM110.181 143.62L105.45 138.911L105.874 138.415L100.307 141.429L105.276 146.355L110.181 143.62Z" fill="#5C7B8A"/>
<path d="M125.127 170.222L163.441 149.477L191.505 177.162L153.191 197.907L125.127 170.222Z" fill="white"/>
<path d="M128.67 170.59L162.892 152.06L187.964 176.792L153.742 195.322L128.67 170.59Z" fill="#8DBBD3"/>
<path fill-rule="evenodd" clip-rule="evenodd" d="M162.987 151.501L127.91 170.494L133.834 176.338L134.017 176.793L134.195 176.694L139.739 182.162L139.952 182.695L140.161 182.578L145.647 187.99L145.892 188.602L146.132 188.468L153.648 195.882L188.725 176.889L180.21 168.49L180.196 168.456L180.183 168.464L174.301 162.662L174.256 162.549L174.212 162.574L168.411 156.852L168.328 156.644L168.247 156.689L162.987 151.501ZM179.337 168.935L174.029 163.699L168.694 166.673L173.988 171.917L179.337 168.935ZM173.143 172.388L167.848 167.144L161.375 170.753L166.671 175.996L173.143 172.388ZM167.332 176.65L173.804 173.042L180.925 180.095L174.079 183.802L174.296 183.546L167.332 176.65ZM165.825 176.467L160.529 171.224L154.056 174.833L159.352 180.076L165.825 176.467ZM160.013 180.73L166.486 177.121L173.533 184.098L166.949 187.663L166.979 187.627L160.013 180.73ZM158.506 180.547L153.21 175.304L146.74 178.91L152.035 184.154L158.506 180.547ZM152.696 184.809L159.167 181.201L166.137 188.102L159.596 191.644L152.696 184.809ZM151.19 184.626L145.895 179.382L141.007 182.107L146.315 187.343L151.19 184.626ZM146.978 187.997L151.851 185.28L158.742 192.106L153.836 194.762L146.978 187.997ZM174.649 172.571L179.999 169.589L187.204 176.695L181.214 179.938L181.613 179.469L174.649 172.571ZM140.344 181.453L145.234 178.727L139.945 173.488L135.041 176.222L140.344 181.453ZM146.08 178.256L152.549 174.649L147.259 169.412L140.79 173.017L146.08 178.256ZM153.395 174.178L159.868 170.569L154.578 165.332L148.104 168.94L153.395 174.178ZM160.714 170.098L167.188 166.489L161.898 161.251L155.423 164.86L160.714 170.098ZM168.033 166.018L173.366 163.045L168.063 157.814L162.744 160.78L168.033 166.018ZM167.401 157.161L162.798 152.621L157.437 155.524L162.083 160.125L167.401 157.161ZM161.238 160.596L156.583 155.986L150.038 159.53L154.762 164.206L161.238 160.596ZM153.917 164.677L149.202 160.01L149.245 159.959L142.643 163.534L147.443 168.286L153.917 164.677ZM146.598 168.757L141.885 164.091L142.116 163.819L135.254 167.534L140.13 172.363L146.598 168.757ZM139.284 172.834L134.572 168.167L134.986 167.68L129.431 170.688L134.379 175.569L139.284 172.834Z" fill="#5C7B8A"/>
<path d="M147 113.863L185.295 93.228L213.353 121.154L175.064 141.786L147 113.863Z" fill="white"/>
<path d="M150.54 114.25L184.752 95.8154L209.811 120.767L175.605 139.198L150.54 114.25Z" fill="#8DBBD3"/>
<path fill-rule="evenodd" clip-rule="evenodd" d="M184.849 95.2563L149.783 114.151L155.718 120.058L155.892 120.496L156.063 120.402L161.624 125.936L161.826 126.446L162.025 126.336L167.527 131.812L167.763 132.406L167.995 132.277L175.51 139.757L210.569 120.866L202.072 112.405L202.053 112.359L202.035 112.369L196.167 106.525L196.116 106.399L196.067 106.426L190.259 100.643L190.182 100.449L190.106 100.491L184.849 95.2563ZM201.191 112.837L195.88 107.55L190.546 110.51L195.845 115.803L201.191 112.837ZM195.001 116.272L189.702 110.978L183.229 114.57L188.528 119.864L195.001 116.272ZM189.185 120.519L195.658 116.928L202.784 124.046L195.922 127.743L196.15 127.477L189.185 120.519ZM187.684 120.332L182.385 115.039L175.917 118.627L181.217 123.921L187.684 120.332ZM181.873 124.577L188.341 120.988L195.391 128.03L188.8 131.581L188.839 131.535L181.873 124.577ZM180.373 124.389L175.073 119.096L168.602 122.686L173.902 127.98L180.373 124.389ZM174.558 128.636L181.029 125.045L188.003 132.011L181.464 135.534L174.558 128.636ZM173.058 128.448L167.758 123.155L162.87 125.867L168.182 131.154L173.058 128.448ZM168.84 131.809L173.714 129.104L180.611 135.994L175.702 138.639L168.84 131.809ZM196.502 116.459L201.848 113.492L209.054 120.667L203.053 123.901L203.467 123.417L196.502 116.459ZM162.212 125.212L167.102 122.499L161.81 117.213L156.908 119.933L162.212 125.212ZM167.946 122.031L174.417 118.44L169.125 113.154L162.654 116.744L167.946 122.031ZM175.261 117.971L181.728 114.383L176.436 109.097L169.969 112.685L175.261 117.971ZM182.572 113.914L189.045 110.323L183.753 105.036L177.28 108.628L182.572 113.914ZM189.889 109.854L195.223 106.895L189.92 101.615L184.597 104.568L189.889 109.854ZM189.262 100.96L184.657 96.3747L179.29 99.2666L183.941 103.912L189.262 100.96ZM183.097 104.381L178.437 99.7262L171.897 103.251L176.624 107.972L183.097 104.381ZM175.78 108.441L171.06 103.727L171.101 103.679L164.509 107.231L169.312 112.029L175.78 108.441ZM168.468 112.498L163.749 107.784L163.978 107.517L157.117 111.214L161.997 116.089L168.468 112.498ZM161.153 116.557L156.433 111.842L156.847 111.36L151.298 114.35L156.25 119.278L161.153 116.557Z" fill="#5C7B8A"/>
<path d="M176.172 142.951L214.467 122.316L242.524 150.242L204.236 170.874L176.172 142.951Z" fill="white"/>
<path d="M179.712 143.338L213.924 124.903L238.983 149.854L204.777 168.285L179.712 143.338Z" fill="#8DBBD3"/>
<path fill-rule="evenodd" clip-rule="evenodd" d="M214.021 124.343L178.955 143.238L184.89 149.145L185.064 149.583L185.235 149.488L190.795 155.023L190.998 155.533L191.197 155.423L196.699 160.898L196.935 161.494L197.167 161.365L204.682 168.844L239.741 149.953L231.243 141.491L231.225 141.446L231.207 141.456L225.338 135.612L225.288 135.486L225.239 135.513L219.431 129.73L219.354 129.536L219.278 129.578L214.021 124.343ZM230.363 141.925L225.052 136.637L219.719 139.596L225.018 144.89L230.363 141.925ZM224.174 145.359L218.874 140.065L212.401 143.657L217.701 148.951L224.174 145.359ZM218.358 149.606L224.831 146.014L231.957 153.133L225.097 156.829L225.323 156.564L218.358 149.606ZM216.857 149.419L211.557 144.125L205.09 147.714L210.39 153.007L216.857 149.419ZM211.047 153.663L217.514 150.075L224.563 157.116L217.973 160.668L218.013 160.621L211.047 153.663ZM209.546 153.476L204.246 148.182L197.775 151.773L203.075 157.066L209.546 153.476ZM203.732 157.722L210.203 154.132L217.176 161.097L210.637 164.62L203.732 157.722ZM202.231 157.535L196.931 152.241L192.042 154.954L197.354 160.241L202.231 157.535ZM198.012 160.896L202.888 158.191L209.785 165.08L204.874 167.726L198.012 160.896ZM225.675 145.546L231.021 142.58L238.226 149.754L232.227 152.987L232.641 152.504L225.675 145.546ZM191.384 154.299L196.275 151.585L190.983 146.299L186.08 149.02L191.384 154.299ZM197.119 151.117L203.59 147.526L198.298 142.24L191.827 145.831L197.119 151.117ZM204.434 147.058L210.901 143.469L205.609 138.183L199.142 141.772L204.434 147.058ZM211.745 143.001L218.218 139.409L212.926 134.123L206.453 137.715L211.745 143.001ZM219.062 138.941L224.394 135.982L219.091 130.702L213.77 133.654L219.062 138.941ZM218.434 130.047L213.829 125.462L208.463 128.353L213.113 132.999L218.434 130.047ZM212.269 133.467L207.61 128.813L201.069 132.337L205.796 137.059L212.269 133.467ZM204.952 137.527L200.233 132.814L200.275 132.765L193.682 136.318L198.485 141.116L204.952 137.527ZM197.641 141.584L192.922 136.87L193.151 136.604L186.29 140.3L191.17 145.175L197.641 141.584ZM190.326 145.643L185.607 140.929L186.02 140.446L180.47 143.437L185.421 148.365L190.326 145.643Z" fill="#5C7B8A"/>
<g clip-path="url(#clip1_709_4092)">
<path d="M245 243.727V266.913L239.284 270V246.819L245 243.727Z" fill="#A7A9AC"/>
<path d="M245 243.727L239.284 246.819L225 239.092L230.716 236L245 243.727Z" fill="#C8C8C8"/>
<path d="M225 239.092V262.273L239.284 270V246.819L225 239.092ZM229.284 263.049V259.957L235 263.049V266.141L229.284 263.049ZM231.553 248.19C231.194 247.513 231.442 246.892 232.041 247.129C232.671 247.379 233.067 248.319 232.828 248.708C232.529 249.195 231.838 248.725 231.553 248.194V248.19Z" fill="#F0F2F4"/>
<path d="M232.045 247.126C232.675 247.376 233.071 248.316 232.832 248.704C232.533 249.191 231.842 248.721 231.557 248.191C231.198 247.514 231.447 246.893 232.045 247.13V247.126Z" fill="#6F6F70"/>
<path d="M232.855 248.716C232.956 248.552 232.952 248.289 232.85 248C232.731 247.672 232.464 247.267 232.059 247.103C231.838 247.017 231.645 247.039 231.516 247.164C231.313 247.366 231.323 247.793 231.539 248.199C231.728 248.552 232.128 248.923 232.473 248.932C232.473 248.932 232.482 248.932 232.487 248.932C232.643 248.932 232.768 248.858 232.855 248.716ZM232.036 247.151C232.358 247.28 232.657 247.616 232.8 248.017C232.896 248.289 232.901 248.543 232.809 248.694C232.726 248.824 232.616 248.888 232.473 248.888C232.179 248.88 231.787 248.569 231.585 248.181C231.378 247.793 231.364 247.392 231.553 247.202C231.617 247.138 231.705 247.103 231.806 247.103C231.875 247.103 231.953 247.121 232.036 247.151Z" fill="#BCBBBD"/>
<path d="M239.284 246.763C238.12 246.082 236.942 245.426 235.759 244.771L232.202 242.83L228.617 240.937C227.416 240.316 226.215 239.696 225 239.096C226.164 239.777 227.342 240.437 228.525 241.088L232.082 243.029L235.667 244.922C236.868 245.547 238.069 246.164 239.284 246.763Z" fill="white"/>
<path d="M228.327 262.558L235.959 266.708V263.01L228.327 258.867V262.558Z" fill="#6F6F70"/>
<path d="M228.745 259.092V262.332L235.959 266.257V266.708L228.327 262.558V258.867L228.745 259.092Z" fill="#939294"/>
<path d="M233.76 265.565L234.031 265.711V261.918L233.76 261.765V265.565Z" fill="#BCBBBD"/>
<path d="M232.506 264.881L232.777 265.034V261.233L232.506 261.087V264.881Z" fill="#BCBBBD"/>
<path d="M231.253 264.204L231.531 264.349V260.556L231.253 260.403V264.204Z" fill="#BCBBBD"/>
<path d="M229.999 263.52L230.277 263.672V259.872L229.999 259.726V263.52Z" fill="#BCBBBD"/>
<path d="M228.745 262.842L229.023 262.988V259.194L228.745 259.042V262.842Z" fill="#BCBBBD"/>
<path d="M235.014 266.243L235.285 266.396V262.595L235.014 262.449V266.243Z" fill="#BCBBBD"/>
</g>
<path d="M144.009 229.818V265.801L179.905 246.923V246.906L145.25 265.127V229.168L144.009 229.818Z" fill="#27AAE1"/>
<path d="M144.037 228.802V264.785L179.933 245.907V209.999L144.037 228.802Z" fill="#8DBBD3"/>
<path d="M145.251 229.06V229.085L179.906 210.931V244.733L182.058 245.691V209.774L145.251 229.06Z" fill="#A7A9AC"/>
<path d="M144 263.078V265.476L181.745 245.524L179.905 244.558L144 263.078Z" fill="#D1D3D4"/>
<path d="M162.578 219.767V253.56L164.73 254.526V218.609L162.578 219.767Z" fill="#A7A9AC"/>
<path d="M166.174 216.969V253.76L164.73 254.526V218.609L166.174 216.969Z" fill="#BCBEC0"/>
<path d="M144.01 228.577V266.992L183.3 246.332V208L144.01 228.586V228.577ZM145.564 229.285L181.755 210.323V245.524L145.564 264.669V229.293V229.285Z" fill="#E3DBCA"/>
</g>
<path d="M313.599 47.97C313.599 49.3347 313.495 50.6736 313.275 51.9868C313.068 53.2871 312.757 54.5746 312.342 55.7976C311.371 58.7845 309.83 61.5139 307.875 63.8956C307.033 64.9127 306.113 65.8654 305.129 66.7409C302.811 68.8008 300.117 70.4229 297.152 71.5173C295.922 71.9679 294.639 72.3412 293.331 72.5987C291.713 72.9206 290.055 73.0879 288.346 73.0879C286.869 73.0879 285.419 72.9592 284.02 72.7146C282.686 72.4957 281.404 72.1739 280.161 71.7361C277.17 70.7191 274.437 69.1741 272.08 67.1786C271.057 66.3418 270.125 65.4019 269.257 64.4106C267.237 62.0932 265.631 59.4153 264.582 56.4671C264.129 55.2569 263.792 53.9823 263.546 52.682C263.248 51.1628 263.093 49.5922 263.093 47.9829C263.093 46.3736 263.222 44.9574 263.494 43.5026C263.714 42.2151 264.051 40.9663 264.478 39.7433C265.489 36.8079 267.056 34.1171 269.024 31.7998C269.866 30.8084 270.772 29.8815 271.756 29.0575C274.062 27.0491 276.729 25.4656 279.656 24.3841C280.847 23.9592 282.104 23.6116 283.386 23.3413C284.992 23.0323 286.649 22.8521 288.346 22.8521C289.783 22.8521 291.182 22.9679 292.567 23.1997C293.862 23.4185 295.106 23.7275 296.31 24.1266C299.276 25.1051 302.008 26.6114 304.365 28.5297C305.362 29.3536 306.308 30.242 307.162 31.2075C309.221 33.4734 310.853 36.1256 311.967 39.0352C312.433 40.2325 312.796 41.4813 313.068 42.7687C313.417 44.4553 313.612 46.1805 313.612 47.9571L313.599 47.97Z" fill="#FDBD00"/>
<path d="M336.313 52.7722C330.731 52.8236 328.711 47.3392 326.458 43.6185C325.279 41.713 324.14 40.2067 322.624 39.1897C324.696 37.5546 326.652 35.7393 328.245 33.6665C329.54 31.9285 330.718 29.521 332.441 28.2464C327.636 31.0659 323.117 27.3195 319.309 25.2209C317.341 24.1652 315.592 23.4314 313.766 23.3027C314.738 20.8308 315.515 18.2945 315.851 15.7068C316.097 13.5567 315.916 10.8789 316.758 8.9477C314.013 13.7756 308.224 12.7714 303.86 12.8358C301.619 12.9001 299.728 13.119 298.084 13.9301C297.695 11.3166 297.1 8.74171 296.076 6.32133C295.196 4.33867 293.707 2.1114 293.461 0C293.512 5.54886 287.983 7.55727 284.24 9.79742C282.336 10.969 280.808 12.1019 279.798 13.6082C278.153 11.5483 276.327 9.6043 274.229 8.02075C272.468 6.73331 270.06 5.54886 268.79 3.84944C271.627 8.62585 267.858 13.119 265.747 16.9041C264.685 18.861 263.934 20.599 263.818 22.4272C261.344 21.4616 258.793 20.6892 256.177 20.3544C254.014 20.1227 251.321 20.29 249.365 19.4532C254.221 22.1826 253.211 27.9374 253.289 32.2761C253.354 34.5034 253.574 36.3702 254.39 38.0181C251.761 38.4043 249.171 39.0094 246.736 40.0136C244.755 40.8762 242.514 42.3568 240.391 42.6142C245.972 42.5499 247.992 48.0601 250.246 51.7679C251.424 53.6605 252.551 55.1668 254.066 56.1839C251.994 57.8447 250.051 59.6471 248.459 61.7199C247.164 63.4579 245.972 65.8654 244.263 67.1271C249.067 64.3076 253.587 68.0669 257.394 70.1655C259.376 71.2212 261.111 71.955 262.95 72.0709C261.979 74.5299 261.202 77.0661 260.865 79.6668C260.632 81.8168 260.8 84.4947 259.958 86.4387C262.704 81.6108 268.493 82.615 272.857 82.5378C275.097 82.4734 276.988 82.2545 278.633 81.4434C279.034 84.0569 279.63 86.6318 280.64 89.0522C281.52 91.0349 283.01 93.2492 283.256 95.3606C283.204 89.8247 288.734 87.8034 292.463 85.5761C294.38 84.3917 295.895 83.2716 296.918 81.7524C298.563 83.8252 300.389 85.7692 302.487 87.3528C304.235 88.6273 306.644 89.8247 307.926 91.5112C305.09 86.7348 308.858 82.2416 310.969 78.4566C312.031 76.4997 312.782 74.7616 312.912 72.9335C315.385 73.899 317.936 74.6844 320.539 75.0191C322.702 75.2508 325.396 75.0835 327.351 75.9074C322.495 73.1781 323.492 67.4232 323.414 63.0845C323.363 60.8573 323.129 58.9776 322.327 57.3426C324.942 56.9435 327.533 56.3512 329.967 55.347C331.961 54.4716 334.202 52.991 336.326 52.7464L336.313 52.7722ZM315.955 52.4117C315.722 53.8536 315.372 55.2698 314.919 56.6345C313.844 59.9432 312.135 62.9687 309.972 65.595C309.053 66.728 308.03 67.7708 306.929 68.7493C304.352 71.028 301.373 72.8305 298.097 74.0406C296.737 74.5427 295.312 74.9547 293.862 75.238C292.075 75.5985 290.223 75.7787 288.332 75.7787C286.701 75.7787 285.095 75.6371 283.541 75.3667C282.064 75.1221 280.64 74.7616 279.267 74.2853C275.965 73.1652 272.934 71.44 270.306 69.2385C269.179 68.3115 268.13 67.2816 267.172 66.1615C264.931 63.5995 263.157 60.6255 261.992 57.3683C261.499 56.0165 261.111 54.6132 260.839 53.1713C260.515 51.4847 260.347 49.7467 260.347 47.9571C260.347 46.1676 260.502 44.6098 260.8 43.0005C261.046 41.5714 261.422 40.181 261.901 38.8421C263.028 35.5977 264.75 32.6108 266.939 30.036C267.871 28.9416 268.868 27.9117 269.956 26.9976C272.507 24.7703 275.46 23.0194 278.71 21.8221C280.031 21.3457 281.417 20.9595 282.841 20.6763C284.629 20.3287 286.454 20.1356 288.345 20.1356C289.938 20.1356 291.492 20.2643 293.02 20.5218C294.445 20.7535 295.83 21.1011 297.164 21.5517C300.454 22.6332 303.471 24.3069 306.1 26.4311C307.201 27.3452 308.25 28.3365 309.195 29.4051C311.474 31.9156 313.287 34.851 314.518 38.0696C315.036 39.3957 315.45 40.7861 315.735 42.2023C316.123 44.0691 316.331 45.9873 316.331 47.9571C316.331 49.4763 316.214 50.9569 315.968 52.4117H315.955Z" fill="#FFE670"/>
<g clip-path="url(#clip2_709_4092)">
<path d="M197.137 288.048V294.988C197.137 296.183 197.789 297.346 198.644 298.249C200.263 299.945 203.814 301.439 208.024 301.636L210.197 301.623C211.803 301.528 213.461 301.229 215.119 300.689C216.692 300.174 218.206 299.456 219.355 298.255C220.21 297.359 220.863 296.189 220.863 294.995V288.055C220.863 289.79 219.675 291.232 218.239 292.236C213.924 295.249 205.942 295.567 200.909 292.929C198.958 291.906 197.137 290.222 197.137 288.048Z" fill="#F0F2F4"/>
<path d="M197.137 279.234V288.049C197.137 290.222 198.958 291.9 200.909 292.93C205.942 295.567 213.924 295.249 218.239 292.237C219.675 291.233 220.863 289.79 220.863 288.055V279.24C220.863 280.975 219.675 282.418 218.239 283.422C213.931 286.428 205.955 286.759 200.909 284.115C198.958 283.085 197.137 281.401 197.137 279.234Z" fill="#F0F2F4"/>
<path d="M220.863 279.234V272.891C220.863 274.086 220.21 275.249 219.355 276.151C218.206 277.359 216.692 278.071 215.119 278.585C208.141 280.867 201.125 278.751 198.644 276.151C197.789 275.249 197.137 274.08 197.137 272.891V279.234C197.137 281.407 198.958 283.085 200.909 284.115C205.961 286.758 213.931 286.428 218.239 283.422C219.675 282.418 220.863 280.975 220.863 279.24V279.234Z" fill="#F0F2F4"/>
<path d="M199.376 267.648C203.292 263.568 211 262.863 216.17 265.773C218.918 267.318 220.863 269.879 220.863 272.891C220.863 274.086 220.21 275.249 219.355 276.151C218.206 277.359 216.692 278.071 215.119 278.586C208.141 280.867 201.125 278.751 198.644 276.151C197.789 275.249 197.137 274.08 197.137 272.891C197.137 270.921 197.979 269.097 199.376 267.648ZM206.934 269.281C208.043 269.745 209.297 269.796 210.419 269.51C212.736 268.925 212.932 267.241 211.398 266.434C208.755 265.042 204.649 266.472 205.824 268.442C206.066 268.843 206.49 269.097 206.934 269.281Z" fill="#F0F2F4"/>
<path d="M199.891 269.396C199.826 270.069 200.054 270.749 200.407 271.328C200.759 271.919 201.275 272.408 201.83 272.821C202.397 273.215 203.024 273.514 203.664 273.768C204.316 273.99 204.969 274.194 205.641 274.321C206.979 274.594 208.357 274.689 209.714 274.601C211.072 274.505 212.416 274.226 213.689 273.781L213.676 273.736C211.098 274.512 208.317 274.581 205.733 273.959C204.44 273.647 203.207 273.132 202.104 272.446C201.555 272.097 201.072 271.671 200.687 271.156C200.302 270.648 200.008 270.05 199.943 269.402H199.898L199.891 269.396Z" fill="#6F6F70"/>
<path d="M210.197 301.617C209.46 301.661 208.729 301.668 208.024 301.63C203.82 301.433 200.27 299.945 198.644 298.242C197.789 297.346 197.137 296.177 197.137 294.982C197.137 295.611 197.222 296.221 197.385 296.812C197.9 298.7 199.186 300.32 200.87 301.496C200.922 301.534 200.968 301.566 201.02 301.598C203.024 302.951 205.498 303.676 207.946 303.835L207.965 302.475C208.553 302.818 209.682 302.818 210.295 302.481V303.816H210.334C212.749 303.619 215.204 302.863 217.181 301.464C217.384 301.318 217.579 301.172 217.775 301.013C219.172 299.876 220.216 298.395 220.654 296.717C220.797 296.158 220.876 295.579 220.876 294.982C220.876 296.177 220.223 297.34 219.368 298.242C218.219 299.45 216.705 300.162 215.132 300.676C213.474 301.216 211.81 301.515 210.21 301.611L210.197 301.617Z" fill="#6F6F70"/>
<path d="M197.385 296.812L198.116 301.592H201.02C200.968 301.566 200.922 301.528 200.87 301.496C199.186 300.321 197.9 298.7 197.385 296.812Z" fill="#A7A9AC"/>
<path d="M211.399 266.434C208.755 265.042 204.65 266.472 205.825 268.442C206.066 268.843 206.49 269.097 206.934 269.281C208.044 269.745 209.297 269.796 210.42 269.51C212.737 268.925 212.933 267.241 211.399 266.434Z" fill="#F0F2F4"/>
<path d="M207.946 303.841L207.92 305.564L207.959 307L210.328 306.981L210.289 305.545V302.488C209.682 302.825 208.547 302.825 207.959 302.481L207.94 303.841H207.946Z" fill="#A7A9AC"/>
<path d="M210.198 301.617L208.024 301.63C208.736 301.663 209.46 301.663 210.198 301.617Z" fill="#F0F2F4"/>
<path d="M217.175 301.471L219.917 301.458L220.641 296.724C220.204 298.401 219.16 299.882 217.763 301.02C217.574 301.179 217.371 301.325 217.169 301.471H217.175Z" fill="#A7A9AC"/>
<path d="M208.997 286.04C212.476 286.04 215.935 285.189 218.317 283.524C220.047 282.316 221 280.791 221 279.234H220.726C220.726 281.223 219.12 282.64 218.161 283.308C216.124 284.725 213.096 285.615 209.845 285.748C206.543 285.882 203.39 285.259 200.975 283.994C199.865 283.409 197.274 281.776 197.274 279.234H197C197 281.128 198.403 282.945 200.844 284.229C203.168 285.443 206.092 286.04 208.997 286.04Z" fill="#6F6F70"/>
<path d="M208.971 294.849C209.265 294.849 209.558 294.849 209.852 294.829C213.207 294.696 216.216 293.813 218.324 292.338C220.054 291.131 221.007 289.605 221.007 288.048H220.733C220.733 290.038 219.127 291.455 218.168 292.122C216.131 293.546 213.096 294.435 209.846 294.563C206.589 294.696 203.358 294.054 200.982 292.808C199.872 292.224 197.281 290.59 197.281 288.048H197.007C197.007 289.942 198.41 291.76 200.851 293.044C203.09 294.219 205.949 294.849 208.977 294.849H208.971Z" fill="#6F6F70"/>
<path d="M204.963 267.013C204.963 267.254 204.956 267.508 204.956 267.744C204.956 268.538 205.752 269.186 206.555 269.555C207.926 270.184 210.106 270.171 211.45 269.555C212.253 269.186 213.05 268.538 213.05 267.744C213.05 267.502 213.043 267.267 213.043 267.025C213.043 267.845 212.286 268.684 210.693 269.091C209.355 269.428 207.861 269.377 206.536 268.818C206.007 268.595 205.498 268.296 205.211 267.82C205.047 267.54 204.969 267.273 204.963 267.013Z" fill="#F0F2F4"/>
<path d="M213.037 267.025C213.037 267.845 212.279 268.684 210.687 269.091C209.349 269.428 207.854 269.377 206.529 268.818C206 268.595 205.491 268.296 205.204 267.82C205.041 267.54 204.963 267.273 204.956 267.013C204.937 265.106 209.068 263.943 211.855 265.417C212.632 265.824 213.037 266.422 213.03 267.025H213.037ZM209.721 267.559C209.956 267.451 210.197 267.26 210.197 267.025V266.008C210.197 265.811 210.08 265.589 209.799 265.43C209.055 265.011 207.802 265.316 207.802 266.008V267.025C207.802 267.578 208.977 267.909 209.721 267.559Z" fill="#6F6F70"/>
<path d="M209.799 265.437C210.08 265.596 210.197 265.818 210.197 266.015V267.032C210.197 267.267 209.962 267.458 209.721 267.566C208.97 267.909 207.802 267.585 207.802 267.032V266.015C207.802 265.329 209.055 265.024 209.799 265.437ZM208.911 266.295C209.185 266.314 209.675 266.225 209.799 265.983C209.851 265.882 209.845 265.754 209.786 265.653C209.74 265.576 209.668 265.526 209.59 265.481C209.035 265.189 208.317 265.411 208.193 265.653C208.141 265.754 208.148 265.882 208.206 265.983C208.317 266.18 208.676 266.276 208.911 266.288V266.295Z" fill="#C8C8C8"/>
<path d="M208.2 265.659C208.148 265.761 208.155 265.888 208.213 265.989C208.324 266.186 208.683 266.282 208.918 266.294C209.193 266.313 209.682 266.225 209.806 265.983C209.858 265.881 209.852 265.754 209.793 265.653C209.747 265.576 209.676 265.525 209.597 265.481C209.042 265.189 208.324 265.411 208.2 265.653V265.659Z" fill="#6F6F70"/>
<path d="M208.415 265.703C208.376 265.773 208.382 265.869 208.422 265.945C208.506 266.085 208.761 266.155 208.931 266.167C209.133 266.18 209.485 266.117 209.577 265.945C209.616 265.875 209.609 265.78 209.57 265.703C209.538 265.653 209.485 265.608 209.427 265.583C209.022 265.373 208.5 265.532 208.408 265.71L208.415 265.703Z" fill="#A7A9AC"/>
</g>
<path d="M112.556 290.08L87.8271 303V287.932L112.556 275V290.08Z" fill="#17353D"/>
<path d="M112.258 289.927L88.126 302.542V288.073L112.258 275.458V289.927Z" fill="#04060D"/>
<path d="M111.827 289.891L88.8271 302V288.109L111.827 276V289.891Z" fill="#324398"/>
<defs>
<clipPath id="clip0_709_4092">
<rect width="235.39" height="297.992" fill="white" transform="translate(28 65)"/>
</clipPath>
<clipPath id="clip1_709_4092">
<rect width="20" height="34" fill="white" transform="matrix(-1 0 0 1 245 236)"/>
</clipPath>
<clipPath id="clip2_709_4092">
<rect width="24" height="43" fill="white" transform="translate(197 264)"/>
</clipPath>
</defs>
</svg>
