<svg width="30" height="30" viewBox="0 0 30 30" fill="none" xmlns="http://www.w3.org/2000/svg">
<path d="M22.4609 14.6024L16.5772 8.7186C16.4611 8.60255 16.3234 8.51048 16.1717 8.44767C16.0201 8.38487 15.8576 8.35254 15.6934 8.35254C15.5293 8.35254 15.3668 8.38487 15.2152 8.44767C15.0635 8.51048 14.9257 8.60254 14.8097 8.7186C14.6936 8.83466 14.6016 8.97243 14.5388 9.12407C14.476 9.2757 14.4436 9.43822 14.4436 9.60235C14.4436 9.76648 14.476 9.929 14.5388 10.0806C14.6016 10.2323 14.6936 10.37 14.8097 10.4861L17.6759 13.3524L8.19344 13.3523C7.86192 13.3523 7.54397 13.484 7.30955 13.7185C7.07513 13.9529 6.94344 14.2708 6.94344 14.6023C6.94344 14.9339 7.07513 15.2518 7.30955 15.4862C7.54397 15.7207 7.86192 15.8523 8.19344 15.8523L17.6759 15.8524L14.8097 18.7186C14.6932 18.8344 14.6008 18.9721 14.5377 19.1238C14.4746 19.2755 14.4421 19.4381 14.4421 19.6023C14.4421 19.7666 14.4746 19.9292 14.5377 20.0809C14.6008 20.2326 14.6932 20.3703 14.8097 20.4861C15.0441 20.7204 15.362 20.8521 15.6934 20.8521C16.0249 20.8521 16.3428 20.7204 16.5772 20.4861L22.4609 14.6024Z" fill="#040E2F"/>
</svg>
