<svg width="74" height="74" viewBox="0 0 74 74" fill="none" xmlns="http://www.w3.org/2000/svg">
<g clip-path="url(#clip0_323_14566)">
<path d="M36.4198 0.361554C42.3381 0.190015 49.2094 2.04677 54.362 4.79178C54.7364 4.99116 55.0809 5.24669 55.4495 5.45654C65.485 11.1705 72.1774 21.3514 73.4076 32.8756C73.6481 35.1282 73.8086 36.9182 73.6572 39.2336C72.404 58.4176 56.8694 72.9448 37.7521 73.4466C28.6004 73.4878 20.3859 70.4953 13.3301 64.6022C5.44145 58.0134 0.321875 47.6313 0.399304 37.279C0.486809 25.5793 5.65375 14.6697 15.1737 7.64353C19.9337 4.13043 25.4142 1.84139 31.2457 0.866311C32.9596 0.579761 34.6919 0.511669 36.4198 0.361554Z" fill="#FFFEFA"/>
<path d="M26.1308 59.2853C26.4727 59.236 29.5067 58.8637 28.9839 59.7984C28.5609 59.8579 25.487 60.3268 26.1308 59.2853Z" fill="#040E2F"/>
<path d="M55.7171 59.1663C56.2544 59.1279 58.9635 59.0546 59.1844 59.3061C59.2265 59.5544 59.2417 59.6871 58.999 59.7985C58.4342 59.7994 55.7252 60.0037 55.4093 59.5983C55.3918 59.3255 55.4441 59.2244 55.7171 59.1663Z" fill="#040E2F"/>
<path d="M58.9987 15.6903C60.0352 15.6196 59.5183 14.6817 60.5614 15.2813C60.7025 15.6508 60.9016 15.7806 61.2304 15.9701C61.7492 15.4527 61.8862 15.6761 62.3701 16.1367C61.3343 17.0482 62.8048 16.6835 63.0128 17.1684C63.0944 17.3588 63.1294 17.5865 63.1758 17.7884C62.7417 18.0233 62.4837 18.0969 62.8631 18.5683C62.6635 18.5945 62.5455 18.776 62.3701 18.862C61.8862 18.3547 62.0676 18.0696 62.3701 17.4906C61.8846 17.368 61.5955 16.9424 61.3474 16.5374C60.9084 16.5089 60.5672 16.1568 60.1817 15.9701C59.8004 16.0666 59.2889 16.3168 58.9002 16.2129C58.7036 16.1603 57.9876 16.6922 57.6968 16.8773C57.6144 16.9973 57.4161 17.1131 57.2657 17.1102C57.1372 16.9802 57.0079 16.8526 56.8916 16.7115C57.3553 15.6406 57.5833 16.5968 58.0006 16.027C58.299 15.6196 57.7409 15.6121 58.6403 15.2813C58.7482 15.4426 58.8523 15.5621 58.9987 15.6903Z" fill="#040E2F"/>
<path d="M14.6593 59.2846C17.9085 59.1995 21.631 59.1817 24.88 59.284C25.3324 59.2982 25.3645 59.5614 25.1001 59.8789L15.8754 59.8804C15.5343 59.8825 15.1643 59.9159 14.8258 59.8859C14.498 59.8568 14.3749 59.4868 14.6593 59.2846Z" fill="#040E2F"/>
<path d="M37.6029 59.1656C38.2824 59.1371 38.9748 59.1641 39.6554 59.1643L43.6565 59.1651C46.9525 59.1657 50.2529 59.1268 53.5482 59.1627C53.9672 59.1673 54.2463 59.4147 53.9374 59.7977C52.6235 59.7516 51.2915 59.7976 49.9754 59.7976L39.1136 59.7979C38.878 59.798 36.7572 59.9902 37.6029 59.1656Z" fill="#040E2F"/>
<path d="M16.1214 16.877C16.1759 18.0896 16.1984 19.9134 16.1214 21.1022C16.1087 20.9004 16.1133 20.7039 16.1214 20.5021L11.9638 20.5004C11.253 20.5001 10.5367 20.481 9.82665 20.5021V28.7554H19.5466V25.894V21.3905H20.0489H21.6822C22.4364 21.3915 23.2093 21.3551 23.9609 21.3905C23.394 21.4083 22.824 21.3937 22.2567 21.3905L22.2592 25.6027C22.2679 28.3543 22.638 28.2215 20.2057 26.776C20.2028 27.6421 20.2262 28.508 20.2057 29.3741C19.8491 29.4055 19.482 29.378 19.124 29.3764L11.9224 29.3743C11.0271 29.3738 10.1281 29.3455 9.23356 29.3741C9.22207 26.2161 9.18786 23.0486 9.23356 19.8914H16.1214V16.877Z" fill="#0B70BC"/>
<path d="M19.5469 21.3906H20.0491H21.6825V26.927C21.1798 26.6797 20.6285 26.3774 20.2059 26.0081C19.9864 25.9277 19.7777 25.9049 19.5469 25.8941V21.3906Z" fill="#FFFEFA"/>
<path d="M19.5469 21.3906H20.0491L20.0467 24.0286C20.0454 24.6645 19.9289 25.4157 20.2059 26.0081C19.9864 25.9277 19.7777 25.9049 19.5469 25.8941V21.3906Z" fill="#FFFEFA"/>
<path d="M9.82666 20.5021C10.5368 20.481 11.253 20.5001 11.9638 20.5004L16.1214 20.5021C16.1133 20.7039 16.1087 20.9004 16.1214 21.1022C16.1963 21.5855 17.0403 21.394 17.5015 21.3936L19.5466 21.3905V25.894V28.7554H9.82666V20.5021Z" fill="#FFFEFA"/>
<path d="M11.264 22.2924C11.8141 22.2667 12.3758 22.2897 12.9271 22.2905L16.0609 22.2822C16.4479 22.2787 16.7564 22.6455 16.3599 22.8834C15.5495 22.9249 11.8497 22.9729 11.2826 22.8276C11.17 22.7004 11.1679 22.4257 11.264 22.2924Z" fill="#040E2F"/>
<path d="M11.3596 24.4931C12.1837 24.4684 17.4946 24.3976 17.8781 24.5735C18.0169 24.7391 17.9792 24.8968 17.8456 25.0562C17.5469 25.0851 17.2306 25.0624 16.93 25.061L15.167 25.055C14.5921 25.0542 11.5533 25.2202 11.2467 24.9845C11.1545 24.7673 11.1461 24.5954 11.3596 24.4931Z" fill="#040E2F"/>
<path d="M11.2641 26.6255C12.2954 26.5621 17.3367 26.5469 17.8865 26.701C18.0484 26.8639 17.9593 27.036 17.8459 27.2097C17.5635 27.2496 17.2498 27.221 16.9638 27.2174L12.773 27.211C12.2711 27.2136 11.7649 27.2417 11.2641 27.2097C11.233 27.0088 11.1958 26.8217 11.2641 26.6255Z" fill="#040E2F"/>
<path d="M16.1216 16.8769C16.1138 13.9761 15.4379 14.1115 17.8958 14.11L20.2553 14.1104C23.3595 14.1107 26.473 14.1628 29.5763 14.1104C29.6014 15.0311 29.5764 15.9571 29.5764 16.8783L29.5763 21.3904H27.9124C28.0661 21.7807 29.2029 24.1338 28.7076 24.254C27.4259 23.9687 25.2929 21.4779 23.9611 21.3904C23.2095 21.355 22.4366 21.3915 21.6824 21.3904H20.0491H19.5468L17.5017 21.3935C17.0405 21.3939 16.1964 21.5854 16.1216 21.1021C16.1986 19.9133 16.176 18.0895 16.1216 16.8769Z" fill="#040E2F"/>
<path d="M23.1934 14.6937H28.5411C27.1712 15.4114 25.835 16.3332 24.551 17.1919C24.1609 17.4526 23.0261 18.4568 22.5903 18.2877C20.8788 16.9391 18.9042 15.9683 17.1431 14.6937C19.1591 14.6733 21.1772 14.6935 23.1934 14.6937Z" fill="#0B70BC"/>
<path d="M22.7804 19.0141C23.3456 18.755 23.8979 18.3152 24.4179 17.9713L27.2851 16.1102C27.8423 15.7523 28.3954 15.3546 28.9839 15.0508V20.161V20.8433C28.4016 20.851 27.7816 20.7628 27.2076 20.8433C27.3137 21.7131 27.8215 22.4362 28.0374 23.27C27.4841 22.8075 25.1205 21.0682 24.5527 20.8765C24.2432 20.772 22.5793 20.8421 22.1279 20.8423L16.6923 20.8433C16.7128 18.9202 16.6018 16.9697 16.6923 15.0508C18.1201 15.9411 19.5327 16.8885 20.9372 17.817C21.4667 18.1672 22.2216 18.7931 22.7804 19.0141Z" fill="#FDBD00"/>
<path d="M25.6284 34.3643H46.1945V40.4963C43.8188 41.8854 41.3258 43.8539 39.0122 45.4216C38.3282 45.8851 37.6573 46.4344 36.93 46.8229C36.3133 46.4536 35.7239 45.962 35.1371 45.5423L27.23 39.9713C26.6964 39.5944 26.1453 39.2312 25.6284 38.8323V34.3643Z" fill="#0B70BC"/>
<path d="M27.5357 35.6045H28.0374C28.0407 35.984 28.0501 36.3646 28.0374 36.744H27.5357C27.5271 36.365 27.5351 35.9836 27.5357 35.6045Z" fill="#040E2F"/>
<path d="M29.9167 35.4999C30.4436 35.5133 30.969 35.4726 31.4968 35.4999C31.5099 35.704 31.499 35.9124 31.4968 36.117V36.7436H28.727C28.7283 36.32 28.5415 35.7418 28.984 35.4999C29.2495 35.5616 29.157 36.064 29.1578 36.2763H29.9167C29.9197 36.0175 29.9183 35.7587 29.9167 35.4999Z" fill="#040E2F"/>
<path d="M30.3609 35.9541C30.5934 35.9412 30.8265 35.9497 31.0592 35.9541C31.0717 36.1226 31.0631 36.2923 31.0592 36.4611C30.8251 36.4504 30.595 36.4523 30.3609 36.4611C30.3588 36.2921 30.3604 36.123 30.3609 35.9541Z" fill="#0B70BC"/>
<path d="M32.4869 35.8641L37.9122 35.8658C38.4101 35.8661 40.5963 35.7107 40.9021 35.9787C40.9576 36.1667 40.9712 36.3543 40.7857 36.4611C40.4478 36.4899 40.0898 36.4642 39.7497 36.4639L34.1434 36.4561C34.0544 36.4559 31.3272 36.6683 32.4869 35.8641Z" fill="#040E2F"/>
<path d="M60.1819 15.9697C60.5674 16.1565 60.9086 16.5085 61.3475 16.537C61.5957 16.942 61.8848 17.3676 62.3702 17.4902C62.0677 18.0692 61.8863 18.3543 62.3702 18.8617C62.5457 18.7757 62.6636 18.5941 62.8632 18.568C63.0375 18.8212 63.3824 18.8057 63.6603 18.8617L63.6626 28.5025C63.6634 28.8998 63.6842 29.3053 63.6603 29.7014C62.1576 29.7451 60.6411 29.7012 59.1368 29.7011L50.1026 29.7014C49.7738 29.9663 49.4675 30.2497 49.1836 30.5626C50.4373 31.5917 51.7634 32.5368 53.0598 33.5115C54.9611 34.9412 55.161 34.4869 55.162 36.8636L55.1603 51.6068C55.16 53.262 55.7373 56.7752 53.3058 57.0355C52.7998 57.0897 52.2584 57.0552 51.7485 57.0553L22.9875 57.0556C19.727 57.0605 18.9043 57.0834 18.9234 53.7646L18.9279 39.5585C18.9265 38.5208 18.8483 37.4108 18.9847 36.3812C19.0612 35.8045 19.4578 35.9531 19.3801 35.3882C19.2486 34.43 21.7704 32.9279 22.3789 32.4615C22.9528 32.0215 23.5032 31.5239 24.0877 31.1029C24.2643 30.9757 24.8868 30.8647 24.7807 31.2415C24.5976 31.8924 20.7697 34.1395 20.049 35.1497C20.9573 35.3992 24.4643 38.086 25.6285 38.8324C26.1454 39.2313 26.6965 39.5945 27.2301 39.9715L35.1372 45.5424C35.724 45.9621 36.3134 46.4537 36.9301 46.823C37.6574 46.4345 38.3283 45.8852 39.0122 45.4217C41.3259 43.854 43.8189 41.8855 46.1946 40.4964C47.9793 39.2098 49.7988 37.9891 51.6285 36.7684C52.4391 36.2277 53.234 35.5893 54.1033 35.1497C53.7216 34.739 53.2067 34.4043 52.7608 34.0633L50.1115 32.0459C49.6606 31.6983 49.1813 31.3653 48.7675 30.9751C48.442 31.2925 48.08 31.5863 47.7175 31.8605C48.5515 32.5545 49.4486 33.1983 50.3212 33.8436C50.6249 34.0679 52.0692 34.8497 51.6162 35.3418C51.1435 35.5112 48.6353 33.3048 48.121 32.9159L39.6939 26.4928C37.2193 24.6157 37.4856 23.8643 34.8742 25.9216L23.9995 34.3573C23.6031 34.6708 23.2257 35.0166 22.7807 35.2622C22.663 35.1534 22.3964 34.9653 22.5074 34.7808C22.6948 34.4687 25.3614 32.5236 25.8827 32.1215L31.5608 27.7247C32.3557 27.1079 35.7343 24.2686 36.5678 24.1177C37.6639 23.9194 38.3893 24.6793 39.1766 25.2989C41.8537 27.4063 44.5422 29.5273 47.3014 31.5237V29.7014C46.9271 29.7269 46.5694 29.7317 46.1946 29.7014L46.1959 22.9613C46.1957 22.1899 46.0977 19.2016 46.294 18.6615C46.7129 17.5088 48.2784 17.7849 49.2241 17.7855L53.6024 17.7887C54.5694 17.7894 56.1831 17.9815 57.0776 17.5496L57.1194 17.3701C57.1473 17.2449 57.179 17.1984 57.2658 17.1098C57.4163 17.1127 57.6146 16.9969 57.697 16.8769C57.9878 16.6918 58.7038 16.1599 58.9003 16.2125C59.2891 16.3165 59.8006 16.0663 60.1819 15.9697Z" fill="#040E2F"/>
<path d="M60.1817 15.9697C60.5672 16.1565 60.9084 16.5085 61.3473 16.537C61.5955 16.942 61.8846 17.3676 62.37 17.4902C62.0675 18.0692 61.8861 18.3543 62.37 18.8617L62.4086 18.9176C62.4179 19.0472 62.3536 19.0014 62.2898 19.1062L62.3564 19.1923C62.3366 19.3403 61.9123 19.2536 61.3473 20.1604L61.4854 20.5021C60.7756 20.4801 60.415 20.4295 60.0146 21.1022C59.5762 20.5686 59.0387 20.566 58.3847 20.5577C58.2262 19.523 57.6692 19.963 57.4298 19.4669C57.7296 19.0735 57.5271 18.655 57.2656 18.2876C57.6862 17.9096 57.73 17.4108 57.6968 16.8769C57.9876 16.6918 58.7036 16.1599 58.9001 16.2125C59.2889 16.3165 59.8004 16.0663 60.1817 15.9697Z" fill="#0B70BC"/>
<path d="M59.7438 17.1099C61.422 16.7025 61.9632 19.4181 60.0148 19.7824C58.1129 19.9569 57.8337 17.1213 59.7438 17.1099Z" fill="#040E2F"/>
<path d="M59.7435 17.4901C61.0021 17.3569 61.1343 18.9872 60.0145 19.28C58.6618 19.3189 58.565 17.8945 59.7435 17.4901Z" fill="#FFFEFA"/>
<path d="M47.4813 18.3897L53.286 18.3904C54.369 18.3894 56.1857 18.0768 57.0113 18.8616C56.8231 19.2972 56.533 19.2868 56.7592 19.7484C57.1265 20.498 57.9136 19.7625 57.8085 20.9914C58.2684 21.4529 58.3096 21.45 58.8486 21.1021C59.0728 21.153 59.2939 21.2348 59.5126 21.3061C59.5919 21.4861 59.6668 21.6688 59.7437 21.8502C60.0079 21.7577 60.2855 21.7279 60.5614 21.6894L60.5575 21.5002C60.549 20.9825 60.9564 21.094 61.3474 21.1021C61.7026 21.52 61.8743 21.1108 62.181 20.8427L61.8915 20.502L61.9421 20.3923C62.1812 19.8662 62.4741 19.845 63.0287 19.7823V28.1652C63.04 28.4693 63.0323 28.7741 63.0287 29.0784H49.94C49.2936 29.4891 48.4172 30.4024 47.8787 30.9751V29.0784C47.5316 29.0885 47.1845 29.0821 46.8375 29.0784V22.2594C46.8373 21.1297 46.8033 19.9904 46.8375 18.8616C47.0259 18.6293 47.182 18.4578 47.4813 18.3897Z" fill="#FFFEFA"/>
<path d="M48.9532 25.6982L51.1045 25.6956C51.4351 25.6955 52.427 25.5729 52.6512 25.8861C52.6483 26.1364 52.5753 26.2369 52.3309 26.3047C51.6327 26.3132 49.5138 26.4015 48.933 26.2857C48.5015 26.1996 48.5455 25.7883 48.9532 25.6982Z" fill="#040E2F"/>
<path d="M48.7677 21.1028L52.6373 21.1024C53.3711 21.1024 54.1093 21.0783 54.8425 21.1028C54.8487 21.3205 54.9222 21.5932 54.6783 21.6901C54.015 21.71 48.8646 21.7817 48.6419 21.5945C48.5806 21.3902 48.5539 21.1935 48.7677 21.1028Z" fill="#040E2F"/>
<path d="M48.7672 23.4564C49.157 23.4315 49.5569 23.4549 49.948 23.4551L55.7946 23.4549C56.2243 23.4551 59.234 23.1253 58.6401 24.0578C58.2373 24.1089 57.786 24.0649 57.3788 24.0608L51.0089 24.0543C50.7401 24.0542 47.9646 24.3403 48.7672 23.4564Z" fill="#040E2F"/>
<path d="M54.525 35.6045L54.5693 35.6458C54.5125 37.6839 54.5242 39.7209 54.5243 41.7602L54.5257 53.4732C54.5271 55.1297 54.7411 56.4115 52.6866 56.4656C50.0171 56.5357 47.3332 56.4804 44.6624 56.4802L23.3898 56.4796C20.2835 56.4817 19.5337 57.0425 19.5464 53.3317L19.5456 38.6496C19.5444 37.4666 19.1474 36.4593 20.2058 35.8646C20.7414 36.1069 21.2693 36.5604 21.7498 36.9021L29.3338 42.1902C30.2055 42.7965 31.1524 43.378 31.9598 44.0675C31.6543 44.3348 31.3299 44.5786 31.0227 44.8439L25.5251 49.5671C25.0492 49.9657 20.8773 53.4149 20.8926 53.6854C20.902 53.8498 21.0248 53.9371 21.1412 54.0351C21.7714 53.6583 22.3339 53.099 22.8909 52.6197L25.7012 50.2058C27.7813 48.4353 30.5979 46.304 32.4868 44.3971C33.693 45.2184 35.7224 46.9671 36.9301 47.5484C37.6188 47.2948 40.7369 45.0099 41.5967 44.3971C43.642 46.2916 45.7929 48.0692 47.8899 49.905L50.9291 52.5311C51.6078 53.1136 52.2924 53.7456 53.03 54.2525C53.6629 53.5658 52.0973 52.7406 51.491 52.2218L44.777 46.4244C43.8864 45.6377 43.0121 44.8134 42.0875 44.0675C42.87 43.4538 43.7044 42.9026 44.5242 42.3408L52.2082 37.0828C52.9683 36.5727 53.7204 36.043 54.525 35.6045Z" fill="#FFFEFA"/>
</g>
<defs>
<clipPath id="clip0_323_14566">
<rect width="74" height="74" fill="white"/>
</clipPath>
</defs>
</svg>
