<svg width="104" height="104" viewBox="0 0 104 104" fill="none" xmlns="http://www.w3.org/2000/svg">
<g clip-path="url(#clip0_203_711)">
<path d="M50.3635 0.350917L50.457 0.347275C58.5752 0.110999 67.3955 2.07273 74.6491 5.59051C84.2366 10.2402 92.1049 17.5755 97.1054 26.9718C97.5283 27.7665 98.0262 28.5113 98.4156 29.3263C101.786 36.3788 104.091 46.8614 103.461 54.8337C102.078 72.3039 92.2479 88.4958 76.826 96.9789C69.7278 100.883 61.6938 103.187 53.5826 103.259C48.4814 103.268 43.6354 102.877 38.7088 101.478C24.229 97.3674 11.8791 87.7866 5.48621 74.0213C2.01152 66.5394 -0.0108857 57.0587 0.64981 48.7344C2.00291 31.6864 11.2637 16.2673 26.0755 7.4984C30.9639 4.60444 36.2612 2.6893 41.8233 1.52375C44.6313 0.935287 47.5224 0.733992 50.3635 0.350917Z" fill="#D7E8F8"/>
<path d="M51.4199 9.60547C51.6115 9.60915 51.8524 9.5894 51.9858 9.75154C52.0522 10.3559 52.2231 14.0054 51.8089 14.19C51.6153 14.1918 51.3106 14.2234 51.1605 14.0911C51.1026 13.3531 50.8085 9.86921 51.4199 9.60547Z" fill="#FDBD00"/>
<path d="M66.3705 13.2852C66.9805 13.3305 67.1038 13.4932 66.8868 14.0537C66.6364 14.7001 65.2933 17.5481 64.9324 18.0287C64.6448 18.0405 64.3906 18.0605 64.2275 17.7881C64.3112 17.272 66.001 13.8831 66.3705 13.2852Z" fill="#FDBD00"/>
<path d="M77.6192 22.4416C78.0827 22.3599 78.4622 22.7983 78.0579 23.1637C77.318 23.8328 75.279 25.2163 74.4415 25.72C74.1856 25.8212 73.9766 25.8185 73.7365 25.6621C73.5207 25.1482 76.8936 22.8966 77.6192 22.4416Z" fill="#FDBD00"/>
<path d="M64.6701 68.1053C65.5864 68.0074 67.4726 72.0144 67.4702 72.1731C67.419 72.322 67.3134 72.3817 67.1917 72.4698C66.3404 72.5336 64.7432 69.362 64.4304 68.6468C64.313 68.3785 64.4522 68.243 64.6701 68.1053Z" fill="#FDBD00"/>
<path d="M19.5342 35.4948C19.9463 35.4582 25.4999 35.8015 24.5698 37.1644C24.0624 37.2599 20.1076 36.3863 19.5448 36.1529C19.2712 36.0395 19.4459 35.69 19.5342 35.4948Z" fill="#FDBD00"/>
<path d="M83.4015 35.4949C83.6601 35.4331 83.9987 35.4622 84.0318 35.7872C84.1096 36.5534 80.2959 37.0324 79.6224 37.1646C79.2021 37.2444 78.5757 37.0512 78.9614 36.5654C79.2188 36.2416 82.7834 35.5638 83.4015 35.4949Z" fill="#FDBD00"/>
<path d="M24.1016 48.7157C24.8186 48.6081 25.1154 49.2193 24.5976 49.475C24.081 49.7301 21.2129 50.14 20.4256 50.2804C20.0926 50.3086 19.7519 50.28 19.6031 49.9119C19.3563 49.3013 23.2084 48.8725 24.1016 48.7157Z" fill="#FDBD00"/>
<path d="M25.6253 22.2168C26.3202 22.2603 29.6602 24.7225 29.9561 25.3128C29.9025 25.4747 29.725 25.6043 29.6012 25.7197C29.1924 25.9149 25.3547 23.0283 25.3184 22.6781C25.3868 22.4829 25.4876 22.3689 25.6253 22.2168Z" fill="#FDBD00"/>
<path d="M37.2024 12.9297C37.8898 13.313 39.7016 17.4072 39.595 17.9601C39.4916 18.107 39.346 18.1604 39.1894 18.2356C38.6966 18.0979 37.2004 14.5174 36.9251 13.8528C36.72 13.358 36.7972 13.2607 37.2024 12.9297Z" fill="#FDBD00"/>
<path d="M79.1917 48.3442C79.5218 48.327 85.5714 48.786 84.2668 50.1157C83.5406 50.1874 79.7836 49.3109 78.9561 49.0369C79.0009 48.7801 79.0475 48.5652 79.1917 48.3442Z" fill="#FDBD00"/>
<path d="M74.441 59.7578C75.4946 60.4954 80.0402 62.3141 78.5594 63.2739C78.0239 63.0907 74.5623 60.9621 74.1514 60.5894C73.7973 60.2683 74.1828 59.9831 74.441 59.7578Z" fill="#FDBD00"/>
<path d="M30.0126 59.5078C31.8932 59.5017 27.2812 62.5967 26.0328 63.1188C23.8452 63.2061 28.9324 59.9498 30.0126 59.5078Z" fill="#FDBD00"/>
<path d="M38.4133 68.1046C40.0933 68.0411 37.8352 70.7146 37.4196 71.4089C37.0763 71.9819 36.7511 72.7796 36.2872 73.253C36.0002 73.1925 35.7377 73.1015 35.6504 72.7944C35.7024 72.392 37.9221 68.5054 38.4133 68.1046Z" fill="#FDBD00"/>
<path d="M42.4326 74.1408C40.2366 72.1069 40.9971 69.229 40.734 66.5961C40.2396 61.6437 37.6376 59.541 34.8056 56.1646C26.9544 46.804 29.1222 33.2158 38.274 25.6002C47.4936 17.928 61.2237 19.3915 68.8398 28.5827C74.8182 35.7975 75.5925 46.5581 70.4559 54.4401C67.1846 59.4601 63.1907 61.2578 63.1601 68.511C63.1511 70.6503 63.2051 72.644 61.3573 74.1408C61.764 75.0075 61.7626 75.9336 61.8369 76.8734C62.2956 76.8856 63.9953 76.6092 63.4706 77.5846C63.1544 77.8174 62.496 77.7099 62.1046 77.7028C62.0729 78.3532 62.1038 79.0201 62.1046 79.6719C62.4536 79.6571 63.1519 79.5403 63.4231 79.7775C64.3189 80.5614 62.3644 80.4612 62.1046 80.4334V82.5652C62.4489 82.5264 63.2198 82.3379 63.4783 82.6511C64.2453 83.581 62.391 83.3489 62.1046 83.3133C62.0973 84.007 62.1867 84.7106 62.2293 85.4039C64.2025 85.4677 63.9214 86.2408 62.2293 86.1778C61.7928 89.4251 59.3202 90.9982 56.2605 91.5551C56.2798 91.7641 56.2741 91.9624 56.2605 92.1716C56.2109 92.8011 55.9834 93.46 55.579 93.952C54.6526 95.0706 51.0335 94.8904 49.8862 94.6568C48.4258 94.3597 47.8355 92.9108 47.7221 91.5551C44.0149 91.8395 42.0156 89.2171 41.9174 85.7234C40.9388 85.7342 39.5691 85.5891 40.8204 84.4029C41.1825 84.2969 41.5522 84.2097 41.9174 84.1142V82.3511C39.4099 82.3568 39.7672 81.4431 41.9174 81.445C41.9083 80.7281 41.9075 80.0123 41.9174 79.2955C41.7895 79.2886 39.5642 79.3956 40.5669 78.5129C40.8583 78.2561 41.5427 78.3532 41.9174 78.3603C41.9046 76.5681 42.1063 75.8623 42.4326 74.1408Z" fill="url(#paint0_linear_203_711)"/>
<path d="M55.4411 91.5551L55.499 91.4785L55.6103 91.4897C55.8882 91.9727 56.1147 92.2447 56.1933 91.513L56.2601 92.1716C56.2106 92.8011 55.9831 93.46 55.5786 93.952L55.5047 93.9282C55.5533 93.823 55.6069 93.7235 55.6632 93.6225L55.6304 93.5354C54.9865 93.306 54.8527 94.0036 54.458 93.952C54.694 93.5874 56.3166 92.2786 55.4411 91.5551Z" fill="#040E2F"/>
<path d="M48.4268 91.5555C50.7341 91.4236 53.1236 91.58 55.4409 91.5555C56.3163 92.279 54.6938 93.5877 54.4577 93.9523C53.812 93.9885 53.148 93.9519 52.4998 93.9544C50.328 93.9625 48.8519 94.3019 48.4268 91.5555Z" fill="#FFFEFA"/>
<path d="M42.7773 77.5907L55.1995 77.5898C57.2455 77.59 59.3148 77.6605 61.3574 77.5907V79.6707H42.7773V77.5907Z" fill="#0B70BC"/>
<path d="M43.8013 74.498H55.0569C56.9569 74.4983 58.8608 74.5297 60.76 74.498C60.8534 75.2214 60.9467 75.9437 61.0661 76.6634C60.7563 76.6762 60.4543 76.6847 60.1445 76.6634H42.7773C42.8822 75.9289 43.0317 75.2165 43.2128 74.498H43.8013Z" fill="#C8C8C8"/>
<path d="M42.7773 83.3125H61.3574C61.3511 84.0119 61.3909 84.7023 61.3574 85.4031H42.7773V83.3125Z" fill="#0B70BC"/>
<path d="M42.7773 80.4336H61.3574V82.5654H42.7773V80.4336Z" fill="#0B70BC"/>
<path d="M42.7774 86.1781C43.4744 86.1436 44.1869 86.1755 44.8853 86.1767L61.3575 86.1781C61.3114 87.6108 60.755 88.2246 59.873 89.2656C57.1833 91.2059 55.3184 90.7856 52.1332 90.7854C49.5362 90.785 45.8787 91.3686 43.9974 89.3428C43.3614 88.6579 42.645 87.172 42.6852 86.2441L42.7774 86.1781Z" fill="#6099C9"/>
<path d="M43.213 73.7679C41.1836 71.2323 42.0434 69.3402 41.7389 66.4505C41.1175 60.5532 37.9112 58.654 34.8623 54.6215C27.8923 45.4033 30.8847 32.4872 39.858 25.7172C48.8048 18.9672 61.8883 21.0228 68.5809 29.929C73.9612 37.0894 74.3468 46.8246 69.3436 54.2961C68.393 55.7158 67.2246 56.8864 66.133 58.1892C63.627 61.1808 62.0465 64.6153 62.1117 68.5551C62.1454 70.5977 62.1832 72.408 60.3391 73.7679C58.7072 73.787 57.0736 73.7699 55.4417 73.7679V71.7775C55.3359 72.4059 55.4506 73.1248 55.4417 73.7679C55.2577 73.7852 54.9398 73.8593 54.7785 73.7679C54.2345 73.6895 53.5925 73.7616 53.0375 73.7626L49.1524 73.7679V73.0681C49.092 73.5696 49.0648 73.9647 48.4276 73.7679C48.2462 73.8351 43.7813 73.7734 43.213 73.7679Z" fill="#FFFEFA"/>
<path d="M50.1776 25.09C51.6301 24.9736 51.8095 26.5886 50.519 26.9689C49.0388 27.0719 49.0151 25.6392 50.1776 25.09Z" fill="#FDBD00"/>
<path d="M34.9446 43.0111C36.3606 42.9573 37.0466 44.5445 35.6068 45.1896C34.4041 45.4082 34.0931 44.7304 34.1344 43.6489C34.3741 43.3611 34.6073 43.175 34.9446 43.0111Z" fill="#FDBD00"/>
<path d="M46.0751 25.7195C47.0326 25.685 47.6477 26.8326 46.944 27.535C46.3958 28.0827 45.2928 28.4064 44.6018 28.817C41.0975 30.8992 38.2345 34.5162 37.0801 38.4079C36.7726 39.4451 36.8857 40.986 35.6066 41.3096L35.5764 41.3061C34.1738 41.1556 34.2374 40.2712 34.4634 39.1922C35.6082 33.7318 39.1644 29.2482 44.0109 26.5814C44.6621 26.2231 45.3331 25.8404 46.0751 25.7195Z" fill="#FDBD00"/>
<path d="M48.4276 47.1213C48.9996 46.1498 50.5179 43.042 52.0075 43.4675C53.5498 43.878 54.7901 45.8376 55.4169 47.2473L55.4417 47.3013C56.8193 46.3683 58.3712 44.9259 60.1877 45.3113C62.0449 45.7049 61.4914 47.8611 60.7601 49.0354L60.4969 49.807C61.7512 49.5442 62.7424 49.113 63.5882 48.1166C63.8651 47.7906 64.3703 46.7482 64.9045 47.076C65.0568 47.4496 64.6623 47.8063 64.4503 48.0748C62.6758 50.3203 62.1899 49.738 60.1446 50.4719L56.3021 61.1014C56.0683 61.7514 55.4904 63.7548 55.2044 64.146C55.0216 64.3963 55.386 64.4688 55.4315 64.7154C55.5298 65.2474 55.4427 66.1348 55.4425 66.7056L55.4417 71.7764C55.3359 72.4049 55.4506 73.1238 55.4417 73.7669C55.2577 73.7841 54.9398 73.8583 54.7785 73.7669C54.2345 73.6884 53.5924 73.7606 53.0375 73.7616L49.1523 73.7669V73.0671C49.092 73.5686 49.0648 73.9637 48.4276 73.7669C48.3628 72.9275 48.3953 64.8933 48.5005 64.6228C48.5527 64.4887 48.782 64.4176 48.9074 64.3555C48.5645 63.6266 48.3142 62.843 48.0313 62.0888L44.6046 53.1998C44.2174 52.1804 43.7856 51.1601 43.4758 50.1142C41.3842 50.1834 39.6757 49.0985 38.6554 47.244C38.5185 46.9952 38.6097 46.8012 38.8921 46.7847C39.9305 47.2753 39.7588 49.2448 43.213 49.5535C42.7494 48.4668 42.087 46.7218 42.8538 45.6422C44.2079 43.7352 47.2566 46.1892 48.4276 47.1213Z" fill="#040E2F"/>
<path d="M43.2129 46.0232C44.7583 44.7661 45.4991 46.011 46.8826 46.637C47.2108 46.9434 47.5383 47.235 47.895 47.5089C46.729 48.8852 45.5166 49.2765 43.8014 49.5545C43.4287 48.533 42.8688 47.0925 43.2129 46.0232Z" fill="#FFFEFA"/>
<path d="M55.4411 48.1426C56.5524 49.2423 57.6218 50.1385 59.2336 50.2805L59.4938 50.3317C59.5907 50.5425 58.8044 52.4726 58.6813 52.8047L55.5315 61.4054C55.1664 62.378 54.8967 63.4178 54.4579 64.3572C54.1638 64.369 53.8768 64.3727 53.5827 64.3572C53.5571 63.5969 53.6448 62.8379 53.709 62.0812L53.9946 58.9415C54.0586 58.3035 54.3468 56.6653 54.1807 56.0919C54.7919 53.7602 54.3791 50.1507 55.4411 48.1426Z" fill="#FFFEFA"/>
<path d="M48.2845 47.9004C48.4758 48.2691 48.5794 48.6349 48.6755 49.0363C49.1825 51.0712 49.2879 53.2479 49.5499 55.3275C49.8845 57.9843 50.4936 61.707 50.5184 64.3564C50.3133 64.3675 49.7689 64.45 49.6143 64.304C48.6968 63.4354 45.9562 54.0372 44.5652 51.4937C44.4387 51.0314 44.2626 50.5735 44.1182 50.1151L44.1805 50.1102C45.8399 49.9676 47.2199 49.1525 48.2845 47.9004Z" fill="#FFFEFA"/>
<path d="M52.0076 43.4688C53.5499 43.8793 54.7902 45.8388 55.417 47.2485L55.4418 47.3025C56.8194 46.3696 58.3713 44.9272 60.1878 45.3125C62.045 45.7062 61.4915 47.8623 60.7602 49.0366C60.8527 48.7275 61.0832 48.2897 60.6839 48.1282C60.4226 48.372 60.1679 49.7027 59.8732 49.8083H59.5783C58.8291 50.1182 57.1923 48.7807 56.8202 49.1177C56.7883 49.8223 58.8334 49.9046 59.2344 50.2799C57.6226 50.138 56.5531 49.2418 55.4418 48.142C54.3799 50.1501 54.7926 53.7597 54.1814 56.0913C54.1239 55.6404 54.5481 55.2012 53.9131 55.1397C53.7536 55.4182 53.8016 55.9581 53.7486 56.2902L53.8207 56.2979L53.6927 56.25C53.7193 56.16 53.7329 56.0883 53.7289 55.9951L53.724 55.9079C53.7153 53.87 54.2604 50.7506 54.5655 48.7238L54.4587 48.7153C52.9862 49.0084 51.6472 49.2966 50.1795 48.8481C49.9532 48.7788 49.3276 48.4522 49.1525 48.5016C48.8677 48.4122 49.3115 48.3429 49.4045 48.2174C49.3211 47.5306 48.0369 47.7829 49.3759 46.6373C49.6255 45.8256 50.5573 44.5406 51.3027 44.1246C52.7386 43.3233 53.4989 45.6005 54.1304 45.7785C55.0821 45.4714 52.372 43.8655 52.0076 43.4688Z" fill="url(#paint1_linear_203_711)"/>
<path d="M55.9385 47.7454C57.2263 46.7241 58.4148 45.7469 60.144 45.8675C61.9343 46.9931 59.9069 48.5648 59.8724 49.8072H59.5775C58.1225 49.5624 56.8893 48.9004 55.9385 47.7454Z" fill="#FFFEFA"/>
<path d="M49.3756 46.6376C49.8446 45.9323 50.7969 44.2527 51.6584 44.0685C52.8637 43.8107 54.7314 46.7964 54.8791 47.6613C54.7849 47.8791 54.3906 48.0324 54.1812 48.1423C52.3142 48.5402 50.5718 48.7036 48.9072 47.5094C49.0523 47.21 49.2046 46.9228 49.3756 46.6376Z" fill="#FFFEFA"/>
<path d="M49.1521 64.998H54.7782V73.768C54.2342 73.6896 53.5922 73.7617 53.0372 73.7627L49.1521 73.768V73.0682C49.1521 70.3839 49.0824 67.6805 49.1521 64.998Z" fill="#C8C8C8"/>
<path d="M49.1523 48.5011C49.3274 48.4518 49.9531 48.7784 50.1793 48.8477C51.6471 49.2962 52.9861 49.0079 54.4586 48.7148L54.5654 48.7234C54.2603 50.7502 53.7151 53.8695 53.7239 55.9075C53.2392 58.2857 53.0519 61.9092 52.8476 64.3563H51.1363C51.1489 63.3626 50.9943 62.3754 50.87 61.3921L50.4556 57.9719C50.146 55.3347 49.8688 50.9943 49.1523 48.5011Z" fill="#FFFEFA"/>
</g>
<defs>
<linearGradient id="paint0_linear_203_711" x1="52.1747" y1="94.6138" x2="51.818" y2="20.7158" gradientUnits="userSpaceOnUse">
<stop stop-color="#022456"/>
<stop offset="1" stop-color="#084D8F"/>
</linearGradient>
<linearGradient id="paint1_linear_203_711" x1="58.3656" y1="54.0826" x2="53.1488" y2="43.0003" gradientUnits="userSpaceOnUse">
<stop stop-color="#07101C"/>
<stop offset="1" stop-color="#40414B"/>
</linearGradient>
<clipPath id="clip0_203_711">
<rect width="104" height="104" fill="white"/>
</clipPath>
</defs>
</svg>
