<svg width="104" height="104" viewBox="0 0 104 104" fill="none" xmlns="http://www.w3.org/2000/svg">
<path d="M95.6824 14.1357C101.656 13.4325 102.904 21.7873 96.9808 23.0379C91.055 23.9311 89.5919 14.8241 95.6824 14.1357Z" fill="#64A0D6"/>
<path d="M4.47032 38.0879C5.1883 33.6921 9.84505 25.3824 12.902 21.4583C22.9606 8.54569 37.6913 1.65316 54.1324 2.30841C68.1694 2.86784 81.4361 9.59696 90.4682 20.3088C92.5078 22.7276 93.0288 23.4792 94.6632 26.2536C100.218 35.6829 102.63 45.9811 101.519 56.8506C101.394 58.073 101.306 59.3181 101.091 60.5279C99.2138 71.0953 94.1182 80.5437 86.4124 87.9423C72.9523 100.866 51.88 104.938 34.477 98.3787C25.0429 94.8232 16.8239 88.2082 11.1328 79.9156C9.66422 77.7757 5.37286 70.3407 5.50461 67.6016C5.35452 67.6172 5.06643 67.6798 4.93899 67.6016C-0.366579 67.0401 -1.54286 60.5263 3.14765 58.2804C2.82498 56.8957 2.71765 56.1744 2.63624 54.693C2.55312 53.1805 2.4517 44.2213 3.57027 43.7212C3.09315 42.7996 4.89087 41.5924 5.50461 40.8092C5.26825 40.5792 2.34474 37.6632 4.47032 38.0879Z" fill="#D7E8F8"/>
<path d="M77.1826 84.316C77.6406 84.3272 78.8533 84.1838 79.1838 84.5683C79.2484 84.8413 79.214 85.1565 78.9563 85.3044C78.2766 85.3828 77.5318 85.304 76.8436 85.3044C76.8198 84.8651 76.7132 84.5065 77.1826 84.316Z" fill="#040E2F"/>
<path d="M12.4878 24.5116C12.9335 24.4894 14.755 24.2063 14.5964 24.9845C14.555 25.1878 14.4282 25.3011 14.2615 25.4066C13.8031 25.3996 12.6912 25.5189 12.3542 25.3767C11.83 25.1555 12.0287 24.6205 12.4878 24.5116Z" fill="#040E2F"/>
<path d="M83.0956 84.3154C83.2751 84.3164 87.0872 83.9632 86.1896 85.0893C85.9367 85.4064 85.0827 85.3052 84.7033 85.3038C84.1234 85.3024 80.8281 85.7789 81.4716 84.5258C81.8644 84.2209 82.6109 84.3184 83.0956 84.3154Z" fill="#040E2F"/>
<path d="M16.9799 24.5115C17.7589 24.4765 23.5746 23.8205 22.2689 25.4065C21.689 25.4918 17.2448 25.4987 17.0449 25.3985C16.7569 25.2541 16.9062 24.7378 16.9799 24.5115Z" fill="#040E2F"/>
<path d="M78.5064 87.0233C79.8901 87.0307 81.9719 86.3839 81.7832 87.9431C80.6778 88.0245 79.5031 87.9441 78.3902 87.9439L71.2719 87.9431C70.305 87.9366 66.9618 88.1655 68.1149 87.1814C68.5011 86.8519 71.5597 87.0219 72.1756 87.0223L78.5064 87.0233Z" fill="#040E2F"/>
<path d="M37.3111 7.77075C38.5489 7.71306 38.0421 9.71673 38.0322 10.5624C38.8566 10.5989 39.6801 10.5212 40.5024 10.5624C41.0329 11.0201 40.9537 11.3149 40.5024 11.7813C39.6962 11.8474 38.842 11.786 38.0322 11.7813C38.0285 12.5331 38.2408 13.7794 37.788 14.3957C36.4057 14.8037 36.8794 12.7135 36.8851 11.7813C36.6686 11.7821 33.1732 11.9729 34.4031 10.7828C34.797 10.4015 36.3127 10.5565 36.8851 10.5624C36.8591 9.81015 36.5002 8.21438 37.3111 7.77075Z" fill="#0B70BC"/>
<path d="M6.35534 40.0442C6.51362 39.8583 9.2162 36.7538 9.11413 38.6248C9.09308 39.0105 7.52601 40.5173 7.15756 40.8092C7.48049 41.4758 9.33494 42.8061 9.09166 43.5138C8.70639 44.6342 6.61565 42.1258 6.35534 41.8193C5.75391 42.3639 4.2079 44.2428 3.57082 43.7212C3.0937 42.7996 4.89142 41.5924 5.50516 40.8092C5.26881 40.5792 2.34529 37.6632 4.47087 38.0879C5.05136 38.7734 5.71586 39.4125 6.35534 40.0442Z" fill="#0B70BC"/>
<path d="M90.3916 37.4746C91.3717 37.4842 92.0454 38.7387 92.76 39.2981L92.8331 39.3547C92.9867 39.2383 95.4807 36.2981 95.5962 38.0712C95.634 38.6491 94.1276 39.878 93.6907 40.3023C94.161 40.7124 96.6299 42.5434 95.0982 43.0632C94.1731 43.0047 93.4222 41.8056 92.8331 41.1869C92.1328 41.6978 90.5799 44.2086 89.9404 42.3458C90.5336 41.5997 91.3044 40.9503 92.0024 40.3023C91.4285 39.7906 89.1901 38.266 90.3916 37.4746Z" fill="#0B70BC"/>
<path d="M3.14765 58.2785C9.55484 55.8299 12.6265 65.1834 6.59799 67.3154C6.06934 67.5024 5.4935 67.5475 4.93899 67.5997C-0.366579 67.0383 -1.54286 60.5245 3.14765 58.2785Z" fill="#929BAB"/>
<path d="M4.64819 59.0154C5.4355 58.6587 6.66134 59.1619 7.30958 59.6096C10.0854 61.5265 9.15813 65.8865 5.50499 66.5142C0.0505615 66.9983 -0.0852408 59.1777 4.64819 59.0154Z" fill="#FFFEFA"/>
<path d="M51.0026 14.1367C51.7306 14.1963 52.4667 15.82 52.825 16.3776C53.7539 17.8232 54.7624 19.2293 55.8402 20.5683C59.9651 25.694 59.9472 25.8429 61.7384 32.1115C63.3164 31.451 64.9104 30.891 66.4693 30.1684C67.9475 29.4835 70.1201 27.8043 68.2055 31.0159C66.4974 33.8808 65.8185 38.5291 65.7454 41.8185C65.7621 41.8156 65.7787 41.8128 65.7954 41.8097L65.8785 41.7937C66.4795 41.6814 67.0582 41.4658 67.6412 41.2838C71.453 40.0941 75.3433 39.4663 79.341 39.359C81.6984 39.2959 81.6931 39.0182 80.7667 41.2968C77.5756 49.1464 79.8837 51.606 72.3732 59.0146C75.0896 60.6051 78.0503 62.1056 81.0718 63.0381C83.9021 63.9118 82.216 64.5047 80.4015 65.6278C77.2151 67.5995 71.7957 70.3817 67.981 70.9596C68.6233 71.8357 71.6762 75.3544 71.7906 75.6928C71.634 76.3674 70.1227 76.7897 69.5702 77.044C62.9437 80.0931 61.6474 80.6422 54.849 78.8343C53.6719 78.5213 52.4594 78.0375 51.2463 77.9209C51.3113 82.3673 49.4182 94.3001 47.6135 97.325C46.1672 98.257 48.0559 93.1819 48.158 92.7827C49.2848 88.3873 50.3526 82.441 50.2638 77.9209C48.4093 78.5676 44.3305 79.7124 42.3759 79.8951C38.9674 80.2134 35.7461 78.5191 32.7506 77.1259C31.9153 76.7373 30.8938 76.4767 30.356 75.6808C30.866 75.0379 31.5599 74.5758 32.1469 74.0093C32.9549 73.2291 33.6248 72.301 34.2795 71.3927C29.8938 69.3181 26.1458 68.7413 21.7477 65.5536C19.2015 63.708 19.1554 63.7686 22.0002 63.0944C24.5417 62.4921 27.7326 60.8943 29.8808 59.2984C28.9394 57.7916 27.7728 56.4199 26.7749 54.9487C23.523 50.1547 23.1732 47.0264 21.5828 41.8985C20.7211 39.1202 20.5253 39.5319 23.3362 39.5305C27.9209 39.528 32.3602 40.0543 36.6347 41.8185C36.0546 38.2252 35.5533 34.5783 33.8345 31.3202C33.5481 30.7776 32.7354 29.7364 32.6521 29.2158C32.4632 28.0358 35.504 29.817 35.8275 29.969C37.3189 30.6698 38.8084 31.3718 40.281 32.1115C41.5845 26.7884 41.9832 25.5748 45.4112 21.3808C46.7999 19.6816 48.0626 17.8819 49.29 16.0639C49.7989 15.3102 50.0975 14.4401 51.0026 14.1367Z" fill="#040E2F"/>
<path d="M52.627 63.4746C52.7885 63.7385 53.6215 68.9923 54.4007 70.7341C53.3521 72.0176 52.3054 73.2177 51.4635 74.654L51.4592 68.2986C51.456 66.1256 51.0948 65.1872 52.627 63.4746Z" fill="#FFFEFA"/>
<path d="M54.6702 71.7969C55.0931 72.26 55.3661 72.9947 55.7039 73.5332C56.897 75.4367 58.3065 77.1346 60.0266 78.58C60.5618 79.0299 60.5147 78.9629 59.8616 79.0145C56.8846 78.7783 54.1343 77.5067 51.2461 76.891C51.7236 75.3528 53.6054 73.0676 54.6702 71.7969Z" fill="#FFFEFA"/>
<path d="M52.6263 61.8445C52.3549 60.5193 52.9799 57.4773 53.2791 56.1138C55.2033 47.342 60.2422 39.0279 66.4057 32.5996C66.3545 33.4247 65.724 34.968 65.5117 35.8543C65.2531 36.9327 64.556 42.4071 64.9598 43.0563C65.3409 43.2204 65.9525 42.8702 66.3214 42.7343C70.3026 41.2672 75.8894 40.1037 80.1408 40.3033C77.5749 46.9943 78.443 51.322 72.8642 57.1871C70.7667 59.3922 69.9967 58.8887 73.3052 60.5969C75.8089 61.8896 78.374 63.2571 81.0888 64.0535C77.9948 66.4532 72.3759 68.8818 68.7101 69.8015C68.2001 69.9295 66.985 70.0002 66.685 70.4966C66.6342 71.1907 69.909 74.7677 70.5234 75.5719C67.9498 76.8425 62.8051 79.3407 59.8614 79.0147C60.5144 78.9631 60.5615 79.0301 60.0263 78.5802C58.3062 77.1348 56.8968 75.4368 55.7036 73.5334C55.3658 72.9949 55.0928 72.2602 54.6699 71.7971C55.8897 69.5645 59.8748 67.5312 61.2564 65.8489C61.1537 65.6722 60.9958 65.516 60.8622 65.3612C59.1588 65.7447 55.6396 69.3459 54.3999 70.7345C53.6208 68.9927 52.7877 63.7389 52.6263 63.475C52.9643 62.7428 53.6352 62.0473 54.1467 61.421C58.0337 56.6624 62.5997 52.7411 67.768 49.4572C68.1718 49.2006 69.6609 48.612 69.6282 48.0243C69.5588 46.7785 67.0266 48.813 66.7579 48.9859C61.387 52.4433 56.3902 56.6474 52.6263 61.8445Z" fill="#FDBD00"/>
<path d="M64.8961 63.0146C65.2325 62.9925 65.5447 63.3524 65.3982 63.6829C65.1914 64.1489 64.1693 64.4434 63.7086 64.6273C63.3871 64.6583 63.0147 64.2608 63.172 63.9488C63.3804 63.5351 64.4811 63.1662 64.8961 63.0146Z" fill="#040E2F"/>
<path d="M51.002 15.2285C53.3845 19.2631 57.8031 23.5235 59.4384 27.3914C60.2331 29.2709 60.4303 31.3024 61.0508 33.2245C62.9755 32.8871 65.337 31.579 67.186 30.8496C66.9894 31.4488 66.6788 32.0304 66.4056 32.5981C60.2422 39.0264 55.2033 47.3405 53.2791 56.1123C52.9799 57.4758 52.3549 60.5178 52.6262 61.843C52.2273 62.3774 51.8582 62.9358 51.4627 63.4735C51.4696 60.3728 51.5694 28.5573 51.3888 28.1434C51.287 27.9098 50.9905 27.8842 50.7873 27.9843C50.3531 28.4554 50.5789 29.6008 50.58 30.1854L50.5747 46.2034C49.9954 45.4013 45.4393 40.3833 44.4157 40.5549L44.3371 40.68L44.3523 40.5783C43.5514 40.9685 45.2786 42.1356 45.5284 42.3568C46.7718 43.4568 49.9302 46.2256 50.4666 47.6025C50.702 48.207 50.5751 62.1386 50.5747 64.052C48.0758 58.8857 40.115 51.5365 35.23 49.1402C33.8081 49.8907 36.1914 50.6742 36.8975 51.0882C41.3463 53.6959 44.9928 57.8177 48.0714 61.8769C48.9312 63.0108 49.6425 64.2899 50.5747 65.3597V74.6529C48.1973 71.265 45.6958 68.0645 42.2703 65.6589C42.0765 65.5228 40.1552 64.0504 40.1015 64.9669C40.064 65.6073 41.6404 66.3888 42.0721 66.7097C43.3044 67.6264 44.5262 68.6418 45.5752 69.7661C46.7724 71.0495 50.4845 75.2093 50.4266 76.8897L50.1863 76.9687C41.3833 79.78 40.2708 79.9673 31.7728 75.5704C32.797 74.6338 35.3893 72.1037 35.3767 70.9603C35.123 70.3198 31.7519 69.4742 31.0107 69.185C26.7469 67.5206 25.1219 66.6159 21.4551 64.2683C24.7404 63.2915 26.5637 62.3181 29.409 60.6931C31.6481 59.4143 31.3623 59.7996 29.9012 57.7767C24.4607 50.2442 24.6031 48.8241 22.0813 40.4237C25.9228 40.4121 29.8569 40.5352 33.5408 41.7345C36.788 42.7915 37.8467 43.9969 37.3313 40.4269C36.7928 36.6966 36.0939 33.5776 34.279 30.2457C36.1317 30.9294 39.2133 32.9294 40.8734 33.2245C41.291 32.4039 41.3731 31.3097 41.5915 30.4111C42.785 25.4977 44.5817 24.1414 47.4764 20.2162C48.684 18.5789 49.7518 16.8337 51.002 15.2285Z" fill="#FFFEFA"/>
<path d="M32.0569 47.5372C32.9088 47.4596 33.1603 48.1531 32.5249 48.7478C31.7018 48.7958 31.5759 48.0391 32.0569 47.5372Z" fill="#040E2F"/>
<path d="M37.0606 63.0136C37.8158 62.9633 39.1871 63.4069 38.1938 64.2687C37.7589 64.1731 35.8897 63.5247 37.0606 63.0136Z" fill="#040E2F"/>
</svg>
