<svg width="168" height="168" viewBox="0 0 168 168" fill="none" xmlns="http://www.w3.org/2000/svg">
<g clip-path="url(#clip0_562_115487)">
<path d="M64.0988 34.8053C63.3625 34.1137 62.5147 33.4444 61.6223 32.8197C60.7522 32.2173 59.8151 31.6595 58.8111 31.1241C58.6103 31.0125 58.4095 30.9233 58.2087 30.8117C57.5617 30.4994 56.937 30.1424 56.3346 29.7854C55.4645 29.2723 54.5944 28.6922 53.7689 28.0675C52.9211 27.4428 52.0733 26.7511 51.2701 26.0149C50.6008 25.4125 49.9314 24.7655 49.2844 24.0739C48.0796 22.8021 46.9418 21.4189 45.8486 19.9241C45.8263 19.8794 45.8039 19.8571 45.7593 19.8125C44.9338 24.3416 45.0231 28.8707 46.0494 33.2213C47.0087 37.3264 48.7713 41.0746 51.2031 44.3766C52.4079 43.395 53.635 42.4579 54.9067 41.5655C52.8095 38.6651 51.2924 35.4077 50.4446 31.838C50.4 31.6595 50.3553 31.4587 50.3107 31.2802C50.3107 31.2579 50.2884 31.2133 50.2884 31.191C51.0024 31.7488 51.7386 32.2619 52.4972 32.7304C53.5235 33.3997 54.5944 34.0021 55.6653 34.5376C57.7625 35.5862 59.4804 36.7241 60.8191 38.0404C60.9306 37.9958 61.0422 37.9288 61.1538 37.8842C62.4924 37.2149 63.8757 36.5902 65.3036 36.0547C64.9466 35.6308 64.5227 35.2069 64.0988 34.8053Z" fill="#FFFEFA"/>
<path d="M69.6989 34.4926C68.2933 32.6185 66.4639 30.9229 64.2551 29.4281C63.2957 28.7811 62.2471 28.1564 61.1316 27.5763L61.0423 27.5317C60.8639 27.4424 60.7077 27.3532 60.5292 27.2639C54.2599 24.1404 49.0168 18.2727 44.9786 9.86155L44.7778 9.45996L44.5993 9.86155C40.9403 18.0273 40.0033 26.55 41.8774 34.5149C42.9706 39.1779 45.0009 43.5062 47.9236 47.3213L48.0575 47.4998L48.236 47.3436C49.2399 46.362 50.2886 45.4249 51.3372 44.5548L51.4933 44.4209L51.3818 44.2647C48.9276 40.9404 47.2097 37.1922 46.2503 33.1763C45.2686 29.0265 45.1571 24.6982 45.871 20.3253C46.8973 21.7309 47.9905 23.0249 49.1061 24.2074C49.7308 24.8767 50.4001 25.5237 51.0917 26.1484C51.9172 26.8847 52.765 27.5763 53.6129 28.2233C54.4607 28.848 55.3308 29.4281 56.2009 29.9412C56.8256 30.3205 57.4726 30.6552 58.0973 30.9675C58.2981 31.0568 58.4989 31.1683 58.6774 31.2799C59.6814 31.8153 60.6184 32.3731 61.4662 32.9532C62.3587 33.5779 63.1842 34.2249 63.9204 34.9165C64.3666 35.3181 64.7682 35.742 65.1475 36.1659L65.2368 36.2775L65.3706 36.2329C66.7316 35.6974 68.1372 35.2066 69.565 34.805L69.8551 34.7157L69.6989 34.4926Z" fill="#C8C8C8"/>
<path d="M55.7322 34.4703C54.6613 33.9348 53.6127 33.3324 52.564 32.6631C51.8055 32.1723 51.0692 31.6591 50.3553 31.1236L50.1099 30.9229L50.1991 31.3244C50.2437 31.5029 50.2883 31.7037 50.333 31.8822C51.1585 35.4073 52.6756 38.7093 54.8174 41.6543L54.8844 41.7436L54.9736 41.6766C55.6206 41.2304 56.2899 40.8065 56.9593 40.3826C58.231 39.5794 59.5696 38.8432 60.9083 38.1738L61.0644 38.1069L60.9529 37.9954C59.5696 36.679 57.874 35.5412 55.7322 34.4703Z" fill="#C8C8C8"/>
<path d="M42.3237 51.0702C41.3197 50.8471 40.2711 50.6909 39.1779 50.6016C38.1293 50.5124 37.0361 50.4901 35.8982 50.557C35.6751 50.557 35.452 50.5793 35.2289 50.5793C34.5149 50.624 33.801 50.6463 33.0871 50.624C32.0608 50.6016 31.0345 50.557 30.0082 50.4232C28.9596 50.3116 27.8887 50.1331 26.8177 49.8877C25.9253 49.6869 25.0329 49.4638 24.1405 49.1961C22.4671 48.7052 20.7938 48.0805 19.0982 47.322C19.0536 47.2997 19.009 47.2773 18.9644 47.2773C20.5261 51.6056 22.8687 55.4877 25.9253 58.7451C28.8034 61.8016 32.2169 64.1889 35.9651 65.8399C36.5006 64.3897 37.103 62.9618 37.7723 61.5562C34.515 60.106 31.5476 58.0311 29.0488 55.3538C28.915 55.22 28.7811 55.0638 28.6695 54.9299C28.6472 54.9076 28.6249 54.8853 28.6026 54.863C29.495 54.9746 30.3875 55.0638 31.2799 55.0861C32.507 55.153 33.7118 55.1307 34.9389 55.0638C37.2815 54.9299 39.3341 55.0638 41.1636 55.51C41.2305 55.3985 41.2974 55.3092 41.3644 55.1977C42.1898 53.9483 43.0823 52.7212 44.0416 51.5387C43.4616 51.3825 42.9038 51.2263 42.3237 51.0702Z" fill="#FFFEFA"/>
<path d="M47.009 48.0132C44.8448 47.0984 42.413 46.5407 39.758 46.3399C38.5978 46.2506 37.3707 46.2283 36.1213 46.2952H36.0098C35.809 46.2952 35.6305 46.3176 35.4297 46.3176C28.4464 46.7415 20.9723 44.2873 13.2528 39.0442L12.8735 38.7988L12.9182 39.245C13.8329 48.147 17.2911 56.0004 22.8688 61.9574C26.1484 65.4602 30.0751 68.1821 34.515 70.0339L34.7381 70.1231L34.805 69.9C35.1843 68.5391 35.6305 67.2227 36.099 65.9287L36.166 65.7502L35.9875 65.661C32.1947 64.01 28.8257 61.6227 26.0146 58.6108C23.0919 55.5096 20.8162 51.8283 19.2767 47.6785C20.8608 48.3701 22.4672 48.9725 24.0289 49.4187C24.899 49.6865 25.8138 49.9096 26.7285 50.1104C27.7994 50.3335 28.8927 50.512 29.9413 50.6458C30.9899 50.7574 32.0162 50.8243 33.0425 50.8466C33.7787 50.8466 34.515 50.8466 35.2066 50.802C35.4297 50.7797 35.6528 50.7797 35.8759 50.7797C37.0138 50.7351 38.107 50.7574 39.1333 50.8243C40.2265 50.9136 41.2751 51.0697 42.2345 51.2928C42.8146 51.4267 43.3946 51.5829 43.9078 51.7614L44.0417 51.806L44.1309 51.6944C45.0456 50.5566 46.0273 49.4187 47.0536 48.3478L47.2544 48.1247L47.009 48.0132Z" fill="#C8C8C8"/>
<path d="M34.9163 54.9739C33.7339 55.0409 32.5068 55.0632 31.2797 54.9962C30.3872 54.9516 29.4725 54.8847 28.6024 54.7731L28.29 54.7285L28.5578 55.0409C28.6916 55.1747 28.8255 55.3309 28.937 55.4648C31.4135 58.1198 34.3809 60.1947 37.7052 61.6895L37.8167 61.7341L37.8614 61.6225C38.196 60.9309 38.553 60.217 38.9323 59.503C39.6462 58.1867 40.4048 56.8703 41.2303 55.6209L41.3195 55.4871L41.1633 55.4425C39.3339 54.9739 37.3036 54.8178 34.9163 54.9739Z" fill="#C8C8C8"/>
<path d="M31.5921 76.0567C30.6104 76.3468 29.6287 76.7484 28.6248 77.2169C27.6654 77.6631 26.7283 78.1985 25.7467 78.8232C25.5682 78.9348 25.3674 79.0687 25.1889 79.1802C24.5865 79.5818 23.9841 79.9388 23.3594 80.2958C22.467 80.7866 21.5522 81.2551 20.5929 81.6567C19.6112 82.0806 18.6072 82.4599 17.5586 82.7946C16.6885 83.0846 15.7961 83.33 14.8813 83.5531C13.1857 83.9547 11.4232 84.2448 9.57137 84.4456C9.52674 84.4456 9.48212 84.4456 9.4375 84.4679C12.9626 87.4575 16.9339 89.644 21.1953 90.9157C25.2335 92.1205 29.361 92.4774 33.4439 92.0312C33.1761 90.4918 32.9977 88.9523 32.8638 87.4129C29.3164 87.7922 25.702 87.4575 22.1993 86.4089C22.0208 86.3643 21.8423 86.2974 21.6415 86.2304C21.6192 86.2304 21.5969 86.2081 21.5522 86.2081C22.3777 85.8511 23.2032 85.4719 23.9841 85.0703C25.0773 84.5125 26.1259 83.8878 27.1299 83.2185C29.0933 81.9244 30.9451 81.0097 32.7299 80.4966C32.7299 80.385 32.7522 80.2511 32.7522 80.1396C32.8415 78.6448 32.9977 77.1276 33.2208 75.6328C32.7299 75.7444 32.1722 75.9005 31.5921 76.0567Z" fill="#FFFEFA"/>
<path d="M34.1355 71.0596C31.8151 71.3496 29.4056 72.0859 27.0406 73.2237C25.992 73.7369 24.9211 74.3169 23.8725 74.9863L23.7833 75.0532C23.6271 75.1647 23.4709 75.254 23.2924 75.3655C17.447 79.2476 9.7498 80.854 0.446215 80.1624L0 80.1401L0.267729 80.497C5.51076 87.748 12.4271 92.8349 20.2582 95.1775C24.8542 96.5608 29.6064 96.9624 34.3809 96.36L34.604 96.3377L34.5371 96.1145C34.1801 94.7536 33.89 93.3703 33.6669 92.0317L33.6446 91.8309L33.4438 91.8532C29.3386 92.3217 25.2335 91.9424 21.2845 90.7377C17.2016 89.5106 13.3865 87.458 9.97291 84.6245C11.6908 84.4237 13.3865 84.1337 14.9482 83.7767C15.8406 83.5759 16.7331 83.3082 17.6255 83.0181C18.6741 82.6835 19.7004 82.2819 20.6821 81.858C21.6414 81.4341 22.5785 80.9655 23.4709 80.4747C24.1179 80.1177 24.7426 79.7385 25.3227 79.3592C25.5012 79.2253 25.702 79.1138 25.8805 79.0022C26.8398 78.3998 27.7992 77.8644 28.7363 77.4181C29.7179 76.9496 30.6996 76.5703 31.659 76.2803C32.239 76.1018 32.7968 75.9679 33.3546 75.8564L33.4884 75.8341L33.5108 75.7002C33.7339 74.25 34.0239 72.7998 34.3586 71.3496L34.4255 71.0596H34.1355Z" fill="#C8C8C8"/>
<path d="M27.1299 83.1295C26.1483 83.7765 25.0773 84.4012 23.9841 84.959C23.1809 85.3829 22.3554 85.7622 21.5522 86.0968L21.2622 86.2307L21.6415 86.3423C21.82 86.4092 21.9985 86.4538 22.1993 86.5207C25.6797 87.5694 29.2718 87.904 32.9084 87.5247L33.02 87.5024V87.3909C32.953 86.61 32.9084 85.8291 32.8861 85.0259C32.8415 83.5311 32.8415 82.014 32.9307 80.4968V80.3184L32.7746 80.363C30.9674 80.9208 29.1156 81.8132 27.1299 83.1295Z" fill="#C8C8C8"/>
<path d="M34.8048 103.075C34.1132 103.811 33.4439 104.659 32.8192 105.551C32.2168 106.422 31.659 107.359 31.1236 108.363C31.012 108.563 30.9228 108.764 30.8112 108.965C30.4989 109.612 30.1419 110.237 29.7849 110.839C29.2718 111.709 28.6917 112.579 28.067 113.405C27.4423 114.253 26.7507 115.1 26.0144 115.904C25.412 116.573 24.765 117.242 24.0734 117.889C22.8017 119.094 21.4184 120.232 19.9236 121.325C19.8789 121.347 19.8566 121.37 19.812 121.414C24.3411 122.24 28.8702 122.151 33.2208 121.124C37.326 120.165 41.0742 118.402 44.3762 115.971C43.3945 114.766 42.4574 113.539 41.565 112.267C38.6646 114.364 35.4072 115.881 31.8375 116.729C31.659 116.774 31.4582 116.818 31.2797 116.863C31.2574 116.863 31.2128 116.885 31.1905 116.885C31.7483 116.171 32.2614 115.435 32.7299 114.676C33.3993 113.65 34.0017 112.579 34.5371 111.508C35.5857 109.411 36.7236 107.693 38.0399 106.355C37.9953 106.243 37.9283 106.131 37.8837 106.02C37.2144 104.681 36.5897 103.298 36.0542 101.87C35.6303 102.205 35.2064 102.629 34.8048 103.075Z" fill="#FFFEFA"/>
<path d="M34.4926 97.453C32.6185 98.8586 30.9229 100.688 29.4281 102.897C28.7811 103.856 28.1564 104.905 27.5763 106.02L27.5317 106.11C27.4424 106.288 27.3532 106.444 27.2639 106.623C24.1404 112.892 18.2727 118.135 9.86155 122.173L9.45996 122.374L9.86155 122.553C18.0273 126.212 26.55 127.149 34.5149 125.275C39.1779 124.181 43.5062 122.151 47.3213 119.228L47.4998 119.094L47.3436 118.916C46.362 117.912 45.4249 116.863 44.5548 115.815L44.4209 115.659L44.2647 115.77C40.9404 118.224 37.1922 119.942 33.1763 120.902C29.0265 121.883 24.6982 121.995 20.3253 121.281C21.7309 120.255 23.0249 119.161 24.2074 118.046C24.8767 117.421 25.5237 116.752 26.1484 116.06C26.8847 115.235 27.5763 114.387 28.2233 113.539C28.848 112.691 29.4281 111.821 29.9412 110.951C30.3205 110.326 30.6552 109.679 30.9675 109.055C31.0568 108.854 31.1683 108.653 31.2799 108.475C31.8153 107.471 32.3731 106.534 32.9532 105.686C33.5779 104.793 34.2249 103.968 34.9165 103.232C35.3181 102.785 35.742 102.384 36.1659 102.004L36.2775 101.915L36.2329 101.781C35.6974 100.42 35.2066 99.0148 34.805 97.5869L34.7157 97.2969L34.4926 97.453Z" fill="#C8C8C8"/>
<path d="M34.4703 111.419C33.9348 112.49 33.3324 113.539 32.6631 114.587C32.1723 115.346 31.6591 116.082 31.1236 116.796L30.9229 117.041L31.3244 116.952C31.5029 116.908 31.7037 116.863 31.8822 116.818C35.4073 115.993 38.7093 114.476 41.6543 112.334L41.7436 112.267L41.6766 112.178C41.2304 111.531 40.8065 110.861 40.3826 110.192C39.5794 108.92 38.8432 107.582 38.1738 106.243L38.1069 106.087L37.9954 106.198C36.679 107.582 35.5412 109.277 34.4703 111.419Z" fill="#C8C8C8"/>
<path d="M51.0692 124.852C50.8461 125.856 50.6899 126.904 50.6007 127.998C50.5114 129.046 50.4891 130.139 50.5561 131.277C50.5561 131.5 50.5784 131.723 50.5784 131.947C50.623 132.66 50.6453 133.374 50.623 134.088C50.6007 135.115 50.556 136.141 50.4222 137.167C50.3106 138.216 50.1321 139.287 49.8867 140.358C49.6859 141.25 49.4628 142.143 49.1951 143.035C48.7043 144.708 48.0796 146.382 47.321 148.077C47.2987 148.122 47.2764 148.166 47.2764 148.211C51.6047 146.649 55.4867 144.307 58.7441 141.25C61.8007 138.372 64.1879 134.958 65.8389 131.21C64.3887 130.675 62.9608 130.072 61.5553 129.403C60.1051 132.66 58.0302 135.628 55.3529 138.127C55.219 138.26 55.0628 138.394 54.929 138.506C54.9066 138.528 54.8843 138.551 54.862 138.573C54.9736 137.68 55.0628 136.788 55.0851 135.896C55.1521 134.668 55.1298 133.464 55.0628 132.237C54.929 129.894 55.0628 127.841 55.509 126.012C55.3975 125.945 55.3082 125.878 55.1967 125.811C53.9473 124.986 52.7202 124.093 51.5377 123.134C51.3815 123.692 51.2254 124.249 51.0692 124.852Z" fill="#FFFEFA"/>
<path d="M48.0127 120.144C47.0979 122.308 46.5402 124.74 46.3394 127.395C46.2501 128.555 46.2278 129.782 46.2948 131.031V131.143C46.2948 131.344 46.3171 131.522 46.3171 131.723C46.741 138.706 44.2868 146.18 39.0438 153.9L38.7983 154.279L39.2446 154.235C48.1465 153.32 55.9999 149.862 61.9569 144.284C65.4597 141.004 68.1816 137.078 70.0334 132.638L70.1226 132.415L69.8995 132.348C68.5386 131.969 67.2222 131.522 65.9282 131.054L65.7497 130.987L65.6605 131.165C64.0095 134.958 61.6222 138.327 58.6103 141.138C55.5091 144.061 51.8278 146.337 47.678 147.876C48.3697 146.292 48.972 144.686 49.4183 143.124C49.686 142.254 49.9091 141.339 50.1099 140.424C50.333 139.353 50.5115 138.26 50.6454 137.212C50.7569 136.163 50.8238 135.137 50.8461 134.11C50.8461 133.374 50.8461 132.638 50.8015 131.946C50.7792 131.723 50.7792 131.5 50.7792 131.277C50.7346 130.139 50.7569 129.046 50.8238 128.02C50.9131 126.926 51.0693 125.878 51.2924 124.918C51.4262 124.338 51.5824 123.758 51.7609 123.245L51.8055 123.111L51.694 123.022C50.5561 122.107 49.4183 121.126 48.3473 120.099L48.1242 119.898L48.0127 120.144Z" fill="#C8C8C8"/>
<path d="M54.9734 132.236C55.0404 133.419 55.0627 134.646 54.9958 135.873C54.9511 136.765 54.8842 137.68 54.7726 138.55L54.728 138.862L55.0404 138.595C55.1742 138.461 55.3304 138.327 55.4643 138.215C58.1193 135.739 60.1942 132.772 61.689 129.447L61.7336 129.336L61.6221 129.291C60.9304 128.957 60.2165 128.6 59.5025 128.22C58.1862 127.506 56.8699 126.748 55.6205 125.922L55.4866 125.833L55.442 125.989C54.9734 127.819 54.8173 129.849 54.9734 132.236Z" fill="#C8C8C8"/>
<path d="M76.0577 135.56C76.3477 136.541 76.7493 137.523 77.2179 138.527C77.6641 139.487 78.1995 140.424 78.8242 141.405C78.9358 141.584 79.0696 141.785 79.1812 141.963C79.5828 142.565 79.9398 143.168 80.2967 143.792C80.7876 144.685 81.2561 145.6 81.6577 146.559C82.0816 147.541 82.4609 148.545 82.7955 149.593C83.0856 150.463 83.331 151.356 83.5541 152.271C83.9557 153.966 84.2457 155.729 84.4465 157.581C84.4465 157.625 84.4465 157.67 84.4688 157.714C87.4585 154.189 89.6449 150.218 90.9167 145.957C92.1214 141.918 92.4784 137.791 92.0322 133.708C90.4928 133.976 88.9533 134.154 87.4139 134.288C87.7931 137.836 87.4585 141.45 86.4099 144.953C86.3653 145.131 86.2983 145.31 86.2314 145.51C86.2314 145.533 86.2091 145.555 86.2091 145.6C85.8521 144.774 85.4728 143.949 85.0712 143.168C84.5135 142.075 83.8888 141.026 83.2194 140.022C81.9254 138.059 81.0107 136.207 80.4975 134.422C80.386 134.422 80.2521 134.4 80.1406 134.4C78.6457 134.31 77.1286 134.154 75.6338 133.931C75.7453 134.422 75.9015 134.98 76.0577 135.56Z" fill="#FFFEFA"/>
<path d="M71.0599 133.016C71.3499 135.337 72.0862 137.746 73.2241 140.111C73.7372 141.16 74.3173 142.231 74.9866 143.279L75.0535 143.369C75.1651 143.525 75.2543 143.681 75.3659 143.859C79.2256 149.705 80.832 157.38 80.1404 166.706L80.1181 167.152L80.4751 166.884C87.726 161.641 92.8129 154.725 95.1555 146.894C96.5388 142.298 96.9404 137.545 96.338 132.771L96.3157 132.548L96.0926 132.615C94.7316 132.972 93.3484 133.262 92.0097 133.485L91.8089 133.507L91.8312 133.708C92.2998 137.813 91.9205 141.918 90.7157 145.867C89.4886 149.95 87.436 153.765 84.6025 157.179C84.4017 155.461 84.1117 153.765 83.7547 152.204C83.5539 151.311 83.2862 150.419 82.9962 149.526C82.6615 148.478 82.2599 147.451 81.836 146.47C81.4121 145.51 80.9436 144.573 80.4527 143.681C80.0958 143.034 79.7165 142.409 79.3372 141.829C79.2033 141.651 79.0918 141.45 78.9802 141.271C78.3778 140.312 77.8424 139.353 77.3962 138.416C76.9276 137.434 76.5484 136.452 76.2583 135.493C76.0798 134.913 75.946 134.355 75.8344 133.797L75.8121 133.663L75.6782 133.641C74.228 133.418 72.7778 133.128 71.3276 132.793L71.0376 132.726L71.0599 133.016Z" fill="#C8C8C8"/>
<path d="M83.1302 140.022C83.7772 141.004 84.4019 142.074 84.9596 143.168C85.3835 143.971 85.7628 144.796 86.0975 145.6L86.2313 145.89L86.3652 145.51C86.4321 145.332 86.4768 145.153 86.5437 144.953C87.5923 141.472 87.927 137.88 87.5477 134.243L87.5254 134.132H87.4138C86.6329 134.199 85.8521 134.243 85.0489 134.266C83.5541 134.31 82.0369 134.31 80.5198 134.221H80.3413L80.3859 134.377C80.9214 136.184 81.8138 138.036 83.1302 140.022Z" fill="#C8C8C8"/>
<path d="M103.076 132.347C103.812 133.038 104.66 133.708 105.552 134.332C106.422 134.935 107.36 135.493 108.364 136.028C108.564 136.14 108.765 136.229 108.966 136.34C109.613 136.653 110.238 137.01 110.84 137.367C111.71 137.88 112.58 138.46 113.406 139.085C114.254 139.709 115.101 140.401 115.905 141.137C116.574 141.74 117.243 142.387 117.89 143.078C119.095 144.35 120.233 145.733 121.326 147.228C121.348 147.273 121.371 147.295 121.415 147.34C122.241 142.81 122.152 138.281 121.125 133.931C120.166 129.826 118.403 126.077 115.971 122.775C114.767 123.757 113.54 124.694 112.268 125.587C114.365 128.487 115.882 131.744 116.73 135.314C116.775 135.493 116.819 135.693 116.864 135.872C116.864 135.894 116.886 135.939 116.886 135.961C116.172 135.403 115.436 134.89 114.677 134.422C113.651 133.752 112.58 133.15 111.509 132.614C109.412 131.566 107.694 130.428 106.356 129.112C106.244 129.156 106.132 129.223 106.021 129.268C104.682 129.937 103.299 130.562 101.871 131.097C102.206 131.521 102.63 131.945 103.076 132.347Z" fill="#FFFEFA"/>
<path d="M97.4535 132.66C98.8591 134.534 100.689 136.229 102.897 137.724C103.857 138.371 104.905 138.996 106.021 139.576L106.11 139.62C106.289 139.71 106.445 139.799 106.623 139.888C112.893 143.012 118.136 148.879 122.174 157.291L122.375 157.692L122.553 157.291C126.212 149.125 127.149 140.602 125.275 132.637C124.182 127.974 122.152 123.646 119.229 119.831L119.095 119.652L118.916 119.809C117.913 120.79 116.864 121.727 115.815 122.597L115.659 122.731L115.771 122.887C118.225 126.212 119.943 129.96 120.902 133.976C121.884 138.126 121.995 142.454 121.281 146.827C120.255 145.421 119.162 144.127 118.046 142.945C117.422 142.275 116.752 141.628 116.061 141.004C115.235 140.267 114.387 139.576 113.54 138.929C112.692 138.304 111.822 137.724 110.952 137.211C110.327 136.832 109.68 136.497 109.055 136.185C108.854 136.095 108.654 135.984 108.475 135.872C107.471 135.337 106.534 134.779 105.686 134.199C104.794 133.574 103.968 132.927 103.232 132.236C102.786 131.834 102.384 131.41 102.005 130.986L101.916 130.875L101.782 130.919C100.421 131.455 99.0153 131.946 97.5874 132.347L97.2974 132.436L97.4535 132.66Z" fill="#C8C8C8"/>
<path d="M111.42 132.682C112.491 133.217 113.54 133.819 114.588 134.489C115.347 134.98 116.083 135.493 116.797 136.028L117.042 136.229L116.953 135.827C116.909 135.649 116.864 135.448 116.819 135.27C115.994 131.744 114.477 128.442 112.335 125.497L112.268 125.408L112.179 125.475C111.532 125.921 110.862 126.345 110.193 126.769C108.921 127.572 107.583 128.309 106.244 128.978L106.088 129.045L106.199 129.156C107.583 130.473 109.278 131.611 111.42 132.682Z" fill="#C8C8C8"/>
<path d="M124.851 116.082C125.855 116.305 126.903 116.462 127.997 116.551C129.045 116.64 130.138 116.662 131.276 116.595C131.499 116.595 131.722 116.573 131.946 116.573C132.66 116.528 133.373 116.506 134.087 116.528C135.114 116.551 136.14 116.595 137.166 116.729C138.215 116.841 139.286 117.019 140.357 117.265C141.249 117.465 142.142 117.689 143.034 117.956C144.707 118.447 146.381 119.072 148.076 119.83C148.121 119.853 148.165 119.875 148.21 119.875C146.648 115.547 144.306 111.665 141.249 108.407C138.371 105.351 134.958 102.963 131.209 101.312C130.674 102.763 130.071 104.191 129.402 105.596C132.66 107.046 135.627 109.121 138.126 111.799C138.259 111.932 138.393 112.089 138.505 112.222C138.527 112.245 138.55 112.267 138.572 112.289C137.679 112.178 136.787 112.089 135.895 112.066C134.667 111.999 133.463 112.022 132.236 112.089C129.893 112.222 127.84 112.089 126.011 111.642C125.944 111.754 125.877 111.843 125.81 111.955C124.985 113.204 124.092 114.431 123.133 115.614C123.691 115.792 124.248 115.948 124.851 116.082Z" fill="#FFFEFA"/>
<path d="M120.143 119.139C122.308 120.054 124.739 120.612 127.394 120.813C128.555 120.902 129.782 120.924 131.031 120.857H131.143C131.343 120.857 131.522 120.835 131.723 120.835C138.706 120.411 146.18 122.865 153.9 128.108L154.279 128.354L154.234 127.907C153.319 119.005 149.861 111.152 144.284 105.195C141.004 101.692 137.077 98.9703 132.637 97.1185L132.414 97.0293L132.347 97.2524C131.968 98.6134 131.522 99.9297 131.053 101.224L130.986 101.402L131.165 101.491C134.958 103.142 138.327 105.53 141.138 108.542C144.06 111.643 146.336 115.324 147.876 119.474C146.292 118.782 144.685 118.18 143.123 117.734C142.253 117.466 141.339 117.243 140.424 117.042C139.353 116.819 138.26 116.64 137.211 116.507C136.162 116.395 135.136 116.328 134.11 116.306C133.374 116.306 132.637 116.306 131.946 116.35C131.723 116.373 131.5 116.373 131.276 116.373C130.139 116.417 129.045 116.395 128.019 116.328C126.926 116.239 125.877 116.083 124.918 115.86C124.338 115.726 123.758 115.57 123.245 115.391L123.111 115.346L123.021 115.458C122.107 116.596 121.125 117.734 120.099 118.805L119.898 119.028L120.143 119.139Z" fill="#C8C8C8"/>
<path d="M132.236 112.178C133.418 112.111 134.645 112.089 135.872 112.156C136.765 112.2 137.68 112.267 138.55 112.379L138.862 112.424L138.594 112.111C138.46 111.977 138.327 111.821 138.215 111.687C135.738 109.032 132.771 106.957 129.447 105.463L129.335 105.418L129.291 105.53C128.956 106.221 128.599 106.935 128.22 107.649C127.506 108.965 126.747 110.282 125.922 111.531L125.833 111.665L125.989 111.71C127.818 112.178 129.848 112.334 132.236 112.178Z" fill="#C8C8C8"/>
<path d="M135.56 91.095C136.542 90.805 137.524 90.4034 138.528 89.9349C139.487 89.4886 140.424 88.9532 141.406 88.3285C141.584 88.2169 141.785 88.0831 141.963 87.9715C142.566 87.5699 143.168 87.2129 143.793 86.856C144.685 86.3651 145.6 85.8966 146.559 85.495C147.541 85.0711 148.545 84.6918 149.594 84.3572C150.464 84.0671 151.356 83.8217 152.271 83.5986C153.967 83.197 155.729 82.907 157.581 82.7062C157.626 82.7062 157.67 82.7062 157.715 82.6839C154.19 79.6942 150.218 77.5078 145.957 76.2361C141.919 75.0313 137.791 74.6743 133.708 75.1205C133.976 76.66 134.155 78.1994 134.289 79.7388C137.836 79.3596 141.45 79.6942 144.953 80.7428C145.132 80.7875 145.31 80.8544 145.511 80.9213C145.533 80.9213 145.556 80.9436 145.6 80.9436C144.775 81.3006 143.949 81.6799 143.168 82.0815C142.075 82.6392 141.026 83.2639 140.022 83.9333C138.059 85.2273 136.207 86.142 134.422 86.6552C134.422 86.7667 134.4 86.9006 134.4 87.0122C134.311 88.507 134.155 90.0241 133.932 91.5189C134.422 91.4074 134.98 91.2735 135.56 91.095Z" fill="#FFFEFA"/>
<path d="M133.017 96.0927C135.337 95.8027 137.747 95.0664 140.112 93.9286C141.16 93.4154 142.231 92.8354 143.28 92.166L143.369 92.0991C143.525 91.9876 143.681 91.8983 143.86 91.7868C149.705 87.927 157.38 86.3206 166.706 87.0123L167.152 87.0346L166.885 86.6776C161.642 79.4266 154.725 74.3398 146.894 71.9971C142.298 70.6139 137.546 70.2123 132.771 70.8146L132.548 70.837L132.615 71.0601C132.972 72.421 133.262 73.8043 133.485 75.1429L133.508 75.3437L133.709 75.3214C137.814 74.8529 141.919 75.2322 145.868 76.437C149.951 77.6641 153.766 79.7166 157.179 82.5501C155.461 82.7509 153.766 83.0409 152.204 83.3979C151.312 83.5987 150.419 83.8664 149.527 84.1565C148.478 84.4911 147.452 84.8927 146.47 85.3166C145.511 85.7405 144.574 86.2091 143.681 86.6999C143.034 87.0569 142.41 87.4362 141.83 87.8154C141.651 87.9493 141.45 88.0609 141.272 88.1724C140.312 88.7748 139.353 89.3103 138.416 89.7565C137.434 90.225 136.453 90.6043 135.493 90.8943C134.913 91.0728 134.356 91.2067 133.798 91.3182L133.664 91.3405L133.642 91.4744C133.418 92.9246 133.128 94.3748 132.794 95.825L132.727 96.115L133.017 96.0927Z" fill="#C8C8C8"/>
<path d="M140.022 84.0228C141.004 83.3757 142.075 82.751 143.168 82.1933C143.971 81.7694 144.797 81.3901 145.6 81.0554L145.89 80.9216L145.511 80.7877C145.332 80.7208 145.154 80.6761 144.953 80.6092C141.473 79.5606 137.881 79.2259 134.244 79.6052L134.132 79.6275V79.7391C134.199 80.52 134.244 81.3008 134.266 82.104C134.311 83.5988 134.311 85.116 134.222 86.6331V86.8116L134.378 86.767C136.185 86.2315 138.037 85.3391 140.022 84.0228Z" fill="#C8C8C8"/>
<path d="M132.347 64.0983C133.039 63.362 133.708 62.5142 134.333 61.6218C134.935 60.7517 135.493 59.8146 136.028 58.8106C136.14 58.6098 136.229 58.409 136.341 58.2082C136.653 57.5612 137.01 56.9365 137.367 56.3341C137.88 55.464 138.46 54.5939 139.085 53.7684C139.71 52.9206 140.401 52.0728 141.138 51.2696C141.74 50.6003 142.387 49.9309 143.079 49.2839C144.35 48.0792 145.734 46.9413 147.228 45.8481C147.273 45.8258 147.295 45.8035 147.34 45.7588C142.811 44.9333 138.282 45.0226 133.931 46.0489C129.826 47.0082 126.078 48.7708 122.776 51.2027C123.758 52.4074 124.695 53.6345 125.587 54.9062C128.487 52.809 131.745 51.2919 135.315 50.4441C135.493 50.3995 135.694 50.3549 135.872 50.3102C135.895 50.3102 135.939 50.2879 135.962 50.2879C135.404 51.0019 134.891 51.7381 134.422 52.4967C133.753 53.523 133.15 54.5939 132.615 55.6648C131.566 57.762 130.428 59.48 129.112 60.8186C129.157 60.9302 129.224 61.0417 129.268 61.1533C129.938 62.4919 130.562 63.8752 131.098 65.3031C131.522 64.9461 131.946 64.5222 132.347 64.0983Z" fill="#FFFEFA"/>
<path d="M132.66 69.6984C134.534 68.2928 136.229 66.4634 137.724 64.2546C138.371 63.2952 138.996 62.2466 139.576 61.1311L139.62 61.0419C139.71 60.8634 139.799 60.7072 139.888 60.5287C143.012 54.2594 148.879 49.0164 157.291 44.9781L157.692 44.7773L157.291 44.5988C149.125 40.9399 140.602 40.0028 132.637 41.8769C127.974 42.9701 123.646 45.0004 119.831 47.9231L119.652 48.057L119.809 48.2355C120.79 49.2395 121.727 50.2881 122.597 51.3367L122.731 51.4928L122.887 51.3813C126.212 48.9271 129.96 47.2092 133.976 46.2498C138.126 45.2681 142.454 45.1566 146.827 45.8705C145.421 46.8968 144.127 47.9901 142.945 49.1056C142.275 49.7303 141.628 50.3996 141.004 51.0913C140.267 51.9168 139.576 52.7646 138.929 53.6124C138.304 54.4602 137.724 55.3303 137.211 56.2004C136.832 56.8251 136.497 57.4721 136.185 58.0968C136.095 58.2976 135.984 58.4984 135.872 58.6769C135.337 59.6809 134.779 60.6179 134.199 61.4658C133.574 62.3582 132.927 63.1837 132.236 63.9199C131.834 64.3662 131.41 64.7677 130.986 65.147L130.875 65.2363L130.919 65.3701C131.455 66.7311 131.946 68.1367 132.347 69.5646L132.436 69.8546L132.66 69.6984Z" fill="#C8C8C8"/>
<path d="M132.682 55.7317C133.217 54.6608 133.82 53.6122 134.489 52.5636C134.98 51.805 135.493 51.0687 136.028 50.3548L136.229 50.1094L135.828 50.1986C135.649 50.2432 135.448 50.2879 135.27 50.3325C131.745 51.158 128.443 52.6751 125.498 54.8169L125.386 54.8839L125.453 54.9731C125.899 55.6201 126.323 56.2895 126.747 56.9588C127.55 58.2305 128.287 59.5691 128.956 60.9078L129.023 61.064L129.134 60.9524C130.473 59.5691 131.611 57.8735 132.682 55.7317Z" fill="#C8C8C8"/>
<path d="M116.083 42.3232C116.306 41.3192 116.462 40.2706 116.551 39.1774C116.64 38.1288 116.663 37.0356 116.596 35.8977C116.596 35.6746 116.574 35.4515 116.574 35.2284C116.529 34.5145 116.507 33.8005 116.529 33.0866C116.551 32.0603 116.596 31.034 116.73 30.0077C116.841 28.9591 117.02 27.8882 117.265 26.8173C117.466 25.9248 117.689 25.0324 117.957 24.14C118.448 22.4667 119.072 20.7933 119.831 19.0977C119.853 19.0531 119.876 19.0085 119.876 18.9639C115.547 20.5256 111.665 22.8682 108.408 25.9248C105.351 28.8029 102.964 32.2165 101.313 35.9647C102.763 36.5001 104.191 37.1025 105.597 37.7718C107.047 34.5145 109.122 31.5471 111.799 29.0483C111.933 28.9145 112.089 28.7806 112.223 28.669C112.245 28.6467 112.268 28.6244 112.29 28.6021C112.178 29.4945 112.089 30.387 112.067 31.2794C112 32.5065 112.022 33.7113 112.089 34.9384C112.223 37.281 112.089 39.3336 111.643 41.1631C111.754 41.23 111.844 41.2969 111.955 41.3639C113.205 42.1894 114.432 43.0818 115.614 44.0412C115.793 43.4611 115.949 42.9033 116.083 42.3232Z" fill="#FFFEFA"/>
<path d="M119.139 47.0085C120.054 44.8444 120.612 42.4125 120.813 39.7575C120.902 38.5973 120.924 37.3703 120.857 36.1209V36.0093C120.857 35.8085 120.835 35.63 120.835 35.4292C120.411 28.446 122.865 20.9719 128.108 13.2523L128.354 12.873L127.907 12.9177C119.005 13.8324 111.152 17.2906 105.195 22.8683C101.692 26.1479 98.9703 30.0746 97.1185 34.5145L97.0293 34.7376L97.2524 34.8045C98.6134 35.1838 99.9297 35.63 101.224 36.0985L101.402 36.1655L101.491 35.987C103.142 32.1942 105.53 28.8252 108.542 26.0141C111.643 23.0914 115.324 20.8157 119.474 19.2762C118.782 20.8603 118.18 22.4667 117.734 24.0284C117.466 24.8985 117.243 25.8133 117.042 26.728C116.819 27.7989 116.64 28.8922 116.507 29.9408C116.395 30.9894 116.328 32.0157 116.306 33.042C116.306 33.7782 116.306 34.5145 116.35 35.2061C116.373 35.4292 116.373 35.6523 116.373 35.8754C116.417 37.0133 116.395 38.1065 116.328 39.1328C116.239 40.226 116.083 41.2746 115.86 42.234C115.726 42.8141 115.57 43.3942 115.391 43.9073L115.346 44.0412L115.458 44.1304C116.596 45.0452 117.734 46.0268 118.805 47.0531L119.028 47.2539L119.139 47.0085Z" fill="#C8C8C8"/>
<path d="M112.178 34.9163C112.111 33.7339 112.089 32.5068 112.156 31.2797C112.2 30.3872 112.267 29.4725 112.379 28.6024L112.424 28.29L112.111 28.5578C111.977 28.6916 111.821 28.8255 111.687 28.937C109.032 31.4135 106.957 34.3809 105.463 37.7052L105.418 37.8167L105.53 37.8614C106.221 38.196 106.935 38.553 107.649 38.9323C108.965 39.6462 110.282 40.4048 111.531 41.2303L111.665 41.3195L111.71 41.1633C112.178 39.3339 112.334 37.3036 112.178 34.9163Z" fill="#C8C8C8"/>
<path d="M91.0945 31.5921C90.8045 30.6104 90.4029 29.6287 89.9344 28.6248C89.4882 27.6654 88.9527 26.7283 88.328 25.7467C88.2164 25.5682 88.0826 25.3674 87.971 25.1889C87.5694 24.5865 87.2125 23.9841 86.8555 23.3594C86.3647 22.467 85.8961 21.5522 85.4945 20.5929C85.0706 19.6112 84.6913 18.6072 84.3567 17.5586C84.0666 16.6885 83.8212 15.7961 83.5981 14.8813C83.1965 13.1857 82.9065 11.4232 82.7057 9.57137C82.7057 9.52674 82.7057 9.48212 82.6834 9.4375C79.6937 12.9626 77.5073 16.9339 76.2356 21.1953C75.0308 25.2335 74.6738 29.361 75.12 33.4439C76.6595 33.1761 78.1989 32.9977 79.7384 32.8638C79.3591 29.3164 79.6937 25.702 80.7423 22.1993C80.787 22.0208 80.8539 21.8423 80.9208 21.6415C80.9208 21.6192 80.9431 21.5969 80.9431 21.5522C81.3001 22.3777 81.6794 23.2032 82.081 23.9841C82.6388 25.0773 83.2635 26.1259 83.9328 27.1299C85.2268 29.0933 86.1415 30.9451 86.6547 32.7299C86.7662 32.7299 86.9001 32.7522 87.0117 32.7522C88.5065 32.8415 90.0236 32.9977 91.5184 33.2208C91.4069 32.7299 91.273 32.1722 91.0945 31.5921Z" fill="#FFFEFA"/>
<path d="M96.0923 34.1355C95.8022 31.8151 95.066 29.4056 93.9281 27.0406C93.415 25.992 92.8349 24.9211 92.1656 23.8725L92.0986 23.7833C91.9871 23.6271 91.8978 23.4709 91.7863 23.2924C87.9265 17.447 86.2978 9.7498 87.0118 0.446215L87.0341 0L86.6771 0.267729C79.4261 5.51076 74.3393 12.4271 71.9966 20.2582C70.6134 24.8542 70.2118 29.6064 70.8142 34.3809L70.8365 34.604L71.0596 34.5371C72.4205 34.1801 73.8038 33.89 75.1424 33.6669L75.3432 33.6446L75.3209 33.4438C74.8524 29.3386 75.2317 25.2335 76.4365 21.2845C77.6636 17.2016 79.7162 13.3865 82.5496 9.97291C82.7504 11.6908 83.0405 13.3865 83.3974 14.9482C83.5982 15.8406 83.866 16.7331 84.156 17.6255C84.4907 18.6741 84.8922 19.7004 85.3162 20.6821C85.7401 21.6414 86.2086 22.5785 86.6994 23.4709C87.0564 24.1179 87.4357 24.7426 87.815 25.3227C87.9488 25.5012 88.0604 25.702 88.1719 25.8805C88.7743 26.8398 89.3098 27.7992 89.756 28.7363C90.2245 29.7179 90.6038 30.6996 90.8938 31.659C91.0723 32.239 91.2062 32.7968 91.3177 33.3546L91.3401 33.4884L91.4739 33.5108C92.9241 33.7339 94.3743 34.0239 95.8245 34.3586L96.1146 34.4255L96.0923 34.1355Z" fill="#C8C8C8"/>
<path d="M84.0223 27.1294C83.3753 26.1478 82.7506 25.0769 82.1928 23.9836C81.7689 23.1804 81.3896 22.3549 81.0549 21.5518L80.9211 21.2617L80.7872 21.641C80.7203 21.8195 80.6757 21.998 80.6087 22.1988C79.5601 25.6792 79.2255 29.2713 79.6047 32.9079L79.627 33.0195H79.7386C80.5195 32.9526 81.3004 32.9079 82.1035 32.8856C83.5984 32.841 85.1155 32.841 86.6326 32.9302H86.8111L86.7665 32.7741C86.231 30.9669 85.3386 29.1151 84.0223 27.1294Z" fill="#C8C8C8"/>
<path d="M83.5763 137.814C113.531 137.814 137.814 113.531 137.814 83.5763C137.814 53.6218 113.531 29.3389 83.5763 29.3389C53.6218 29.3389 29.3389 53.6218 29.3389 83.5763C29.3389 113.531 53.6218 137.814 83.5763 137.814Z" fill="#C8C8C8"/>
<path d="M83.5762 107.271C96.6744 107.271 107.293 96.6524 107.293 83.5542C107.293 70.4561 96.6744 59.8379 83.5762 59.8379C70.478 59.8379 59.8599 70.4561 59.8599 83.5542C59.8599 96.6524 70.478 107.271 83.5762 107.271Z" fill="#FFFEFA"/>
<path fill-rule="evenodd" clip-rule="evenodd" d="M106.177 57.8524C101.737 54.5504 97.5875 51.8508 92.1883 50.4675C91.8982 46.8085 93.8393 42.3018 94.3747 41.744C97.342 42.6364 100.399 42.8818 105.106 46.0946C105.24 46.4962 103.455 47.8794 103.455 48.3926C100.956 47.344 99.9747 46.4962 96.8958 45.5814C96.2265 46.4516 96.048 47.2324 96.0034 48.4595C99.35 49.8651 103.812 51.7615 106.445 53.881C108.877 51.6277 110.148 49.3743 112.067 46.6077C105.776 41.2308 95.9365 38.3974 86.1867 37.0141C86.0305 41.7886 85.9189 46.7193 85.7628 52.6763C97.1189 54.5057 100.488 57.8747 105.441 61.9575C110.885 57.8524 115.414 53.5464 121.304 50.3113C128.22 56.6922 131.946 67.4237 133.552 77.5304C133.151 78.4006 122.486 78.3783 117.466 78.4675C116.998 73.8269 115.124 69.9225 112.67 65.8396C114.945 64.501 116.663 62.6938 120.523 61.2882C122.107 63.3408 124.048 67.3344 124.829 70.2348C124.427 71.5288 123.379 71.7296 121.973 71.6181C121.594 69.744 120.545 66.8213 119.452 65.148C117.957 65.5496 117.578 65.9289 116.641 66.9551C118.002 69.9894 119.073 71.5958 119.787 75.2771C121.928 75.5894 126.234 75.0986 129.358 74.7193C128.332 66.2635 125.253 60.6858 120.255 55.1081C115.771 57.7854 111.398 61.0651 107.783 64.6348C110.818 69.8332 113.74 75.4555 114.097 82.1934C120.344 82.1041 128.577 81.7249 133.842 82.1934C134.779 97.3424 126.77 109.591 123.267 114.678C119.519 110.461 114.901 108.007 111.331 103.634C114.142 99.4619 115.548 95.8476 117.042 90.8277C119.742 90.4484 122.776 91.1177 125.967 92.0771C125.253 95.0221 124.16 99.7966 122.196 103.032C121.884 103.099 120.166 101.581 119.787 101.537C121.192 98.9711 121.862 97.0077 122.553 94.5089C121.505 93.5942 120.434 93.2595 119.006 93.5942C117.846 96.8069 117.266 99.4396 114.945 103.255C118.247 106.088 119.251 106.78 122.62 109.234C127.752 101.18 129.626 94.3974 130.206 85.4954C124.539 85.4731 119.63 85.0715 114.075 85.4954C113.16 91.0731 111.152 99.8635 106.623 103.723C110.438 109.1 115.882 113.384 119.764 118.671C113.785 126.302 99.8855 132.593 92.1883 133.24C91.4966 128.176 90.6265 121.371 90.1134 117.221C95.6241 116.128 98.6138 114.232 103.388 111.532C105.731 113.473 107.293 116.284 108.497 118.783C106.713 120.211 102.384 122.531 99.06 123.959C98.2568 123.87 98.5022 122.13 97.8552 121.393C100.198 120.01 102.317 120.01 104.504 118.091C104.058 116.775 103.946 116.418 103.098 115.236C99.4616 116.797 97.2082 118.515 93.75 119.631C94.0847 123.647 94.3524 125.097 95.1779 128.823C100.376 128.644 111.286 122.04 115.168 117.98C111.063 114.165 108.475 109.792 103.901 106.445C98.9484 110.84 93.1476 113.205 86.2982 114.053C86.0974 120.746 86.7444 127.953 86.2982 133.932C73.5811 134.624 60.864 129.916 54.193 124.271C57.562 120.903 60.7524 115.994 65.0584 112.402C69.1859 115.236 73.9827 116.485 78.8018 117.511C77.8871 120.813 77.4185 123.535 76.2138 126.123C72.5994 125.142 69.7883 124.807 65.9285 122.955C65.9062 122.397 67.3118 120.992 67.2002 120.367C69.5205 121.371 70.6584 122.197 74.295 122.821C75.1652 122.018 75.366 120.969 75.5444 119.609C71.6847 118.605 69.0297 117.645 65.2592 115.883C62.8942 118.471 61.3548 120.479 59.1683 123.312C66.397 127.44 72.7779 129.648 82.7508 130.228C83.1078 124.495 82.907 119.073 82.8624 114.232C75.4106 113.696 69.4536 110.171 63.9428 107.115C59.2576 110.818 53.9476 116.396 49.8648 120.679C44.4432 117.534 35.4297 103.813 33.8456 90.783C39.111 90.4707 45.4472 90.1583 50.0209 90.0022C51.2257 94.6651 53.3899 100.354 56.2233 103.902C55.554 104.593 51.6719 107.427 49.2177 109.346C45.9381 105.865 44.8448 102.742 43.1269 99.1496C43.2385 98.4579 45.2911 97.3201 45.9604 97.7663C47.1205 101.403 48.4815 102.853 49.5524 105.218C50.5564 104.37 51.4711 103.946 52.3859 102.987C50.2217 100.064 49.3293 96.383 47.8345 92.7687C44.5102 93.2818 42.1452 93.2818 38.1516 93.6388C40.0926 103.879 43.5731 109.502 49.7086 115.459C54.1261 111.867 57.7628 108.342 61.7118 104.37C57.0265 100.31 53.3899 93.5942 53.3006 85.5623C46.8082 85.3615 39.6018 86.2539 33.3102 85.7408C32.4401 72.8898 37.9508 59.9049 43.9747 52.5647C47.1875 55.4874 53.0106 59.7488 56.0895 63.1846C53.3899 67.6914 51.0026 72.6667 49.8871 78.2444C45.6034 78.4675 44.5548 78.3113 40.9181 77.3966C41.7213 72.7113 42.3014 69.9002 44.2201 65.8396C45.2241 65.9958 46.4289 66.8436 46.6743 67.3121C46.0496 68.9854 44.9341 71.752 44.3317 74.5854C45.3803 75.0316 45.9604 75.1878 47.4998 75.2547C48.303 71.9751 50.7572 67.2006 52.4974 63.787C50.4225 61.7567 47.1428 59.3918 44.7333 57.6962C39.7134 64.1217 37.5046 73.6261 37.0138 81.9926C42.3683 82.0818 47.5668 82.1265 53.1221 81.9034C53.4568 75.1878 57.0711 67.8699 61.2209 63.0731C58.209 57.8077 51.0472 53.5241 47.5444 48.7496C53.3452 42.8595 61.511 36.434 77.597 33.6006C77.597 37.8619 77.6417 48.8165 77.7532 49.8428C72.0863 51.8731 69.8106 52.2747 65.0361 55.4205C62.4703 53.3679 60.5739 50.9583 59.3022 47.8794C61.8233 46.3177 64.813 43.9528 70.1452 42.7703C70.4799 42.9265 70.3907 44.7559 70.703 45.046C67.3341 46.8532 66.3078 46.697 63.7197 48.5711C63.8982 49.9543 64.7014 51.2484 65.7277 51.7615C69.1189 49.4412 70.4576 49.352 74.5405 47.701C74.3843 44.1759 74.2727 41.0747 74.2727 37.9512C63.4074 39.9368 58.2982 44.2651 52.6982 48.8388C56.1341 52.6093 60.1277 56.6476 63.8313 60.4404C68.8289 56.7145 75.1205 52.6763 82.5054 53.0332C82.5054 50.5567 82.5054 37.7727 82.6169 33.1767C100.131 32.7081 110.081 40.4053 116.998 46.1392C115.771 48.7273 107.159 57.6069 106.177 57.8524ZM56.8257 83.6213C56.8257 97.2978 68.3604 110.372 84.0671 110.372C100.287 110.372 110.55 96.2938 110.55 84.2014C110.55 76.0356 104.838 56.7814 83.3086 56.7814C67.9588 56.7814 56.8257 71.3504 56.8257 83.6213Z" fill="#FFFEFA"/>
<mask id="mask0_562_115487" style="mask-type:luminance" maskUnits="userSpaceOnUse" x="33" y="33" width="102" height="102">
<path d="M83.5763 134.288C111.485 134.288 134.11 111.664 134.11 83.7546C134.11 55.8455 111.485 33.2207 83.5763 33.2207C55.6673 33.2207 33.0425 55.8455 33.0425 83.7546C33.0425 111.664 55.6673 134.288 83.5763 134.288Z" fill="white"/>
</mask>
<g mask="url(#mask0_562_115487)">
<path d="M38.1294 143.436C33.7342 143.436 29.986 140.29 29.0489 135.761C29.0266 135.716 29.0043 135.56 29.0043 135.56C28.9373 135.27 28.4688 132.726 28.3126 130.228C28.0895 127.55 28.915 124.873 30.633 122.865C35.3182 117.399 43.2162 109.255 54.3493 101.447C54.3493 101.447 56.0226 100.287 56.0672 100.264C64.4561 94.5527 73.5142 89.9121 82.9517 86.4316L84.8927 85.7399C94.464 82.4156 104.415 80.2961 114.477 79.4483L116.574 79.2921C119.229 79.1137 121.951 79.0244 124.628 79.0244C130.117 79.0244 135.717 79.3814 141.227 80.1176C144.306 80.5192 146.961 82.5049 148.322 85.4053C149.527 87.9487 149.594 90.8937 148.545 93.5041L130.853 137.523C129.425 141.093 126.101 143.413 122.397 143.413H38.1294V143.436Z" fill="#FFFEFA"/>
<path d="M124.628 85.6507C129.849 85.6507 135.114 85.9853 140.379 86.6769C141.227 86.7885 141.963 87.3686 142.365 88.2387C142.767 89.1088 142.811 90.1797 142.432 91.0722L124.74 135.091C124.316 136.162 123.379 136.854 122.375 136.854H38.1292C36.8575 136.854 35.7866 135.85 35.4742 134.4C35.4742 134.377 35.4742 134.355 35.4519 134.333C35.4296 134.243 34.9834 131.901 34.8719 129.759C34.7603 128.8 35.0503 127.885 35.6304 127.193C40.0703 122.017 47.5667 114.298 58.1197 106.868L59.6814 105.797C59.7037 105.775 59.726 105.775 59.726 105.753C67.691 100.331 76.2583 95.9359 85.2049 92.6562L87.0344 92.0092C96.0703 88.8634 105.485 86.8554 115.012 86.0746L116.998 85.9407C119.519 85.7399 122.062 85.6507 124.628 85.6507ZM124.628 72.4873C121.795 72.4873 118.939 72.5766 116.128 72.755H116.083H116.038L114.053 72.8889H113.986H113.919C103.299 73.7813 92.7906 76.0124 82.7061 79.5152L82.6615 79.5375L82.6169 79.5598L80.7874 80.2068L80.7205 80.2291L80.6535 80.2515C70.7252 83.9104 61.1986 88.7965 52.3412 94.8204C52.2742 94.865 52.2073 94.9096 52.1404 94.9542L50.6456 96.0028L50.6009 96.0252L50.5563 96.0475C38.8655 104.258 30.5436 112.825 25.6352 118.559C22.7794 121.883 21.3738 126.279 21.7308 130.674C21.9093 133.507 22.4225 136.274 22.534 136.809V136.832V136.854C22.5563 136.943 22.5786 137.032 22.6009 137.122C23.3149 140.49 24.9882 143.48 27.4647 145.778C30.3874 148.5 34.1802 149.995 38.1292 149.995H122.397C128.8 149.995 134.512 146.068 136.966 139.977L154.658 95.9805C156.399 91.6746 156.265 86.8108 154.279 82.6164C151.936 77.6634 147.385 74.2945 142.075 73.6028C136.274 72.8666 130.407 72.4873 124.628 72.4873Z" fill="#FFFEFA"/>
<path d="M115.146 88.1943C104.95 89.0421 95.7579 91.2063 87.5698 94.0398C87.726 100.019 87.9268 106.378 88.1499 112.825C94.5085 111.688 101.447 110.795 108.877 110.304C111.509 101.045 113.651 93.4151 115.146 88.1943Z" fill="#0B70BC"/>
<path d="M38.1288 134.69H68.8953C67.0435 130.005 65.3033 125.498 63.6969 121.281C51.3368 125.409 42.5017 129.916 37.7272 132.66C36.8571 133.151 37.1694 134.69 38.1288 134.69Z" fill="#E3E3E3"/>
<path d="M65.4819 120.701C67.1552 125.118 68.9624 129.826 70.9034 134.712H87.1234C86.878 128.398 86.6102 121.861 86.3871 115.391C78.6676 116.863 71.662 118.715 65.4819 120.701Z" fill="#00A9E5"/>
<path d="M88.2388 115.034C88.4619 121.638 88.7296 128.286 88.975 134.69H102.027C104.258 126.702 106.377 119.228 108.274 112.513C101.134 113.026 94.4412 113.896 88.2388 115.034Z" fill="#A0A0A0"/>
<path d="M140.759 89.2872C140.625 89.0195 140.402 88.841 140.156 88.8187C132.013 87.7478 124.316 87.5693 117.087 88.0378C115.659 93.1024 113.473 100.777 110.84 110.17C117.734 109.768 125.052 109.724 132.749 110.125L140.781 90.135C140.892 89.8673 140.892 89.5549 140.759 89.2872Z" fill="#A0A0A0"/>
<path d="M110.238 112.379C108.341 119.117 106.222 126.658 103.968 134.69H122.397C122.709 134.69 122.977 134.489 123.111 134.155L131.924 112.245C124.293 111.888 117.065 111.955 110.238 112.379Z" fill="#51626F"/>
<path d="M59.4804 120.433C60.596 120.031 61.7561 119.63 62.9386 119.228C61.533 115.48 60.239 111.955 59.0565 108.72C48.4143 116.194 40.9625 123.98 36.9019 128.71C36.2772 129.446 36.9912 130.674 37.7944 130.205C42.2788 127.684 49.6414 123.958 59.4804 120.433Z" fill="#BEBEBE"/>
<path d="M64.7236 118.648C70.8368 116.685 78.0878 114.744 86.3428 113.182C86.1197 106.846 85.9189 100.599 85.7627 94.709C75.7228 98.4126 67.3117 103.12 60.6631 107.627C61.8679 110.996 63.2288 114.699 64.7236 118.648Z" fill="#E3E3E3"/>
</g>
<path d="M50.2665 108.052L55.1972 104.281L56.2904 105.709L49.7088 110.729L44.3096 103.634L45.9606 102.385L50.2665 108.052Z" fill="#0B70BC"/>
<path d="M58.9901 103.924L57.2945 105.062L53.1001 98.9044L54.7957 97.7666L58.9901 103.924Z" fill="#51626F"/>
<path d="M60.1057 103.121L56.2236 96.7175L60.6858 94.0179C61.1766 93.7278 61.6228 93.527 62.0244 93.4155C62.4483 93.3039 62.8053 93.2816 63.1623 93.3262C63.4969 93.3709 63.8093 93.4824 64.077 93.6832C64.3448 93.884 64.5679 94.1294 64.7687 94.4418C65.0587 94.9326 65.1926 95.4011 65.1479 95.8697C65.1033 96.3382 64.9248 96.7621 64.5902 97.1637L67.4236 98.7031L65.4826 99.8633L62.8722 98.4354L60.5073 99.8633L61.8459 102.072L60.1057 103.121ZM58.7894 97.0075L59.7041 98.5246L62.426 96.8736C62.6268 96.7621 62.7607 96.6505 62.8722 96.5167C62.9838 96.4051 63.0507 96.2936 63.0953 96.182C63.14 96.0705 63.14 95.9589 63.1177 95.8474C63.0953 95.7358 63.0507 95.6242 62.9838 95.5127C62.9169 95.4011 62.8276 95.3119 62.7384 95.2226C62.6491 95.1334 62.5376 95.1111 62.426 95.0888C62.3145 95.0665 62.1806 95.0888 62.0244 95.1334C61.8683 95.178 61.6898 95.2673 61.5113 95.3788L58.7894 97.0075Z" fill="#51626F"/>
<path d="M70.2571 97.2309L68.4499 98.1903L64.9248 91.5863L66.732 90.627L70.2571 97.2309Z" fill="#51626F"/>
<path d="M73.4696 87.3027L75.9238 86.1426L73.6258 90.6717L79.1142 92.925L76.8831 93.9737L72.8449 92.3227L72.2648 93.5497L73.2688 95.6916L71.417 96.5617L68.2266 89.8015L70.0784 88.9314L71.3278 91.5641L73.4696 87.3027Z" fill="#51626F"/>
<path d="M88.0165 82.3939C87.7487 82.3716 87.4364 82.3716 87.1017 82.4162C86.8117 82.4386 86.4547 82.5055 86.0754 82.5724C85.6738 82.6394 85.2276 82.7732 84.7591 82.9294C84.4021 83.0633 84.0898 83.1748 83.8443 83.3087C83.5989 83.4425 83.3981 83.5541 83.2643 83.688C83.1304 83.8218 83.0188 83.9334 82.9965 84.0672C82.9519 84.2011 82.9519 84.3127 82.9965 84.4465C83.0412 84.5804 83.1304 84.6919 83.2643 84.7589C83.3981 84.8258 83.5766 84.8704 83.7774 84.8704C84.0005 84.8704 84.2682 84.8704 84.5806 84.8258C84.8929 84.7812 85.2722 84.7366 85.6961 84.6919C86.4324 84.5804 87.0571 84.5135 87.6149 84.4911C88.1726 84.4688 88.6635 84.4911 89.0651 84.6027C89.4667 84.6919 89.8013 84.8481 90.069 85.0935C90.3368 85.3166 90.5376 85.6513 90.6714 86.0529C90.8276 86.4768 90.8499 86.8784 90.7607 87.28C90.6714 87.6593 90.4929 88.0386 90.2029 88.3732C89.9129 88.7079 89.5113 89.0425 89.0204 89.3326C88.5296 89.6226 87.9272 89.8903 87.2579 90.1358C86.8786 90.2696 86.5439 90.3812 86.2093 90.4481C85.8746 90.5374 85.5623 90.6043 85.2722 90.6489C84.9822 90.6935 84.7145 90.7382 84.469 90.7382C84.2236 90.7605 84.0005 90.7605 83.7997 90.7605C83.3312 90.7605 82.9073 90.7158 82.5503 90.6266L83.0188 88.9087C83.3312 88.9533 83.6882 88.9533 84.0674 88.931C84.4021 88.9087 84.7814 88.8641 85.2276 88.7971C85.6738 88.7302 86.1423 88.5963 86.6778 88.4178C87.481 88.1501 88.0388 87.8601 88.3734 87.57C88.7081 87.28 88.8196 87.0123 88.7081 86.7222C88.6635 86.5884 88.5742 86.4768 88.4627 86.4099C88.3511 86.3429 88.1949 86.3206 87.9718 86.2983C87.7487 86.2983 87.481 86.3206 87.1463 86.3429C86.8117 86.3876 86.4101 86.4322 85.8969 86.4991C85.0937 86.6107 84.4244 86.6553 83.8667 86.6553C83.3089 86.6553 82.8404 86.6107 82.4388 86.4768C82.0595 86.3653 81.7471 86.1868 81.524 85.9637C81.3009 85.7405 81.1224 85.4505 80.9886 85.0935C80.877 84.7812 80.8324 84.4465 80.8547 84.0896C80.877 83.7326 81.0109 83.3979 81.234 83.0633C81.4571 82.7286 81.8141 82.3939 82.2826 82.0816C82.7511 81.7692 83.3758 81.4792 84.1344 81.2115C84.8706 80.966 85.4953 80.7876 86.0531 80.6983C86.5886 80.6091 87.0571 80.5645 87.4141 80.5645C87.838 80.5645 88.1949 80.5868 88.485 80.6537L88.0165 82.3939Z" fill="#51626F"/>
<path d="M95.3344 79.4488C96.1822 79.2257 96.963 79.1365 97.6324 79.1811C98.3017 79.2034 98.9041 79.3373 99.3949 79.5827C99.8858 79.8058 100.31 80.1404 100.622 80.5643C100.934 80.9883 101.18 81.4568 101.314 82.0145C101.448 82.5723 101.47 83.1078 101.381 83.6209C101.291 84.1341 101.091 84.6249 100.756 85.0711C100.421 85.5173 99.975 85.9189 99.3949 86.2536C98.8148 86.6106 98.1009 86.8783 97.2531 87.1014C96.4053 87.3245 95.6244 87.4137 94.9551 87.3691C94.2858 87.3468 93.6834 87.2129 93.1925 86.9675C92.7017 86.7444 92.2778 86.4098 91.9654 85.9859C91.6531 85.562 91.4077 85.0934 91.2738 84.5357C91.1399 83.9779 91.1176 83.4424 91.2069 82.9293C91.2961 82.4161 91.4969 81.9253 91.8316 81.4791C92.1662 81.0329 92.6124 80.6313 93.1925 80.2966C93.7726 79.9396 94.4865 79.6496 95.3344 79.4488ZM99.328 82.4831C99.2611 82.1707 99.1272 81.903 98.9487 81.6353C98.7702 81.3898 98.5471 81.189 98.2571 81.0329C97.967 80.8767 97.6101 80.7875 97.2085 80.7651C96.7846 80.7428 96.316 80.7875 95.7583 80.9436C95.2005 81.0775 94.7543 81.256 94.3973 81.4791C94.0403 81.7022 93.7726 81.9476 93.5941 82.2153C93.4156 82.4831 93.3041 82.7731 93.2595 83.0855C93.2148 83.3978 93.2371 83.6879 93.3264 84.0002C93.4156 84.3126 93.5272 84.5803 93.7057 84.848C93.8842 85.0934 94.1073 85.2942 94.3973 85.4504C94.6873 85.6066 95.0443 85.6958 95.4682 85.7181C95.8921 85.7404 96.3607 85.6958 96.9184 85.5396C97.4762 85.4058 97.9224 85.2273 98.2794 85.0042C98.6363 84.7811 98.9041 84.5357 99.0826 84.2679C99.2611 84.0002 99.3726 83.7102 99.4172 83.3978C99.4172 83.1078 99.4172 82.7954 99.328 82.4831Z" fill="#51626F"/>
<path d="M105.084 83.5769L110.216 82.7067L110.483 84.2462L103.322 85.451L102.072 78.0661L104.08 77.7314L105.084 83.5769Z" fill="#0B70BC"/>
<path d="M121.237 83.1972L119.028 83.398L118.136 82.0594L113.83 82.4386L113.205 83.9112L110.997 84.112L114.366 76.2809L116.53 76.0801L121.237 83.1972ZM114.544 80.8323L117.154 80.5869L115.637 78.2888L114.544 80.8323Z" fill="#0B70BC"/>
<path d="M122.018 83.2197L121.951 75.7233L127.172 75.6787C127.73 75.6787 128.22 75.7233 128.644 75.8349C129.046 75.9464 129.403 76.1249 129.671 76.3257C129.938 76.5488 130.139 76.7942 130.273 77.1066C130.407 77.4189 130.474 77.7313 130.474 78.1106C130.474 78.6684 130.34 79.1369 130.072 79.5385C129.805 79.9178 129.425 80.2078 128.934 80.364L130.585 83.1528L128.332 83.1751L126.815 80.6094L124.048 80.6317L124.071 83.1974L122.018 83.2197ZM123.981 77.2628L124.004 79.0476L127.172 79.0253C127.395 79.0253 127.573 79.003 127.73 78.9584C127.886 78.9138 127.997 78.8468 128.087 78.7799C128.176 78.6907 128.243 78.6014 128.287 78.4899C128.332 78.3783 128.354 78.2668 128.332 78.1329C128.332 77.999 128.31 77.8652 128.265 77.7759C128.221 77.6644 128.154 77.5751 128.064 77.5082C127.975 77.4413 127.841 77.3743 127.685 77.3297C127.529 77.2851 127.35 77.2628 127.127 77.2628H123.981Z" fill="#51626F"/>
</g>
<defs>
<clipPath id="clip0_562_115487">
<rect width="168" height="168" fill="white"/>
</clipPath>
</defs>
</svg>
