<?xml version="1.0"?>
<svg width="753" height="753" xmlns="http://www.w3.org/2000/svg" xmlns:svg="http://www.w3.org/2000/svg" xmlns:xlink="http://www.w3.org/1999/xlink" enable-background="new 0 0 753 753" version="1.1" xml:space="preserve">
 <style type="text/css">.st0{fill:#FFFFFF;}
	.st1{fill:#FDBD00;}
	.st2{fill-rule:evenodd;clip-rule:evenodd;fill:#FFFDF8;}
	.st3{clip-path:url(#SVGID_00000182489798684104981100000000963545786160713876_);}
	.st4{fill:#006AB9;}
	.st5{fill:#00D2FF;}
	.st6{fill:#00A9E5;}
	.st7{fill:#008BE4;}
	.st8{fill-rule:evenodd;clip-rule:evenodd;fill:#FDBD00;}
	.st9{fill:#004068;}
	.st10{fill:#111110;}
	.st11{clip-path:url(#SVGID_00000127028734199383671330000003549817221031157169_);}</style>
 <g class="layer">
  <title>Layer 1</title>
  <g id="svg_1">
   <g id="svg_2">
    <g id="svg_3">
     <path class="st0" d="m287.3,156c-3.3,-3.1 -7.1,-6.1 -11.1,-8.9c-3.9,-2.7 -8.1,-5.2 -12.6,-7.6c-0.9,-0.5 -1.8,-0.9 -2.7,-1.4c-2.9,-1.4 -5.7,-3 -8.4,-4.6c-3.9,-2.3 -7.8,-4.9 -11.5,-7.7c-3.8,-2.8 -7.6,-5.9 -11.2,-9.2c-3,-2.7 -6,-5.6 -8.9,-8.7c-5.4,-5.7 -10.5,-11.9 -15.4,-18.6c-0.1,-0.2 -0.2,-0.3 -0.4,-0.5c-3.7,20.3 -3.3,40.6 1.3,60.1c4.3,18.4 12.2,35.2 23.1,50c5.4,-4.4 10.9,-8.6 16.6,-12.6c-9.4,-13 -16.2,-27.6 -20,-43.6c-0.2,-0.8 -0.4,-1.7 -0.6,-2.5c0,-0.1 -0.1,-0.3 -0.1,-0.4c3.2,2.5 6.5,4.8 9.9,6.9c4.6,3 9.4,5.7 14.2,8.1c9.4,4.7 17.1,9.8 23.1,15.7c0.5,-0.2 1,-0.5 1.5,-0.7c6,-3 12.2,-5.8 18.6,-8.2c-1.6,-1.9 -3.5,-3.8 -5.4,-5.6z" id="svg_4"/>
     <g id="svg_5">
      <path class="st1" d="m312.4,154.6c-6.3,-8.4 -14.5,-16 -24.4,-22.7c-4.3,-2.9 -9,-5.7 -14,-8.3l-0.4,-0.2c-0.8,-0.4 -1.5,-0.8 -2.3,-1.2c-28.1,-14 -51.6,-40.3 -69.7,-78l-0.9,-1.8l-0.8,1.8c-16.4,36.6 -20.6,74.8 -12.2,110.5c4.9,20.9 14,40.3 27.1,57.4l0.6,0.8l0.8,-0.7c4.5,-4.4 9.2,-8.6 13.9,-12.5l0.7,-0.6l-0.5,-0.7c-11,-14.9 -18.7,-31.7 -23,-49.7c-4.4,-18.6 -4.9,-38 -1.7,-57.6c4.6,6.3 9.5,12.1 14.5,17.4c2.8,3 5.8,5.9 8.9,8.7c3.7,3.3 7.5,6.4 11.3,9.3c3.8,2.8 7.7,5.4 11.6,7.7c2.8,1.7 5.7,3.2 8.5,4.6c0.9,0.4 1.8,0.9 2.6,1.4c4.5,2.4 8.7,4.9 12.5,7.5c4,2.8 7.7,5.7 11,8.8c2,1.8 3.8,3.7 5.5,5.6l0.4,0.5l0.6,-0.2c6.1,-2.4 12.4,-4.6 18.8,-6.4l1.3,-0.4l-0.7,-1z" id="svg_6"/>
      <path class="st1" d="m249.8,154.5c-4.8,-2.4 -9.5,-5.1 -14.2,-8.1c-3.4,-2.2 -6.7,-4.5 -9.9,-6.9l-1.1,-0.9l0.4,1.8c0.2,0.8 0.4,1.7 0.6,2.5c3.7,15.8 10.5,30.6 20.1,43.8l0.3,0.4l0.4,-0.3c2.9,-2 5.9,-3.9 8.9,-5.8c5.7,-3.6 11.7,-6.9 17.7,-9.9l0.7,-0.3l-0.5,-0.5c-6.2,-5.9 -13.8,-11 -23.4,-15.8z" id="svg_7"/>
     </g>
    </g>
    <g id="svg_8">
     <path class="st0" d="m189.7,228.9c-4.5,-1 -9.2,-1.7 -14.1,-2.1c-4.7,-0.4 -9.6,-0.5 -14.7,-0.2c-1,0 -2,0.1 -3,0.1c-3.2,0.2 -6.4,0.3 -9.6,0.2c-4.6,-0.1 -9.2,-0.3 -13.8,-0.9c-4.7,-0.5 -9.5,-1.3 -14.3,-2.4c-4,-0.9 -8,-1.9 -12,-3.1c-7.5,-2.2 -15,-5 -22.6,-8.4c-0.2,-0.1 -0.4,-0.2 -0.6,-0.2c7,19.4 17.5,36.8 31.2,51.4c12.9,13.7 28.2,24.4 45,31.8c2.4,-6.5 5.1,-12.9 8.1,-19.2c-14.6,-6.5 -27.9,-15.8 -39.1,-27.8c-0.6,-0.6 -1.2,-1.3 -1.7,-1.9c-0.1,-0.1 -0.2,-0.2 -0.3,-0.3c4,0.5 8,0.9 12,1c5.5,0.3 10.9,0.2 16.4,-0.1c10.5,-0.6 19.7,0 27.9,2c0.3,-0.5 0.6,-0.9 0.9,-1.4c3.7,-5.6 7.7,-11.1 12,-16.4c-2.6,-0.7 -5.1,-1.4 -7.7,-2.1z" id="svg_9"/>
     <g id="svg_10">
      <path class="st1" d="m210.7,215.2c-9.7,-4.1 -20.6,-6.6 -32.5,-7.5c-5.2,-0.4 -10.7,-0.5 -16.3,-0.2l-0.5,0c-0.9,0 -1.7,0.1 -2.6,0.1c-31.3,1.9 -64.8,-9.1 -99.4,-32.6l-1.7,-1.1l0.2,2c4.1,39.9 19.6,75.1 44.6,101.8c14.7,15.7 32.3,27.9 52.2,36.2l1,0.4l0.3,-1c1.7,-6.1 3.7,-12 5.8,-17.8l0.3,-0.8l-0.8,-0.4c-17,-7.4 -32.1,-18.1 -44.7,-31.6c-13.1,-13.9 -23.3,-30.4 -30.2,-49c7.1,3.1 14.3,5.8 21.3,7.8c3.9,1.2 8,2.2 12.1,3.1c4.8,1 9.7,1.8 14.4,2.4c4.7,0.5 9.3,0.8 13.9,0.9c3.3,0 6.6,0 9.7,-0.2c1,-0.1 2,-0.1 3,-0.1c5.1,-0.2 10,-0.1 14.6,0.2c4.9,0.4 9.6,1.1 13.9,2.1c2.6,0.6 5.2,1.3 7.5,2.1l0.6,0.2l0.4,-0.5c4.1,-5.1 8.5,-10.2 13.1,-15l0.9,-1l-1.1,-0.5z" id="svg_11"/>
      <path class="st1" d="m156.5,246.4c-5.3,0.3 -10.8,0.4 -16.3,0.1c-4,-0.2 -8.1,-0.5 -12,-1l-1.4,-0.2l1.2,1.4c0.6,0.6 1.2,1.3 1.7,1.9c11.1,11.9 24.4,21.2 39.3,27.9l0.5,0.2l0.2,-0.5c1.5,-3.1 3.1,-6.3 4.8,-9.5c3.2,-5.9 6.6,-11.8 10.3,-17.4l0.4,-0.6l-0.7,-0.2c-8.2,-2.1 -17.3,-2.8 -28,-2.1z" id="svg_12"/>
     </g>
    </g>
    <g id="svg_13">
     <path class="st0" d="m141.6,340.9c-4.4,1.3 -8.8,3.1 -13.3,5.2c-4.3,2 -8.5,4.4 -12.9,7.2c-0.8,0.5 -1.7,1.1 -2.5,1.6c-2.7,1.8 -5.4,3.4 -8.2,5c-4,2.2 -8.1,4.3 -12.4,6.1c-4.4,1.9 -8.9,3.6 -13.6,5.1c-3.9,1.3 -7.9,2.4 -12,3.4c-7.6,1.8 -15.5,3.1 -23.8,4c-0.2,0 -0.4,0 -0.6,0.1c15.8,13.4 33.6,23.2 52.7,28.9c18.1,5.4 36.6,7 54.9,5c-1.2,-6.9 -2,-13.8 -2.6,-20.7c-15.9,1.7 -32.1,0.2 -47.8,-4.5c-0.8,-0.2 -1.6,-0.5 -2.5,-0.8c-0.1,0 -0.2,-0.1 -0.4,-0.1c3.7,-1.6 7.4,-3.3 10.9,-5.1c4.9,-2.5 9.6,-5.3 14.1,-8.3c8.8,-5.8 17.1,-9.9 25.1,-12.2c0,-0.5 0.1,-1.1 0.1,-1.6c0.4,-6.7 1.1,-13.5 2.1,-20.2c-2.2,0.5 -4.7,1.2 -7.3,1.9z" id="svg_14"/>
     <g id="svg_15">
      <path class="st1" d="m153,318.5c-10.4,1.3 -21.2,4.6 -31.8,9.7c-4.7,2.3 -9.5,4.9 -14.2,7.9l-0.4,0.3c-0.7,0.5 -1.4,0.9 -2.2,1.4c-26.2,17.4 -60.7,24.6 -102.4,21.5l-2,-0.1l1.2,1.6c23.5,32.5 54.5,55.3 89.6,65.8c20.6,6.2 41.9,8 63.3,5.3l1,-0.1l-0.3,-1c-1.6,-6.1 -2.9,-12.3 -3.9,-18.3l-0.1,-0.9l-0.9,0.1c-18.4,2.1 -36.8,0.4 -54.5,-5c-18.3,-5.5 -35.4,-14.7 -50.7,-27.4c7.7,-0.9 15.3,-2.2 22.3,-3.8c4,-0.9 8,-2.1 12,-3.4c4.7,-1.5 9.3,-3.3 13.7,-5.2c4.3,-1.9 8.5,-4 12.5,-6.2c2.9,-1.6 5.7,-3.3 8.3,-5c0.8,-0.6 1.7,-1.1 2.5,-1.6c4.3,-2.7 8.6,-5.1 12.8,-7.1c4.4,-2.1 8.8,-3.8 13.1,-5.1c2.6,-0.8 5.1,-1.4 7.6,-1.9l0.6,-0.1l0.1,-0.6c1,-6.5 2.3,-13 3.8,-19.5l0.3,-1.3l-1.3,0z" id="svg_16"/>
      <path class="st1" d="m121.6,372.6c-4.4,2.9 -9.2,5.7 -14.1,8.2c-3.6,1.9 -7.3,3.6 -10.9,5.1l-1.3,0.6l1.7,0.5c0.8,0.3 1.6,0.5 2.5,0.8c15.6,4.7 31.7,6.2 48,4.5l0.5,-0.1l0,-0.5c-0.3,-3.5 -0.5,-7 -0.6,-10.6c-0.2,-6.7 -0.2,-13.5 0.2,-20.3l0,-0.8l-0.7,0.2c-8.1,2.5 -16.4,6.5 -25.3,12.4z" id="svg_17"/>
     </g>
    </g>
    <g id="svg_18">
     <path class="st0" d="m156,462c-3.1,3.3 -6.1,7.1 -8.9,11.1c-2.7,3.9 -5.2,8.1 -7.6,12.6c-0.5,0.9 -0.9,1.8 -1.4,2.7c-1.4,2.9 -3,5.7 -4.6,8.4c-2.3,3.9 -4.9,7.8 -7.7,11.5c-2.8,3.8 -5.9,7.6 -9.2,11.2c-2.7,3 -5.6,6 -8.7,8.9c-5.7,5.4 -11.9,10.5 -18.6,15.4c-0.2,0.1 -0.3,0.2 -0.5,0.4c20.3,3.7 40.6,3.3 60.1,-1.3c18.4,-4.3 35.2,-12.2 50,-23.1c-4.4,-5.4 -8.6,-10.9 -12.6,-16.6c-13,9.4 -27.6,16.2 -43.6,20c-0.8,0.2 -1.7,0.4 -2.5,0.6c-0.1,0 -0.3,0.1 -0.4,0.1c2.5,-3.2 4.8,-6.5 6.9,-9.9c3,-4.6 5.7,-9.4 8.1,-14.2c4.7,-9.4 9.8,-17.1 15.7,-23.1c-0.2,-0.5 -0.5,-1 -0.7,-1.5c-3,-6 -5.8,-12.2 -8.2,-18.6c-1.9,1.5 -3.8,3.4 -5.6,5.4z" id="svg_19"/>
     <g id="svg_20">
      <path class="st1" d="m154.6,436.8c-8.4,6.3 -16,14.5 -22.7,24.4c-2.9,4.3 -5.7,9 -8.3,14l-0.2,0.4c-0.4,0.8 -0.8,1.5 -1.2,2.3c-14,28.1 -40.3,51.6 -78,69.7l-1.8,0.9l1.8,0.8c36.6,16.4 74.8,20.6 110.5,12.2c20.9,-4.9 40.3,-14 57.4,-27.1l0.8,-0.6l-0.7,-0.8c-4.4,-4.5 -8.6,-9.2 -12.5,-13.9l-0.6,-0.7l-0.7,0.5c-14.9,11 -31.7,18.7 -49.7,23c-18.6,4.4 -38,4.9 -57.6,1.7c6.3,-4.6 12.1,-9.5 17.4,-14.5c3,-2.8 5.9,-5.8 8.7,-8.9c3.3,-3.7 6.4,-7.5 9.3,-11.3c2.8,-3.8 5.4,-7.7 7.7,-11.6c1.7,-2.8 3.2,-5.7 4.6,-8.5c0.4,-0.9 0.9,-1.8 1.4,-2.6c2.4,-4.5 4.9,-8.7 7.5,-12.5c2.8,-4 5.7,-7.7 8.8,-11c1.8,-2 3.7,-3.8 5.6,-5.5l0.5,-0.4l-0.2,-0.6c-2.4,-6.1 -4.6,-12.4 -6.4,-18.8l-0.4,-1.3l-1,0.7z" id="svg_21"/>
      <path class="st1" d="m154.5,499.4c-2.4,4.8 -5.1,9.5 -8.1,14.2c-2.2,3.4 -4.5,6.7 -6.9,9.9l-0.9,1.1l1.8,-0.4c0.8,-0.2 1.7,-0.4 2.5,-0.6c15.8,-3.7 30.6,-10.5 43.8,-20.1l0.4,-0.3l-0.3,-0.4c-2,-2.9 -3.9,-5.9 -5.8,-8.9c-3.6,-5.7 -6.9,-11.7 -9.9,-17.7l-0.3,-0.7l-0.5,0.5c-5.9,6.2 -11,13.8 -15.8,23.4z" id="svg_22"/>
     </g>
    </g>
    <g id="svg_23">
     <path class="st0" d="m228.9,559.6c-1,4.5 -1.7,9.2 -2.1,14.1c-0.4,4.7 -0.5,9.6 -0.2,14.7c0,1 0.1,2 0.1,3c0.2,3.2 0.3,6.4 0.2,9.6c-0.1,4.6 -0.3,9.2 -0.9,13.8c-0.5,4.7 -1.3,9.5 -2.4,14.3c-0.9,4 -1.9,8 -3.1,12c-2.2,7.5 -5,15 -8.4,22.6c-0.1,0.2 -0.2,0.4 -0.2,0.6c19.4,-7 36.8,-17.5 51.4,-31.2c13.7,-12.9 24.4,-28.2 31.8,-45c-6.5,-2.4 -12.9,-5.1 -19.2,-8.1c-6.5,14.6 -15.8,27.9 -27.8,39.1c-0.6,0.6 -1.3,1.2 -1.9,1.7c-0.1,0.1 -0.2,0.2 -0.3,0.3c0.5,-4 0.9,-8 1,-12c0.3,-5.5 0.2,-10.9 -0.1,-16.4c-0.6,-10.5 0,-19.7 2,-27.9c-0.5,-0.3 -0.9,-0.6 -1.4,-0.9c-5.6,-3.7 -11.1,-7.7 -16.4,-12c-0.7,2.5 -1.4,5 -2.1,7.7z" id="svg_24"/>
     <g id="svg_25">
      <path class="st1" d="m215.2,538.5c-4.1,9.7 -6.6,20.6 -7.5,32.5c-0.4,5.2 -0.5,10.7 -0.2,16.3l0,0.5c0,0.9 0.1,1.7 0.1,2.6c1.9,31.3 -9.1,64.8 -32.6,99.4l-1.1,1.7l2,-0.2c39.9,-4.1 75.1,-19.6 101.8,-44.6c15.7,-14.7 27.9,-32.3 36.2,-52.2l0.4,-1l-1,-0.3c-6.1,-1.7 -12,-3.7 -17.8,-5.8l-0.8,-0.3l-0.4,0.8c-7.4,17 -18.1,32.1 -31.6,44.7c-13.9,13.1 -30.4,23.3 -49,30.2c3.1,-7.1 5.8,-14.3 7.8,-21.3c1.2,-3.9 2.2,-8 3.1,-12.1c1,-4.8 1.8,-9.7 2.4,-14.4c0.5,-4.7 0.8,-9.3 0.9,-13.9c0,-3.3 0,-6.6 -0.2,-9.7c-0.1,-1 -0.1,-2 -0.1,-3c-0.2,-5.1 -0.1,-10 0.2,-14.6c0.4,-4.9 1.1,-9.6 2.1,-13.9c0.6,-2.6 1.3,-5.2 2.1,-7.5l0.2,-0.6l-0.5,-0.4c-5.1,-4.1 -10.2,-8.5 -15,-13.1l-1,-0.9l-0.5,1.1z" id="svg_26"/>
      <path class="st1" d="m246.4,592.7c0.3,5.3 0.4,10.8 0.1,16.3c-0.2,4 -0.5,8.1 -1,12l-0.2,1.4l1.4,-1.2c0.6,-0.6 1.3,-1.2 1.9,-1.7c11.9,-11.1 21.2,-24.4 27.9,-39.3l0.2,-0.5l-0.5,-0.2c-3.1,-1.5 -6.3,-3.1 -9.5,-4.8c-5.9,-3.2 -11.8,-6.6 -17.4,-10.3l-0.6,-0.4l-0.2,0.7c-2.1,8.2 -2.8,17.3 -2.1,28z" id="svg_27"/>
     </g>
    </g>
    <g id="svg_28">
     <path class="st0" d="m340.9,607.6c1.3,4.4 3.1,8.8 5.2,13.3c2,4.3 4.4,8.5 7.2,12.9c0.5,0.8 1.1,1.7 1.6,2.5c1.8,2.7 3.4,5.4 5,8.2c2.2,4 4.3,8.1 6.1,12.4c1.9,4.4 3.6,8.9 5.1,13.6c1.3,3.9 2.4,7.9 3.4,12c1.8,7.6 3.1,15.5 4,23.8c0,0.2 0,0.4 0.1,0.6c13.4,-15.8 23.2,-33.6 28.9,-52.7c5.4,-18.1 7,-36.6 5,-54.9c-6.9,1.2 -13.8,2 -20.7,2.6c1.7,15.9 0.2,32.1 -4.5,47.8c-0.2,0.8 -0.5,1.6 -0.8,2.5c0,0.1 -0.1,0.2 -0.1,0.4c-1.6,-3.7 -3.3,-7.4 -5.1,-10.9c-2.5,-4.9 -5.3,-9.6 -8.3,-14.1c-5.8,-8.8 -9.9,-17.1 -12.2,-25.1c-0.5,0 -1.1,-0.1 -1.6,-0.1c-6.7,-0.4 -13.5,-1.1 -20.2,-2.1c0.5,2.2 1.2,4.7 1.9,7.3z" id="svg_29"/>
     <g id="svg_30">
      <path class="st1" d="m318.5,596.2c1.3,10.4 4.6,21.2 9.7,31.8c2.3,4.7 4.9,9.5 7.9,14.2l0.3,0.4c0.5,0.7 0.9,1.4 1.4,2.2c17.3,26.2 24.5,60.6 21.4,102.4l-0.1,2l1.6,-1.2c32.5,-23.5 55.3,-54.5 65.8,-89.6c6.2,-20.6 8,-41.9 5.3,-63.3l-0.1,-1l-1,0.3c-6.1,1.6 -12.3,2.9 -18.3,3.9l-0.9,0.1l0.1,0.9c2.1,18.4 0.4,36.8 -5,54.5c-5.5,18.3 -14.7,35.4 -27.4,50.7c-0.9,-7.7 -2.2,-15.3 -3.8,-22.3c-0.9,-4 -2.1,-8 -3.4,-12c-1.5,-4.7 -3.3,-9.3 -5.2,-13.7c-1.9,-4.3 -4,-8.5 -6.2,-12.5c-1.6,-2.9 -3.3,-5.7 -5,-8.3c-0.6,-0.8 -1.1,-1.7 -1.6,-2.5c-2.7,-4.3 -5.1,-8.6 -7.1,-12.8c-2.1,-4.4 -3.8,-8.8 -5.1,-13.1c-0.8,-2.6 -1.4,-5.1 -1.9,-7.6l-0.1,-0.6l-0.6,-0.1c-6.5,-1 -13,-2.3 -19.5,-3.8l-1.3,-0.3l0.1,1.3z" id="svg_31"/>
      <path class="st1" d="m372.6,627.6c2.9,4.4 5.7,9.2 8.2,14.1c1.9,3.6 3.6,7.3 5.1,10.9l0.6,1.3l0.6,-1.7c0.3,-0.8 0.5,-1.6 0.8,-2.5c4.7,-15.6 6.2,-31.7 4.5,-48l-0.1,-0.5l-0.5,0c-3.5,0.3 -7,0.5 -10.6,0.6c-6.7,0.2 -13.5,0.2 -20.3,-0.2l-0.8,0l0.2,0.7c2.4,8.1 6.4,16.4 12.3,25.3z" id="svg_32"/>
     </g>
    </g>
    <g id="svg_33">
     <path class="st0" d="m462,593.2c3.3,3.1 7.1,6.1 11.1,8.9c3.9,2.7 8.1,5.2 12.6,7.6c0.9,0.5 1.8,0.9 2.7,1.4c2.9,1.4 5.7,3 8.4,4.6c3.9,2.3 7.8,4.9 11.5,7.7c3.8,2.8 7.6,5.9 11.2,9.2c3,2.7 6,5.6 8.9,8.7c5.4,5.7 10.5,11.9 15.4,18.6c0.1,0.2 0.2,0.3 0.4,0.5c3.7,-20.3 3.3,-40.6 -1.3,-60.1c-4.3,-18.4 -12.2,-35.2 -23.1,-50c-5.4,4.4 -10.9,8.6 -16.6,12.6c9.4,13 16.2,27.6 20,43.6c0.2,0.8 0.4,1.7 0.6,2.5c0,0.1 0.1,0.3 0.1,0.4c-3.2,-2.5 -6.5,-4.8 -9.9,-6.9c-4.6,-3 -9.4,-5.7 -14.2,-8.1c-9.4,-4.7 -17.1,-9.8 -23.1,-15.7c-0.5,0.2 -1,0.5 -1.5,0.7c-6,3 -12.2,5.8 -18.6,8.2c1.5,1.9 3.4,3.8 5.4,5.6z" id="svg_34"/>
     <g id="svg_35">
      <path class="st1" d="m436.8,594.6c6.3,8.4 14.5,16 24.4,22.7c4.3,2.9 9,5.7 14,8.3l0.4,0.2c0.8,0.4 1.5,0.8 2.3,1.2c28.1,14 51.6,40.3 69.7,78l0.9,1.8l0.8,-1.8c16.4,-36.6 20.6,-74.8 12.2,-110.5c-4.9,-20.9 -14,-40.3 -27.1,-57.4l-0.6,-0.8l-0.8,0.7c-4.5,4.4 -9.2,8.6 -13.9,12.5l-0.7,0.6l0.5,0.7c11,14.9 18.7,31.7 23,49.7c4.4,18.6 4.9,38 1.7,57.6c-4.6,-6.3 -9.5,-12.1 -14.5,-17.4c-2.8,-3 -5.8,-5.9 -8.9,-8.7c-3.7,-3.3 -7.5,-6.4 -11.3,-9.3c-3.8,-2.8 -7.7,-5.4 -11.6,-7.7c-2.8,-1.7 -5.7,-3.2 -8.5,-4.6c-0.9,-0.4 -1.8,-0.9 -2.6,-1.4c-4.5,-2.4 -8.7,-4.9 -12.5,-7.5c-4,-2.8 -7.7,-5.7 -11,-8.8c-2,-1.8 -3.8,-3.7 -5.5,-5.6l-0.4,-0.5l-0.6,0.2c-6.1,2.4 -12.4,4.6 -18.8,6.4l-1.3,0.4l0.7,1z" id="svg_36"/>
      <path class="st1" d="m499.4,594.7c4.8,2.4 9.5,5.1 14.2,8.1c3.4,2.2 6.7,4.5 9.9,6.9l1.1,0.9l-0.4,-1.8c-0.2,-0.8 -0.4,-1.7 -0.6,-2.5c-3.7,-15.8 -10.5,-30.6 -20.1,-43.8l-0.3,-0.4l-0.4,0.3c-2.9,2 -5.9,3.9 -8.9,5.8c-5.7,3.6 -11.7,6.9 -17.7,9.9l-0.7,0.3l0.5,0.5c6.2,5.9 13.8,11 23.4,15.8z" id="svg_37"/>
     </g>
    </g>
    <g id="svg_38">
     <path class="st0" d="m559.6,520.3c4.5,1 9.2,1.7 14.1,2.1c4.7,0.4 9.6,0.5 14.7,0.2c1,0 2,-0.1 3,-0.1c3.2,-0.2 6.4,-0.3 9.6,-0.2c4.6,0.1 9.2,0.3 13.8,0.9c4.7,0.5 9.5,1.3 14.3,2.4c4,0.9 8,1.9 12,3.1c7.5,2.2 15,5 22.6,8.4c0.2,0.1 0.4,0.2 0.6,0.2c-7,-19.4 -17.5,-36.8 -31.2,-51.4c-12.9,-13.7 -28.2,-24.4 -45,-31.8c-2.4,6.5 -5.1,12.9 -8.1,19.2c14.6,6.5 27.9,15.8 39.1,27.8c0.6,0.6 1.2,1.3 1.7,1.9c0.1,0.1 0.2,0.2 0.3,0.3c-4,-0.5 -8,-0.9 -12,-1c-5.5,-0.3 -10.9,-0.2 -16.4,0.1c-10.5,0.6 -19.7,0 -27.9,-2c-0.3,0.5 -0.6,0.9 -0.9,1.4c-3.7,5.6 -7.7,11.1 -12,16.4c2.5,0.8 5,1.5 7.7,2.1z" id="svg_39"/>
     <g id="svg_40">
      <path class="st1" d="m538.5,534c9.7,4.1 20.6,6.6 32.5,7.5c5.2,0.4 10.7,0.5 16.3,0.2l0.5,0c0.9,0 1.7,-0.1 2.6,-0.1c31.3,-1.9 64.8,9.1 99.4,32.6l1.7,1.1l-0.2,-2c-4.1,-39.9 -19.6,-75.1 -44.6,-101.8c-14.7,-15.7 -32.3,-27.9 -52.2,-36.2l-1,-0.4l-0.3,1c-1.7,6.1 -3.7,12 -5.8,17.8l-0.3,0.8l0.8,0.4c17,7.4 32.1,18.1 44.7,31.6c13.1,13.9 23.3,30.4 30.2,49c-7.1,-3.1 -14.3,-5.8 -21.3,-7.8c-3.9,-1.2 -8,-2.2 -12.1,-3.1c-4.8,-1 -9.7,-1.8 -14.4,-2.4c-4.7,-0.5 -9.3,-0.8 -13.9,-0.9c-3.3,0 -6.6,0 -9.7,0.2c-1,0.1 -2,0.1 -3,0.1c-5.1,0.2 -10,0.1 -14.6,-0.2c-4.9,-0.4 -9.6,-1.1 -13.9,-2.1c-2.6,-0.6 -5.2,-1.3 -7.5,-2.1l-0.6,-0.2l-0.4,0.5c-4.1,5.1 -8.5,10.2 -13.1,15l-0.9,1l1.1,0.5z" id="svg_41"/>
      <path class="st1" d="m592.7,502.8c5.3,-0.3 10.8,-0.4 16.3,-0.1c4,0.2 8.1,0.5 12,1l1.4,0.2l-1.2,-1.4c-0.6,-0.6 -1.2,-1.3 -1.7,-1.9c-11.1,-11.9 -24.4,-21.2 -39.3,-27.9l-0.5,-0.2l-0.2,0.5c-1.5,3.1 -3.1,6.3 -4.8,9.5c-3.2,5.9 -6.6,11.8 -10.3,17.4l-0.4,0.6l0.7,0.2c8.2,2.1 17.3,2.8 28,2.1z" id="svg_42"/>
     </g>
    </g>
    <g id="svg_43">
     <path class="st0" d="m607.6,408.3c4.4,-1.3 8.8,-3.1 13.3,-5.2c4.3,-2 8.5,-4.4 12.9,-7.2c0.8,-0.5 1.7,-1.1 2.5,-1.6c2.7,-1.8 5.4,-3.4 8.2,-5c4,-2.2 8.1,-4.3 12.4,-6.1c4.4,-1.9 8.9,-3.6 13.6,-5.1c3.9,-1.3 7.9,-2.4 12,-3.4c7.6,-1.8 15.5,-3.1 23.8,-4c0.2,0 0.4,0 0.6,-0.1c-15.8,-13.4 -33.6,-23.2 -52.7,-28.9c-18.1,-5.4 -36.6,-7 -54.9,-5c1.2,6.9 2,13.8 2.6,20.7c15.9,-1.7 32.1,-0.2 47.8,4.5c0.8,0.2 1.6,0.5 2.5,0.8c0.1,0 0.2,0.1 0.4,0.1c-3.7,1.6 -7.4,3.3 -10.9,5.1c-4.9,2.5 -9.6,5.3 -14.1,8.3c-8.8,5.8 -17.1,9.9 -25.1,12.2c0,0.5 -0.1,1.1 -0.1,1.6c-0.4,6.7 -1.1,13.5 -2.1,20.2c2.2,-0.5 4.7,-1.1 7.3,-1.9z" id="svg_44"/>
     <g id="svg_45">
      <path class="st1" d="m596.2,430.7c10.4,-1.3 21.2,-4.6 31.8,-9.7c4.7,-2.3 9.5,-4.9 14.2,-7.9l0.4,-0.3c0.7,-0.5 1.4,-0.9 2.2,-1.4c26.2,-17.3 60.6,-24.5 102.4,-21.4l2,0.1l-1.2,-1.6c-23.5,-32.5 -54.5,-55.3 -89.6,-65.8c-20.6,-6.2 -41.9,-8 -63.3,-5.3l-1,0.1l0.3,1c1.6,6.1 2.9,12.3 3.9,18.3l0.1,0.9l0.9,-0.1c18.4,-2.1 36.8,-0.4 54.5,5c18.3,5.5 35.4,14.7 50.7,27.4c-7.7,0.9 -15.3,2.2 -22.3,3.8c-4,0.9 -8,2.1 -12,3.4c-4.7,1.5 -9.3,3.3 -13.7,5.2c-4.3,1.9 -8.5,4 -12.5,6.2c-2.9,1.6 -5.7,3.3 -8.3,5c-0.8,0.6 -1.7,1.1 -2.5,1.6c-4.3,2.7 -8.6,5.1 -12.8,7.1c-4.4,2.1 -8.8,3.8 -13.1,5.1c-2.6,0.8 -5.1,1.4 -7.6,1.9l-0.6,0.1l-0.1,0.6c-1,6.5 -2.3,13 -3.8,19.5l-0.3,1.3l1.3,-0.1z" id="svg_46"/>
      <path class="st1" d="m627.6,376.6c4.4,-2.9 9.2,-5.7 14.1,-8.2c3.6,-1.9 7.3,-3.6 10.9,-5.1l1.3,-0.6l-1.7,-0.6c-0.8,-0.3 -1.6,-0.5 -2.5,-0.8c-15.6,-4.7 -31.7,-6.2 -48,-4.5l-0.5,0.1l0,0.5c0.3,3.5 0.5,7 0.6,10.6c0.2,6.7 0.2,13.5 -0.2,20.3l0,0.8l0.7,-0.2c8.1,-2.4 16.4,-6.4 25.3,-12.3z" id="svg_47"/>
     </g>
    </g>
    <g id="svg_48">
     <path class="st0" d="m593.2,287.3c3.1,-3.3 6.1,-7.1 8.9,-11.1c2.7,-3.9 5.2,-8.1 7.6,-12.6c0.5,-0.9 0.9,-1.8 1.4,-2.7c1.4,-2.9 3,-5.7 4.6,-8.4c2.3,-3.9 4.9,-7.8 7.7,-11.5c2.8,-3.8 5.9,-7.6 9.2,-11.2c2.7,-3 5.6,-6 8.7,-8.9c5.7,-5.4 11.9,-10.5 18.6,-15.4c0.2,-0.1 0.3,-0.2 0.5,-0.4c-20.3,-3.7 -40.6,-3.3 -60.1,1.3c-18.4,4.3 -35.2,12.2 -50,23.1c4.4,5.4 8.6,10.9 12.6,16.6c13,-9.4 27.6,-16.2 43.6,-20c0.8,-0.2 1.7,-0.4 2.5,-0.6c0.1,0 0.3,-0.1 0.4,-0.1c-2.5,3.2 -4.8,6.5 -6.9,9.9c-3,4.6 -5.7,9.4 -8.1,14.2c-4.7,9.4 -9.8,17.1 -15.7,23.1c0.2,0.5 0.5,1 0.7,1.5c3,6 5.8,12.2 8.2,18.6c1.9,-1.6 3.8,-3.5 5.6,-5.4z" id="svg_49"/>
     <g id="svg_50">
      <path class="st1" d="m594.6,312.4c8.4,-6.3 16,-14.5 22.7,-24.4c2.9,-4.3 5.7,-9 8.3,-14l0.2,-0.4c0.4,-0.8 0.8,-1.5 1.2,-2.3c14,-28.1 40.3,-51.6 78,-69.7l1.8,-0.9l-1.8,-0.8c-36.6,-16.4 -74.8,-20.6 -110.5,-12.2c-20.9,4.9 -40.3,14 -57.4,27.1l-0.8,0.6l0.7,0.8c4.4,4.5 8.6,9.2 12.5,13.9l0.6,0.7l0.7,-0.5c14.9,-11 31.7,-18.7 49.7,-23c18.6,-4.4 38,-4.9 57.6,-1.7c-6.3,4.6 -12.1,9.5 -17.4,14.5c-3,2.8 -5.9,5.8 -8.7,8.9c-3.3,3.7 -6.4,7.5 -9.3,11.3c-2.8,3.8 -5.4,7.7 -7.7,11.6c-1.7,2.8 -3.2,5.7 -4.6,8.5c-0.4,0.9 -0.9,1.8 -1.4,2.6c-2.4,4.5 -4.9,8.7 -7.5,12.5c-2.8,4 -5.7,7.7 -8.8,11c-1.8,2 -3.7,3.8 -5.6,5.5l-0.5,0.4l0.2,0.6c2.4,6.1 4.6,12.4 6.4,18.8l0.4,1.3l1,-0.7z" id="svg_51"/>
      <path class="st1" d="m594.7,249.8c2.4,-4.8 5.1,-9.5 8.1,-14.2c2.2,-3.4 4.5,-6.7 6.9,-9.9l0.9,-1.1l-1.8,0.4c-0.8,0.2 -1.7,0.4 -2.5,0.6c-15.8,3.7 -30.6,10.5 -43.8,20.1l-0.5,0.3l0.3,0.4c2,2.9 3.9,5.9 5.8,8.9c3.6,5.7 6.9,11.7 9.9,17.7l0.3,0.7l0.5,-0.5c6,-6.2 11.1,-13.8 15.9,-23.4z" id="svg_52"/>
     </g>
    </g>
    <g id="svg_53">
     <path class="st0" d="m520.3,189.7c1,-4.5 1.7,-9.2 2.1,-14.1c0.4,-4.7 0.5,-9.6 0.2,-14.7c0,-1 -0.1,-2 -0.1,-3c-0.2,-3.2 -0.3,-6.4 -0.2,-9.6c0.1,-4.6 0.3,-9.2 0.9,-13.8c0.5,-4.7 1.3,-9.5 2.4,-14.3c0.9,-4 1.9,-8 3.1,-12c2.2,-7.5 5,-15 8.4,-22.6c0.1,-0.2 0.2,-0.4 0.2,-0.6c-19.4,7 -36.8,17.5 -51.4,31.2c-13.7,12.9 -24.4,28.2 -31.8,45c6.5,2.4 12.9,5.1 19.2,8.1c6.5,-14.6 15.8,-27.9 27.8,-39.1c0.6,-0.6 1.3,-1.2 1.9,-1.7c0.1,-0.1 0.2,-0.2 0.3,-0.3c-0.5,4 -0.9,8 -1,12c-0.3,5.5 -0.2,10.9 0.1,16.4c0.6,10.5 0,19.7 -2,27.9c0.5,0.3 0.9,0.6 1.4,0.9c5.6,3.7 11.1,7.7 16.4,12c0.8,-2.6 1.5,-5.1 2.1,-7.7z" id="svg_54"/>
     <g id="svg_55">
      <path class="st1" d="m534,210.7c4.1,-9.7 6.6,-20.6 7.5,-32.5c0.4,-5.2 0.5,-10.7 0.2,-16.3l0,-0.5c0,-0.9 -0.1,-1.7 -0.1,-2.6c-1.9,-31.3 9.1,-64.8 32.6,-99.4l1.1,-1.7l-2,0.2c-39.9,4.1 -75.1,19.6 -101.8,44.6c-15.7,14.7 -27.9,32.3 -36.2,52.2l-0.4,1l1,0.3c6.1,1.7 12,3.7 17.8,5.8l0.8,0.3l0.4,-0.8c7.4,-17 18.1,-32.1 31.6,-44.7c13.9,-13.1 30.4,-23.3 49,-30.2c-3.1,7.1 -5.8,14.3 -7.8,21.3c-1.2,3.9 -2.2,8 -3.1,12.1c-1,4.8 -1.8,9.7 -2.4,14.4c-0.5,4.7 -0.8,9.3 -0.9,13.9c0,3.3 0,6.6 0.2,9.7c0.1,1 0.1,2 0.1,3c0.2,5.1 0.1,10 -0.2,14.6c-0.4,4.9 -1.1,9.6 -2.1,13.9c-0.6,2.6 -1.3,5.2 -2.1,7.5l-0.2,0.6l0.5,0.4c5.1,4.1 10.2,8.5 15,13.1l1,0.9l0.5,-1.1z" id="svg_56"/>
      <path class="st1" d="m502.8,156.5c-0.3,-5.3 -0.4,-10.8 -0.1,-16.3c0.2,-4 0.5,-8.1 1,-12l0.2,-1.4l-1.4,1.2c-0.6,0.6 -1.3,1.2 -1.9,1.7c-11.9,11.1 -21.2,24.4 -27.9,39.3l-0.2,0.5l0.5,0.2c3.1,1.5 6.3,3.1 9.5,4.8c5.9,3.2 11.8,6.6 17.4,10.3l0.6,0.4l0.2,-0.7c2.1,-8.2 2.8,-17.3 2.1,-28z" id="svg_57"/>
     </g>
    </g>
    <g id="svg_58">
     <path class="st0" d="m408.3,141.6c-1.3,-4.4 -3.1,-8.8 -5.2,-13.3c-2,-4.3 -4.4,-8.5 -7.2,-12.9c-0.5,-0.8 -1.1,-1.7 -1.6,-2.5c-1.8,-2.7 -3.4,-5.4 -5,-8.2c-2.2,-4 -4.3,-8.1 -6.1,-12.4c-1.9,-4.4 -3.6,-8.9 -5.1,-13.6c-1.3,-3.9 -2.4,-7.9 -3.4,-12c-1.8,-7.6 -3.1,-15.5 -4,-23.8c0,-0.2 0,-0.4 -0.1,-0.6c-13.4,15.8 -23.2,33.6 -28.9,52.7c-5.4,18.1 -7,36.6 -5,54.9c6.9,-1.2 13.8,-2 20.7,-2.6c-1.7,-15.9 -0.2,-32.1 4.5,-47.8c0.2,-0.8 0.5,-1.6 0.8,-2.5c0,-0.1 0.1,-0.2 0.1,-0.4c1.6,3.7 3.3,7.4 5.1,10.9c2.5,4.9 5.3,9.6 8.3,14.1c5.8,8.8 9.9,17.1 12.2,25.1c0.5,0 1.1,0.1 1.6,0.1c6.7,0.4 13.5,1.1 20.2,2.1c-0.5,-2.2 -1.1,-4.7 -1.9,-7.3z" id="svg_59"/>
     <g id="svg_60">
      <path class="st1" d="m430.7,153c-1.3,-10.4 -4.6,-21.2 -9.7,-31.8c-2.3,-4.7 -4.9,-9.5 -7.9,-14.2l-0.3,-0.4c-0.5,-0.7 -0.9,-1.4 -1.4,-2.2c-17.3,-26.2 -24.6,-60.7 -21.4,-102.4l0.1,-2l-1.6,1.2c-32.5,23.5 -55.3,54.5 -65.8,89.6c-6.2,20.6 -8,41.9 -5.3,63.3l0.1,1l1,-0.3c6.1,-1.6 12.3,-2.9 18.3,-3.9l0.9,-0.1l-0.1,-0.9c-2.1,-18.4 -0.4,-36.8 5,-54.5c5.5,-18.3 14.7,-35.4 27.4,-50.7c0.9,7.7 2.2,15.3 3.8,22.3c0.9,4 2.1,8 3.4,12c1.5,4.7 3.3,9.3 5.2,13.7c1.9,4.3 4,8.5 6.2,12.5c1.6,2.9 3.3,5.7 5,8.3c0.6,0.8 1.1,1.7 1.6,2.5c2.7,4.3 5.1,8.6 7.1,12.8c2.1,4.4 3.8,8.8 5.1,13.1c0.8,2.6 1.4,5.1 1.9,7.6l0.1,0.6l0.6,0.1c6.5,1 13,2.3 19.5,3.8l1.3,0.3l-0.1,-1.3z" id="svg_61"/>
      <path class="st1" d="m376.6,121.6c-2.9,-4.4 -5.7,-9.2 -8.2,-14.1c-1.9,-3.6 -3.6,-7.3 -5.1,-10.9l-0.6,-1.3l-0.6,1.7c-0.3,0.8 -0.5,1.6 -0.8,2.5c-4.7,15.6 -6.2,31.7 -4.5,48l0.1,0.5l0.5,0c3.5,-0.3 7,-0.5 10.6,-0.6c6.7,-0.2 13.5,-0.2 20.3,0.2l0.8,0l-0.2,-0.7c-2.4,-8.1 -6.4,-16.4 -12.3,-25.3z" id="svg_62"/>
     </g>
    </g>
   </g>
   <g id="svg_63">
    <g id="svg_64">
     <circle class="st1" cx="374.6" cy="374.6" id="svg_65" r="243.1"/>
    </g>
    <circle class="st2" cx="374.6" cy="374.5" id="svg_66" r="106.3" transform="matrix(1 0 0 1 0 0)"/>
    <g id="svg_67">
     <path class="st2" d="m475.9,259.3c-19.9,-14.8 -38.5,-26.9 -62.7,-33.1c-1.3,-16.4 7.4,-36.6 9.8,-39.1c13.3,4 27,5.1 48.1,19.5c0.6,1.8 -7.4,8 -7.4,10.3c-11.2,-4.7 -15.6,-8.5 -29.4,-12.6c-3,3.9 -3.8,7.4 -4,12.9c15,6.3 35,14.8 46.8,24.3c10.9,-10.1 16.6,-20.2 25.2,-32.6c-28.2,-24.1 -72.3,-36.8 -116,-43c-0.7,21.4 -1.2,43.5 -1.9,70.2c50.9,8.2 66,23.3 88.2,41.6c24.4,-18.4 44.7,-37.7 71.1,-52.2c31,28.6 47.7,76.7 54.9,122c-1.8,3.9 -49.6,3.8 -72.1,4.2c-2.1,-20.8 -10.5,-38.3 -21.5,-56.6c10.2,-6 17.9,-14.1 35.2,-20.4c7.1,9.2 15.8,27.1 19.3,40.1c-1.8,5.8 -6.5,6.7 -12.8,6.2c-1.7,-8.4 -6.4,-21.5 -11.3,-29c-6.7,1.8 -8.4,3.5 -12.6,8.1c6.1,13.6 10.9,20.8 14.1,37.3c9.6,1.4 28.9,-0.8 42.9,-2.5c-4.6,-37.9 -18.4,-62.9 -40.8,-87.9c-20.1,12 -39.7,26.7 -55.9,42.7c13.6,23.3 26.7,48.5 28.3,78.7c28,-0.4 64.9,-2.1 88.5,0c4.2,67.9 -31.7,122.8 -47.4,145.6c-16.8,-18.9 -37.5,-29.9 -53.5,-49.5c12.6,-18.7 18.9,-34.9 25.6,-57.4c12.1,-1.7 25.7,1.3 40,5.6c-3.2,13.2 -8.1,34.6 -16.9,49.1c-1.4,0.3 -9.1,-6.5 -10.8,-6.7c6.3,-11.5 9.3,-20.3 12.4,-31.5c-4.7,-4.1 -9.5,-5.6 -15.9,-4.1c-5.2,14.4 -7.8,26.2 -18.2,43.3c14.8,12.7 19.3,15.8 34.4,26.8c23,-36.1 31.4,-66.5 34,-106.4c-25.4,-0.1 -47.4,-1.9 -72.3,0c-4.1,25 -13.1,64.4 -33.4,81.7c17.1,24.1 41.5,43.3 58.9,67c-26.8,34.2 -89.1,62.4 -123.6,65.3c-3.1,-22.7 -7,-53.2 -9.3,-71.8c24.7,-4.9 38.1,-13.4 59.5,-25.5c10.5,8.7 17.5,21.3 22.9,32.5c-8,6.4 -27.4,16.8 -42.3,23.2c-3.6,-0.4 -2.5,-8.2 -5.4,-11.5c10.5,-6.2 20,-6.2 29.8,-14.8c-2,-5.9 -2.5,-7.5 -6.3,-12.8c-16.3,7 -26.4,14.7 -41.9,19.7c1.5,18 2.7,24.5 6.4,41.2c23.3,-0.8 72.2,-30.4 89.6,-48.6c-18.4,-17.1 -30,-36.7 -50.5,-51.7c-22.2,19.7 -48.2,30.3 -78.9,34.1c-0.9,30 2,62.3 0,89.1c-57,3.1 -114,-18 -143.9,-43.3c15.1,-15.1 29.4,-37.1 48.7,-53.2c18.5,12.7 40,18.3 61.6,22.9c-4.1,14.8 -6.2,27 -11.6,38.6c-16.2,-4.4 -28.8,-5.9 -46.1,-14.2c-0.1,-2.5 6.2,-8.8 5.7,-11.6c10.4,4.5 15.5,8.2 31.8,11c3.9,-3.6 4.8,-8.3 5.6,-14.4c-17.3,-4.5 -29.2,-8.8 -46.1,-16.7c-10.6,11.6 -17.5,20.6 -27.3,33.3c32.4,18.5 61,28.4 105.7,31c1.6,-25.7 0.7,-50 0.5,-71.7c-33.4,-2.4 -60.1,-18.2 -84.8,-31.9c-21,16.6 -44.8,41.6 -63.1,60.8c-24.3,-14.1 -64.7,-75.6 -71.8,-134c23.6,-1.4 52,-2.8 72.5,-3.5c5.4,20.9 15.1,46.4 27.8,62.3c-3,3.1 -20.4,15.8 -31.4,24.4c-14.7,-15.6 -19.6,-29.6 -27.3,-45.7c0.5,-3.1 9.7,-8.2 12.7,-6.2c5.2,16.3 11.3,22.8 16.1,33.4c4.5,-3.8 8.6,-5.7 12.7,-10c-9.7,-13.1 -13.7,-29.6 -20.4,-45.8c-14.9,2.3 -25.5,2.3 -43.4,3.9c8.7,45.9 24.3,71.1 51.8,97.8c19.8,-16.1 36.1,-31.9 53.8,-49.7c-21,-18.2 -37.3,-48.3 -37.7,-84.3c-29.1,-0.9 -61.4,3.1 -89.6,0.8c-3.9,-57.6 20.8,-115.8 47.8,-148.7c14.4,13.1 40.5,32.2 54.3,47.6c-12.1,20.2 -22.8,42.5 -27.8,67.5c-19.2,1 -23.9,0.3 -40.2,-3.8c3.6,-21 6.2,-33.6 14.8,-51.8c4.5,0.7 9.9,4.5 11,6.6c-2.8,7.5 -7.8,19.9 -10.5,32.6c4.7,2 7.3,2.7 14.2,3c3.6,-14.7 14.6,-36.1 22.4,-51.4c-9.3,-9.1 -24,-19.7 -34.8,-27.3c-22.5,28.8 -32.4,71.4 -34.6,108.9c24,0.4 47.3,0.6 72.2,-0.4c1.5,-30.1 17.7,-62.9 36.3,-84.4c-13.5,-23.6 -45.6,-42.8 -61.3,-64.2c26,-26.4 62.6,-55.2 134.7,-67.9c0,19.1 0.2,68.2 0.7,72.8c-25.4,9.1 -35.6,10.9 -57,25c-11.5,-9.2 -20,-20 -25.7,-33.8c11.3,-7 24.7,-17.6 48.6,-22.9c1.5,0.7 1.1,8.9 2.5,10.2c-15.1,8.1 -19.7,7.4 -31.3,15.8c0.8,6.2 4.4,12 9,14.3c15.2,-10.4 21.2,-10.8 39.5,-18.2c-0.7,-15.8 -1.2,-29.7 -1.2,-43.7c-48.7,8.9 -71.6,28.3 -96.7,48.8c15.4,16.9 33.3,35 49.9,52c22.4,-16.7 50.6,-34.8 83.7,-33.2c0,-11.1 0,-68.4 0.5,-89c78.5,-2.1 123.1,32.4 154.1,58.1c-5.5,11.6 -44.1,51.4 -48.5,52.5zm-221.2,115.5c0,61.3 51.7,119.9 122.1,119.9c72.7,0 118.7,-63.1 118.7,-117.3c0,-36.6 -25.6,-122.9 -122.1,-122.9c-68.8,0 -118.7,65.3 -118.7,120.3z" id="svg_68"/>
    </g>
    <g id="svg_69" transform="matrix(1 0 0 1 0 0)">
     <defs>
      <circle cx="374.6" cy="375.4" id="SVGID_1_" r="226.5"/>
     </defs>
     <clipPath id="SVGID_00000050665416455497919650000012378041811693067399_">
      <use id="svg_70" overflow="visible" xlink:href="#SVGID_1_"/>
     </clipPath>
     <g clip-path="url(#SVGID_00000050665416455497919650000012378041811693067399_)" id="svg_71">
      <g id="svg_72">
       <path class="st0" d="m170.9,642.9c-19.7,0 -36.5,-14.1 -40.7,-34.4c-0.1,-0.2 -0.2,-0.9 -0.2,-0.9c-0.3,-1.3 -2.4,-12.7 -3.1,-23.9c-1,-12 2.7,-24 10.4,-33c21,-24.5 56.4,-61 106.3,-96c0,0 7.5,-5.2 7.7,-5.3c37.6,-25.6 78.2,-46.4 120.5,-62l8.7,-3.1c42.9,-14.9 87.5,-24.4 132.6,-28.2l9.4,-0.7c11.9,-0.8 24.1,-1.2 36.1,-1.2c24.6,0 49.7,1.6 74.4,4.9c13.8,1.8 25.7,10.7 31.8,23.7c5.4,11.4 5.7,24.6 1,36.3l-79.3,197.3c-6.4,16 -21.3,26.4 -37.9,26.4l-377.7,0l0,0.1z" id="svg_73"/>
       <path class="st0" d="m558.6,383.9c23.4,0 47,1.5 70.6,4.6c3.8,0.5 7.1,3.1 8.9,7c1.8,3.9 2,8.7 0.3,12.7l-79.3,197.3c-1.9,4.8 -6.1,7.9 -10.6,7.9l-377.6,0c-5.7,0 -10.5,-4.5 -11.9,-11c0,-0.1 0,-0.2 -0.1,-0.3c-0.1,-0.4 -2.1,-10.9 -2.6,-20.5c-0.5,-4.3 0.8,-8.4 3.4,-11.5c19.9,-23.2 53.5,-57.8 100.8,-91.1l7,-4.8c0.1,-0.1 0.2,-0.1 0.2,-0.2c35.7,-24.3 74.1,-44 114.2,-58.7l8.2,-2.9c40.5,-14.1 82.7,-23.1 125.4,-26.6l8.9,-0.6c11.3,-0.9 22.7,-1.3 34.2,-1.3m0,-59c-12.7,0 -25.5,0.4 -38.1,1.2l-0.2,0l-0.2,0l-8.9,0.6l-0.3,0l-0.3,0c-47.6,4 -94.7,14 -139.9,29.7l-0.2,0.1l-0.2,0.1l-8.2,2.9l-0.3,0.1l-0.3,0.1c-44.5,16.4 -87.2,38.3 -126.9,65.3c-0.3,0.2 -0.6,0.4 -0.9,0.6l-6.7,4.7l-0.2,0.1l-0.2,0.1c-52.4,36.8 -89.7,75.2 -111.7,100.9c-12.8,14.9 -19.1,34.6 -17.5,54.3c0.8,12.7 3.1,25.1 3.6,27.5l0,0.1l0,0.1c0.1,0.4 0.2,0.8 0.3,1.2c3.2,15.1 10.7,28.5 21.8,38.8c13.1,12.2 30.1,18.9 47.8,18.9l377.7,0c28.7,0 54.3,-17.6 65.3,-44.9l79.3,-197.2l0,0c7.8,-19.3 7.2,-41.1 -1.7,-59.9c-10.5,-22.2 -30.9,-37.3 -54.7,-40.4c-26,-3.3 -52.3,-5 -78.2,-5l0,0z" id="svg_74"/>
      </g>
      <g id="svg_75">
       <path class="st4" d="m516.1,395.3c-45.7,3.8 -86.9,13.5 -123.6,26.2c0.7,26.8 1.6,55.3 2.6,84.2c28.5,-5.1 59.6,-9.1 92.9,-11.3c11.8,-41.5 21.4,-75.7 28.1,-99.1z" id="svg_76"/>
       <path class="st5" d="m170.9,603.7l137.9,0c-8.3,-21 -16.1,-41.2 -23.3,-60.1c-55.4,18.5 -95,38.7 -116.4,51c-3.9,2.2 -2.5,9.1 1.8,9.1z" id="svg_77"/>
       <path class="st6" d="m293.5,541c7.5,19.8 15.6,40.9 24.3,62.8l72.7,0c-1.1,-28.3 -2.3,-57.6 -3.3,-86.6c-34.6,6.6 -66,14.9 -93.7,23.8z" id="svg_78"/>
       <path class="st7" d="m395.5,515.6c1,29.6 2.2,59.4 3.3,88.1l58.5,0c10,-35.8 19.5,-69.3 28,-99.4c-32,2.3 -62,6.2 -89.8,11.3z" id="svg_79"/>
       <path class="st7" d="m630.9,400.2c-0.6,-1.2 -1.6,-2 -2.7,-2.1c-36.5,-4.8 -71,-5.6 -103.4,-3.5c-6.4,22.7 -16.2,57.1 -28,99.2c30.9,-1.8 63.7,-2 98.2,-0.2l36,-89.6c0.5,-1.2 0.5,-2.6 -0.1,-3.8z" id="svg_80"/>
       <path class="st4" d="m494.1,503.7c-8.5,30.2 -18,64 -28.1,100l82.6,0c1.4,0 2.6,-0.9 3.2,-2.4l39.5,-98.2c-34.2,-1.6 -66.6,-1.3 -97.2,0.6z" id="svg_81"/>
       <path class="st6" d="m266.6,539.8c5,-1.8 10.2,-3.6 15.5,-5.4c-6.3,-16.8 -12.1,-32.6 -17.4,-47.1c-47.7,33.5 -81.1,68.4 -99.3,89.6c-2.8,3.3 0.4,8.8 4,6.7c20.1,-11.3 53.1,-28 97.2,-43.8z" id="svg_82"/>
       <path class="st5" d="m290.1,531.8c27.4,-8.8 59.9,-17.5 96.9,-24.5c-1,-28.4 -1.9,-56.4 -2.6,-82.8c-45,16.6 -82.7,37.7 -112.5,57.9c0,0 0,0 0,0c5.4,15.1 11.5,31.7 18.2,49.4z" id="svg_83"/>
      </g>
     </g>
    </g>
    <g id="svg_84">
     <g id="svg_85">
      <path class="st9" d="m225.3,484.3l22.1,-16.9l4.9,6.4l-29.5,22.5l-24.2,-31.8l7.4,-5.6l19.3,25.4z" id="svg_86"/>
      <path class="st9" d="m264.4,465.8l-7.6,5.1l-18.8,-27.6l7.6,-5.1l18.8,27.6z" id="svg_87"/>
      <path class="st9" d="m269.4,462.2l-17.4,-28.7l20,-12.1c2.2,-1.3 4.2,-2.2 6,-2.7c1.9,-0.5 3.5,-0.6 5.1,-0.4c1.5,0.2 2.9,0.7 4.1,1.6c1.2,0.9 2.2,2 3.1,3.4c1.3,2.2 1.9,4.3 1.7,6.4c-0.2,2.1 -1,4 -2.5,5.8l12.7,6.9l-8.7,5.2l-11.7,-6.4l-10.6,6.4l6,9.9l-7.8,4.7zm-5.9,-27.4l4.1,6.8l12.2,-7.4c0.9,-0.5 1.5,-1 2,-1.6c0.5,-0.5 0.8,-1 1,-1.5c0.2,-0.5 0.2,-1 0.1,-1.5c-0.1,-0.5 -0.3,-1 -0.6,-1.5c-0.3,-0.5 -0.7,-0.9 -1.1,-1.3s-0.9,-0.5 -1.4,-0.6c-0.5,-0.1 -1.1,0 -1.8,0.2c-0.7,0.2 -1.5,0.6 -2.3,1.1l-12.2,7.3z" id="svg_88"/>
      <path class="st9" d="m314.9,435.8l-8.1,4.3l-15.8,-29.6l8.1,-4.3l15.8,29.6z" id="svg_89"/>
      <path class="st9" d="m329.3,391.3l11,-5.2l-10.3,20.3l24.6,10.1l-10,4.7l-18.1,-7.4l-2.6,5.5l4.5,9.6l-8.3,3.9l-14.3,-30.3l8.3,-3.9l5.6,11.8l9.6,-19.1z" id="svg_90"/>
      <path class="st9" d="m394.5,369.3c-1.2,-0.1 -2.6,-0.1 -4.1,0.1c-1.3,0.1 -2.9,0.4 -4.6,0.7c-1.8,0.3 -3.8,0.9 -5.9,1.6c-1.6,0.6 -3,1.1 -4.1,1.7c-1.1,0.6 -2,1.1 -2.6,1.7c-0.6,0.6 -1.1,1.1 -1.2,1.7c-0.2,0.6 -0.2,1.1 0,1.7c0.2,0.6 0.6,1.1 1.2,1.4c0.6,0.3 1.4,0.5 2.3,0.5c1,0 2.2,0 3.6,-0.2c1.4,-0.2 3.1,-0.4 5,-0.6c3.3,-0.5 6.1,-0.8 8.6,-0.9c2.5,-0.1 4.7,0 6.5,0.5c1.8,0.4 3.3,1.1 4.5,2.2c1.2,1 2.1,2.5 2.7,4.3c0.7,1.9 0.8,3.7 0.4,5.5c-0.4,1.7 -1.2,3.4 -2.5,4.9c-1.3,1.5 -3.1,3 -5.3,4.3c-2.2,1.3 -4.9,2.5 -7.9,3.6c-1.7,0.6 -3.2,1.1 -4.7,1.4c-1.5,0.4 -2.9,0.7 -4.2,0.9c-1.3,0.2 -2.5,0.4 -3.6,0.4c-1.1,0.1 -2.1,0.1 -3,0.1c-2.1,0 -4,-0.2 -5.6,-0.6l2.1,-7.7c1.4,0.2 3,0.2 4.7,0.1c1.5,-0.1 3.2,-0.3 5.2,-0.6c2,-0.3 4.1,-0.9 6.5,-1.7c3.6,-1.2 6.1,-2.5 7.6,-3.8c1.5,-1.3 2,-2.5 1.5,-3.8c-0.2,-0.6 -0.6,-1.1 -1.1,-1.4c-0.5,-0.3 -1.2,-0.4 -2.2,-0.5c-1,0 -2.2,0.1 -3.7,0.2c-1.5,0.2 -3.3,0.4 -5.6,0.7c-3.6,0.5 -6.6,0.7 -9.1,0.7c-2.5,0 -4.6,-0.2 -6.4,-0.8c-1.7,-0.5 -3.1,-1.3 -4.1,-2.3c-1,-1 -1.8,-2.3 -2.4,-3.9c-0.5,-1.4 -0.7,-2.9 -0.6,-4.5c0.1,-1.6 0.7,-3.1 1.7,-4.6c1,-1.5 2.6,-3 4.7,-4.4c2.1,-1.4 4.9,-2.7 8.3,-3.9c3.3,-1.1 6.1,-1.9 8.6,-2.3c2.4,-0.4 4.5,-0.6 6.1,-0.6c1.9,0 3.5,0.1 4.8,0.4l-2.1,7.8z" id="svg_91"/>
      <path class="st9" d="m427.3,356.1c3.8,-1 7.3,-1.4 10.3,-1.2c3,0.1 5.7,0.7 7.9,1.8c2.2,1 4.1,2.5 5.5,4.4c1.4,1.9 2.5,4 3.1,6.5c0.6,2.5 0.7,4.9 0.3,7.2c-0.4,2.3 -1.3,4.5 -2.8,6.5c-1.5,2 -3.5,3.8 -6.1,5.3c-2.6,1.6 -5.8,2.8 -9.6,3.8c-3.8,1 -7.3,1.4 -10.3,1.2c-3,-0.1 -5.7,-0.7 -7.9,-1.8c-2.2,-1 -4.1,-2.5 -5.5,-4.4c-1.4,-1.9 -2.5,-4 -3.1,-6.5c-0.6,-2.5 -0.7,-4.9 -0.3,-7.2c0.4,-2.3 1.3,-4.5 2.8,-6.5c1.5,-2 3.5,-3.8 6.1,-5.3c2.6,-1.6 5.8,-2.9 9.6,-3.8zm17.9,13.6c-0.3,-1.4 -0.9,-2.6 -1.7,-3.8c-0.8,-1.1 -1.8,-2 -3.1,-2.7c-1.3,-0.7 -2.9,-1.1 -4.7,-1.2c-1.9,-0.1 -4,0.1 -6.5,0.8c-2.5,0.6 -4.5,1.4 -6.1,2.4c-1.6,1 -2.8,2.1 -3.6,3.3c-0.8,1.2 -1.3,2.5 -1.5,3.9c-0.2,1.4 -0.1,2.7 0.3,4.1c0.4,1.4 0.9,2.6 1.7,3.8c0.8,1.1 1.8,2 3.1,2.7c1.3,0.7 2.9,1.1 4.8,1.2c1.9,0.1 4,-0.1 6.5,-0.8c2.5,-0.6 4.5,-1.4 6.1,-2.4c1.6,-1 2.8,-2.1 3.6,-3.3c0.8,-1.2 1.3,-2.5 1.5,-3.9c0,-1.3 0,-2.7 -0.4,-4.1z" id="svg_92"/>
      <path class="st9" d="m471,374.6l23,-3.9l1.2,6.9l-32.1,5.4l-5.6,-33.1l9,-1.5l4.5,26.2z" id="svg_93"/>
      <path class="st9" d="m543.4,372.9l-9.9,0.9l-4,-6l-19.3,1.7l-2.8,6.6l-9.9,0.9l15.1,-35.1l9.7,-0.9l21.1,31.9zm-30,-10.6l11.7,-1.1l-6.8,-10.3l-4.9,11.4z" id="svg_94"/>
      <path class="st9" d="m546.9,373l-0.3,-33.6l23.4,-0.2c2.5,0 4.7,0.2 6.6,0.7c1.8,0.5 3.4,1.3 4.6,2.2c1.2,1 2.1,2.1 2.7,3.5c0.6,1.4 0.9,2.8 0.9,4.5c0,2.5 -0.6,4.6 -1.8,6.4c-1.2,1.7 -2.9,3 -5.1,3.7l7.4,12.5l-10.1,0.1l-6.8,-11.5l-12.4,0.1l0.1,11.5l-9.2,0.1zm8.8,-26.7l0.1,8l14.2,-0.1c1,0 1.8,-0.1 2.5,-0.3c0.7,-0.2 1.2,-0.5 1.6,-0.8c0.4,-0.4 0.7,-0.8 0.9,-1.3c0.2,-0.5 0.3,-1 0.2,-1.6c0,-0.6 -0.1,-1.2 -0.3,-1.6c-0.2,-0.5 -0.5,-0.9 -0.9,-1.2c-0.4,-0.3 -1,-0.6 -1.7,-0.8c-0.7,-0.2 -1.5,-0.3 -2.5,-0.3l-14.1,0z" id="svg_95"/>
     </g>
     <g id="svg_96">
      <text fill="#003f68" font-family="Sans-serif" font-size="63" font-weight="bold" id="svg_109" stroke-width="0" style="cursor: move;" text-anchor="middle" transform="rotate(-19.7309 361.835 321.986) matrix(1.32684 0 0 1 -154.366 3)" x="389.05" xml:space="preserve" y="340.69">LTD</text>
     </g>
    </g>
   </g>
  </g>
 </g>
</svg>