<?xml version="1.0" encoding="utf-8"?>
<!-- Generator: Adobe Illustrator 27.6.1, SVG Export Plug-In . SVG Version: 6.00 Build 0)  -->
<svg version="1.1" id="Слой_1" xmlns="http://www.w3.org/2000/svg" xmlns:xlink="http://www.w3.org/1999/xlink" x="0px" y="0px"
	 viewBox="0 0 753 753" style="enable-background:new 0 0 753 753;" xml:space="preserve">
<style type="text/css">
	.st0{fill:#FFFFFF;}
	.st1{fill:#FDBD00;}
	.st2{fill-rule:evenodd;clip-rule:evenodd;fill:#FFFDF8;}
	.st3{clip-path:url(#SVGID_00000182489798684104981100000000963545786160713876_);}
	.st4{fill:#006AB9;}
	.st5{fill:#00D2FF;}
	.st6{fill:#00A9E5;}
	.st7{fill:#008BE4;}
	.st8{fill-rule:evenodd;clip-rule:evenodd;fill:#FDBD00;}
	.st9{fill:#004068;}
	.st10{fill:#111110;}
	.st11{clip-path:url(#SVGID_00000127028734199383671330000003549817221031157169_);}
</style>
<g>
	<g>
		<g>
			<path class="st0" d="M287.3,156c-3.3-3.1-7.1-6.1-11.1-8.9c-3.9-2.7-8.1-5.2-12.6-7.6c-0.9-0.5-1.8-0.9-2.7-1.4
				c-2.9-1.4-5.7-3-8.4-4.6c-3.9-2.3-7.8-4.9-11.5-7.7c-3.8-2.8-7.6-5.9-11.2-9.2c-3-2.7-6-5.6-8.9-8.7
				c-5.4-5.7-10.5-11.9-15.4-18.6c-0.1-0.2-0.2-0.3-0.4-0.5c-3.7,20.3-3.3,40.6,1.3,60.1c4.3,18.4,12.2,35.2,23.1,50
				c5.4-4.4,10.9-8.6,16.6-12.6c-9.4-13-16.2-27.6-20-43.6c-0.2-0.8-0.4-1.7-0.6-2.5c0-0.1-0.1-0.3-0.1-0.4c3.2,2.5,6.5,4.8,9.9,6.9
				c4.6,3,9.4,5.7,14.2,8.1c9.4,4.7,17.1,9.8,23.1,15.7c0.5-0.2,1-0.5,1.5-0.7c6-3,12.2-5.8,18.6-8.2
				C291.1,159.7,289.2,157.8,287.3,156z"/>
			<g>
				<path class="st1" d="M312.4,154.6c-6.3-8.4-14.5-16-24.4-22.7c-4.3-2.9-9-5.7-14-8.3l-0.4-0.2c-0.8-0.4-1.5-0.8-2.3-1.2
					c-28.1-14-51.6-40.3-69.7-78l-0.9-1.8l-0.8,1.8c-16.4,36.6-20.6,74.8-12.2,110.5c4.9,20.9,14,40.3,27.1,57.4l0.6,0.8l0.8-0.7
					c4.5-4.4,9.2-8.6,13.9-12.5l0.7-0.6l-0.5-0.7c-11-14.9-18.7-31.7-23-49.7c-4.4-18.6-4.9-38-1.7-57.6c4.6,6.3,9.5,12.1,14.5,17.4
					c2.8,3,5.8,5.9,8.9,8.7c3.7,3.3,7.5,6.4,11.3,9.3c3.8,2.8,7.7,5.4,11.6,7.7c2.8,1.7,5.7,3.2,8.5,4.6c0.9,0.4,1.8,0.9,2.6,1.4
					c4.5,2.4,8.7,4.9,12.5,7.5c4,2.8,7.7,5.7,11,8.8c2,1.8,3.8,3.7,5.5,5.6l0.4,0.5l0.6-0.2c6.1-2.4,12.4-4.6,18.8-6.4l1.3-0.4
					L312.4,154.6z"/>
				<path class="st1" d="M249.8,154.5c-4.8-2.4-9.5-5.1-14.2-8.1c-3.4-2.2-6.7-4.5-9.9-6.9l-1.1-0.9l0.4,1.8
					c0.2,0.8,0.4,1.7,0.6,2.5c3.7,15.8,10.5,30.6,20.1,43.8l0.3,0.4l0.4-0.3c2.9-2,5.9-3.9,8.9-5.8c5.7-3.6,11.7-6.9,17.7-9.9
					l0.7-0.3l-0.5-0.5C267,164.4,259.4,159.3,249.8,154.5z"/>
			</g>
		</g>
		<g>
			<path class="st0" d="M189.7,228.9c-4.5-1-9.2-1.7-14.1-2.1c-4.7-0.4-9.6-0.5-14.7-0.2c-1,0-2,0.1-3,0.1c-3.2,0.2-6.4,0.3-9.6,0.2
				c-4.6-0.1-9.2-0.3-13.8-0.9c-4.7-0.5-9.5-1.3-14.3-2.4c-4-0.9-8-1.9-12-3.1c-7.5-2.2-15-5-22.6-8.4c-0.2-0.1-0.4-0.2-0.6-0.2
				c7,19.4,17.5,36.8,31.2,51.4c12.9,13.7,28.2,24.4,45,31.8c2.4-6.5,5.1-12.9,8.1-19.2c-14.6-6.5-27.9-15.8-39.1-27.8
				c-0.6-0.6-1.2-1.3-1.7-1.9c-0.1-0.1-0.2-0.2-0.3-0.3c4,0.5,8,0.9,12,1c5.5,0.3,10.9,0.2,16.4-0.1c10.5-0.6,19.7,0,27.9,2
				c0.3-0.5,0.6-0.9,0.9-1.4c3.7-5.6,7.7-11.1,12-16.4C194.8,230.3,192.3,229.6,189.7,228.9z"/>
			<g>
				<path class="st1" d="M210.7,215.2c-9.7-4.1-20.6-6.6-32.5-7.5c-5.2-0.4-10.7-0.5-16.3-0.2l-0.5,0c-0.9,0-1.7,0.1-2.6,0.1
					c-31.3,1.9-64.8-9.1-99.4-32.6l-1.7-1.1l0.2,2c4.1,39.9,19.6,75.1,44.6,101.8c14.7,15.7,32.3,27.9,52.2,36.2l1,0.4l0.3-1
					c1.7-6.1,3.7-12,5.8-17.8l0.3-0.8l-0.8-0.4c-17-7.4-32.1-18.1-44.7-31.6c-13.1-13.9-23.3-30.4-30.2-49
					c7.1,3.1,14.3,5.8,21.3,7.8c3.9,1.2,8,2.2,12.1,3.1c4.8,1,9.7,1.8,14.4,2.4c4.7,0.5,9.3,0.8,13.9,0.9c3.3,0,6.6,0,9.7-0.2
					c1-0.1,2-0.1,3-0.1c5.1-0.2,10-0.1,14.6,0.2c4.9,0.4,9.6,1.1,13.9,2.1c2.6,0.6,5.2,1.3,7.5,2.1l0.6,0.2l0.4-0.5
					c4.1-5.1,8.5-10.2,13.1-15l0.9-1L210.7,215.2z"/>
				<path class="st1" d="M156.5,246.4c-5.3,0.3-10.8,0.4-16.3,0.1c-4-0.2-8.1-0.5-12-1l-1.4-0.2l1.2,1.4c0.6,0.6,1.2,1.3,1.7,1.9
					c11.1,11.9,24.4,21.2,39.3,27.9l0.5,0.2l0.2-0.5c1.5-3.1,3.1-6.3,4.8-9.5c3.2-5.9,6.6-11.8,10.3-17.4l0.4-0.6l-0.7-0.2
					C176.3,246.4,167.2,245.7,156.5,246.4z"/>
			</g>
		</g>
		<g>
			<path class="st0" d="M141.6,340.9c-4.4,1.3-8.8,3.1-13.3,5.2c-4.3,2-8.5,4.4-12.9,7.2c-0.8,0.5-1.7,1.1-2.5,1.6
				c-2.7,1.8-5.4,3.4-8.2,5c-4,2.2-8.1,4.3-12.4,6.1c-4.4,1.9-8.9,3.6-13.6,5.1c-3.9,1.3-7.9,2.4-12,3.4c-7.6,1.8-15.5,3.1-23.8,4
				c-0.2,0-0.4,0-0.6,0.1c15.8,13.4,33.6,23.2,52.7,28.9c18.1,5.4,36.6,7,54.9,5c-1.2-6.9-2-13.8-2.6-20.7
				c-15.9,1.7-32.1,0.2-47.8-4.5c-0.8-0.2-1.6-0.5-2.5-0.8c-0.1,0-0.2-0.1-0.4-0.1c3.7-1.6,7.4-3.3,10.9-5.1
				c4.9-2.5,9.6-5.3,14.1-8.3c8.8-5.8,17.1-9.9,25.1-12.2c0-0.5,0.1-1.1,0.1-1.6c0.4-6.7,1.1-13.5,2.1-20.2
				C146.7,339.5,144.2,340.2,141.6,340.9z"/>
			<g>
				<path class="st1" d="M153,318.5c-10.4,1.3-21.2,4.6-31.8,9.7c-4.7,2.3-9.5,4.9-14.2,7.9l-0.4,0.3c-0.7,0.5-1.4,0.9-2.2,1.4
					C78.2,355.2,43.7,362.4,2,359.3l-2-0.1l1.2,1.6c23.5,32.5,54.5,55.3,89.6,65.8c20.6,6.2,41.9,8,63.3,5.3l1-0.1l-0.3-1
					c-1.6-6.1-2.9-12.3-3.9-18.3l-0.1-0.9l-0.9,0.1c-18.4,2.1-36.8,0.4-54.5-5c-18.3-5.5-35.4-14.7-50.7-27.4
					c7.7-0.9,15.3-2.2,22.3-3.8c4-0.9,8-2.1,12-3.4c4.7-1.5,9.3-3.3,13.7-5.2c4.3-1.9,8.5-4,12.5-6.2c2.9-1.6,5.7-3.3,8.3-5
					c0.8-0.6,1.7-1.1,2.5-1.6c4.3-2.7,8.6-5.1,12.8-7.1c4.4-2.1,8.8-3.8,13.1-5.1c2.6-0.8,5.1-1.4,7.6-1.9l0.6-0.1l0.1-0.6
					c1-6.5,2.3-13,3.8-19.5l0.3-1.3L153,318.5z"/>
				<path class="st1" d="M121.6,372.6c-4.4,2.9-9.2,5.7-14.1,8.2c-3.6,1.9-7.3,3.6-10.9,5.1l-1.3,0.6L97,387
					c0.8,0.3,1.6,0.5,2.5,0.8c15.6,4.7,31.7,6.2,48,4.5l0.5-0.1l0-0.5c-0.3-3.5-0.5-7-0.6-10.6c-0.2-6.7-0.2-13.5,0.2-20.3l0-0.8
					l-0.7,0.2C138.8,362.7,130.5,366.7,121.6,372.6z"/>
			</g>
		</g>
		<g>
			<path class="st0" d="M156,462c-3.1,3.3-6.1,7.1-8.9,11.1c-2.7,3.9-5.2,8.1-7.6,12.6c-0.5,0.9-0.9,1.8-1.4,2.7
				c-1.4,2.9-3,5.7-4.6,8.4c-2.3,3.9-4.9,7.8-7.7,11.5c-2.8,3.8-5.9,7.6-9.2,11.2c-2.7,3-5.6,6-8.7,8.9
				c-5.7,5.4-11.9,10.5-18.6,15.4c-0.2,0.1-0.3,0.2-0.5,0.4c20.3,3.7,40.6,3.3,60.1-1.3c18.4-4.3,35.2-12.2,50-23.1
				c-4.4-5.4-8.6-10.9-12.6-16.6c-13,9.4-27.6,16.2-43.6,20c-0.8,0.2-1.7,0.4-2.5,0.6c-0.1,0-0.3,0.1-0.4,0.1
				c2.5-3.2,4.8-6.5,6.9-9.9c3-4.6,5.7-9.4,8.1-14.2c4.7-9.4,9.8-17.1,15.7-23.1c-0.2-0.5-0.5-1-0.7-1.5c-3-6-5.8-12.2-8.2-18.6
				C159.7,458.1,157.8,460,156,462z"/>
			<g>
				<path class="st1" d="M154.6,436.8c-8.4,6.3-16,14.5-22.7,24.4c-2.9,4.3-5.7,9-8.3,14l-0.2,0.4c-0.4,0.8-0.8,1.5-1.2,2.3
					c-14,28.1-40.3,51.6-78,69.7l-1.8,0.9l1.8,0.8c36.6,16.4,74.8,20.6,110.5,12.2c20.9-4.9,40.3-14,57.4-27.1l0.8-0.6l-0.7-0.8
					c-4.4-4.5-8.6-9.2-12.5-13.9l-0.6-0.7l-0.7,0.5c-14.9,11-31.7,18.7-49.7,23c-18.6,4.4-38,4.9-57.6,1.7
					c6.3-4.6,12.1-9.5,17.4-14.5c3-2.8,5.9-5.8,8.7-8.9c3.3-3.7,6.4-7.5,9.3-11.3c2.8-3.8,5.4-7.7,7.7-11.6c1.7-2.8,3.2-5.7,4.6-8.5
					c0.4-0.9,0.9-1.8,1.4-2.6c2.4-4.5,4.9-8.7,7.5-12.5c2.8-4,5.7-7.7,8.8-11c1.8-2,3.7-3.8,5.6-5.5l0.5-0.4l-0.2-0.6
					c-2.4-6.1-4.6-12.4-6.4-18.8l-0.4-1.3L154.6,436.8z"/>
				<path class="st1" d="M154.5,499.4c-2.4,4.8-5.1,9.5-8.1,14.2c-2.2,3.4-4.5,6.7-6.9,9.9l-0.9,1.1l1.8-0.4
					c0.8-0.2,1.7-0.4,2.5-0.6c15.8-3.7,30.6-10.5,43.8-20.1l0.4-0.3l-0.3-0.4c-2-2.9-3.9-5.9-5.8-8.9c-3.6-5.7-6.9-11.7-9.9-17.7
					l-0.3-0.7l-0.5,0.5C164.4,482.2,159.3,489.8,154.5,499.4z"/>
			</g>
		</g>
		<g>
			<path class="st0" d="M228.9,559.6c-1,4.5-1.7,9.2-2.1,14.1c-0.4,4.7-0.5,9.6-0.2,14.7c0,1,0.1,2,0.1,3c0.2,3.2,0.3,6.4,0.2,9.6
				c-0.1,4.6-0.3,9.2-0.9,13.8c-0.5,4.7-1.3,9.5-2.4,14.3c-0.9,4-1.9,8-3.1,12c-2.2,7.5-5,15-8.4,22.6c-0.1,0.2-0.2,0.4-0.2,0.6
				c19.4-7,36.8-17.5,51.4-31.2c13.7-12.9,24.4-28.2,31.8-45c-6.5-2.4-12.9-5.1-19.2-8.1c-6.5,14.6-15.8,27.9-27.8,39.1
				c-0.6,0.6-1.3,1.2-1.9,1.7c-0.1,0.1-0.2,0.2-0.3,0.3c0.5-4,0.9-8,1-12c0.3-5.5,0.2-10.9-0.1-16.4c-0.6-10.5,0-19.7,2-27.9
				c-0.5-0.3-0.9-0.6-1.4-0.9c-5.6-3.7-11.1-7.7-16.4-12C230.3,554.4,229.6,556.9,228.9,559.6z"/>
			<g>
				<path class="st1" d="M215.2,538.5c-4.1,9.7-6.6,20.6-7.5,32.5c-0.4,5.2-0.5,10.7-0.2,16.3l0,0.5c0,0.9,0.1,1.7,0.1,2.6
					c1.9,31.3-9.1,64.8-32.6,99.4l-1.1,1.7l2-0.2c39.9-4.1,75.1-19.6,101.8-44.6c15.7-14.7,27.9-32.3,36.2-52.2l0.4-1l-1-0.3
					c-6.1-1.7-12-3.7-17.8-5.8l-0.8-0.3l-0.4,0.8c-7.4,17-18.1,32.1-31.6,44.7c-13.9,13.1-30.4,23.3-49,30.2
					c3.1-7.1,5.8-14.3,7.8-21.3c1.2-3.9,2.2-8,3.1-12.1c1-4.8,1.8-9.7,2.4-14.4c0.5-4.7,0.8-9.3,0.9-13.9c0-3.3,0-6.6-0.2-9.7
					c-0.1-1-0.1-2-0.1-3c-0.2-5.1-0.1-10,0.2-14.6c0.4-4.9,1.1-9.6,2.1-13.9c0.6-2.6,1.3-5.2,2.1-7.5l0.2-0.6l-0.5-0.4
					c-5.1-4.1-10.2-8.5-15-13.1l-1-0.9L215.2,538.5z"/>
				<path class="st1" d="M246.4,592.7c0.3,5.3,0.4,10.8,0.1,16.3c-0.2,4-0.5,8.1-1,12l-0.2,1.4l1.4-1.2c0.6-0.6,1.3-1.2,1.9-1.7
					c11.9-11.1,21.2-24.4,27.9-39.3l0.2-0.5l-0.5-0.2c-3.1-1.5-6.3-3.1-9.5-4.8c-5.9-3.2-11.8-6.6-17.4-10.3l-0.6-0.4l-0.2,0.7
					C246.4,572.9,245.7,582,246.4,592.7z"/>
			</g>
		</g>
		<g>
			<path class="st0" d="M340.9,607.6c1.3,4.4,3.1,8.8,5.2,13.3c2,4.3,4.4,8.5,7.2,12.9c0.5,0.8,1.1,1.7,1.6,2.5
				c1.8,2.7,3.4,5.4,5,8.2c2.2,4,4.3,8.1,6.1,12.4c1.9,4.4,3.6,8.9,5.1,13.6c1.3,3.9,2.4,7.9,3.4,12c1.8,7.6,3.1,15.5,4,23.8
				c0,0.2,0,0.4,0.1,0.6c13.4-15.8,23.2-33.6,28.9-52.7c5.4-18.1,7-36.6,5-54.9c-6.9,1.2-13.8,2-20.7,2.6
				c1.7,15.9,0.2,32.1-4.5,47.8c-0.2,0.8-0.5,1.6-0.8,2.5c0,0.1-0.1,0.2-0.1,0.4c-1.6-3.7-3.3-7.4-5.1-10.9
				c-2.5-4.9-5.3-9.6-8.3-14.1c-5.8-8.8-9.9-17.1-12.2-25.1c-0.5,0-1.1-0.1-1.6-0.1c-6.7-0.4-13.5-1.1-20.2-2.1
				C339.5,602.5,340.2,605,340.9,607.6z"/>
			<g>
				<path class="st1" d="M318.5,596.2c1.3,10.4,4.6,21.2,9.7,31.8c2.3,4.7,4.9,9.5,7.9,14.2l0.3,0.4c0.5,0.7,0.9,1.4,1.4,2.2
					c17.3,26.2,24.5,60.6,21.4,102.4l-0.1,2l1.6-1.2c32.5-23.5,55.3-54.5,65.8-89.6c6.2-20.6,8-41.9,5.3-63.3l-0.1-1l-1,0.3
					c-6.1,1.6-12.3,2.9-18.3,3.9l-0.9,0.1l0.1,0.9c2.1,18.4,0.4,36.8-5,54.5c-5.5,18.3-14.7,35.4-27.4,50.7
					c-0.9-7.7-2.2-15.3-3.8-22.3c-0.9-4-2.1-8-3.4-12c-1.5-4.7-3.3-9.3-5.2-13.7c-1.9-4.3-4-8.5-6.2-12.5c-1.6-2.9-3.3-5.7-5-8.3
					c-0.6-0.8-1.1-1.7-1.6-2.5c-2.7-4.3-5.1-8.6-7.1-12.8c-2.1-4.4-3.8-8.8-5.1-13.1c-0.8-2.6-1.4-5.1-1.9-7.6l-0.1-0.6l-0.6-0.1
					c-6.5-1-13-2.3-19.5-3.8l-1.3-0.3L318.5,596.2z"/>
				<path class="st1" d="M372.6,627.6c2.9,4.4,5.7,9.2,8.2,14.1c1.9,3.6,3.6,7.3,5.1,10.9l0.6,1.3l0.6-1.7c0.3-0.8,0.5-1.6,0.8-2.5
					c4.7-15.6,6.2-31.7,4.5-48l-0.1-0.5l-0.5,0c-3.5,0.3-7,0.5-10.6,0.6c-6.7,0.2-13.5,0.2-20.3-0.2l-0.8,0l0.2,0.7
					C362.7,610.4,366.7,618.7,372.6,627.6z"/>
			</g>
		</g>
		<g>
			<path class="st0" d="M462,593.2c3.3,3.1,7.1,6.1,11.1,8.9c3.9,2.7,8.1,5.2,12.6,7.6c0.9,0.5,1.8,0.9,2.7,1.4
				c2.9,1.4,5.7,3,8.4,4.6c3.9,2.3,7.8,4.9,11.5,7.7c3.8,2.8,7.6,5.9,11.2,9.2c3,2.7,6,5.6,8.9,8.7c5.4,5.7,10.5,11.9,15.4,18.6
				c0.1,0.2,0.2,0.3,0.4,0.5c3.7-20.3,3.3-40.6-1.3-60.1c-4.3-18.4-12.2-35.2-23.1-50c-5.4,4.4-10.9,8.6-16.6,12.6
				c9.4,13,16.2,27.6,20,43.6c0.2,0.8,0.4,1.7,0.6,2.5c0,0.1,0.1,0.3,0.1,0.4c-3.2-2.5-6.5-4.8-9.9-6.9c-4.6-3-9.4-5.7-14.2-8.1
				c-9.4-4.7-17.1-9.8-23.1-15.7c-0.5,0.2-1,0.5-1.5,0.7c-6,3-12.2,5.8-18.6,8.2C458.1,589.5,460,591.4,462,593.2z"/>
			<g>
				<path class="st1" d="M436.8,594.6c6.3,8.4,14.5,16,24.4,22.7c4.3,2.9,9,5.7,14,8.3l0.4,0.2c0.8,0.4,1.5,0.8,2.3,1.2
					c28.1,14,51.6,40.3,69.7,78l0.9,1.8l0.8-1.8c16.4-36.6,20.6-74.8,12.2-110.5c-4.9-20.9-14-40.3-27.1-57.4l-0.6-0.8l-0.8,0.7
					c-4.5,4.4-9.2,8.6-13.9,12.5l-0.7,0.6l0.5,0.7c11,14.9,18.7,31.7,23,49.7c4.4,18.6,4.9,38,1.7,57.6c-4.6-6.3-9.5-12.1-14.5-17.4
					c-2.8-3-5.8-5.9-8.9-8.7c-3.7-3.3-7.5-6.4-11.3-9.3c-3.8-2.8-7.7-5.4-11.6-7.7c-2.8-1.7-5.7-3.2-8.5-4.6
					c-0.9-0.4-1.8-0.9-2.6-1.4c-4.5-2.4-8.7-4.9-12.5-7.5c-4-2.8-7.7-5.7-11-8.8c-2-1.8-3.8-3.7-5.5-5.6l-0.4-0.5l-0.6,0.2
					c-6.1,2.4-12.4,4.6-18.8,6.4l-1.3,0.4L436.8,594.6z"/>
				<path class="st1" d="M499.4,594.7c4.8,2.4,9.5,5.1,14.2,8.1c3.4,2.2,6.7,4.5,9.9,6.9l1.1,0.9l-0.4-1.8c-0.2-0.8-0.4-1.7-0.6-2.5
					c-3.7-15.8-10.5-30.6-20.1-43.8l-0.3-0.4l-0.4,0.3c-2.9,2-5.9,3.9-8.9,5.8c-5.7,3.6-11.7,6.9-17.7,9.9l-0.7,0.3l0.5,0.5
					C482.2,584.8,489.8,589.9,499.4,594.7z"/>
			</g>
		</g>
		<g>
			<path class="st0" d="M559.6,520.3c4.5,1,9.2,1.7,14.1,2.1c4.7,0.4,9.6,0.5,14.7,0.2c1,0,2-0.1,3-0.1c3.2-0.2,6.4-0.3,9.6-0.2
				c4.6,0.1,9.2,0.3,13.8,0.9c4.7,0.5,9.5,1.3,14.3,2.4c4,0.9,8,1.9,12,3.1c7.5,2.2,15,5,22.6,8.4c0.2,0.1,0.4,0.2,0.6,0.2
				c-7-19.4-17.5-36.8-31.2-51.4c-12.9-13.7-28.2-24.4-45-31.8c-2.4,6.5-5.1,12.9-8.1,19.2c14.6,6.5,27.9,15.8,39.1,27.8
				c0.6,0.6,1.2,1.3,1.7,1.9c0.1,0.1,0.2,0.2,0.3,0.3c-4-0.5-8-0.9-12-1c-5.5-0.3-10.9-0.2-16.4,0.1c-10.5,0.6-19.7,0-27.9-2
				c-0.3,0.5-0.6,0.9-0.9,1.4c-3.7,5.6-7.7,11.1-12,16.4C554.4,519,556.9,519.7,559.6,520.3z"/>
			<g>
				<path class="st1" d="M538.5,534c9.7,4.1,20.6,6.6,32.5,7.5c5.2,0.4,10.7,0.5,16.3,0.2l0.5,0c0.9,0,1.7-0.1,2.6-0.1
					c31.3-1.9,64.8,9.1,99.4,32.6l1.7,1.1l-0.2-2c-4.1-39.9-19.6-75.1-44.6-101.8c-14.7-15.7-32.3-27.9-52.2-36.2l-1-0.4l-0.3,1
					c-1.7,6.1-3.7,12-5.8,17.8l-0.3,0.8l0.8,0.4c17,7.4,32.1,18.1,44.7,31.6c13.1,13.9,23.3,30.4,30.2,49
					c-7.1-3.1-14.3-5.8-21.3-7.8c-3.9-1.2-8-2.2-12.1-3.1c-4.8-1-9.7-1.8-14.4-2.4c-4.7-0.5-9.3-0.8-13.9-0.9c-3.3,0-6.6,0-9.7,0.2
					c-1,0.1-2,0.1-3,0.1c-5.1,0.2-10,0.1-14.6-0.2c-4.9-0.4-9.6-1.1-13.9-2.1c-2.6-0.6-5.2-1.3-7.5-2.1l-0.6-0.2l-0.4,0.5
					c-4.1,5.1-8.5,10.2-13.1,15l-0.9,1L538.5,534z"/>
				<path class="st1" d="M592.7,502.8c5.3-0.3,10.8-0.4,16.3-0.1c4,0.2,8.1,0.5,12,1l1.4,0.2l-1.2-1.4c-0.6-0.6-1.2-1.3-1.7-1.9
					c-11.1-11.9-24.4-21.2-39.3-27.9l-0.5-0.2l-0.2,0.5c-1.5,3.1-3.1,6.3-4.8,9.5c-3.2,5.9-6.6,11.8-10.3,17.4l-0.4,0.6l0.7,0.2
					C572.9,502.8,582,503.5,592.7,502.8z"/>
			</g>
		</g>
		<g>
			<path class="st0" d="M607.6,408.3c4.4-1.3,8.8-3.1,13.3-5.2c4.3-2,8.5-4.4,12.9-7.2c0.8-0.5,1.7-1.1,2.5-1.6
				c2.7-1.8,5.4-3.4,8.2-5c4-2.2,8.1-4.3,12.4-6.1c4.4-1.9,8.9-3.6,13.6-5.1c3.9-1.3,7.9-2.4,12-3.4c7.6-1.8,15.5-3.1,23.8-4
				c0.2,0,0.4,0,0.6-0.1c-15.8-13.4-33.6-23.2-52.7-28.9c-18.1-5.4-36.6-7-54.9-5c1.2,6.9,2,13.8,2.6,20.7
				c15.9-1.7,32.1-0.2,47.8,4.5c0.8,0.2,1.6,0.5,2.5,0.8c0.1,0,0.2,0.1,0.4,0.1c-3.7,1.6-7.4,3.3-10.9,5.1
				c-4.9,2.5-9.6,5.3-14.1,8.3c-8.8,5.8-17.1,9.9-25.1,12.2c0,0.5-0.1,1.1-0.1,1.6c-0.4,6.7-1.1,13.5-2.1,20.2
				C602.5,409.7,605,409.1,607.6,408.3z"/>
			<g>
				<path class="st1" d="M596.2,430.7c10.4-1.3,21.2-4.6,31.8-9.7c4.7-2.3,9.5-4.9,14.2-7.9l0.4-0.3c0.7-0.5,1.4-0.9,2.2-1.4
					c26.2-17.3,60.6-24.5,102.4-21.4l2,0.1l-1.2-1.6c-23.5-32.5-54.5-55.3-89.6-65.8c-20.6-6.2-41.9-8-63.3-5.3l-1,0.1l0.3,1
					c1.6,6.1,2.9,12.3,3.9,18.3l0.1,0.9l0.9-0.1c18.4-2.1,36.8-0.4,54.5,5c18.3,5.5,35.4,14.7,50.7,27.4c-7.7,0.9-15.3,2.2-22.3,3.8
					c-4,0.9-8,2.1-12,3.4c-4.7,1.5-9.3,3.3-13.7,5.2c-4.3,1.9-8.5,4-12.5,6.2c-2.9,1.6-5.7,3.3-8.3,5c-0.8,0.6-1.7,1.1-2.5,1.6
					c-4.3,2.7-8.6,5.1-12.8,7.1c-4.4,2.1-8.8,3.8-13.1,5.1c-2.6,0.8-5.1,1.4-7.6,1.9l-0.6,0.1l-0.1,0.6c-1,6.5-2.3,13-3.8,19.5
					l-0.3,1.3L596.2,430.7z"/>
				<path class="st1" d="M627.6,376.6c4.4-2.9,9.2-5.7,14.1-8.2c3.6-1.9,7.3-3.6,10.9-5.1l1.3-0.6l-1.7-0.6
					c-0.8-0.3-1.6-0.5-2.5-0.8c-15.6-4.7-31.7-6.2-48-4.5l-0.5,0.1l0,0.5c0.3,3.5,0.5,7,0.6,10.6c0.2,6.7,0.2,13.5-0.2,20.3l0,0.8
					l0.7-0.2C610.4,386.5,618.7,382.5,627.6,376.6z"/>
			</g>
		</g>
		<g>
			<path class="st0" d="M593.2,287.3c3.1-3.3,6.1-7.1,8.9-11.1c2.7-3.9,5.2-8.1,7.6-12.6c0.5-0.9,0.9-1.8,1.4-2.7
				c1.4-2.9,3-5.7,4.6-8.4c2.3-3.9,4.9-7.8,7.7-11.5c2.8-3.8,5.9-7.6,9.2-11.2c2.7-3,5.6-6,8.7-8.9c5.7-5.4,11.9-10.5,18.6-15.4
				c0.2-0.1,0.3-0.2,0.5-0.4c-20.3-3.7-40.6-3.3-60.1,1.3c-18.4,4.3-35.2,12.2-50,23.1c4.4,5.4,8.6,10.9,12.6,16.6
				c13-9.4,27.6-16.2,43.6-20c0.8-0.2,1.7-0.4,2.5-0.6c0.1,0,0.3-0.1,0.4-0.1c-2.5,3.2-4.8,6.5-6.9,9.9c-3,4.6-5.7,9.4-8.1,14.2
				c-4.7,9.4-9.8,17.1-15.7,23.1c0.2,0.5,0.5,1,0.7,1.5c3,6,5.8,12.2,8.2,18.6C589.5,291.1,591.4,289.2,593.2,287.3z"/>
			<g>
				<path class="st1" d="M594.6,312.4c8.4-6.3,16-14.5,22.7-24.4c2.9-4.3,5.7-9,8.3-14l0.2-0.4c0.4-0.8,0.8-1.5,1.2-2.3
					c14-28.1,40.3-51.6,78-69.7l1.8-0.9l-1.8-0.8c-36.6-16.4-74.8-20.6-110.5-12.2c-20.9,4.9-40.3,14-57.4,27.1l-0.8,0.6l0.7,0.8
					c4.4,4.5,8.6,9.2,12.5,13.9l0.6,0.7l0.7-0.5c14.9-11,31.7-18.7,49.7-23c18.6-4.4,38-4.9,57.6-1.7c-6.3,4.6-12.1,9.5-17.4,14.5
					c-3,2.8-5.9,5.8-8.7,8.9c-3.3,3.7-6.4,7.5-9.3,11.3c-2.8,3.8-5.4,7.7-7.7,11.6c-1.7,2.8-3.2,5.7-4.6,8.5
					c-0.4,0.9-0.9,1.8-1.4,2.6c-2.4,4.5-4.9,8.7-7.5,12.5c-2.8,4-5.7,7.7-8.8,11c-1.8,2-3.7,3.8-5.6,5.5l-0.5,0.4l0.2,0.6
					c2.4,6.1,4.6,12.4,6.4,18.8l0.4,1.3L594.6,312.4z"/>
				<path class="st1" d="M594.7,249.8c2.4-4.8,5.1-9.5,8.1-14.2c2.2-3.4,4.5-6.7,6.9-9.9l0.9-1.1l-1.8,0.4c-0.8,0.2-1.7,0.4-2.5,0.6
					c-15.8,3.7-30.6,10.5-43.8,20.1L562,246l0.3,0.4c2,2.9,3.9,5.9,5.8,8.9c3.6,5.7,6.9,11.7,9.9,17.7l0.3,0.7l0.5-0.5
					C584.8,267,589.9,259.4,594.7,249.8z"/>
			</g>
		</g>
		<g>
			<path class="st0" d="M520.3,189.7c1-4.5,1.7-9.2,2.1-14.1c0.4-4.7,0.5-9.6,0.2-14.7c0-1-0.1-2-0.1-3c-0.2-3.2-0.3-6.4-0.2-9.6
				c0.1-4.6,0.3-9.2,0.9-13.8c0.5-4.7,1.3-9.5,2.4-14.3c0.9-4,1.9-8,3.1-12c2.2-7.5,5-15,8.4-22.6c0.1-0.2,0.2-0.4,0.2-0.6
				c-19.4,7-36.8,17.5-51.4,31.2c-13.7,12.9-24.4,28.2-31.8,45c6.5,2.4,12.9,5.1,19.2,8.1c6.5-14.6,15.8-27.9,27.8-39.1
				c0.6-0.6,1.3-1.2,1.9-1.7c0.1-0.1,0.2-0.2,0.3-0.3c-0.5,4-0.9,8-1,12c-0.3,5.5-0.2,10.9,0.1,16.4c0.6,10.5,0,19.7-2,27.9
				c0.5,0.3,0.9,0.6,1.4,0.9c5.6,3.7,11.1,7.7,16.4,12C519,194.8,519.7,192.3,520.3,189.7z"/>
			<g>
				<path class="st1" d="M534,210.7c4.1-9.7,6.6-20.6,7.5-32.5c0.4-5.2,0.5-10.7,0.2-16.3l0-0.5c0-0.9-0.1-1.7-0.1-2.6
					c-1.9-31.3,9.1-64.8,32.6-99.4l1.1-1.7l-2,0.2c-39.9,4.1-75.1,19.6-101.8,44.6c-15.7,14.7-27.9,32.3-36.2,52.2l-0.4,1l1,0.3
					c6.1,1.7,12,3.7,17.8,5.8l0.8,0.3l0.4-0.8c7.4-17,18.1-32.1,31.6-44.7c13.9-13.1,30.4-23.3,49-30.2c-3.1,7.1-5.8,14.3-7.8,21.3
					c-1.2,3.9-2.2,8-3.1,12.1c-1,4.8-1.8,9.7-2.4,14.4c-0.5,4.7-0.8,9.3-0.9,13.9c0,3.3,0,6.6,0.2,9.7c0.1,1,0.1,2,0.1,3
					c0.2,5.1,0.1,10-0.2,14.6c-0.4,4.9-1.1,9.6-2.1,13.9c-0.6,2.6-1.3,5.2-2.1,7.5l-0.2,0.6l0.5,0.4c5.1,4.1,10.2,8.5,15,13.1l1,0.9
					L534,210.7z"/>
				<path class="st1" d="M502.8,156.5c-0.3-5.3-0.4-10.8-0.1-16.3c0.2-4,0.5-8.1,1-12l0.2-1.4l-1.4,1.2c-0.6,0.6-1.3,1.2-1.9,1.7
					c-11.9,11.1-21.2,24.4-27.9,39.3l-0.2,0.5l0.5,0.2c3.1,1.5,6.3,3.1,9.5,4.8c5.9,3.2,11.8,6.6,17.4,10.3l0.6,0.4l0.2-0.7
					C502.8,176.3,503.5,167.2,502.8,156.5z"/>
			</g>
		</g>
		<g>
			<path class="st0" d="M408.3,141.6c-1.3-4.4-3.1-8.8-5.2-13.3c-2-4.3-4.4-8.5-7.2-12.9c-0.5-0.8-1.1-1.7-1.6-2.5
				c-1.8-2.7-3.4-5.4-5-8.2c-2.2-4-4.3-8.1-6.1-12.4c-1.9-4.4-3.6-8.9-5.1-13.6c-1.3-3.9-2.4-7.9-3.4-12c-1.8-7.6-3.1-15.5-4-23.8
				c0-0.2,0-0.4-0.1-0.6c-13.4,15.8-23.2,33.6-28.9,52.7c-5.4,18.1-7,36.6-5,54.9c6.9-1.2,13.8-2,20.7-2.6
				c-1.7-15.9-0.2-32.1,4.5-47.8c0.2-0.8,0.5-1.6,0.8-2.5c0-0.1,0.1-0.2,0.1-0.4c1.6,3.7,3.3,7.4,5.1,10.9c2.5,4.9,5.3,9.6,8.3,14.1
				c5.8,8.8,9.9,17.1,12.2,25.1c0.5,0,1.1,0.1,1.6,0.1c6.7,0.4,13.5,1.1,20.2,2.1C409.7,146.7,409.1,144.2,408.3,141.6z"/>
			<g>
				<path class="st1" d="M430.7,153c-1.3-10.4-4.6-21.2-9.7-31.8c-2.3-4.7-4.9-9.5-7.9-14.2l-0.3-0.4c-0.5-0.7-0.9-1.4-1.4-2.2
					C394.1,78.2,386.8,43.7,390,2l0.1-2l-1.6,1.2c-32.5,23.5-55.3,54.5-65.8,89.6c-6.2,20.6-8,41.9-5.3,63.3l0.1,1l1-0.3
					c6.1-1.6,12.3-2.9,18.3-3.9l0.9-0.1l-0.1-0.9c-2.1-18.4-0.4-36.8,5-54.5c5.5-18.3,14.7-35.4,27.4-50.7
					c0.9,7.7,2.2,15.3,3.8,22.3c0.9,4,2.1,8,3.4,12c1.5,4.7,3.3,9.3,5.2,13.7c1.9,4.3,4,8.5,6.2,12.5c1.6,2.9,3.3,5.7,5,8.3
					c0.6,0.8,1.1,1.7,1.6,2.5c2.7,4.3,5.1,8.6,7.1,12.8c2.1,4.4,3.8,8.8,5.1,13.1c0.8,2.6,1.4,5.1,1.9,7.6l0.1,0.6l0.6,0.1
					c6.5,1,13,2.3,19.5,3.8l1.3,0.3L430.7,153z"/>
				<path class="st1" d="M376.6,121.6c-2.9-4.4-5.7-9.2-8.2-14.1c-1.9-3.6-3.6-7.3-5.1-10.9l-0.6-1.3l-0.6,1.7
					c-0.3,0.8-0.5,1.6-0.8,2.5c-4.7,15.6-6.2,31.7-4.5,48l0.1,0.5l0.5,0c3.5-0.3,7-0.5,10.6-0.6c6.7-0.2,13.5-0.2,20.3,0.2l0.8,0
					l-0.2-0.7C386.5,138.8,382.5,130.5,376.6,121.6z"/>
			</g>
		</g>
	</g>
	<g>
		<g>
			<circle class="st1" cx="374.6" cy="374.6" r="243.1"/>
		</g>
		<circle class="st2" cx="374.6" cy="374.5" r="106.3"/>
		<g>
			<path class="st2" d="M475.9,259.3c-19.9-14.8-38.5-26.9-62.7-33.1c-1.3-16.4,7.4-36.6,9.8-39.1c13.3,4,27,5.1,48.1,19.5
				c0.6,1.8-7.4,8-7.4,10.3c-11.2-4.7-15.6-8.5-29.4-12.6c-3,3.9-3.8,7.4-4,12.9c15,6.3,35,14.8,46.8,24.3
				c10.9-10.1,16.6-20.2,25.2-32.6c-28.2-24.1-72.3-36.8-116-43c-0.7,21.4-1.2,43.5-1.9,70.2c50.9,8.2,66,23.3,88.2,41.6
				c24.4-18.4,44.7-37.7,71.1-52.2c31,28.6,47.7,76.7,54.9,122c-1.8,3.9-49.6,3.8-72.1,4.2c-2.1-20.8-10.5-38.3-21.5-56.6
				c10.2-6,17.9-14.1,35.2-20.4c7.1,9.2,15.8,27.1,19.3,40.1c-1.8,5.8-6.5,6.7-12.8,6.2c-1.7-8.4-6.4-21.5-11.3-29
				c-6.7,1.8-8.4,3.5-12.6,8.1c6.1,13.6,10.9,20.8,14.1,37.3c9.6,1.4,28.9-0.8,42.9-2.5c-4.6-37.9-18.4-62.9-40.8-87.9
				c-20.1,12-39.7,26.7-55.9,42.7c13.6,23.3,26.7,48.5,28.3,78.7c28-0.4,64.9-2.1,88.5,0c4.2,67.9-31.7,122.8-47.4,145.6
				c-16.8-18.9-37.5-29.9-53.5-49.5c12.6-18.7,18.9-34.9,25.6-57.4c12.1-1.7,25.7,1.3,40,5.6c-3.2,13.2-8.1,34.6-16.9,49.1
				c-1.4,0.3-9.1-6.5-10.8-6.7c6.3-11.5,9.3-20.3,12.4-31.5c-4.7-4.1-9.5-5.6-15.9-4.1c-5.2,14.4-7.8,26.2-18.2,43.3
				c14.8,12.7,19.3,15.8,34.4,26.8c23-36.1,31.4-66.5,34-106.4c-25.4-0.1-47.4-1.9-72.3,0c-4.1,25-13.1,64.4-33.4,81.7
				c17.1,24.1,41.5,43.3,58.9,67c-26.8,34.2-89.1,62.4-123.6,65.3c-3.1-22.7-7-53.2-9.3-71.8c24.7-4.9,38.1-13.4,59.5-25.5
				c10.5,8.7,17.5,21.3,22.9,32.5c-8,6.4-27.4,16.8-42.3,23.2c-3.6-0.4-2.5-8.2-5.4-11.5c10.5-6.2,20-6.2,29.8-14.8
				c-2-5.9-2.5-7.5-6.3-12.8c-16.3,7-26.4,14.7-41.9,19.7c1.5,18,2.7,24.5,6.4,41.2c23.3-0.8,72.2-30.4,89.6-48.6
				c-18.4-17.1-30-36.7-50.5-51.7c-22.2,19.7-48.2,30.3-78.9,34.1c-0.9,30,2,62.3,0,89.1c-57,3.1-114-18-143.9-43.3
				c15.1-15.1,29.4-37.1,48.7-53.2c18.5,12.7,40,18.3,61.6,22.9c-4.1,14.8-6.2,27-11.6,38.6c-16.2-4.4-28.8-5.9-46.1-14.2
				c-0.1-2.5,6.2-8.8,5.7-11.6c10.4,4.5,15.5,8.2,31.8,11c3.9-3.6,4.8-8.3,5.6-14.4c-17.3-4.5-29.2-8.8-46.1-16.7
				C281.9,531,275,540,265.2,552.7c32.4,18.5,61,28.4,105.7,31c1.6-25.7,0.7-50,0.5-71.7c-33.4-2.4-60.1-18.2-84.8-31.9
				c-21,16.6-44.8,41.6-63.1,60.8c-24.3-14.1-64.7-75.6-71.8-134c23.6-1.4,52-2.8,72.5-3.5c5.4,20.9,15.1,46.4,27.8,62.3
				c-3,3.1-20.4,15.8-31.4,24.4c-14.7-15.6-19.6-29.6-27.3-45.7c0.5-3.1,9.7-8.2,12.7-6.2c5.2,16.3,11.3,22.8,16.1,33.4
				c4.5-3.8,8.6-5.7,12.7-10c-9.7-13.1-13.7-29.6-20.4-45.8c-14.9,2.3-25.5,2.3-43.4,3.9c8.7,45.9,24.3,71.1,51.8,97.8
				c19.8-16.1,36.1-31.9,53.8-49.7c-21-18.2-37.3-48.3-37.7-84.3c-29.1-0.9-61.4,3.1-89.6,0.8c-3.9-57.6,20.8-115.8,47.8-148.7
				c14.4,13.1,40.5,32.2,54.3,47.6c-12.1,20.2-22.8,42.5-27.8,67.5c-19.2,1-23.9,0.3-40.2-3.8c3.6-21,6.2-33.6,14.8-51.8
				c4.5,0.7,9.9,4.5,11,6.6c-2.8,7.5-7.8,19.9-10.5,32.6c4.7,2,7.3,2.7,14.2,3c3.6-14.7,14.6-36.1,22.4-51.4
				c-9.3-9.1-24-19.7-34.8-27.3c-22.5,28.8-32.4,71.4-34.6,108.9c24,0.4,47.3,0.6,72.2-0.4c1.5-30.1,17.7-62.9,36.3-84.4
				c-13.5-23.6-45.6-42.8-61.3-64.2c26-26.4,62.6-55.2,134.7-67.9c0,19.1,0.2,68.2,0.7,72.8c-25.4,9.1-35.6,10.9-57,25
				c-11.5-9.2-20-20-25.7-33.8c11.3-7,24.7-17.6,48.6-22.9c1.5,0.7,1.1,8.9,2.5,10.2c-15.1,8.1-19.7,7.4-31.3,15.8
				c0.8,6.2,4.4,12,9,14.3c15.2-10.4,21.2-10.8,39.5-18.2c-0.7-15.8-1.2-29.7-1.2-43.7c-48.7,8.9-71.6,28.3-96.7,48.8
				c15.4,16.9,33.3,35,49.9,52c22.4-16.7,50.6-34.8,83.7-33.2c0-11.1,0-68.4,0.5-89c78.5-2.1,123.1,32.4,154.1,58.1
				C518.9,218.4,480.3,258.2,475.9,259.3z M254.7,374.8c0,61.3,51.7,119.9,122.1,119.9c72.7,0,118.7-63.1,118.7-117.3
				c0-36.6-25.6-122.9-122.1-122.9C304.6,254.5,254.7,319.8,254.7,374.8z"/>
		</g>
		<g>
			<defs>
				<circle id="SVGID_1_" cx="374.6" cy="375.4" r="226.5"/>
			</defs>
			<clipPath id="SVGID_00000050665416455497919650000012378041811693067399_">
				<use xlink:href="#SVGID_1_"  style="overflow:visible;"/>
			</clipPath>
			<g style="clip-path:url(#SVGID_00000050665416455497919650000012378041811693067399_);">
				<g>
					<path class="st0" d="M170.9,642.9c-19.7,0-36.5-14.1-40.7-34.4c-0.1-0.2-0.2-0.9-0.2-0.9c-0.3-1.3-2.4-12.7-3.1-23.9
						c-1-12,2.7-24,10.4-33c21-24.5,56.4-61,106.3-96c0,0,7.5-5.2,7.7-5.3c37.6-25.6,78.2-46.4,120.5-62l8.7-3.1
						c42.9-14.9,87.5-24.4,132.6-28.2l9.4-0.7c11.9-0.8,24.1-1.2,36.1-1.2c24.6,0,49.7,1.6,74.4,4.9c13.8,1.8,25.7,10.7,31.8,23.7
						c5.4,11.4,5.7,24.6,1,36.3l-79.3,197.3c-6.4,16-21.3,26.4-37.9,26.4H170.9z"/>
					<path class="st0" d="M558.6,383.9c23.4,0,47,1.5,70.6,4.6c3.8,0.5,7.1,3.1,8.9,7c1.8,3.9,2,8.7,0.3,12.7l-79.3,197.3
						c-1.9,4.8-6.1,7.9-10.6,7.9H170.9c-5.7,0-10.5-4.5-11.9-11c0-0.1,0-0.2-0.1-0.3c-0.1-0.4-2.1-10.9-2.6-20.5
						c-0.5-4.3,0.8-8.4,3.4-11.5c19.9-23.2,53.5-57.8,100.8-91.1l7-4.8c0.1-0.1,0.2-0.1,0.2-0.2c35.7-24.3,74.1-44,114.2-58.7
						l8.2-2.9c40.5-14.1,82.7-23.1,125.4-26.6l8.9-0.6C535.7,384.3,547.1,383.9,558.6,383.9 M558.6,324.9c-12.7,0-25.5,0.4-38.1,1.2
						l-0.2,0l-0.2,0l-8.9,0.6l-0.3,0l-0.3,0c-47.6,4-94.7,14-139.9,29.7l-0.2,0.1l-0.2,0.1l-8.2,2.9l-0.3,0.1l-0.3,0.1
						c-44.5,16.4-87.2,38.3-126.9,65.3c-0.3,0.2-0.6,0.4-0.9,0.6l-6.7,4.7l-0.2,0.1l-0.2,0.1c-52.4,36.8-89.7,75.2-111.7,100.9
						c-12.8,14.9-19.1,34.6-17.5,54.3c0.8,12.7,3.1,25.1,3.6,27.5l0,0.1l0,0.1c0.1,0.4,0.2,0.8,0.3,1.2
						c3.2,15.1,10.7,28.5,21.8,38.8c13.1,12.2,30.1,18.9,47.8,18.9h377.7c28.7,0,54.3-17.6,65.3-44.9l79.3-197.2l0,0
						c7.8-19.3,7.2-41.1-1.7-59.9c-10.5-22.2-30.9-37.3-54.7-40.4C610.8,326.6,584.5,324.9,558.6,324.9L558.6,324.9z"/>
				</g>
				<g>
					<path class="st4" d="M516.1,395.3c-45.7,3.8-86.9,13.5-123.6,26.2c0.7,26.8,1.6,55.3,2.6,84.2c28.5-5.1,59.6-9.1,92.9-11.3
						C499.8,452.9,509.4,418.7,516.1,395.3z"/>
					<path class="st5" d="M170.9,603.7h137.9c-8.3-21-16.1-41.2-23.3-60.1c-55.4,18.5-95,38.7-116.4,51
						C165.2,596.8,166.6,603.7,170.9,603.7z"/>
					<path class="st6" d="M293.5,541c7.5,19.8,15.6,40.9,24.3,62.8h72.7c-1.1-28.3-2.3-57.6-3.3-86.6
						C352.6,523.8,321.2,532.1,293.5,541z"/>
					<path class="st7" d="M395.5,515.6c1,29.6,2.2,59.4,3.3,88.1h58.5c10-35.8,19.5-69.3,28-99.4
						C453.3,506.6,423.3,510.5,395.5,515.6z"/>
					<path class="st7" d="M630.9,400.2c-0.6-1.2-1.6-2-2.7-2.1c-36.5-4.8-71-5.6-103.4-3.5c-6.4,22.7-16.2,57.1-28,99.2
						c30.9-1.8,63.7-2,98.2-0.2l36-89.6C631.5,402.8,631.5,401.4,630.9,400.2z"/>
					<path class="st4" d="M494.1,503.7c-8.5,30.2-18,64-28.1,100h82.6c1.4,0,2.6-0.9,3.2-2.4l39.5-98.2
						C557.1,501.5,524.7,501.8,494.1,503.7z"/>
					<path class="st6" d="M266.6,539.8c5-1.8,10.2-3.6,15.5-5.4c-6.3-16.8-12.1-32.6-17.4-47.1c-47.7,33.5-81.1,68.4-99.3,89.6
						c-2.8,3.3,0.4,8.8,4,6.7C189.5,572.3,222.5,555.6,266.6,539.8z"/>
					<path class="st5" d="M290.1,531.8c27.4-8.8,59.9-17.5,96.9-24.5c-1-28.4-1.9-56.4-2.6-82.8c-45,16.6-82.7,37.7-112.5,57.9
						c0,0,0,0,0,0C277.3,497.5,283.4,514.1,290.1,531.8z"/>
				</g>
			</g>
		</g>
		<g>
			<g>
				<path class="st9" d="M225.3,484.3l22.1-16.9l4.9,6.4l-29.5,22.5l-24.2-31.8l7.4-5.6L225.3,484.3z"/>
				<path class="st9" d="M264.4,465.8l-7.6,5.1L238,443.3l7.6-5.1L264.4,465.8z"/>
				<path class="st9" d="M269.4,462.2L252,433.5l20-12.1c2.2-1.3,4.2-2.2,6-2.7c1.9-0.5,3.5-0.6,5.1-0.4c1.5,0.2,2.9,0.7,4.1,1.6
					c1.2,0.9,2.2,2,3.1,3.4c1.3,2.2,1.9,4.3,1.7,6.4c-0.2,2.1-1,4-2.5,5.8l12.7,6.9l-8.7,5.2l-11.7-6.4l-10.6,6.4l6,9.9L269.4,462.2
					z M263.5,434.8l4.1,6.8l12.2-7.4c0.9-0.5,1.5-1,2-1.6c0.5-0.5,0.8-1,1-1.5c0.2-0.5,0.2-1,0.1-1.5c-0.1-0.5-0.3-1-0.6-1.5
					c-0.3-0.5-0.7-0.9-1.1-1.3s-0.9-0.5-1.4-0.6c-0.5-0.1-1.1,0-1.8,0.2c-0.7,0.2-1.5,0.6-2.3,1.1L263.5,434.8z"/>
				<path class="st9" d="M314.9,435.8l-8.1,4.3L291,410.5l8.1-4.3L314.9,435.8z"/>
				<path class="st9" d="M329.3,391.3l11-5.2L330,406.4l24.6,10.1l-10,4.7l-18.1-7.4l-2.6,5.5l4.5,9.6l-8.3,3.9l-14.3-30.3l8.3-3.9
					l5.6,11.8L329.3,391.3z"/>
				<path class="st9" d="M394.5,369.3c-1.2-0.1-2.6-0.1-4.1,0.1c-1.3,0.1-2.9,0.4-4.6,0.7c-1.8,0.3-3.8,0.9-5.9,1.6
					c-1.6,0.6-3,1.1-4.1,1.7c-1.1,0.6-2,1.1-2.6,1.7c-0.6,0.6-1.1,1.1-1.2,1.7c-0.2,0.6-0.2,1.1,0,1.7c0.2,0.6,0.6,1.1,1.2,1.4
					c0.6,0.3,1.4,0.5,2.3,0.5c1,0,2.2,0,3.6-0.2c1.4-0.2,3.1-0.4,5-0.6c3.3-0.5,6.1-0.8,8.6-0.9c2.5-0.1,4.7,0,6.5,0.5
					c1.8,0.4,3.3,1.1,4.5,2.2c1.2,1,2.1,2.5,2.7,4.3c0.7,1.9,0.8,3.7,0.4,5.5c-0.4,1.7-1.2,3.4-2.5,4.9c-1.3,1.5-3.1,3-5.3,4.3
					c-2.2,1.3-4.9,2.5-7.9,3.6c-1.7,0.6-3.2,1.1-4.7,1.4c-1.5,0.4-2.9,0.7-4.2,0.9c-1.3,0.2-2.5,0.4-3.6,0.4c-1.1,0.1-2.1,0.1-3,0.1
					c-2.1,0-4-0.2-5.6-0.6l2.1-7.7c1.4,0.2,3,0.2,4.7,0.1c1.5-0.1,3.2-0.3,5.2-0.6c2-0.3,4.1-0.9,6.5-1.7c3.6-1.2,6.1-2.5,7.6-3.8
					c1.5-1.3,2-2.5,1.5-3.8c-0.2-0.6-0.6-1.1-1.1-1.4c-0.5-0.3-1.2-0.4-2.2-0.5c-1,0-2.2,0.1-3.7,0.2c-1.5,0.2-3.3,0.4-5.6,0.7
					c-3.6,0.5-6.6,0.7-9.1,0.7c-2.5,0-4.6-0.2-6.4-0.8c-1.7-0.5-3.1-1.3-4.1-2.3c-1-1-1.8-2.3-2.4-3.9c-0.5-1.4-0.7-2.9-0.6-4.5
					c0.1-1.6,0.7-3.1,1.7-4.6c1-1.5,2.6-3,4.7-4.4c2.1-1.4,4.9-2.7,8.3-3.9c3.3-1.1,6.1-1.9,8.6-2.3c2.4-0.4,4.5-0.6,6.1-0.6
					c1.9,0,3.5,0.1,4.8,0.4L394.5,369.3z"/>
				<path class="st9" d="M427.3,356.1c3.8-1,7.3-1.4,10.3-1.2c3,0.1,5.7,0.7,7.9,1.8c2.2,1,4.1,2.5,5.5,4.4c1.4,1.9,2.5,4,3.1,6.5
					c0.6,2.5,0.7,4.9,0.3,7.2c-0.4,2.3-1.3,4.5-2.8,6.5c-1.5,2-3.5,3.8-6.1,5.3c-2.6,1.6-5.8,2.8-9.6,3.8c-3.8,1-7.3,1.4-10.3,1.2
					c-3-0.1-5.7-0.7-7.9-1.8c-2.2-1-4.1-2.5-5.5-4.4c-1.4-1.9-2.5-4-3.1-6.5c-0.6-2.5-0.7-4.9-0.3-7.2c0.4-2.3,1.3-4.5,2.8-6.5
					c1.5-2,3.5-3.8,6.1-5.3C420.3,358.3,423.5,357,427.3,356.1z M445.2,369.7c-0.3-1.4-0.9-2.6-1.7-3.8c-0.8-1.1-1.8-2-3.1-2.7
					c-1.3-0.7-2.9-1.1-4.7-1.2c-1.9-0.1-4,0.1-6.5,0.8c-2.5,0.6-4.5,1.4-6.1,2.4c-1.6,1-2.8,2.1-3.6,3.3c-0.8,1.2-1.3,2.5-1.5,3.9
					c-0.2,1.4-0.1,2.7,0.3,4.1c0.4,1.4,0.9,2.6,1.7,3.8c0.8,1.1,1.8,2,3.1,2.7c1.3,0.7,2.9,1.1,4.8,1.2c1.9,0.1,4-0.1,6.5-0.8
					c2.5-0.6,4.5-1.4,6.1-2.4c1.6-1,2.8-2.1,3.6-3.3c0.8-1.2,1.3-2.5,1.5-3.9C445.6,372.5,445.6,371.1,445.2,369.7z"/>
				<path class="st9" d="M471,374.6l23-3.9l1.2,6.9l-32.1,5.4l-5.6-33.1l9-1.5L471,374.6z"/>
				<path class="st9" d="M543.4,372.9l-9.9,0.9l-4-6l-19.3,1.7l-2.8,6.6l-9.9,0.9l15.1-35.1l9.7-0.9L543.4,372.9z M513.4,362.3
					l11.7-1.1l-6.8-10.3L513.4,362.3z"/>
				<path class="st9" d="M546.9,373l-0.3-33.6l23.4-0.2c2.5,0,4.7,0.2,6.6,0.7c1.8,0.5,3.4,1.3,4.6,2.2c1.2,1,2.1,2.1,2.7,3.5
					c0.6,1.4,0.9,2.8,0.9,4.5c0,2.5-0.6,4.6-1.8,6.4c-1.2,1.7-2.9,3-5.1,3.7l7.4,12.5l-10.1,0.1l-6.8-11.5l-12.4,0.1l0.1,11.5
					L546.9,373z M555.7,346.3l0.1,8l14.2-0.1c1,0,1.8-0.1,2.5-0.3c0.7-0.2,1.2-0.5,1.6-0.8c0.4-0.4,0.7-0.8,0.9-1.3
					c0.2-0.5,0.3-1,0.2-1.6c0-0.6-0.1-1.2-0.3-1.6c-0.2-0.5-0.5-0.9-0.9-1.2c-0.4-0.3-1-0.6-1.7-0.8c-0.7-0.2-1.5-0.3-2.5-0.3
					L555.7,346.3z"/>
			</g>
		</g>
	</g>
</g>
</svg>
