<svg width="74" height="74" viewBox="0 0 74 74" fill="none" xmlns="http://www.w3.org/2000/svg">
<g clip-path="url(#clip0_323_14601)">
<path d="M10.0654 61.6627C10.7941 61.3661 11.6283 61.2661 12.4004 61.1149L20.4596 59.5108C22.6691 59.0357 22.5848 58.8071 24.6899 59.2697L35.6257 61.6212C36.0145 61.7064 36.7362 61.6455 36.9673 62.0138C37.5278 61.8814 38.1883 61.6601 38.8242 61.5134L44.2908 60.3041C46.3544 59.8477 48.4204 59.3066 50.4995 58.9299C51.5281 58.7436 53.8874 59.5206 54.9741 59.7795C57.6451 60.4158 61.2427 61.3044 63.8864 61.6627C63.8848 62.7396 60.7586 65.1073 59.9654 65.7256C54.3551 70.0996 47.5474 72.7709 40.4417 73.3061C29.5139 74.1291 20.0336 70.8302 11.9355 63.6656C11.4652 63.2497 10.1114 62.3085 10.0654 61.6627Z" fill="#FFFEFA"/>
<path d="M9.19206 60.9788L9.17288 60.9556C9.16529 60.8821 9.15695 60.8164 9.13478 60.7458C7.99959 60.1421 4.99757 55.1989 4.33657 53.9509C1.57699 48.7404 0.0381072 42.1744 0.205772 36.2419C0.440689 27.9299 3.66707 19.4304 9.12843 13.1685C14.7274 6.74883 22.2975 2.34534 30.7259 0.902408C32.8078 0.545993 35.9776 0.272683 38.0891 0.332453C42.5433 0.45854 47.2894 1.65766 51.3694 3.35535C55.6293 5.12793 59.1309 7.50518 62.4841 10.7192C68.7581 16.7328 72.4418 24.379 73.4241 33.0493C74.423 41.8666 72.1565 50.7871 67.0602 58.0765C66.4709 58.9193 65.86 59.9567 65.0588 60.61C64.9873 60.6057 64.9928 60.4503 64.9331 60.3839L64.8919 60.4754C64.8639 60.1245 64.8863 59.7607 64.8886 59.4079L64.8919 31.6088C64.158 31.3927 63.396 31.2785 62.6463 31.1302L53.2232 29.1679C51.0303 28.7135 51.6336 28.5618 49.5577 29.1146C48.212 29.473 46.7886 29.912 45.4099 30.0916C46.1106 29.0986 48.7272 23.8774 48.9354 22.822C49.7316 18.7847 47.1137 13.7321 43.8672 11.4432C38.6089 7.73581 31.0093 8.89372 27.3087 14.2342C25.6498 16.6284 24.5674 19.888 25.0981 22.8269C25.4089 24.5467 27.7425 28.7247 28.5699 30.3544L24.6154 29.2496C22.6954 28.7173 23.1929 28.8464 21.168 29.2768L11.6561 31.2813C10.8575 31.4397 9.95767 31.5471 9.19206 31.8253C9.14735 34.1394 9.19197 36.4639 9.19201 38.7793L9.19535 60.083C9.1957 60.3764 9.21788 60.6879 9.19206 60.9788Z" fill="#FFFEFA"/>
<path d="M28.5701 30.3535C27.7426 28.7238 25.409 24.5458 25.0983 22.8261C24.5676 19.8872 25.65 16.6275 27.3089 14.2333C31.0095 8.89285 38.6091 7.73494 43.8674 11.4423C47.1139 13.7312 49.7318 18.7838 48.9356 22.8211C48.7274 23.8765 46.1108 29.0977 45.4101 30.0908C46.7888 29.9111 48.2122 29.4722 49.5579 29.1137C51.6338 28.5609 51.0305 28.7127 53.2234 29.1671L62.6465 31.1294C63.3962 31.2777 64.1582 31.3918 64.8921 31.6079L64.8888 59.4071C64.8865 59.7599 64.8641 60.1236 64.8921 60.4746C64.887 60.9139 64.8586 61.3458 64.8921 61.7852C64.5532 61.7586 64.2209 61.7266 63.8864 61.6622C61.2428 61.3039 57.6452 60.4153 54.9742 59.7789C53.8875 59.5201 51.5282 58.7431 50.4995 58.9294C48.4204 59.306 46.3545 59.8472 44.2909 60.3036L38.8243 61.5129C38.1884 61.6596 37.5278 61.8809 36.9674 62.0132C36.7363 61.645 36.0146 61.7058 35.6258 61.6207L24.69 59.2692C22.5849 58.8065 22.6692 59.0352 20.4597 59.5103L12.4004 61.1144C11.6284 61.2656 10.7942 61.3656 10.0655 61.6622C9.39515 61.6525 9.21593 61.6866 9.19225 60.978C9.21808 60.687 9.19589 60.3756 9.19555 60.0822L9.19221 38.7784C9.19217 36.463 9.14755 34.1385 9.19225 31.8244C9.95786 31.5462 10.8577 31.4388 11.6563 31.2804L21.1682 29.2759C23.1931 28.8455 22.6956 28.7164 24.6156 29.2487L28.5701 30.3535Z" fill="#040E2F"/>
<path d="M50.9083 33.1445C51.1673 33.3201 51.3968 33.6247 51.6153 33.8539C53.3469 35.6708 55.1377 37.3927 56.9738 39.1056C57.8125 39.8879 58.2562 40.5922 58.2915 41.766C58.3567 43.9299 57.6699 44.0993 56.2631 45.5137L53.1481 48.6535C52.401 49.3958 51.6264 50.1197 50.9083 50.8898C50.7468 50.8055 49.6614 49.6845 49.4141 49.4451L45.839 45.95C44.415 44.543 43.4319 43.8846 43.596 41.6019C43.7408 39.5889 45.5852 38.3896 46.9514 37.035L49.5062 34.4878C49.9661 34.0344 50.4183 33.5657 50.9083 33.1445Z" fill="#FFFEFA"/>
<path d="M50.5314 38.5676C54.7992 37.8111 56.3357 44.9701 51.4085 45.7141C46.5039 46.3359 45.7378 39.0908 50.5314 38.5676Z" fill="#040E2F"/>
<path d="M50.9082 39.1468C54.4625 38.8615 55.2479 44.7289 51.0393 45.2041C47.1086 45.2649 46.5595 39.4515 50.9082 39.1468Z" fill="#FDBD00"/>
<path d="M9.68164 33.7188C10.3375 33.9929 11.5436 35.0344 12.1981 35.4958C14.4606 37.0904 16.7048 38.6999 18.9354 40.3389L21.4173 42.1711C21.9094 42.5313 22.3973 42.9062 22.9174 43.2254V58.5166C22.2207 58.6228 21.5302 58.7828 20.8406 58.9276C18.4597 59.4668 16.0381 59.9043 13.6383 60.3553L11.2489 60.8227C10.7229 60.9288 10.1949 61.0165 9.68164 61.1764V33.7188Z" fill="#FFFEFA"/>
<path d="M12.2717 51.8769C12.496 51.8256 13.2784 51.7754 13.0106 52.2077C12.708 52.3999 12.1613 52.3813 11.8068 52.4254C11.5991 52.4368 11.1804 52.5201 11.0181 52.3816C10.8815 51.7283 11.8809 51.9012 12.2717 51.8769Z" fill="#040E2F"/>
<path d="M16.4892 51.5279C16.62 51.5214 17.8313 51.4147 17.3007 51.903C17.0911 52.0958 16.4568 52.0534 16.179 52.0747C14.5983 52.1076 15.2894 51.6129 16.4892 51.5279Z" fill="#040E2F"/>
<path d="M20.9791 51.2098C21.281 51.1597 22.0852 50.9792 21.8367 51.5709C21.5251 51.705 20.9457 51.7043 20.5871 51.7731C18.8608 51.6439 19.7829 51.207 20.9791 51.2098Z" fill="#040E2F"/>
<path d="M51.1715 29.2715C51.9326 29.3529 52.6882 29.547 53.4358 29.7075L64.3927 31.978C64.4269 32.2893 64.3997 32.6216 64.3974 32.9352L64.3927 40.6666C63.1763 40.6711 61.9677 40.604 60.7525 40.5761C60.5117 40.5706 59.3315 40.4235 59.773 41.0155C60.0363 41.1804 63.8056 41.1473 64.3927 41.147V61.1756C63.2707 61.0353 62.1737 60.8251 61.0648 60.6077C60.4393 60.4787 59.8143 60.3573 59.1843 60.2525C59.1803 60.0692 59.3507 58.5492 58.7278 59.0368C58.5815 59.3405 58.6595 59.7559 58.6782 60.0848C56.154 59.6394 53.6868 58.8768 51.1715 58.3746L51.1711 54.0407C51.1711 53.1378 51.1484 52.2309 51.1715 51.3284C51.6645 50.9241 52.114 50.4319 52.568 49.984L55.4638 47.0705C57.6936 44.8014 59.8492 43.7463 58.4342 40.0089C58.0626 39.0272 55.4446 36.8948 54.6336 36.1012L52.5637 34.0355C52.1038 33.568 51.6554 33.0834 51.1715 32.6405V29.2715Z" fill="#FFFEFA"/>
<path d="M58.6782 51.21C59.5436 51.2736 59.2665 52.9656 59.1843 53.7225C58.2941 53.8007 58.6177 51.9419 58.6782 51.21Z" fill="#040E2F"/>
<path d="M58.6778 47.1856C59.6014 47.1808 59.1733 48.8348 59.1839 49.712C59.0359 49.7264 58.8729 49.7547 58.734 49.6926C58.6321 49.5077 58.6502 47.4956 58.6778 47.1856Z" fill="#040E2F"/>
<path d="M58.6781 55.1713C59.5525 55.1132 59.2675 56.8912 59.1842 57.5882C58.243 57.671 58.6197 56.0543 58.6781 55.1713Z" fill="#040E2F"/>
<path d="M36.2851 10.0819C41.3119 9.73408 45.7565 12.8782 47.503 17.5562C47.9818 18.8389 48.4062 20.995 48.1816 22.3526C47.8984 24.0628 44.9186 29.4946 44.0082 31.0924C42.3688 33.9696 40.5006 36.7021 38.5766 39.394C38.1929 39.9311 37.7305 40.4788 37.4603 41.0825L37.4316 41.1474C37.3096 41.2116 37.2147 41.3862 37.145 41.4998C36.3325 40.8136 35.4219 39.3681 34.7887 38.4703C31.7302 34.1335 29.1986 30.1216 26.9538 25.2403C26.5477 24.3572 25.9387 23.2465 25.8265 22.2761C25.524 19.6577 26.6093 16.3505 28.2272 14.3165C30.3343 11.6674 33.0244 10.4462 36.2851 10.0819Z" fill="#0B70BC"/>
<path d="M36.2847 14.7421C41.3918 14.2054 44.9672 19.7699 42.2985 24.1845C41.1983 26.0043 39.842 26.5645 37.869 27.0601C29.3563 27.9215 28.4295 15.6944 36.2847 14.7421Z" fill="#040E2F"/>
<path d="M36.5897 15.5064C39.4967 14.8161 42.2871 18.0494 42.3763 20.8548C42.4662 23.6796 40.2936 26.1742 37.4312 26.2614C36.0716 26.5169 34.4466 25.8334 33.4389 24.9543C29.9547 21.9143 31.829 15.7733 36.5897 15.5064Z" fill="#FFFEFA"/>
<path d="M50.5315 29.4054C50.8381 29.2717 50.6792 30.0821 50.6785 30.3115L50.6755 32.6409C50.2284 32.9408 49.8158 33.4335 49.4287 33.811L46.4732 36.7373C44.3791 38.8085 42.6836 39.6046 43.1486 42.9574C43.3947 44.7334 44.4853 45.3601 45.6677 46.5289C47.1766 48.0203 49.0644 50.1097 50.6755 51.3288V58.375C46.223 59.2303 41.7676 60.4483 37.2878 61.3327C37.3313 60.2774 36.7919 60.254 36.8158 61.3327C35.4617 61.1573 34.1307 60.7727 32.7984 60.4795L26.3822 59.1277C25.3699 58.9165 24.3826 58.5889 23.3465 58.5162L23.3557 41.9689C23.3577 41.7419 23.3473 41.2521 23.0035 41.3495C22.7721 41.6293 22.8954 42.3183 22.9174 42.6677C21.8809 42.0377 20.8579 41.1322 19.8696 40.4034L14.2069 36.3052L11.7943 34.5724C11.1239 34.0851 10.4238 33.5153 9.68164 33.1447V32.1492C10.9426 31.9534 12.1906 31.6537 13.4385 31.3894L20.3991 29.924C21.2389 29.7532 22.0733 29.5543 22.9174 29.4054C22.9198 29.8788 22.9291 30.3569 22.9094 30.8296C22.8951 31.1733 22.6084 32.0831 23.2472 31.8571C23.4096 31.6415 23.3468 29.7974 23.3465 29.4054C25.1466 29.8062 26.878 30.4722 28.694 30.838C28.7319 32.159 28.6951 33.4933 28.695 34.8157L28.6943 42.6669C28.694 44.4147 28.5279 46.4892 29.0599 45.9129C29.3241 45.6267 29.1581 41.4572 29.1581 40.8107L29.1592 31.2572C30.0782 33.2631 36.3945 42.4959 36.9873 42.6959C37.9996 42.4012 43.7158 32.938 45.2064 30.6799C46.7283 30.331 49.0847 29.5667 50.5315 29.4054Z" fill="#FFFEFA"/>
<path d="M37.2876 49.8987C37.5379 49.9037 38.8186 49.6879 38.529 50.2657C37.8844 50.4691 37.2853 50.6672 37.2876 49.8987Z" fill="#040E2F"/>
<path d="M36.8158 49.3483C37.4623 49.329 37.2316 49.7704 37.2748 50.287C37.2914 50.4859 37.3602 50.5688 37.2878 50.7626C36.5277 50.9609 36.735 49.9054 36.8158 49.3483Z" fill="#040E2F"/>
<path d="M25.5292 50.8894C26.894 50.7802 26.6109 51.3735 25.1574 51.3282C25.153 51.3287 23.8063 51.5719 24.3142 51.0595C24.5058 50.866 25.2429 50.9061 25.5292 50.8894Z" fill="#040E2F"/>
<path d="M22.9798 37.5029C23.8145 37.5503 23.2904 39.5619 23.2008 39.6228C22.4374 39.6541 22.9198 37.5909 22.9798 37.5029Z" fill="#040E2F"/>
<path d="M22.9172 33.7181C23.0426 33.6933 23.1564 33.6774 23.2844 33.6758C23.4001 33.8116 23.4799 35.4914 23.2005 35.7817L23.069 35.8083C22.6512 35.6699 22.8039 34.039 22.9172 33.7181Z" fill="#040E2F"/>
<path d="M33.9122 50.2661C35.264 50.0447 35.1766 50.6841 33.4861 50.763C33.1614 50.7956 32.7953 50.8695 32.5581 50.5787L32.5861 50.4814C32.8934 50.1969 33.5204 50.269 33.9122 50.2661Z" fill="#040E2F"/>
<path d="M36.8156 56.6262C36.9598 56.6172 37.1483 56.586 37.2679 56.6834C37.3289 57.1056 37.3282 58.5051 37.2876 58.9274C36.4798 58.9989 36.7969 57.2838 36.8156 56.6262Z" fill="#040E2F"/>
<path d="M36.8157 45.4219C36.9488 45.4226 37.063 45.4314 37.1929 45.4613C37.4128 45.7278 37.3125 47.5799 37.1448 47.79C36.531 47.7086 36.7366 45.7047 36.8157 45.4219Z" fill="#040E2F"/>
<path d="M42.46 49.5974C42.6821 49.5763 42.9144 49.5471 43.0002 49.7973C42.8323 50.3131 41.6555 50.1414 41.2384 50.1452C41.109 50.1621 40.9957 50.1839 40.8681 50.1492C40.2741 49.5247 42.2864 49.6048 42.46 49.5974Z" fill="#040E2F"/>
<path d="M30.2299 50.4924C30.4704 50.4873 30.7651 50.5755 30.608 50.8615C30.2256 51.1315 29.1817 51.0607 28.694 51.0517C28.3596 51.1445 27.7891 50.6573 30.2299 50.4924Z" fill="#040E2F"/>
<path d="M46.601 49.3488C46.848 49.3072 47.1323 49.1983 47.2723 49.4796C47.2227 49.9246 45.9176 49.8677 45.5722 49.8993C45.3713 49.9048 45.0705 49.9644 44.9789 49.7282C44.7696 49.1884 46.3596 49.3421 46.601 49.3488Z" fill="#040E2F"/>
<path d="M36.8159 52.319C37.6778 52.2583 37.3434 53.9367 37.2879 54.7276C37.1429 54.7419 37.0185 54.7491 36.8741 54.7275C36.7443 54.4852 36.8137 52.6942 36.8159 52.319Z" fill="#040E2F"/>
</g>
<defs>
<clipPath id="clip0_323_14601">
<rect width="74" height="74" fill="white"/>
</clipPath>
</defs>
</svg>
