<svg width="39" height="39" viewBox="0 0 39 39" fill="none" xmlns="http://www.w3.org/2000/svg">
<path d="M27.9947 27.1622L21.2766 33.8803C20.6828 34.4734 19.8779 34.8066 19.0386 34.8066C18.1993 34.8066 17.3943 34.4734 16.8005 33.8803L10.0808 27.1622C8.30945 25.3907 7.10313 23.1337 6.61444 20.6766C6.12574 18.2196 6.37663 15.6727 7.33535 13.3583C8.29408 11.0438 9.9176 9.06554 12.0006 7.67374C14.0836 6.28193 16.5326 5.53906 19.0378 5.53906C21.543 5.53906 23.9919 6.28193 26.0749 7.67374C28.1579 9.06554 29.7815 11.0438 30.7402 13.3583C31.6989 15.6727 31.9498 18.2196 31.4611 20.6766C30.9724 23.1337 29.7661 25.3907 27.9947 27.1622Z" fill="#DE1E1E" stroke="white" stroke-width="2" stroke-linecap="round" stroke-linejoin="round"/>
<path d="M14.2876 18.2051C14.2876 19.4649 14.788 20.673 15.6788 21.5638C16.5696 22.4546 17.7778 22.9551 19.0376 22.9551C20.2974 22.9551 21.5056 22.4546 22.3964 21.5638C23.2872 20.673 23.7876 19.4649 23.7876 18.2051C23.7876 16.9453 23.2872 15.7371 22.3964 14.8463C21.5056 13.9555 20.2974 13.4551 19.0376 13.4551C17.7778 13.4551 16.5696 13.9555 15.6788 14.8463C14.788 15.7371 14.2876 16.9453 14.2876 18.2051Z" fill="white" stroke="white" stroke-width="2" stroke-linecap="round" stroke-linejoin="round"/>
</svg>
