<svg width="74" height="74" viewBox="0 0 74 74" fill="none" xmlns="http://www.w3.org/2000/svg">
<g clip-path="url(#clip0_343_19698)">
<path d="M36.3474 0.293342C37.9506 0.233642 39.5746 0.424879 41.1631 0.616981C56.9092 2.52109 70.0919 14.2614 73.1813 30.0053C75.3988 41.3066 72.1573 52.605 64.5077 61.2545C63.7534 62.1074 62.8924 62.8763 62.0853 63.6802C55.8244 69.916 46.4526 73.7251 37.5919 73.7072C19.1792 73.8257 3.93941 61.2759 0.698453 43.1474C0.506887 42.076 0.253066 40.9829 0.178368 39.897C-0.0185457 37.0346 0.119404 34.7473 0.528954 31.9507C2.90406 15.7314 15.2461 3.5445 31.1785 0.849672C32.8504 0.566875 34.6545 0.409449 36.3474 0.293342Z" fill="#FFFEFA"/>
<path d="M51.5346 45.7312C51.6667 46.6006 51.534 48.6533 51.5344 49.6267L51.5362 63.5442C51.5402 64.3139 51.6428 65.1472 51.5224 65.9044C50.8478 70.1504 45.0734 69.0812 41.8789 69.0808L23.9162 69.0828C19.8369 69.0898 17.2096 69.1553 17.1601 64.197L17.1558 10.8795C17.1468 7.00731 18.049 4.80972 22.3299 4.79955L44.5659 4.79886C49.5111 4.79441 51.5346 5.32548 51.5356 10.6862L51.5346 25.5398C51.0117 25.5606 50.8637 25.5855 50.8444 25.0257C50.7977 23.6813 50.8472 22.317 50.8472 20.971L50.8474 13.8196H17.9145V59.3271H50.8474C50.8468 57.8637 50.725 46.2283 51.0195 45.8507C51.1219 45.7196 51.3871 45.7338 51.5346 45.7312Z" fill="#05304B"/>
<path d="M44.6193 5.63313C49.0455 5.68222 50.784 5.86634 50.7936 10.8604L50.791 13.2148H17.9156L17.9111 10.7046C17.9002 6.32623 19.282 5.6288 23.4548 5.63088L44.6193 5.63313Z" fill="#FFFEFA"/>
<path d="M36.0759 8.65651C36.5852 8.65531 39.1429 8.56485 39.4149 8.72864C39.7074 8.90479 39.5329 9.28458 39.2274 9.31068C38.6715 9.3579 38.0663 9.30191 37.505 9.30151L33.6081 9.29952C33.0527 9.29892 29.6145 9.75264 30.139 8.77686C30.7467 8.48833 31.6559 8.6593 32.3107 8.6591L36.0759 8.65651Z" fill="#040E2F"/>
<path d="M50.8482 60.0018C50.9613 60.6 50.8569 61.3247 50.8511 61.9394C50.8077 66.6234 51.4232 68.3689 46.0428 68.3653L22.303 68.3659C18.3574 68.3609 17.9092 66.7108 17.9111 63.1935L17.9153 60.0018H50.8482Z" fill="#FFFEFA"/>
<path d="M34.3984 61.7973C37.793 61.45 38.3916 66.1392 35.1405 66.9037C31.721 67.4075 30.9218 62.3487 34.3984 61.7973Z" fill="#05304B"/>
<path d="M34.3978 62.1922C37.0017 61.9878 37.9934 65.1931 35.1398 66.4502C32.0326 66.8236 31.6458 62.8145 34.3978 62.1922Z" fill="#FFFEFA"/>
<path d="M17.9145 13.8196H50.8474L50.8472 20.971C50.8472 22.317 50.7977 23.6813 50.8444 25.0257C50.8637 25.5855 51.0117 25.5606 51.5346 25.5398C51.5384 26.6168 51.5023 27.7034 51.5352 28.7792C55.2253 30.0082 57.8204 33.7184 56.4916 37.6175C56.2528 38.3181 55.8613 38.9376 55.5632 39.6097C55.6628 40.6325 56.2421 45.3544 56.057 45.9446C55.4267 46.5842 52.9961 44.0329 52.2196 43.5614L52.0674 43.5955C51.8869 43.9699 51.867 45.5959 51.5346 45.7312C51.3871 45.7338 51.1219 45.7196 51.0195 45.8507C50.725 46.2283 50.8468 57.8637 50.8474 59.3271H17.9145V13.8196Z" fill="#FFFEFA"/>
<path d="M36.5581 43.202L31.9984 43.2036C30.2079 43.204 28.2292 43.36 26.5039 42.8268C18.6612 40.4028 20.3369 29.1903 27.9074 28.501C29.0568 28.3964 30.2575 28.461 31.4128 28.461L45.5331 28.4618C47.4598 28.4614 49.6665 28.2013 51.5352 28.7792C55.2253 30.0082 57.8204 33.7184 56.4916 37.6175C56.2528 38.3181 55.8613 38.9376 55.5632 39.6097C55.6628 40.6325 56.2421 45.3544 56.057 45.9446C55.4267 46.5842 52.9961 44.0329 52.2196 43.5614L51.385 42.8856C49.5917 43.2598 47.8392 43.2088 46.0219 43.205L41.4647 43.202C41.493 44.4936 41.3543 45.7254 41.7809 46.971C42.3866 48.7396 42.5662 49.444 40.2908 47.8852C38.4903 46.6514 37.4514 45.1563 36.5581 43.202Z" fill="#040E2F"/>
<path d="M29.5115 29.3062L47.723 29.3036C48.7056 29.3032 49.7202 29.242 50.6876 29.4389C54.3213 30.1787 57.0019 33.9904 55.5519 37.6406C55.3035 38.2657 54.7792 38.8881 54.7045 39.5622C54.5754 40.7273 55.1116 43.2617 55.1106 44.7308C53.924 43.8001 52.7956 42.753 51.5351 41.9257C49.9312 42.4302 48.3696 42.3543 46.7124 42.3479H41.0076C40.3714 44.0029 40.4995 45.6417 41.0076 47.3045C39.1001 46.1117 38.0687 44.3281 37.1388 42.3479C36.3204 42.3088 35.4855 42.3451 34.6656 42.3463L29.4308 42.3493C22.7925 42.3092 19.7952 35.4192 24.2636 31.0871C25.7272 29.668 27.5373 29.2785 29.5115 29.3062Z" fill="#FFFEFA"/>
<path d="M41.2237 37.1734C42.2198 37.1324 49.8922 37.1007 50.334 37.2364C50.5004 37.4811 50.3601 37.7212 50.1728 37.9177C49.5166 38.0209 48.4317 37.9197 47.7301 37.9185L43.6742 37.9209C42.9419 37.9212 42.0131 38.0289 41.3077 37.8433C40.9881 37.7595 40.9282 37.3141 41.2237 37.1734Z" fill="#0B70BC"/>
<path d="M44.2049 33.35C45.355 33.3492 50.3231 33.0985 50.4286 33.566C50.6752 34.6595 48.2058 34.2696 47.3693 34.2758L43.2702 34.2726C43.046 34.2726 40.1623 34.5226 41.2264 33.46C41.4125 33.2741 43.795 33.349 44.2049 33.35Z" fill="#0B70BC"/>
<path d="M34.5812 31.0822C34.9034 31.1904 38.7694 35.0714 39.1163 35.5118C38.5572 36.5537 37.4334 37.437 36.616 38.2731C33.7762 41.1777 34.6764 40.4143 31.8439 37.7696C31.0897 38.4935 30.1106 39.689 29.2613 40.2177C28.5827 40.0601 25.1636 36.3644 24.7896 35.7521C25.5633 34.7165 28.3324 31.8412 29.2613 31.0822C30.0823 31.9731 31.0088 32.7857 31.8439 33.6736C32.6978 32.7676 33.5663 31.8121 34.5812 31.0822Z" fill="#040E2F"/>
<path d="M34.5809 32.2643C35.0547 32.5746 37.5832 35.2381 37.9356 35.753C36.981 36.5189 35.253 38.2724 34.5809 39.2318L34.4968 39.1635C33.5866 38.4344 32.7097 37.3905 31.7146 36.5564C31.0781 37.5015 30.1067 38.2778 29.2611 39.0334L29.2025 39.1129C29.068 39.0961 26.1449 35.9955 25.9313 35.753L29.2611 32.2643C30.1486 33.0671 30.8835 34.0648 31.8437 34.7802C32.8681 34.0885 33.5246 32.9261 34.5809 32.2643Z" fill="#FDBD00"/>
</g>
<defs>
<clipPath id="clip0_343_19698">
<rect width="74" height="74" fill="white"/>
</clipPath>
</defs>
</svg>
