<svg width="104" height="104" viewBox="0 0 104 104" fill="none" xmlns="http://www.w3.org/2000/svg">
<g clip-path="url(#clip0_203_751)">
<path d="M50.8207 0.318795C62.1171 0.274727 73.1015 3.57222 82.2807 10.2551C98.2057 21.8494 106.488 41.7732 102.921 61.2346C99.6394 79.1439 86.4482 94.4563 69.2691 100.48C64.1227 102.285 58.5809 103.314 53.1377 103.406L53.0252 103.412C44.481 103.802 35.5355 101.458 28.0408 97.48C12.4317 89.1945 2.63961 75.0723 0.696879 57.3703C0.405173 54.7122 0.23828 52.1167 0.455451 49.4422C1.95235 31.0071 11.0779 15.9465 27.243 6.751C34.1772 2.80636 42.8194 0.627413 50.8207 0.318795Z" fill="#D7E8F8"/>
<path d="M11.3615 41.5977C12.3162 41.6844 12.0094 42.7016 12.0101 43.4491L12.0093 46.0211C12.8514 46.0922 16.2392 45.6126 16.5814 46.5364C16.5315 47.3554 15.4265 47.1145 14.8904 47.1137L12.0093 47.1099C12.0462 48.1625 12.4822 51.0576 11.5644 51.437C10.558 51.3286 10.9699 48.0093 10.9709 47.1099C9.88547 47.1088 7.49391 47.2301 6.55097 47.0333C5.18266 45.5334 10.7236 46.0205 10.9709 46.0211C10.9717 45.0536 10.5606 41.9422 11.3615 41.5977Z" fill="#0B70BC"/>
<path d="M54.3439 22.13L71.3901 22.127C73.7734 22.1266 76.4384 22.1 77.2539 25.0298C77.5379 26.0501 77.4006 27.5634 77.4006 28.6506L77.3988 33.2227C77.7112 32.9678 77.985 32.6501 78.2687 32.3633L84.1297 26.5801C84.6501 26.0729 85.096 25.4225 85.6836 25.0002C86.2869 25.4613 90.9846 30.1106 91.2553 30.5447C90.5464 31.6188 87.9623 34.117 86.9538 35.1152L79.961 41.9357C79.1213 42.7604 78.2976 43.63 77.3988 44.3895V57.0147C80.2653 55.5126 82.1758 54.785 85.436 56.5203C87.9243 57.8447 88.8942 60.0291 89.672 62.5933L93.9449 62.5915C94.7001 62.5893 95.4751 62.5192 96.2262 62.5933C96.1435 66.4755 96.6026 71.8498 96.1705 75.5373C95.5983 75.8172 90.802 75.6059 89.8174 75.6059L77.3988 75.6074V80.7003C77.3963 83.9958 78.0339 88.4562 73.3133 88.5531C69.6654 88.6279 66.0004 88.5554 62.3504 88.5552L25.7952 88.558C21.9109 88.5582 20.0907 88.0729 20.0303 83.7811C19.97 79.4948 20.0281 75.1987 20.0281 70.9115L20.0242 28.4474C20.022 22.126 21.7429 22.1276 26.9839 22.1284L54.3439 22.13Z" fill="#040E2F"/>
<path d="M76.6139 58.9902C76.6702 59.068 76.6139 62.2203 76.6139 62.592C76.1489 62.6002 75.6846 62.5969 75.2196 62.592L75.1416 62.5539C74.9083 61.6615 76.0382 59.6551 76.6139 58.9902Z" fill="#FFFEFA"/>
<path d="M81.3254 56.3699C85.1054 56.0871 87.991 59.1244 88.8179 62.593C87.5575 62.6133 86.2937 62.5932 85.0329 62.593H77.3984V58.2869C78.4677 57.1407 79.777 56.5443 81.3254 56.3699Z" fill="#D7E8F8"/>
<path d="M85.6837 26.1523C86.8135 26.9023 88.9481 29.4174 90.1385 30.5441C88.7259 32.265 86.5515 34.32 84.9413 35.9036L79.6318 41.1521C78.8993 41.8984 78.1462 42.6244 77.3989 43.3554C77.3741 41.2722 77.1141 36.4077 77.3989 34.4768C78.0125 33.6143 79.2377 32.5477 80.0139 31.773L85.6837 26.1523Z" fill="#FFFEFA"/>
<path d="M86.8187 63.4585L92.5658 63.4579C93.5328 63.4571 94.5113 63.4164 95.4767 63.4585V74.7961H79.632H70.9854V63.4585H86.8187Z" fill="#0B70BC"/>
<path d="M80.7524 65.1875C81.3617 65.5389 81.7446 66.9894 82.4028 67.6565C83.0893 68.0962 84.2177 68.0672 85.0054 68.2701C85.3629 68.3623 87.7831 67.8864 88.1213 67.77C89.9856 64.2245 89.2775 64.9163 91.2549 67.77C96.3623 68.6333 93.9654 68.653 92.05 70.8809C92.4117 74.685 93.1156 74.2684 89.6716 72.4801C89.2046 72.8228 87.7378 73.9586 87.1262 73.7898C86.5733 73.2995 87.2613 71.7931 87.3042 71.134C86.5648 70.005 86.1697 70.0225 85.4066 69.2376C85.3946 69.0883 85.3779 68.9835 85.3113 68.8454L85.2299 68.8405C84.7409 69.681 83.8547 70.0932 83.2904 70.8809C83.5705 73.8069 84.2144 74.8794 80.7524 72.4801C77.8054 74.3241 77.5056 74.4378 78.3206 70.8809C77.8875 70.4464 76.3671 69.2616 76.2548 68.7611C76.0777 67.9732 78.6626 67.901 79.17 67.7849L79.2324 67.77C79.752 66.9413 79.9791 65.8336 80.7524 65.1875Z" fill="#040E2F"/>
<path d="M89.672 66.5664C90.1345 67.0909 90.1615 68.0781 90.6913 68.5026C91.1891 68.9017 94.0046 68.388 92.2827 69.6088C91.9112 69.8723 91.5763 70.1845 91.2933 70.5418L91.2553 70.5907C91.3894 71.2558 91.4918 71.9285 91.5854 72.6C90.9963 72.336 90.4581 71.898 89.8306 71.7292C89.0851 71.8068 88.4989 72.3839 87.7855 72.6C87.9251 71.9354 88.0242 71.2627 88.1217 70.5907C87.7821 70.1585 86.6403 69.6131 86.6818 69.0151C86.9215 68.7063 88.1156 68.6754 88.5688 68.5367L88.6362 68.5154C89.0319 67.9139 89.3293 67.2042 89.672 66.5664Z" fill="#FFFEFA"/>
<path d="M80.7524 66.5664C81.7189 67.1122 80.5418 68.935 83.8651 68.818L83.934 68.8152L83.9695 68.8946C83.6953 69.099 83.985 69.1333 83.8477 69.3218C83.7042 69.519 82.8345 70.0344 82.4459 70.5342L82.4028 70.5907C82.5304 71.3124 82.6411 72.0297 82.7276 72.7575C82.1897 72.4044 81.6565 72.0433 81.0945 71.7292C80.2158 71.7565 79.5589 72.3662 78.7411 72.6C78.8792 71.9437 78.9745 71.2578 79.046 70.5907C78.6867 70.0325 78.2319 69.6639 77.6761 69.3124C77.6121 69.1079 77.5167 68.9513 77.3984 68.7736C80.2603 68.6661 79.3488 68.9013 80.708 66.6397L80.7524 66.5664Z" fill="#FFFEFA"/>
<path d="M23.6929 22.9445C27.4156 22.9067 31.1425 22.9445 34.8658 22.9447L71.4809 22.9425C77.0149 22.9394 76.6155 24.6006 76.6155 29.0535L76.6143 57.7666C75.1792 59.0861 74.6438 60.7497 74.2028 62.5919H70.2258C70.1884 63.0926 70.2213 63.6093 70.2228 64.1121L70.2258 75.6059C70.9166 75.6555 71.6396 75.61 72.334 75.6091L76.6143 75.6059V84.1365C76.4571 87.4412 74.7514 87.7591 71.7161 87.7593L26.8862 87.7558C22.1922 87.757 20.8337 88.2632 20.8524 82.891L20.8522 30.3793C20.8514 27.6265 20.0228 23.5675 23.6929 22.9445Z" fill="#FFFEFA"/>
<path d="M42.3059 56.3691H66.8835C66.8967 56.5853 66.9629 56.9186 66.869 57.1177L66.7392 57.1367H42.0598C42.0439 56.8091 41.9103 56.4439 42.3059 56.3691Z" fill="#040E2F"/>
<path d="M65.8865 37.5216C66.218 37.5025 66.5516 37.5159 66.8833 37.5216C66.9032 37.7814 66.8918 38.0384 66.8833 38.2986H43.3401C42.9119 38.3144 42.4878 38.311 42.0596 38.2986V37.5216H65.8865Z" fill="#040E2F"/>
<path d="M41.9386 75.8262H66.8831V76.6364C66.0428 76.7057 65.1482 76.6401 64.3022 76.6389L41.9386 76.6364C41.9225 76.3659 41.9318 76.0967 41.9386 75.8262Z" fill="#040E2F"/>
<path d="M42.0596 33.6543H58.6043C58.6378 34.152 58.6368 34.6354 58.6043 35.1332H42.0596V33.6543Z" fill="#0B70BC"/>
<path d="M41.9385 71.7305H58.6041C58.5746 72.2377 58.5795 72.7325 58.6041 73.2401C58.5047 73.2842 43.5094 73.2399 41.9385 73.2401V71.7305Z" fill="#0B70BC"/>
<path d="M42.0592 52.3223H58.6039V53.8567H42.0592C42.0348 53.344 42.0464 52.835 42.0592 52.3223Z" fill="#0B70BC"/>
<path d="M38.0516 27.8945C39.7804 27.7691 41.5555 29.698 40.5372 31.3614C40.0394 32.1749 39.3252 32.8087 38.6675 33.4871L33.2186 39.1102C30.7785 41.6529 29.5092 40.0383 27.537 38.082C26.6215 37.1068 24.9811 35.9547 24.964 34.4977C24.948 33.1262 26.0853 31.8625 27.4803 31.8672C28.7907 31.8715 30.1226 33.6104 31.0021 34.4771C32.2028 33.0459 33.5719 31.7835 34.8633 30.4415C35.8519 29.4143 36.5403 28.1203 38.0516 27.8945Z" fill="url(#paint0_linear_203_751)"/>
<path d="M38.0517 28.545C39.2097 28.4536 40.696 29.9687 39.8904 31.0733C38.6588 32.7618 35.5648 35.5865 34.0136 37.1881C30.6157 40.6959 30.9171 40.4712 27.5371 36.9877C26.9393 36.4138 25.7451 35.4799 25.6499 34.608C25.5514 33.7076 26.4664 32.552 27.3838 32.4951C28.4926 32.4263 30.0329 34.7009 31.0022 35.5306C32.3896 34.1736 33.9563 32.4165 35.302 30.98C36.1301 30.096 36.8853 28.9874 38.0517 28.545Z" fill="#0B70BC"/>
<path d="M30.1961 67.1007C33.035 66.5746 34.8652 68.276 36.607 70.205C36.9157 69.9737 38.1653 68.668 38.3467 68.6225C39.846 68.2463 37.1556 70.712 36.9888 70.88C38.1846 74.0494 37.3652 77.5372 34.3238 79.3148C30.1342 81.3804 25.1174 79.2453 24.4806 74.4934C23.9988 70.8987 26.5866 67.5502 30.1961 67.1007Z" fill="#040E2F"/>
<path d="M33.8076 70.8809C34.0241 71.0157 34.9321 71.8812 35.0361 72.0785C34.8457 72.473 31.4619 75.8501 30.7568 76.6374L28.8397 74.7973C28.3923 74.3935 27.9267 73.9948 27.5371 73.5335C27.7668 73.0366 27.9929 72.7713 28.4658 72.4801C29.1993 73.0005 29.9354 73.7021 30.493 74.4028C31.3232 73.3399 32.7826 71.7443 33.8076 70.8809Z" fill="#FDBD00"/>
<path d="M30.3697 67.7687C32.7944 67.63 34.6748 68.8288 36.1013 70.7534C35.8561 71.0689 35.6347 71.3975 35.4131 71.7296C34.9536 70.9807 34.3814 70.4877 33.6536 70.0037C32.5558 70.9181 31.5838 72.4552 30.493 73.2393C29.7289 72.8495 29.0778 72.0837 28.4658 71.493C27.6511 72.0325 27.0687 72.7308 26.5193 73.5322C27.6413 75.0001 29.463 76.1523 30.7569 77.5126C31.846 76.5705 32.8155 75.4448 33.8076 74.4015C34.6384 73.5657 35.4803 72.3477 36.4348 71.7296C38.7043 75.7026 33.0926 81.8503 27.8337 78.4831C23.306 75.5841 24.6952 68.9019 30.3697 67.7687Z" fill="#FFFEFA"/>
<path d="M30.1956 47.9054C32.402 47.4786 34.9869 48.7088 36.2855 50.4449C36.55 50.192 37.7255 48.8351 38.0996 49.2082C38.0966 49.9228 37.1307 50.5554 36.8086 51.1733C38.2309 54.8253 37.7188 58.7163 33.8074 60.453C31.5517 61.5024 28.7039 61.0886 26.7403 59.607C22.1572 56.149 24.1579 48.6316 30.1956 47.9054Z" fill="#040E2F"/>
<path d="M35.0728 51.1727C35.3007 51.1225 35.4756 51.1381 35.7044 51.1727C34.5778 53.55 32.2912 55.2691 30.7568 57.371C29.6569 56.2784 28.6677 55.1058 27.5371 54.0089C27.8684 53.6384 28.2446 53.3288 28.6238 53.0095C29.274 53.5445 29.8982 54.107 30.493 54.7038C31.5787 53.7922 33.0763 52.4345 34.0597 51.4363L34.8128 51.9703C34.9223 51.7038 35.0188 51.4572 35.0728 51.1727Z" fill="#FDBD00"/>
<path d="M36.2853 51.9714C39.7931 59.0518 28.8244 63.927 25.5148 56.9789C23.1803 52.0779 28.253 47.0605 33.2775 49.0117C33.9394 49.2689 36.1661 50.2067 35.704 51.1738C35.4753 51.1392 35.3004 51.1236 35.0725 51.1738C34.7266 50.9473 34.3597 50.731 34.0593 50.4454C32.8015 51.4472 31.883 52.8638 30.4926 53.7305C28.1867 51.6328 28.7648 51.9054 26.7226 53.8575C27.0606 54.5292 30.0596 57.7136 30.7565 58.2876C32.0098 56.8763 33.3132 55.5054 34.5466 54.0756C35.1846 53.3358 35.5301 52.6515 36.2853 51.9714Z" fill="#FFFEFA"/>
</g>
<defs>
<linearGradient id="paint0_linear_203_751" x1="32.6468" y1="28.2428" x2="33.2487" y2="40.1576" gradientUnits="userSpaceOnUse">
<stop/>
<stop offset="1" stop-color="#01051A"/>
</linearGradient>
<clipPath id="clip0_203_751">
<rect width="104" height="104" fill="white"/>
</clipPath>
</defs>
</svg>
