<svg width="74" height="74" viewBox="0 0 74 74" fill="none" xmlns="http://www.w3.org/2000/svg">
<g clip-path="url(#clip0_419_31604)">
<path d="M36.3474 0.293342C37.9506 0.233642 39.5746 0.424879 41.1631 0.616981C56.9092 2.52109 70.0919 14.2614 73.1813 30.0053C75.3988 41.3066 72.1573 52.605 64.5077 61.2545C63.7534 62.1074 62.8924 62.8763 62.0853 63.6802C55.8244 69.916 46.4526 73.7251 37.5919 73.7072C19.1792 73.8257 3.93941 61.2759 0.698453 43.1474C0.506887 42.076 0.253066 40.9829 0.178368 39.897C-0.0185457 37.0346 0.119404 34.7473 0.528954 31.9507C2.90406 15.7314 15.2461 3.5445 31.1785 0.849672C32.8504 0.566875 34.6545 0.409449 36.3474 0.293342Z" fill="#FFFEFA"/>
<path d="M34.0083 35.0752C34.1196 30.4717 37.1192 26.9977 41.7301 26.9895C42.1472 26.9888 42.4175 26.9251 42.5119 27.3898L42.4776 27.9206C38.7505 27.9116 35.7819 29.4088 35.0371 33.4883C34.968 33.8659 35.0618 36.0239 34.1677 35.4037C34.0342 35.311 34.0417 35.2231 34.0083 35.0752Z" fill="#05304B"/>
<path d="M27.081 34.1029C27.0107 27.118 33.0819 21.1205 39.9772 20.2031C41.0077 20.0659 43.1676 19.4842 42.9236 20.8868C42.6139 21.0508 42.2184 21.022 41.8749 21.0262C35.0328 21.1093 28.9807 25.9664 28.0754 32.7567C28.0035 33.2966 28.1502 34.8537 27.4866 35.0664C27.0568 34.9483 27.0618 34.4559 27.081 34.1029Z" fill="#05304B"/>
<path d="M21.1091 33.7124C21.0531 33.1536 21.1532 32.5363 21.2244 31.9798C22.4642 22.2964 31.0835 14.4895 41.0203 14.0911C42.0563 14.0497 43.6925 13.6044 43.2666 14.981C42.3187 15.0369 41.3686 14.9542 40.4144 15.0261C30.8961 15.7427 23.0291 23.3295 22.042 32.6771C21.9719 33.3404 21.9704 34.0157 21.7863 34.6619C20.9948 34.7732 21.0842 34.399 21.1091 33.7124Z" fill="#05304B"/>
<path d="M53.2169 36C58.7336 40.7477 49.9798 51.3448 46.7886 55.0932C43.9487 58.4288 33.8694 68.5615 29 67.9756C29.9621 67.2911 31.5187 66.6749 32.6889 65.8912C36.7633 63.1622 40.6452 59.7709 43.9732 56.1303C47.419 52.3609 55.6699 43.0753 53.7541 37.3139C53.6013 36.8544 53.1907 36.5178 53.2169 36Z" fill="#0B70BC"/>
<path d="M44.1818 45.3233C42.6806 43.1265 38.821 40.8734 38.7847 38.2611C38.7529 35.9608 40.7457 34.4994 42.1875 33.0336C45.7461 29.4153 46.2423 28.6544 50.4563 32.8436L53.174 35.5381C53.1478 36.0631 53.5603 36.4045 53.7139 36.8704C55.6387 42.7123 47.3487 52.1279 43.8865 55.95C40.5427 59.6415 36.6425 63.0802 32.5487 65.8474C31.373 66.642 29.809 67.2669 28.8423 67.961C26.0544 68.2158 25.5139 67.2049 23.5243 65.4462C22.0585 64.1503 19.0613 62.089 19.002 60.001C18.9375 57.7287 20.4771 56.5522 21.8879 55.1171C23.2122 53.7699 24.57 51.7557 26.6258 51.7253C28.8005 51.6933 31.1828 55.0146 32.7333 56.6094C33.3541 56.0529 34.1237 55.6286 34.7938 55.1278C37.7448 52.9229 40.2743 50.0253 42.662 47.2209C43.1708 46.6236 43.5968 45.9435 44.133 45.3744L44.1818 45.3233Z" fill="#040E2F"/>
<path d="M41.1455 41C40.2894 40.2175 39.6857 38.7085 40.1754 37.5184C40.6732 36.3089 43.8312 33.0234 44.8321 31.9459C46.261 30.4073 47.6937 30.8935 49 32.3449L48.9205 32.3361C45.9603 31.9829 46.423 32.0572 44.3802 34.2853C43.2319 35.5377 41.0992 37.3582 40.8712 39.2344C40.7687 40.0766 41.1323 40.4749 41.1455 41Z" fill="#FFFEFA"/>
<path d="M25.4657 65C24.6023 64.4441 21.0993 61.346 20.5473 60.6134C18.6889 58.1467 22.03 55.6913 23.6233 54.1601C25.3538 52.4967 26.6377 50.9625 29 52.9136L28.9071 52.9176C26.0154 53.0228 26.1557 53.189 23.9843 55.3411C22.8548 56.4604 21.2296 57.5878 21.2819 59.3316C21.3673 62.1876 25.4255 64.1516 25.4657 65Z" fill="#FFFEFA"/>
<path d="M40.6396 40.3585C40.6263 39.861 40.2626 39.4836 40.3652 38.6857C40.5933 36.9082 42.7269 35.1835 43.8757 33.9969C45.9195 31.886 45.4566 31.8157 48.4182 32.1503L48.4977 32.1586C51.3499 34.5876 53.9164 37.0358 52.6825 41.1463C50.2773 49.1577 38.389 60.5998 31.809 65.056C29.4348 66.664 27.7021 68.0599 25.2041 65.874C25.1339 65.8126 25.1575 65.8387 25.1108 65.7626C25.0714 64.8978 21.0851 62.8958 21.0012 59.9847C20.9498 58.2073 22.5462 57.0581 23.6557 55.9173C25.7886 53.7236 25.6507 53.5542 28.4913 53.447L28.5825 53.4429L28.6282 53.4836C29.5643 54.3269 32.4033 57.672 33.274 57.9322C33.4847 57.8612 33.4953 57.6732 33.5408 57.4727C33.4041 57.4272 33.2819 57.3578 33.154 57.2913C33.6738 56.7564 34.341 56.3945 34.926 55.9407C38.7803 52.9513 42.0735 49.1544 45.026 45.2593C45.1639 44.6502 41.2348 41.0748 40.6396 40.3585Z" fill="#0B70BC"/>
<path d="M45.268 45C45.4551 45.2911 45.7473 45.5094 46 45.7405C44.8578 48.4362 38.5958 54.5881 36.342 56.3227C34.9447 57.398 36.2278 57.2908 34.3852 58C34.0605 57.8499 33.7338 57.6804 33.3997 57.5552C33.2584 57.5084 33.1321 57.437 33 57.3687C33.5371 56.8189 34.2265 56.4468 34.8311 55.9803C38.8139 52.9072 42.217 49.0041 45.268 45Z" fill="#FFFEFA"/>
</g>
<defs>
<clipPath id="clip0_419_31604">
<rect width="74" height="74" fill="white"/>
</clipPath>
</defs>
</svg>
