<svg width="66" height="22" viewBox="0 0 66 22" fill="none" xmlns="http://www.w3.org/2000/svg">
<g clip-path="url(#clip0_610_1266)">
<mask id="mask0_610_1266" style="mask-type:alpha" maskUnits="userSpaceOnUse" x="0" y="3" width="24" height="16">
<path d="M21.7143 3H2.28571C1.02335 3 0 3.95513 0 5.13333V16.8667C0 18.0449 1.02335 19 2.28571 19H21.7143C22.9767 19 24 18.0449 24 16.8667V5.13333C24 3.95513 22.9767 3 21.7143 3Z" fill="white"/>
</mask>
<g mask="url(#mask0_610_1266)">
<path d="M21.7143 3H2.28571C1.02335 3 0 3.95513 0 5.13333V16.8667C0 18.0449 1.02335 19 2.28571 19H21.7143C22.9767 19 24 18.0449 24 16.8667V5.13333C24 3.95513 22.9767 3 21.7143 3Z" fill="#FDBD00"/>
<path fill-rule="evenodd" clip-rule="evenodd" d="M0 3H24V11.5333H0V3Z" fill="#0B70BC"/>
<path d="M21.7141 3.5332H2.28557C1.3388 3.5332 0.571289 4.24955 0.571289 5.1332V16.8665C0.571289 17.7502 1.3388 18.4665 2.28557 18.4665H21.7141C22.6609 18.4665 23.4284 17.7502 23.4284 16.8665V5.1332C23.4284 4.24955 22.6609 3.5332 21.7141 3.5332Z" stroke="black" stroke-opacity="0.1" stroke-width="1.14286"/>
</g>
</g>
<path d="M32.112 14.896V11.744H28.96V10.736H32.112V7.584H33.12V10.736H36.264V11.744H33.12V14.896H32.112ZM41.4348 17.232C40.8641 17.232 40.3388 17.1307 39.8588 16.928C39.3788 16.7253 38.9654 16.4373 38.6188 16.064C38.2721 15.6853 38.0188 15.2347 37.8588 14.712L38.9788 14.376C39.1708 14.9467 39.4854 15.3787 39.9228 15.672C40.3654 15.9653 40.8641 16.1067 41.4188 16.096C41.9308 16.0853 42.3708 15.9707 42.7388 15.752C43.1121 15.5333 43.3974 15.2293 43.5948 14.84C43.7921 14.4507 43.8908 14 43.8908 13.488C43.8908 12.704 43.6614 12.0747 43.2028 11.6C42.7494 11.12 42.1494 10.88 41.4028 10.88C41.1948 10.88 40.9761 10.9093 40.7468 10.968C40.5174 11.0213 40.3041 11.0987 40.1068 11.2L39.5148 10.264L43.9948 6.128L44.1868 6.608H38.3148V5.48H44.9708V6.624L41.0668 10.352L41.0508 9.888C41.8508 9.78667 42.5548 9.87733 43.1628 10.16C43.7708 10.4427 44.2454 10.8747 44.5868 11.456C44.9334 12.032 45.1068 12.7093 45.1068 13.488C45.1068 14.224 44.9468 14.8747 44.6268 15.44C44.3121 16 43.8774 16.44 43.3228 16.76C42.7681 17.0747 42.1388 17.232 41.4348 17.232ZM50.6945 17.24C49.9745 17.24 49.3372 17.096 48.7825 16.808C48.2332 16.52 47.8012 16.1173 47.4865 15.6C47.1772 15.0773 47.0225 14.4667 47.0225 13.768C47.0225 13.0533 47.1958 12.4187 47.5425 11.864C47.8892 11.304 48.4172 10.88 49.1265 10.592L49.1105 11.056C48.5185 10.8373 48.0678 10.48 47.7585 9.984C47.4492 9.488 47.2945 8.93867 47.2945 8.336C47.2945 7.696 47.4412 7.14667 47.7345 6.688C48.0278 6.224 48.4278 5.86666 48.9345 5.616C49.4465 5.36533 50.0332 5.24 50.6945 5.24C51.3558 5.24 51.9425 5.36533 52.4545 5.616C52.9665 5.86666 53.3692 6.224 53.6625 6.688C53.9558 7.14667 54.1025 7.696 54.1025 8.336C54.1025 8.93867 53.9532 9.48533 53.6545 9.976C53.3612 10.4667 52.9105 10.8267 52.3025 11.056L52.2625 10.592C52.9718 10.8747 53.5025 11.296 53.8545 11.856C54.2118 12.416 54.3905 13.0533 54.3905 13.768C54.3905 14.4667 54.2332 15.0773 53.9185 15.6C53.6038 16.1173 53.1692 16.52 52.6145 16.808C52.0598 17.096 51.4198 17.24 50.6945 17.24ZM50.6945 16.112C51.4198 16.112 52.0092 15.912 52.4625 15.512C52.9158 15.1067 53.1425 14.5253 53.1425 13.768C53.1425 13 52.9185 12.4187 52.4705 12.024C52.0225 11.624 51.4305 11.424 50.6945 11.424C49.9585 11.424 49.3692 11.624 48.9265 12.024C48.4838 12.4187 48.2625 13 48.2625 13.768C48.2625 14.5253 48.4865 15.1067 48.9345 15.512C49.3825 15.912 49.9692 16.112 50.6945 16.112ZM50.6945 10.288C51.3345 10.288 51.8545 10.1253 52.2545 9.8C52.6545 9.46933 52.8545 8.98133 52.8545 8.336C52.8545 7.69066 52.6545 7.208 52.2545 6.888C51.8545 6.56267 51.3345 6.4 50.6945 6.4C50.0545 6.4 49.5345 6.56267 49.1345 6.888C48.7398 7.208 48.5425 7.69066 48.5425 8.336C48.5425 8.98133 48.7398 9.46933 49.1345 9.8C49.5345 10.1253 50.0545 10.288 50.6945 10.288ZM60.2238 17.24C59.5144 17.24 58.8744 17.0747 58.3038 16.744C57.7384 16.4133 57.2904 15.9653 56.9598 15.4C56.6291 14.8293 56.4638 14.1893 56.4638 13.48V9C56.4638 8.29067 56.6291 7.65333 56.9598 7.088C57.2904 6.51733 57.7384 6.06666 58.3038 5.736C58.8744 5.40533 59.5144 5.24 60.2238 5.24C60.9331 5.24 61.5704 5.40533 62.1358 5.736C62.7064 6.06666 63.1571 6.51733 63.4878 7.088C63.8184 7.65333 63.9838 8.29067 63.9838 9V13.48C63.9838 14.1893 63.8184 14.8293 63.4878 15.4C63.1571 15.9653 62.7064 16.4133 62.1358 16.744C61.5704 17.0747 60.9331 17.24 60.2238 17.24ZM60.2238 16.104C60.6984 16.104 61.1304 15.9893 61.5198 15.76C61.9091 15.5253 62.2184 15.2133 62.4478 14.824C62.6771 14.4347 62.7918 14.0053 62.7918 13.536V8.944C62.7918 8.46933 62.6771 8.03733 62.4478 7.648C62.2184 7.25866 61.9091 6.94933 61.5198 6.72C61.1304 6.48533 60.6984 6.368 60.2238 6.368C59.7491 6.368 59.3171 6.48533 58.9278 6.72C58.5384 6.94933 58.2291 7.25866 57.9998 7.648C57.7704 8.03733 57.6558 8.46933 57.6558 8.944V13.536C57.6558 14.0053 57.7704 14.4347 57.9998 14.824C58.2291 15.2133 58.5384 15.5253 58.9278 15.76C59.3171 15.9893 59.7491 16.104 60.2238 16.104Z" fill="#040E2F"/>
<defs>
<clipPath id="clip0_610_1266">
<rect width="24" height="16" fill="white" transform="translate(0 3)"/>
</clipPath>
</defs>
</svg>
