<svg width="62" height="44" viewBox="0 0 62 44" fill="none" xmlns="http://www.w3.org/2000/svg">
<path d="M31.8556 13.5895C31.8556 14.8844 31.5104 15.4373 30.3291 15.4373H1.55294C0.371626 15.4373 0 14.8844 0 13.5895V13.444C0 12.149 0.371626 11.0723 1.55294 11.0723H30.3291C31.5104 11.0723 31.8556 12.1635 31.8556 13.444V13.5895Z" fill="#C8C8C8"/>
<path d="M31.8556 30.5119C31.8556 31.8068 31.5104 32.8981 30.3291 32.8981H1.55294C0.371626 32.8981 0 31.7923 0 30.5119V30.3663C0 29.0714 0.371626 28.533 1.55294 28.533H30.3291C31.5104 28.533 31.8556 29.0714 31.8556 30.3663V30.5119Z" fill="#C8C8C8"/>
<path d="M23.5471 0.087298V4.69973H37.4175L48.6068 16.2963L61.2826 17.3148L61.1632 27.0198L48.4741 28.504L36.8601 39.9114H23.0162V44L16.8574 43.9127V0L23.5471 0.087298Z" fill="#05304B"/>
</svg>
