<svg width="162" height="35" viewBox="0 0 162 35" fill="none" xmlns="http://www.w3.org/2000/svg">
<path d="M25.2356 10.837C25.2356 11.8628 24.9622 12.3009 24.0264 12.3009H1.23022C0.294397 12.3009 0 11.8628 0 10.837V10.7217C0 9.69586 0.294397 8.8429 1.23022 8.8429H24.0264C24.9622 8.8429 25.2356 9.70739 25.2356 10.7217V10.837Z" fill="#C8C8C8"/>
<path d="M25.2356 24.243C25.2356 25.2688 24.9622 26.1333 24.0264 26.1333H1.23022C0.294397 26.1333 0 25.2573 0 24.243V24.1277C0 23.1018 0.294397 22.6754 1.23022 22.6754H24.0264C24.9622 22.6754 25.2356 23.1018 25.2356 24.1277V24.243Z" fill="#C8C8C8"/>
<path d="M162.001 15.0719H40.001V19.0719H162.001V15.0719Z" fill="#05304B"/>
<path d="M18.6559 0.141025V3.79493H29.6439L38.5079 12.9816L48.5495 13.7884L48.4549 21.4767L38.4028 22.6523L29.2023 31.6892H18.2353V34.9281L13.3564 34.859V0.0718689L18.6559 0.141025Z" fill="#05304B"/>
</svg>
