<svg width="114" height="114" viewBox="0 0 114 114" fill="none" xmlns="http://www.w3.org/2000/svg">
<g opacity="0.16">
<path d="M95.4581 18.7005C103.147 28.0511 107.763 39.994 107.763 53.0145C107.763 82.9763 83.3352 107.265 53.202 107.265C39.1114 107.265 26.2711 101.952 16.5889 93.2341C26.5934 105.402 41.8043 113.171 58.8424 113.171C88.9756 113.171 113.403 88.8819 113.403 58.9201C113.403 42.9687 106.479 28.6274 95.4555 18.7005H95.4581Z" fill="#0B70BC"/>
</g>
<path d="M55.0346 108.852C85.1678 108.852 109.596 84.5634 109.596 54.6016C109.596 24.6397 85.1678 0.350876 55.0346 0.350876C24.9014 0.350876 0.473633 24.6397 0.473633 54.6016C0.473633 84.5634 24.9014 108.852 55.0346 108.852Z" fill="#F2F2F2"/>
<path d="M75.0771 44.9334C75.0771 44.5896 75.3657 44.3028 75.7114 44.3183C82.55 44.5819 87.9954 49.084 87.9954 54.6019C87.9954 60.1197 82.5526 64.6219 75.7114 64.8855C75.3657 64.8984 75.0771 64.6141 75.0771 64.2704V44.9334Z" fill="#51626F"/>
<path d="M34.9916 44.9334C34.9916 44.5896 34.703 44.3028 34.3573 44.3183C27.5187 44.5819 22.0732 49.084 22.0732 54.6019C22.0732 60.1197 27.5161 64.6219 34.3573 64.8855C34.703 64.8984 34.9916 64.6141 34.9916 64.2704V44.9334Z" fill="#51626F"/>
<path d="M50.3828 82.3661H59.6881V96.5782C59.6881 97.2191 59.1631 97.7412 58.5185 97.7412H51.5525C50.9079 97.7412 50.3828 97.2191 50.3828 96.5782V82.3661Z" fill="#51626F"/>
</svg>
