<svg width="104" height="104" viewBox="0 0 104 104" fill="none" xmlns="http://www.w3.org/2000/svg">
<path d="M102.325 13.3116L102.399 13.3041C102.691 13.2762 103.093 13.2391 103.32 13.4679C103.694 13.8458 103.7 17.5731 103.217 18.0744C102.924 18.1695 102.646 18.2079 102.407 17.9772C102.249 17.563 102.288 13.937 102.325 13.3116Z" fill="#0B70BC"/>
<path d="M102.65 20.7346C102.944 20.7057 103.223 20.7035 103.457 20.9145C103.626 21.3624 103.798 24.871 103.218 25.427C102.855 25.4946 102.569 25.2218 102.326 24.9858C102.278 24.2696 102.021 21.0112 102.65 20.7346Z" fill="#0B70BC"/>
<path d="M94.9671 18.9406C96.1369 18.9387 101.652 18.1208 100.437 20.0583C100.063 20.1357 95.2955 20.0791 95.0002 19.9693C94.5661 19.8077 94.8277 19.2118 94.9671 18.9406Z" fill="#0B70BC"/>
<path d="M15.8994 86.486C15.2686 85.3629 14.2873 84.4505 13.4719 83.4635C7.78141 76.5757 3.88547 66.6244 2.97921 57.8592C1.3493 42.095 6.92079 26.2054 18.7648 15.479C35.9012 -0.0403528 61.2278 -1.46131 80.3699 11.665C88.0875 16.9571 94.6246 25.0165 98.018 33.7629C101.934 43.8557 102.482 54.3211 99.7143 64.7557C96.4995 76.877 88.1655 87.8877 77.2828 94.1936C60.885 103.695 40.335 103.275 24.4673 92.8263C23.2569 92.0293 19.5307 89.3919 18.8405 88.3671C17.4061 88.6095 16.5186 87.671 15.8994 86.486Z" fill="#D7E8F8"/>
<path d="M18.2276 33.5488C19.2593 33.5458 19.714 35.7647 20.0991 36.6479C20.7693 36.7206 22.901 36.6548 23.3343 36.8728C24.0146 37.7777 21.5442 39.1506 21.0591 39.7265C21.259 40.8207 21.625 41.8485 21.8952 42.9228C20.7538 43.9407 19.9341 42.4703 18.5579 41.7971C18.1309 41.5662 16.2556 43.2759 15.4851 43.3374C14.4984 43.416 15.6315 40.4439 15.7681 39.7265C15.5671 39.5152 12.1777 37.1177 13.6938 36.8663C14.6775 36.7032 15.9067 36.8108 17.0098 36.6479C17.4517 35.6433 17.5832 34.4556 18.2276 33.5488Z" fill="#0B70BC"/>
<path d="M92.409 37.5234C93.4018 37.5608 93.9218 39.9693 94.4183 40.8726C95.5834 41.1122 96.9575 40.9918 98.1485 40.99C98.2616 41.9857 97.8423 41.9861 97.1042 42.5191C96.4627 42.982 95.8097 43.4496 95.2011 43.9544C95.493 44.9428 96.6315 47.2635 95.6033 47.7459C94.6517 47.2084 93.866 46.4494 92.8605 45.9903C92.7719 45.8936 92.6905 45.789 92.6066 45.688C91.9324 46.026 89.9717 47.4942 89.4742 47.5834C88.6367 47.7339 89.8222 44.4398 89.9363 43.9544C89.1498 43.2384 86.6475 42.1222 87.1527 41.1248C87.3613 40.9333 90.4533 40.8864 90.9611 40.8726C91.2672 40.1565 91.9954 38.017 92.409 37.5234Z" fill="#040E2F"/>
<path d="M92.6066 39.3477C92.8688 39.6406 93.3545 41.2546 93.6771 41.7969C94.5139 41.8731 95.3425 41.9154 96.1828 41.9083C95.5416 42.4681 94.844 42.9547 94.1873 43.4955C94.411 44.3214 94.5249 45.1704 94.7774 45.9913C94.0644 45.5976 93.3846 45.1213 92.6994 44.6803C92.1356 44.453 90.8741 45.6683 90.4173 45.9913C90.6481 45.1676 90.8567 44.346 90.9611 43.4955C90.3934 42.9054 89.6651 42.453 89.0479 41.9083C89.9237 41.9241 90.8266 41.9318 91.6933 41.7969C92.0848 41.0482 92.3255 40.147 92.6066 39.3477Z" fill="#FFFEFA"/>
<path d="M77.8729 21.0059C78.4833 21.0772 79.5639 24.3194 79.8615 24.9857C80.6677 24.9828 83.8937 24.6416 84.3008 25.4196C84.2315 26.1061 81.4462 27.8433 80.8442 28.5292C82.2301 33.2565 83.3548 34.4767 78.0417 30.7207C77.337 31.048 74.2018 33.4844 73.8611 32.9321C73.5831 32.4814 74.7196 29.2332 74.932 28.5292C74.3511 27.98 71.2177 26.0119 71.6371 25.1833C72.0887 24.8415 75.2257 24.9841 76.0179 24.9857C76.3385 23.8711 77.0222 21.7672 77.8729 21.0059Z" fill="#040E2F"/>
<path d="M77.8731 22.9863C78.2361 23.3619 78.8152 25.2445 79.1014 25.8469C80.0829 26.036 81.0959 25.9215 82.0849 26.1246C81.3319 26.7043 80.3445 27.384 79.8617 28.2133C79.869 29.2509 80.2756 30.3403 80.6033 31.3175C79.8416 30.6902 78.9622 30.0147 78.0419 29.6517C77.0994 29.9285 76.0352 30.7739 75.1981 31.3175C75.4557 30.2805 75.7021 29.234 76.0181 28.2133C75.4163 27.4086 74.4419 26.7545 73.6572 26.1246C77.3864 25.5636 76.3401 26.3554 77.8731 22.9863Z" fill="#FFFEFA"/>
<path d="M33.6633 14.4746C34.4894 14.5063 36.5588 21.3323 36.8794 22.4871C37.6519 22.4119 44.2782 22.6813 44.5782 22.8753C45.7285 23.6179 40.0416 27.213 38.9785 28.2881L38.9232 28.3448C38.9242 28.3641 38.9251 28.3836 38.9265 28.4029L38.9336 28.4996C39.0685 30.5065 40.2612 33.6374 40.6457 35.8395C40.4621 36.0189 40.2866 36.1988 40.0148 36.2084C39.5182 36.2257 34.4372 32.684 33.8447 32.1388C33.7281 32.0545 33.4573 32.2921 33.3525 32.3655C32.1088 33.2355 30.8462 34.0675 29.5843 34.9108C29.1237 35.219 26.5499 37.3751 26.7471 35.5023C26.948 33.5966 28.185 30.4427 28.6317 28.3448L24.8393 25.1572C24.4301 24.8157 22.2668 23.5232 23.0762 22.8657C23.3842 22.6155 29.8163 22.4524 30.6128 22.4871L32.2473 17.7561C32.475 17.0824 32.9824 14.7335 33.6633 14.4746Z" fill="#040E2F"/>
<path d="M33.6629 16.8887C34.5802 18.2972 35.478 21.7517 36.2578 23.4982C38.4727 23.5108 40.6888 23.7675 42.8986 23.7041C41.3134 25.1871 39.1686 26.4469 37.7479 27.9915C38.0847 30.2324 38.7414 32.4294 39.2911 34.6233C38.7036 34.2485 38.1385 33.8244 37.5619 33.4314L33.8443 30.9153C33.4254 30.8458 28.6554 34.2274 28.0865 34.6233C28.4852 32.4229 29.5063 30.1867 29.7856 27.9915C28.9498 26.919 25.974 24.7728 24.7715 23.7041C26.8889 23.7013 29.3406 23.3753 31.3322 23.4982C32.1579 21.5027 32.9765 18.984 33.6629 16.8887Z" fill="#FDBD00"/>
<path d="M38.2954 52.6101C40.7891 46.8613 46.618 38.3971 51.0102 34.3411C51.6429 33.7567 53.0355 32.7347 53.365 31.9805C54.8945 28.4803 52.0473 18.7659 55.6573 17.3277C56.6099 16.9482 57.6154 17.117 58.5289 17.5199C64.1686 20.0071 65.2801 29.398 64.1209 34.597C63.3293 38.1466 61.5227 42.2343 60.5268 45.9907L78.9588 45.9891C79.8962 45.9889 80.8767 45.923 81.8019 46.092C85.5467 46.7762 86.631 51.1943 84.015 53.9587C88.1664 56.397 87.6487 61.5602 82.8781 62.5202C85.1494 65.1734 84.2343 68.9465 80.8442 70.1057C81.6674 71.4658 82.2413 72.7553 81.8448 74.3762C81.2376 76.8588 79.2612 78.0649 76.8065 77.7964C78.5893 80.6438 77.403 84.3433 73.9853 84.7291C72.9438 84.8465 71.8214 84.765 70.7706 84.7652H49.4083C47.5804 84.7644 45.6938 84.7888 43.9108 84.3332C40.8763 83.5574 38.8286 81.7064 35.5036 81.3531L35.5081 84.6484C35.513 86.6518 35.4364 88.4022 32.8449 88.3904L23.3799 88.365C21.9282 88.3644 20.2714 88.2817 18.8409 88.3666C17.4064 88.609 16.519 87.6705 15.8997 86.4855L15.9056 86.3981C15.9621 85.5026 15.9005 84.5853 15.8994 83.6866L15.8977 54.736C15.8924 50.0887 15.9475 49.8982 20.256 49.8988L30.5827 49.9033C32.7651 49.9035 35.8353 49.2868 35.5036 52.6101H38.2954Z" fill="#040E2F"/>
<path d="M70.5769 47.0287C73.4806 46.8255 77.7251 46.9476 80.6552 47.035C85.1753 47.1694 85.4707 52.8559 82.2398 53.7216C81.851 53.8258 81.1417 53.7409 80.863 53.9969C80.2694 55.1336 82.3462 54.8486 82.8717 54.9077C85.1408 55.163 86.4526 57.6911 85.3563 59.7345C83.8008 62.6348 79.4141 60.6086 80.1252 62.1919C80.2654 62.5037 82.1246 62.7678 82.8051 64.4397C83.5339 66.2301 82.6029 68.4823 80.6462 68.9513C80.108 69.0803 76.4468 69.0086 78.7562 70.1006C80.9361 71.1311 81.0109 72.7343 80.603 74.9263C79.4494 76.3418 78.5886 76.7178 76.7024 76.7288H71.2028C70.1037 76.7324 68.5132 76.862 67.4724 76.6319C64.586 75.9939 64.0532 72.0447 66.446 70.478C66.903 70.1788 67.4019 69.9533 67.7858 69.5534C66.9749 68.6389 65.9963 68.3948 65.5431 67.1193C64.1913 63.3142 68.3153 62.5474 68.5861 61.9785C68.5636 61.5978 67.1912 60.8682 66.8593 60.4761C65.4488 58.8107 65.9959 55.9528 68.0253 55.0553C69.7185 54.3066 69.738 54.5934 68.1868 53.4068C65.5855 51.417 67.1474 47.4296 70.5769 47.0287Z" fill="#FFFEFA"/>
<path d="M18.2279 50.9911C18.7062 50.9554 19.2112 50.9889 19.692 50.9889L22.8006 50.9895C24.2738 50.9897 33.1807 50.8457 34.0281 51.1628C34.709 51.4175 34.4356 52.8109 34.4356 53.3634L34.4384 83.1033C34.4388 84.5325 35.0086 86.7795 33.4114 87.2384C32.8112 87.3113 32.1978 87.2463 31.5947 87.2408L22.2479 87.2392C21.0947 87.2394 19.9335 87.2678 18.7812 87.228C16.2972 87.1427 17.0111 84.7393 17.0112 82.7745L17.0101 60.6371C17.0097 58.0022 16.9503 55.3524 17.0167 52.7189C17.0436 51.6533 17.0466 51.1256 18.2279 50.9911Z" fill="#0B70BC"/>
<path d="M29.9669 80.7027C32.7331 80.4853 33.4379 84.128 30.7532 84.9383C28.1457 85.5789 26.8293 81.6237 29.9669 80.7027Z" fill="#040E2F"/>
<path d="M29.9668 81.9178C31.384 81.8014 31.6042 83.0494 30.613 83.7967C29.2768 84.0922 28.8958 82.4701 29.9668 81.9178Z" fill="#C8C8C8"/>
<path d="M56.4555 18.2384C58.3029 18.04 59.9303 19.5424 60.9183 20.9504C63.2411 24.2606 63.9087 30.1148 63.1616 34.0067C62.8929 35.4079 62.3299 36.6817 61.8655 38.0205C61.0337 40.419 59.5491 44.4705 59.1314 46.9525L59.1191 47.0286H67.7852C65.3103 49.0136 65.2991 51.9317 67.3517 54.2154C64.3812 55.7082 64.3585 59.4666 66.5703 61.7357C63.7694 64.2248 63.3516 66.6714 65.9136 69.5534C62.925 71.6915 63.2661 76.4946 66.6355 77.6317C67.6481 77.9733 68.8524 77.8059 69.9068 77.8007L73.1266 77.7901C74.0487 77.7883 75.0839 77.6416 75.8037 78.3467C77.3897 79.9004 76.456 82.9887 74.3492 83.5422C73.517 83.7607 72.4885 83.676 71.6277 83.6767L68.396 83.6756L49.4448 83.6769C48.0152 83.6777 46.5899 83.6996 45.1731 83.4762C41.6032 82.9133 39.6371 80.6657 35.5029 80.3403V53.7301H38.9227C39.2416 53.2087 39.5012 52.6381 39.7803 52.094C43.0309 45.7587 46.8856 39.7513 52.08 34.842C54.2493 32.7916 54.6408 32.841 54.8425 29.8093C54.9924 27.5536 54.9347 25.2845 54.9326 23.025C54.931 21.3675 54.4326 18.8577 56.4555 18.2384Z" fill="#FFFEFA"/>
</svg>
